<?xml version="1.0" encoding="utf-8"?>
<!-- Generator: Adobe Illustrator 25.0.1, SVG Export Plug-In . SVG Version: 6.00 Build 0)  -->
<svg version="1.1" id="레이어_1" xmlns="http://www.w3.org/2000/svg" xmlns:xlink="http://www.w3.org/1999/xlink" x="0px"
	 y="0px" viewBox="0 0 740.91 693.18" style="enable-background:new 0 0 740.91 693.18;" xml:space="preserve">
<style type="text/css">
	.st0{fill:#EEB7BC;}
	.st1{fill:none;stroke:#C1797D;stroke-width:6.8509;stroke-linecap:round;stroke-linejoin:round;stroke-miterlimit:10;}
	.st2{fill:#C1797D;}
	.st3{fill:none;stroke:#C1797D;stroke-width:9.1345;stroke-linecap:round;stroke-linejoin:round;stroke-miterlimit:10;}
	.st4{fill:#424142;}
	.st5{fill:#7D7D7F;}
</style>
<path class="st0" d="M300.14,263.67c0,0-8.68-24.88,23.6-33.89c0,0,24.43-5.81,30.24,23.41c0,0,11.95-5.97,31.74,4.1
	c0,0,2.59-26.41,26.8-30.78c31.76-5.73,43.48,24.53,45.29,49.96c1.93,27.16,3.28,54.38,3.96,81.6c0.74,29.85,1.13,59.78-1.25,89.58
	c-0.38,4.76-0.83,9.51-1.37,14.25c-0.67,5.97-0.59,12.71-3.99,17.91c-3.08,4.7-8.82,8.16-14.47,8.5
	c-8.92,0.54-17.84,1.07-26.77,1.61c-19.33,1.16-38.11,2.72-57.38-0.24c-11.41-1.76-22.18-3.05-33.72-3.48
	c-7.71-0.29-14.38-1.37-21.76-3.6c-13.42-4.06-29.26-12.7-32.86-27.43c0,0-10.9-26.69,6.41-41.68c2.95-3.12,10.22-8.15,11.49-12.02
	c1.2-3.62-2.58-11.69-5.79-13.59c0,0-16.25-9.12-16.03-20.12c0,0-3.73-18.83,10.6-25.89c0,0,13.5-6.45,15.71-11.26
	c0,0,5.8-13.82,3.09-20.12c0,0-5.75-20.01,3.31-31.12C296.99,279.37,301.19,270.34,300.14,263.67z"/>
<path class="st1" d="M371.44,347.65c0,0-29.28-5.61-32.34,21.51c-0.41,3.59-1.21,6.08,0.27,9.76c1.47,3.65,4.45,6.51,7.55,8.81
	c6.1,4.52,15.7,3.85,16.89,12.39c0.67,4.8,1.38,11.09-0.37,15.73c-1.94,5.13-5.58,5.48-10.2,7.41
	c-10.2,4.27-19.96,11.99-21.15,23.73c0,0-4.24,14.8,5.64,32.32"/>
<circle class="st2" cx="328.31" cy="288.6" r="2.73"/>
<circle class="st2" cx="364.62" cy="288.67" r="2.73"/>
<path class="st3" d="M331.05,306.68"/>
<path class="st1" d="M326.93,305.06c0,0,1.17,12.48,17.41,13.42c0,0,14.84,1.39,16.38-11.08"/>
<ellipse transform="matrix(0.152 -0.9884 0.9884 0.152 -3.269 590.4276)" class="st2" cx="342.45" cy="297.12" rx="3.54" ry="5.45"/>
<g>
	<path class="st4" d="M197.5,239.6l-8.39,13.96c1.35,1.52,2.7,3,4.05,4.42c1.35,1.43,2.55,2.68,3.6,3.76
		c-0.19,0.73-0.41,1.47-0.67,2.22c-0.26,0.75-0.68,1.6-1.25,2.55c-1.26,2.09-2.56,3.45-3.92,4.09c-1.36,0.64-2.71,0.55-4.05-0.25
		c-0.65-0.39-1.22-0.86-1.7-1.41c-0.49-0.55-1.05-1.18-1.7-1.89c-1.05-1.08-2.31-2.49-3.79-4.22c-1.48-1.73-3.08-3.61-4.79-5.64
		c-1.71-2.03-3.46-4.13-5.24-6.3c-1.78-2.17-3.48-4.25-5.08-6.25c-1.6-2-3.08-3.82-4.42-5.47c-1.34-1.65-2.39-2.99-3.15-4.03
		c0.01-0.96,0.28-2.3,0.81-4.02c0.53-1.72,1.24-3.31,2.12-4.79c1.28-2.14,2.71-3.85,4.27-5.14c1.56-1.29,3.16-1.77,4.79-1.44
		c3,0.57,6.43,1.31,10.29,2.21c3.87,0.9,7.84,1.85,11.9,2.84c4.07,0.99,8.07,1.99,12,2.99s7.44,1.92,10.54,2.75
		c0.29,0.88,0.31,1.95,0.07,3.19c-0.24,1.24-0.79,2.58-1.65,4c-1.23,2.04-2.44,3.27-3.63,3.69c-1.19,0.41-2.65,0.37-4.35-0.14
		L197.5,239.6z M169.6,232.24c1.68,1.92,3.56,4.16,5.64,6.73c2.08,2.57,4.25,5.12,6.51,7.65l6.12-10.19
		c-3.4-0.94-6.68-1.8-9.84-2.57c-3.16-0.77-5.88-1.45-8.17-2.05L169.6,232.24z"/>
	<path class="st4" d="M224.44,223.52c-1.75,1.93-3.28,2.99-4.61,3.17c-1.33,0.18-2.83-0.49-4.52-2.01L182.8,195.3
		c0.33-0.52,0.81-1.26,1.46-2.21c0.64-0.95,1.35-1.86,2.13-2.72c1.67-1.85,3.17-2.9,4.5-3.16c1.33-0.26,2.87,0.41,4.63,2
		l32.51,29.38c-0.29,0.56-0.75,1.3-1.4,2.21C225.98,221.71,225.25,222.62,224.44,223.52z"/>
	<path class="st4" d="M231.99,151.63c0.59,0.23,1.26,0.6,2.01,1.12c0.75,0.52,1.43,1.18,2.05,2c1.08,1.41,1.57,2.71,1.46,3.88
		c-0.11,1.18-0.74,2.2-1.88,3.08l-14.64,11.23l6.46,8.42l14.97-11.48c0.63,0.27,1.31,0.63,2.04,1.09c0.73,0.46,1.43,1.11,2.09,1.97
		c1.08,1.41,1.55,2.71,1.4,3.88c-0.15,1.17-0.78,2.18-1.87,3.02l-12.34,9.46l10.99,14.33c-0.39,0.5-0.98,1.14-1.77,1.92
		c-0.8,0.78-1.68,1.54-2.65,2.28c-2.07,1.59-3.77,2.35-5.11,2.28c-1.34-0.06-2.7-0.99-4.08-2.79L208.64,178
		c-1.25-1.63-1.75-3.3-1.5-5.03c0.25-1.72,1.21-3.22,2.88-4.51L231.99,151.63z"/>
	<path class="st4" d="M278.32,128.43c0.53,0.35,1.1,0.86,1.72,1.53c0.61,0.67,1.14,1.47,1.57,2.4c0.75,1.62,0.94,2.99,0.58,4.11
		c-0.37,1.12-1.2,1.99-2.51,2.59l-16.74,7.76l4.46,9.63l17.12-7.94c0.55,0.4,1.14,0.9,1.75,1.51c0.62,0.61,1.15,1.4,1.61,2.38
		c0.75,1.62,0.92,2.98,0.52,4.09c-0.4,1.11-1.23,1.96-2.49,2.54l-14.1,6.54l7.6,16.39c-0.49,0.4-1.2,0.9-2.15,1.49
		c-0.95,0.59-1.98,1.14-3.08,1.65c-2.36,1.1-4.19,1.47-5.48,1.11c-1.29-0.35-2.42-1.56-3.37-3.62l-15.53-33.51
		c-0.86-1.86-0.98-3.61-0.36-5.23s1.88-2.88,3.8-3.77L278.32,128.43z"/>
	<path class="st4" d="M335.52,157.82c3.43-0.63,5.84-1.79,7.22-3.47c1.38-1.68,1.87-3.61,1.47-5.79c-0.35-1.91-1.26-3.34-2.73-4.28
		c-1.47-0.94-3.64-1.56-6.51-1.85l-6.47-0.71c-2.02-0.23-3.87-0.59-5.56-1.08c-1.69-0.48-3.18-1.15-4.46-1.98
		c-1.28-0.84-2.34-1.9-3.17-3.21c-0.83-1.3-1.42-2.88-1.76-4.74c-0.77-4.19,0.22-7.79,2.96-10.8c2.75-3,6.84-5,12.29-6
		c2.23-0.41,4.34-0.62,6.31-0.62c1.97,0,3.71,0.17,5.21,0.53c1.5,0.36,2.72,0.87,3.67,1.55c0.94,0.68,1.5,1.5,1.68,2.45
		c0.17,0.9,0.08,1.73-0.26,2.48c-0.34,0.75-0.8,1.4-1.38,1.94c-1.55-0.76-3.49-1.29-5.83-1.61c-2.34-0.31-4.84-0.22-7.51,0.27
		c-3,0.55-5.21,1.56-6.63,3.03c-1.42,1.47-1.95,3.19-1.59,5.15c0.29,1.59,1.1,2.78,2.43,3.55c1.33,0.77,3.36,1.29,6.12,1.55
		l4.99,0.48c4.82,0.49,8.71,1.65,11.67,3.5c2.96,1.85,4.8,4.76,5.54,8.74c0.39,2.12,0.33,4.15-0.19,6.09
		c-0.52,1.94-1.45,3.68-2.8,5.25c-1.35,1.56-3.14,2.91-5.39,4.04c-2.24,1.12-4.87,1.96-7.86,2.51c-2.51,0.46-4.84,0.67-6.98,0.62
		c-2.15-0.05-4.04-0.27-5.66-0.69c-1.63-0.41-2.93-1-3.91-1.75c-0.98-0.75-1.57-1.63-1.75-2.64c-0.19-1.06-0.03-2.02,0.48-2.89
		c0.52-0.86,1.18-1.56,1.98-2.09c1.52,0.93,3.51,1.72,5.97,2.36C329.55,158.37,332.35,158.4,335.52,157.82z"/>
	<path class="st4" d="M404.33,118.68c-0.09,0.91-0.42,1.7-1.01,2.35c-0.59,0.65-1.26,1.1-2.01,1.36c-1.35-1.05-2.91-2.06-4.68-3.04
		c-1.77-0.98-4.07-1.6-6.88-1.87c-2.43-0.23-4.69-0.03-6.78,0.58c-2.09,0.62-3.94,1.64-5.55,3.06c-1.61,1.42-2.93,3.25-3.98,5.48
		c-1.04,2.23-1.71,4.86-1.99,7.87c-0.57,6.08,0.54,10.82,3.34,14.22c2.8,3.41,6.73,5.35,11.81,5.83c2.7,0.25,5.08,0.1,7.14-0.47
		c2.06-0.57,3.85-1.27,5.37-2.1c0.57,0.43,1.09,1.02,1.55,1.77c0.46,0.75,0.65,1.58,0.56,2.49c-0.07,0.75-0.34,1.43-0.82,2.04
		c-0.47,0.61-1.21,1.14-2.19,1.58c-1.28,0.64-3,1.16-5.15,1.55c-2.15,0.39-4.83,0.44-8.03,0.14c-3.53-0.33-6.77-1.16-9.7-2.5
		c-2.94-1.33-5.44-3.17-7.5-5.5c-2.06-2.34-3.59-5.16-4.59-8.48c-1-3.32-1.29-7.13-0.89-11.43c0.39-4.19,1.4-7.84,3.03-10.94
		c1.63-3.1,3.66-5.62,6.09-7.56c2.44-1.94,5.2-3.32,8.28-4.15c3.08-0.82,6.31-1.08,9.67-0.76c2.37,0.22,4.49,0.62,6.36,1.21
		c1.87,0.58,3.44,1.26,4.74,2.03c1.29,0.77,2.27,1.62,2.93,2.55C404.12,116.92,404.41,117.82,404.33,118.68z"/>
	<path class="st4" d="M455.1,125.66c0.78,0.09,1.57,0.25,2.37,0.49c1.54,0.46,2.61,1.08,3.21,1.88c0.6,0.8,0.69,1.92,0.26,3.37
		l-12.93,43.65c-0.47,0.03-1.08,0-1.84-0.08c-0.76-0.08-1.53-0.24-2.33-0.48c-1.65-0.49-2.74-1.14-3.28-1.94
		c-0.54-0.81-0.6-1.91-0.19-3.31l5.04-17.01l-22.24-6.59l-6,20.27c-0.47,0.03-1.07,0.01-1.8-0.07c-0.73-0.08-1.52-0.24-2.37-0.49
		c-1.65-0.49-2.74-1.14-3.28-1.94c-0.54-0.81-0.6-1.91-0.19-3.31l12.95-43.72c0.46,0.02,1.06,0.08,1.82,0.16
		c0.76,0.08,1.53,0.24,2.33,0.48c1.54,0.46,2.61,1.08,3.21,1.88c0.6,0.8,0.69,1.92,0.26,3.37l-4.92,16.62l22.24,6.59l5.91-19.96
		C453.72,125.52,454.32,125.57,455.1,125.66z"/>
	<path class="st4" d="M510.66,180.64c-2.08,3.66-4.45,6.58-7.12,8.76c-2.67,2.18-5.5,3.66-8.5,4.45c-2.99,0.78-6.07,0.92-9.21,0.41
		s-6.27-1.65-9.35-3.4c-3.08-1.75-5.67-3.85-7.75-6.31c-2.08-2.45-3.54-5.16-4.38-8.12c-0.84-2.96-1.01-6.14-0.5-9.55
		c0.5-3.41,1.79-6.95,3.87-10.61s4.46-6.57,7.14-8.71c2.68-2.14,5.52-3.62,8.53-4.42c3.01-0.81,6.1-0.95,9.27-0.42
		c3.17,0.53,6.25,1.64,9.24,3.33c3.04,1.72,5.58,3.81,7.64,6.24c2.06,2.44,3.51,5.16,4.36,8.15c0.85,3,1.04,6.19,0.58,9.59
		C514.01,173.44,512.74,176.97,510.66,180.64z M502.78,176.16c2.98-5.26,4.03-9.96,3.13-14.1c-0.9-4.14-3.42-7.39-7.57-9.74
		c-4.05-2.3-8.1-2.76-12.15-1.4c-4.06,1.36-7.56,4.65-10.52,9.86c-2.98,5.26-4.03,9.97-3.15,14.14c0.89,4.17,3.38,7.41,7.47,9.74
		c4.14,2.35,8.23,2.84,12.26,1.46C496.29,184.74,499.79,181.43,502.78,176.16z"/>
	<path class="st4" d="M554.25,222.87c-3.02,2.93-6.12,5.07-9.29,6.42c-3.17,1.34-6.31,1.97-9.4,1.89c-3.09-0.09-6.08-0.82-8.96-2.19
		c-2.88-1.38-5.55-3.34-8.02-5.88c-2.47-2.54-4.36-5.29-5.67-8.22c-1.31-2.94-1.95-5.94-1.93-9.02c0.02-3.07,0.76-6.18,2.19-9.31
		c1.44-3.13,3.67-6.17,6.69-9.1c3.02-2.93,6.12-5.05,9.29-6.36c3.17-1.3,6.32-1.92,9.43-1.86c3.11,0.07,6.12,0.8,9.02,2.19
		c2.9,1.4,5.54,3.33,7.94,5.79c2.43,2.5,4.29,5.22,5.58,8.13c1.29,2.92,1.92,5.93,1.9,9.05c-0.03,3.11-0.74,6.24-2.13,9.37
		C559.48,216.91,557.27,219.94,554.25,222.87z M547.94,216.37c4.34-4.21,6.66-8.43,6.96-12.66s-1.21-8.05-4.53-11.47
		c-3.24-3.34-7-4.92-11.27-4.75c-4.27,0.17-8.56,2.34-12.86,6.52c-4.34,4.21-6.67,8.44-6.98,12.69c-0.32,4.25,1.16,8.06,4.45,11.44
		c3.32,3.42,7.11,5.03,11.36,4.84C539.3,222.79,543.6,220.59,547.94,216.37z"/>
	<path class="st4" d="M541.56,247.38c0.33-1.19,1.1-2.13,2.33-2.81l38.99-21.54c0.31,0.34,0.7,0.8,1.18,1.39
		c0.48,0.59,0.92,1.25,1.32,1.98c0.78,1.41,1.1,2.6,0.97,3.6c-0.13,0.99-0.86,1.85-2.18,2.58l-33.68,18.6l10.89,19.72
		c-0.2,0.42-0.5,0.88-0.91,1.36c-0.41,0.48-0.95,0.9-1.61,1.27c-1.09,0.6-2.06,0.79-2.92,0.57c-0.86-0.22-1.53-0.77-2.02-1.64
		l-11.82-21.39C541.42,249.8,541.24,248.57,541.56,247.38z"/>
</g>
<g>
	<path class="st5" d="M168.69,404.26c1.57,1.02,3.17,2.05,4.78,3.09s3.21,2.08,4.77,3.1c1.57,1.02,3.03,1.97,4.4,2.86
		c0.1,0.06,0.19,0.14,0.27,0.22c0.08,0.09,0.13,0.19,0.16,0.32l0.52,2.21c0.04,0.18,0.02,0.32-0.07,0.42
		c-0.09,0.1-0.18,0.18-0.28,0.23c-0.19,0.05-0.4,0.03-0.61-0.04c-2.26-1.47-4.51-2.94-6.74-4.4c-2.23-1.47-4.49-2.93-6.77-4.4
		l-13.6,19.46c-0.19,0.2-0.36,0.32-0.52,0.36c-0.16,0.04-0.29-0.02-0.4-0.16c-0.11-0.15-0.2-0.33-0.28-0.55
		c-0.08-0.22-0.14-0.46-0.19-0.72s-0.1-0.47-0.14-0.65c-0.06-0.26-0.1-0.52-0.1-0.76c-0.01-0.25,0.08-0.45,0.27-0.59l1.03-1.51
		l11.61-16.38l-6.07-4.08l-10.82,2.54c-0.51,0.12-0.83-0.08-0.95-0.6l-0.3-1.29c-0.12-0.5,0.08-0.81,0.59-0.93l37.86-8.89
		c0.49-0.12,0.8,0.08,0.92,0.58l0.3,1.29c0.05,0.23,0.03,0.43-0.07,0.61c-0.1,0.18-0.26,0.29-0.49,0.34l-23.43,5.5
		C165.66,402.29,167.12,403.24,168.69,404.26z"/>
	<path class="st5" d="M185.73,425.52c0.5-0.16,0.83,0.01,1,0.52l0.41,1.27c0.17,0.51,0,0.85-0.5,1.01l-28,9.1
		c-0.5,0.16-0.83,0-0.99-0.5l-0.4-1.24c-0.18-0.54-0.01-0.89,0.48-1.06L185.73,425.52z M195.05,422.34c0.29-0.1,0.55-0.13,0.77-0.1
		c0.22,0.03,0.38,0.17,0.5,0.43l0.15,0.45l0.42,1.29c0.07,0.31,0.02,0.54-0.15,0.68c-0.17,0.14-0.39,0.26-0.67,0.35l-0.89,0.29
		c-0.45,0.15-0.76,0.16-0.94,0.05c-0.17-0.11-0.33-0.38-0.47-0.81l-0.28-0.86c-0.13-0.41-0.18-0.73-0.12-0.94
		c0.05-0.21,0.22-0.36,0.5-0.45L195.05,422.34z"/>
	<path class="st5" d="M174.92,477.54c-0.48,0.21-0.83,0.07-1.04-0.42l-0.53-1.2c-0.22-0.49-0.09-0.84,0.39-1.05l3.77-1.67l1.62-0.83
		c-0.63-0.09-1.28-0.2-1.94-0.32c-0.67-0.13-1.27-0.31-1.8-0.55c-1.86-0.81-3.51-1.92-4.94-3.33c-1.43-1.41-2.57-3.08-3.42-5
		c-0.61-1.38-1.03-2.79-1.24-4.23c-0.22-1.44-0.25-2.86-0.1-4.26c0.15-1.4,0.46-2.77,0.95-4.08c0.49-1.32,1.13-2.55,1.92-3.69
		c0.79-1.14,1.74-2.17,2.83-3.09c1.1-0.92,2.32-1.67,3.66-2.27c1.35-0.6,2.73-0.99,4.14-1.19c1.42-0.2,2.82-0.21,4.2-0.03
		c1.38,0.18,2.73,0.53,4.03,1.05c1.3,0.52,2.53,1.2,3.67,2.04s2.17,1.82,3.09,2.94c0.92,1.13,1.68,2.38,2.3,3.76
		c0.43,0.97,0.75,1.95,0.96,2.96c0.21,1.01,0.33,2.02,0.37,3.03c0.03,1.01-0.03,2.02-0.18,3.01c-0.15,0.99-0.38,1.95-0.68,2.88
		c-0.23,0.6-0.5,1.15-0.79,1.64c-0.29,0.5-0.62,1.07-0.99,1.73l14.43-6.39c0.1-0.05,0.21-0.05,0.32,0c0.11,0.04,0.19,0.13,0.24,0.25
		l0.75,1.62c0.18,0.41,0.07,0.71-0.33,0.89L174.92,477.54z M176.3,444.38c-1.65,0.73-3.06,1.74-4.26,3.03
		c-1.19,1.29-2.1,2.73-2.72,4.33c-0.62,1.6-0.94,3.28-0.94,5.06c0,1.77,0.37,3.5,1.12,5.19c0.75,1.7,1.79,3.17,3.1,4.41
		c1.31,1.24,2.77,2.19,4.37,2.84c1.61,0.66,3.3,0.99,5.07,0.99c1.77,0,3.5-0.36,5.17-1.11c1.65-0.73,3.07-1.75,4.27-3.05
		c1.2-1.3,2.12-2.76,2.74-4.38c0.62-1.62,0.94-3.33,0.94-5.12c0-1.8-0.38-3.55-1.13-5.26c-0.76-1.7-1.79-3.16-3.11-4.38
		c-1.32-1.22-2.78-2.13-4.4-2.75c-1.62-0.62-3.31-0.92-5.08-0.92C179.68,443.27,177.96,443.64,176.3,444.38z"/>
	<path class="st5" d="M184.42,482.58c0.05-0.07,0.1-0.13,0.16-0.19c0.05-0.05,0.11-0.1,0.16-0.13c0.18-0.11,0.34-0.15,0.49-0.1
		c0.15,0.05,0.3,0.13,0.47,0.24l0.88,0.61c0.03,0.02,0.07,0.07,0.13,0.14c0.06,0.07,0.09,0.12,0.11,0.15c0.07,0.11,0.07,0.25,0,0.42
		c-0.07,0.16-0.17,0.34-0.3,0.52s-0.27,0.37-0.43,0.56s-0.29,0.38-0.39,0.56c-0.4,0.63-0.64,1.33-0.74,2.11
		c-0.1,0.78-0.09,1.55,0.02,2.32c0.11,0.77,0.29,1.5,0.55,2.2c0.26,0.7,0.55,1.3,0.88,1.81c0.41,0.64,0.96,1.3,1.65,1.98
		c0.7,0.68,1.47,1.25,2.31,1.7c0.84,0.45,1.74,0.71,2.7,0.77c0.95,0.07,1.9-0.19,2.84-0.79c0.84-0.54,1.44-1.21,1.78-2.02
		c0.34-0.82,0.52-1.69,0.52-2.63c0-0.94-0.12-1.91-0.38-2.92c-0.25-1.01-0.55-1.99-0.89-2.92c-0.42-1.21-0.73-2.43-0.94-3.67
		c-0.21-1.24-0.26-2.42-0.14-3.55c0.11-1.12,0.4-2.16,0.88-3.1c0.48-0.94,1.19-1.71,2.15-2.32c1.09-0.69,2.21-1.12,3.35-1.27
		c1.14-0.16,2.26-0.07,3.35,0.27c1.1,0.34,2.14,0.92,3.14,1.74c1,0.82,1.89,1.86,2.69,3.12c0.66,1.04,1.13,2.07,1.43,3.09
		c0.29,1.03,0.43,2.04,0.4,3.03c-0.03,0.99-0.22,1.96-0.56,2.89c-0.35,0.94-0.82,1.83-1.42,2.69l0.01-0.03
		c-0.07,0.16-0.15,0.27-0.23,0.32c-0.12,0.08-0.28,0.1-0.47,0.06c-0.19-0.04-0.38-0.11-0.58-0.2c-0.2-0.1-0.37-0.2-0.52-0.31
		c-0.15-0.11-0.25-0.21-0.3-0.3c-0.1-0.16-0.15-0.29-0.15-0.41s0.03-0.24,0.09-0.37c0.06-0.12,0.14-0.27,0.24-0.42
		c0.1-0.16,0.21-0.34,0.31-0.54c0.56-1.17,0.82-2.45,0.78-3.83c-0.04-1.39-0.5-2.78-1.39-4.19c-0.49-0.77-1.05-1.44-1.69-2.02
		c-0.64-0.58-1.33-1.02-2.07-1.31c-0.74-0.3-1.51-0.41-2.32-0.35c-0.8,0.06-1.61,0.35-2.41,0.86c-0.69,0.44-1.17,1.04-1.44,1.81
		c-0.27,0.77-0.4,1.59-0.39,2.47c0.01,0.88,0.11,1.76,0.32,2.65c0.2,0.89,0.43,1.67,0.67,2.35c0.04,0.13,0.07,0.21,0.08,0.25
		c0.01,0.03,0.02,0.06,0.03,0.07c0.53,1.47,0.9,2.89,1.11,4.24c0.21,1.36,0.24,2.61,0.08,3.77c-0.16,1.16-0.52,2.2-1.08,3.13
		c-0.56,0.93-1.36,1.73-2.39,2.39c-1.19,0.76-2.41,1.17-3.67,1.25c-1.26,0.08-2.48-0.11-3.68-0.57c-1.19-0.46-2.32-1.16-3.39-2.08
		s-1.99-2.01-2.78-3.26c-0.67-1.05-1.17-2.14-1.52-3.27c-0.35-1.13-0.52-2.25-0.51-3.36c0.01-1.11,0.21-2.19,0.6-3.23
		C183.01,484.38,183.61,483.44,184.42,482.58z"/>
	<path class="st5" d="M229.19,505.2c0.36-0.38,0.73-0.39,1.12-0.03l1.04,0.96c0.39,0.37,0.41,0.74,0.06,1.12l-4.04,4.36
		c0.61-0.17,1.25-0.33,1.91-0.47c0.66-0.15,1.28-0.21,1.87-0.21c2.03,0.01,3.98,0.38,5.85,1.11c1.87,0.73,3.58,1.81,5.12,3.24
		c1.11,1.03,2.05,2.16,2.81,3.39c0.77,1.23,1.36,2.53,1.78,3.88c0.42,1.35,0.67,2.73,0.74,4.13c0.07,1.4-0.03,2.79-0.31,4.15
		c-0.28,1.36-0.74,2.68-1.38,3.95c-0.65,1.28-1.47,2.45-2.47,3.53c-1,1.08-2.11,1.99-3.34,2.73c-1.22,0.74-2.51,1.3-3.85,1.69
		c-1.34,0.38-2.72,0.6-4.12,0.63c-1.41,0.04-2.8-0.11-4.17-0.42c-1.38-0.32-2.71-0.81-4-1.48c-1.29-0.67-2.49-1.52-3.6-2.55
		c-0.78-0.72-1.46-1.5-2.06-2.34c-0.59-0.84-1.11-1.72-1.53-2.64c-0.43-0.92-0.77-1.87-1.02-2.84c-0.26-0.97-0.43-1.94-0.51-2.91
		c-0.02-0.64,0-1.25,0.07-1.82c0.07-0.57,0.15-1.23,0.22-1.98l-10.72,11.57c-0.08,0.08-0.18,0.13-0.29,0.13
		c-0.12,0-0.22-0.04-0.32-0.13l-1.33-1.2c-0.33-0.31-0.35-0.62-0.05-0.95L229.19,505.2z M241.03,536.21
		c1.21-1.31,2.11-2.79,2.7-4.45c0.59-1.66,0.86-3.35,0.8-5.06c-0.06-1.72-0.44-3.39-1.14-5.02c-0.7-1.63-1.73-3.07-3.08-4.33
		c-1.37-1.27-2.9-2.21-4.59-2.83c-1.69-0.62-3.4-0.91-5.14-0.88c-1.73,0.03-3.42,0.4-5.05,1.09c-1.63,0.7-3.07,1.72-4.31,3.06
		c-1.22,1.32-2.13,2.82-2.72,4.49c-0.59,1.67-0.85,3.38-0.79,5.11c0.06,1.73,0.45,3.43,1.17,5.08c0.71,1.65,1.75,3.11,3.12,4.38
		c1.37,1.27,2.9,2.2,4.59,2.79c1.69,0.6,3.4,0.86,5.12,0.78c1.73-0.07,3.4-0.46,5.03-1.16S239.79,537.54,241.03,536.21z"/>
	<path class="st5" d="M272.55,544.33c-0.12,0.02-0.22,0.01-0.3-0.04c-0.1-0.06-0.2-0.16-0.3-0.3c-0.1-0.14-0.21-0.35-0.33-0.64
		c-0.17-0.4-0.39-0.83-0.66-1.3c-0.27-0.47-0.57-0.94-0.9-1.4c-0.33-0.47-0.69-0.9-1.08-1.31c-0.39-0.41-0.8-0.75-1.24-1.02
		c-1.1-0.68-2.24-1.14-3.45-1.37c-1.2-0.23-2.38-0.23-3.54,0c-1.16,0.23-2.25,0.71-3.29,1.44c-1.04,0.73-1.94,1.7-2.71,2.92
		l-9.72,15.54c-0.27,0.43-0.63,0.5-1.09,0.22l-1.13-0.71c-0.47-0.29-0.57-0.66-0.3-1.09l15.63-24.98c0.23-0.37,0.55-0.44,0.95-0.19
		c0.04,0.03,0.07,0.06,0.09,0.09c0.04,0,0.09,0.03,0.16,0.07l0.88,0.55c0.26,0.16,0.41,0.35,0.45,0.59c0.04,0.23,0,0.46-0.14,0.68
		l-2.12,3.39c0.64-0.35,1.36-0.64,2.18-0.87c0.81-0.22,1.68-0.34,2.6-0.36c0.92-0.01,1.86,0.1,2.83,0.34
		c0.97,0.24,1.92,0.65,2.84,1.23c0.74,0.46,1.4,0.94,1.97,1.43c0.57,0.49,1.08,1.01,1.53,1.57c0.45,0.55,0.84,1.14,1.18,1.77
		c0.34,0.63,0.65,1.31,0.92,2.04c0.07,0.2,0.13,0.4,0.16,0.59c0.04,0.2,0,0.38-0.1,0.54c-0.08,0.12-0.32,0.24-0.72,0.34
		C273.4,544.19,272.98,544.27,272.55,544.33z"/>
	<path class="st5" d="M275.24,558.88c-0.06,0.28-0.16,0.63-0.32,1.08s-0.25,0.87-0.3,1.3c-0.16,1.51-0.09,2.98,0.21,4.4
		c0.3,1.43,0.8,2.76,1.52,3.98c0.71,1.23,1.62,2.33,2.72,3.31c1.1,0.98,2.36,1.76,3.79,2.34c0.82,0.34,1.62,0.59,2.38,0.76
		c0.76,0.17,1.5,0.27,2.2,0.3c0.7,0.03,1.39,0.01,2.07-0.07c0.68-0.08,1.34-0.2,1.98-0.36c0.19-0.03,0.4-0.07,0.61-0.13
		c0.22-0.06,0.42-0.12,0.63-0.17c0.2-0.05,0.39-0.09,0.55-0.12c0.17-0.03,0.3-0.02,0.41,0.02c0.12,0.05,0.22,0.21,0.3,0.47
		c0.12,0.47,0.19,0.83,0.23,1.07s0.03,0.42-0.01,0.52c-0.02,0.06-0.08,0.11-0.17,0.14c0.05,0.11,0.05,0.2,0.02,0.28
		c-0.26,0.14-0.56,0.28-0.9,0.4c-0.34,0.13-0.73,0.23-1.16,0.32c-1.61,0.35-3.25,0.48-4.91,0.38c-1.66-0.1-3.36-0.49-5.08-1.2
		c-2.1-0.85-3.92-2.05-5.46-3.59c-1.54-1.54-2.73-3.27-3.57-5.19c-0.84-1.92-1.3-3.95-1.38-6.09c-0.08-2.14,0.29-4.23,1.13-6.27
		c0.56-1.38,1.28-2.63,2.16-3.76c0.88-1.13,1.87-2.11,2.97-2.95c1.1-0.84,2.3-1.53,3.6-2.06c1.29-0.53,2.65-0.89,4.06-1.08
		c1.41-0.19,2.84-0.19,4.3-0.01c1.46,0.18,2.91,0.56,4.36,1.15c1.35,0.55,2.6,1.24,3.73,2.08c1.14,0.83,2.14,1.78,3.02,2.84
		c0.87,1.06,1.59,2.22,2.16,3.48c0.57,1.26,0.96,2.57,1.18,3.95c0.22,1.38,0.25,2.81,0.1,4.3c-0.16,1.49-0.52,3-1.09,4.54l0.01-0.02
		c-0.01,0.01-0.01,0.04-0.01,0.06c0,0.03-0.01,0.05-0.02,0.09c-0.21,0.51-0.56,0.67-1.06,0.47L275.24,558.88z M289.61,549.76
		c-1.31-0.18-2.6-0.15-3.9,0.08c-1.29,0.23-2.51,0.63-3.67,1.21c-1.16,0.57-2.23,1.29-3.21,2.17c-0.98,0.87-1.82,1.87-2.51,2.98
		l24.95,10.17c0.43-1.59,0.54-3.18,0.33-4.78c-0.21-1.6-0.68-3.1-1.42-4.5c-0.73-1.4-1.7-2.66-2.91-3.78s-2.58-1.99-4.14-2.63
		c-0.53-0.22-1.05-0.4-1.57-0.55S290.41,549.86,289.61,549.76z"/>
	<path class="st5" d="M325.9,561.29c-1.14-0.21-2.27-0.21-3.4-0.01c-1.13,0.2-2.17,0.57-3.12,1.13c-0.95,0.56-1.78,1.29-2.49,2.18
		c-0.71,0.89-1.2,1.94-1.48,3.14l-2.21,12.32c-0.01,0.05-0.02,0.1-0.04,0.14c-0.02,0.05-0.03,0.09-0.03,0.12l-1.21,6.74
		c-0.09,0.52-0.39,0.73-0.91,0.63l-1.29-0.23c-0.55-0.1-0.77-0.4-0.68-0.92l5.21-28.98c0.05-0.27,0.18-0.46,0.4-0.56
		c0.21-0.1,0.45-0.13,0.72-0.08l1.02,0.18c0.3,0.05,0.51,0.18,0.64,0.38c0.13,0.2,0.17,0.42,0.12,0.68l-0.66,3.67
		c0.72-0.67,1.45-1.25,2.21-1.75c0.76-0.5,1.55-0.89,2.38-1.19c0.83-0.3,1.7-0.48,2.61-0.55c0.91-0.07,1.88-0.01,2.92,0.18
		c2.48,0.45,4.49,1.4,6.04,2.85c1.55,1.46,2.63,3.27,3.24,5.44c0.66-1,1.42-1.83,2.29-2.5c0.87-0.67,1.81-1.2,2.81-1.56
		c1-0.37,2.06-0.59,3.16-0.67c1.1-0.08,2.22-0.01,3.34,0.19c1.58,0.28,2.99,0.81,4.23,1.57c1.23,0.76,2.27,1.68,3.11,2.76
		c0.84,1.08,1.46,2.29,1.87,3.63c0.41,1.34,0.58,2.73,0.53,4.18c-0.02,0.56-0.07,1.13-0.15,1.69s-0.18,1.13-0.28,1.7l-2.96,16.47
		c-0.07,0.37-0.21,0.63-0.42,0.77c-0.21,0.15-0.46,0.19-0.76,0.14l-0.93-0.17c-0.38-0.07-0.61-0.19-0.71-0.38
		c-0.1-0.18-0.11-0.46-0.04-0.83l3.26-18.14c0.15-1.13,0.12-2.28-0.1-3.45c-0.22-1.16-0.63-2.23-1.24-3.2
		c-0.61-0.97-1.42-1.82-2.42-2.53c-1.01-0.71-2.21-1.19-3.62-1.45c-1.14-0.21-2.23-0.22-3.28-0.04s-2.01,0.51-2.89,1
		c-0.88,0.49-1.66,1.12-2.32,1.89c-0.67,0.77-1.17,1.65-1.52,2.63c-0.4,1.08-0.71,2.23-0.93,3.45l-2.98,16.57
		c-0.06,0.35-0.2,0.6-0.41,0.75c-0.21,0.15-0.47,0.19-0.77,0.14l-0.94-0.17c-0.38-0.07-0.62-0.2-0.72-0.38
		c-0.1-0.18-0.12-0.46-0.05-0.83l2.98-16.59c0.09-0.51,0.17-1.05,0.25-1.59c0.07-0.54,0.11-1.09,0.13-1.63
		c0.03-1.02-0.11-2.02-0.43-2.99c-0.32-0.97-0.8-1.86-1.44-2.66c-0.64-0.8-1.43-1.5-2.37-2.07
		C328.17,561.9,327.1,561.51,325.9,561.29z"/>
	<path class="st5" d="M365.44,565.02c0.03-0.52,0.32-0.77,0.85-0.73l1.33,0.08c0.54,0.03,0.79,0.31,0.76,0.83l-1.78,29.39
		c-0.03,0.52-0.31,0.77-0.83,0.74l-1.31-0.08c-0.57-0.04-0.84-0.31-0.81-0.84L365.44,565.02z M365.88,555.19
		c0.02-0.31,0.08-0.56,0.18-0.75c0.1-0.19,0.3-0.29,0.59-0.31l0.48,0.03l1.36,0.08c0.32,0.05,0.51,0.18,0.58,0.39
		c0.07,0.21,0.1,0.46,0.08,0.76l-0.06,0.93c-0.03,0.48-0.13,0.77-0.29,0.89c-0.17,0.12-0.48,0.17-0.93,0.14l-0.9-0.05
		c-0.44-0.03-0.74-0.1-0.92-0.23c-0.18-0.13-0.26-0.34-0.24-0.63L365.88,555.19z"/>
	<path class="st5" d="M402.51,589.77l-0.24-1.5c-0.46,0.89-1,1.71-1.63,2.45c-0.63,0.74-1.34,1.4-2.14,1.96
		c-0.8,0.57-1.69,1.03-2.66,1.39c-0.97,0.36-2.05,0.61-3.21,0.73c-1.94,0.21-3.75,0.06-5.44-0.44c-1.69-0.51-3.19-1.28-4.49-2.32
		c-1.3-1.04-2.36-2.32-3.19-3.83c-0.83-1.51-1.35-3.17-1.55-4.98l-1.91-17.41c-0.04-0.36,0.02-0.64,0.19-0.84
		c0.16-0.2,0.4-0.32,0.72-0.35l0.95-0.1c0.38-0.04,0.65,0.01,0.79,0.16c0.14,0.15,0.23,0.41,0.28,0.78l1.92,17.56
		c0.18,1.3,0.58,2.52,1.21,3.67c0.63,1.15,1.45,2.15,2.45,2.99c1,0.84,2.18,1.48,3.51,1.9c1.34,0.42,2.81,0.54,4.41,0.37
		c1.32-0.14,2.55-0.52,3.7-1.13c1.15-0.61,2.14-1.4,2.98-2.36c0.84-0.96,1.48-2.07,1.91-3.33c0.44-1.26,0.59-2.6,0.47-4.04
		l-1.99-18.15c-0.06-0.52,0.18-0.81,0.72-0.87l1.3-0.14c0.55-0.06,0.85,0.17,0.91,0.69l3.2,29.27c0.07,0.68-0.2,1.06-0.81,1.13
		l-1.03,0.11c-0.65,0.07-1.01-0.19-1.07-0.77L402.51,589.77z"/>
	<path class="st5" d="M421.45,560.31c-1.11,0.33-2.12,0.85-3.03,1.53c-0.91,0.69-1.67,1.5-2.27,2.43c-0.6,0.93-1,1.96-1.23,3.08
		c-0.22,1.12-0.19,2.27,0.1,3.47l3.62,11.98c0.01,0.05,0.02,0.1,0.03,0.14c0.01,0.05,0.01,0.09,0.02,0.12l1.98,6.55
		c0.15,0.5-0.02,0.83-0.52,0.98l-1.25,0.38c-0.53,0.16-0.87-0.01-1.02-0.51l-8.53-28.18c-0.08-0.27-0.05-0.49,0.1-0.68
		c0.14-0.19,0.34-0.32,0.6-0.4l0.99-0.3c0.29-0.09,0.53-0.07,0.74,0.05c0.2,0.12,0.34,0.3,0.42,0.55l1.08,3.57
		c0.33-0.92,0.73-1.77,1.17-2.56c0.45-0.78,0.97-1.5,1.57-2.14c0.6-0.64,1.29-1.2,2.07-1.68c0.78-0.48,1.67-0.87,2.68-1.17
		c2.41-0.73,4.63-0.8,6.67-0.2c2.04,0.6,3.83,1.72,5.36,3.38c0.13-1.18,0.43-2.28,0.9-3.27c0.47-1,1.07-1.89,1.79-2.67
		c0.73-0.78,1.56-1.46,2.51-2.03s1.97-1.02,3.06-1.35c1.54-0.47,3.03-0.64,4.48-0.52c1.45,0.12,2.79,0.47,4.02,1.05
		c1.24,0.58,2.34,1.38,3.31,2.38c0.97,1.01,1.76,2.17,2.37,3.49c0.24,0.51,0.45,1.03,0.63,1.58c0.18,0.54,0.36,1.09,0.52,1.64
		l4.85,16.02c0.11,0.36,0.1,0.65-0.02,0.88c-0.12,0.22-0.33,0.38-0.61,0.47l-0.91,0.27c-0.37,0.11-0.63,0.11-0.8-0.01
		c-0.17-0.12-0.3-0.36-0.41-0.72l-5.34-17.64c-0.38-1.08-0.93-2.09-1.65-3.02c-0.72-0.94-1.57-1.7-2.56-2.29
		c-0.99-0.59-2.09-0.97-3.31-1.15c-1.22-0.18-2.51-0.06-3.88,0.35c-1.11,0.34-2.09,0.82-2.94,1.45s-1.56,1.37-2.12,2.21
		c-0.56,0.84-0.97,1.75-1.21,2.74c-0.24,0.99-0.3,2-0.16,3.04c0.13,1.14,0.38,2.3,0.74,3.49l4.88,16.11
		c0.11,0.34,0.1,0.63-0.03,0.85c-0.12,0.23-0.33,0.38-0.62,0.47l-0.91,0.28c-0.37,0.11-0.64,0.11-0.82-0.01
		c-0.18-0.12-0.32-0.36-0.43-0.72l-4.88-16.13c-0.15-0.5-0.32-1.01-0.5-1.53s-0.39-1.02-0.63-1.51c-0.44-0.93-1.02-1.75-1.75-2.47
		c-0.73-0.72-1.56-1.29-2.49-1.72c-0.94-0.43-1.95-0.68-3.05-0.77C423.76,559.82,422.63,559.96,421.45,560.31z"/>
	<path class="st5" d="M466.88,531.14c-0.25-0.37-0.18-0.68,0.19-0.93l1.49-0.98c0.11-0.07,0.22-0.1,0.34-0.08
		c0.12,0.02,0.21,0.08,0.27,0.17l8.84,13.07c0.04-0.76,0.06-1.42,0.08-1.99c0.02-0.57,0.09-1.18,0.21-1.81
		c0.23-0.95,0.55-1.88,0.95-2.8c0.4-0.92,0.88-1.8,1.44-2.65c0.56-0.84,1.2-1.64,1.92-2.38c0.72-0.74,1.51-1.41,2.39-2
		c1.25-0.85,2.57-1.5,3.94-1.97c1.38-0.47,2.77-0.75,4.18-0.85c1.41-0.1,2.81-0.03,4.19,0.22s2.71,0.67,3.98,1.25
		s2.45,1.34,3.54,2.25c1.1,0.92,2.06,1.99,2.88,3.21c0.82,1.22,1.46,2.51,1.9,3.87c0.44,1.36,0.7,2.73,0.76,4.12
		s-0.04,2.77-0.33,4.15c-0.28,1.38-0.74,2.7-1.36,3.97c-0.62,1.27-1.41,2.46-2.35,3.56c-0.95,1.1-2.04,2.08-3.3,2.93
		c-1.74,1.17-3.59,1.98-5.55,2.42c-1.96,0.44-3.95,0.51-5.96,0.21c-0.58-0.08-1.19-0.24-1.82-0.49c-0.63-0.24-1.24-0.5-1.82-0.76
		l0.93,1.56l2.31,3.41c0.29,0.43,0.22,0.8-0.23,1.1l-1.09,0.73c-0.45,0.3-0.81,0.23-1.11-0.2L466.88,531.14z M505.14,534.59
		c-1.02-1.5-2.28-2.73-3.77-3.67c-1.5-0.94-3.1-1.58-4.79-1.91c-1.7-0.33-3.43-0.34-5.19,0c-1.76,0.33-3.41,1.02-4.96,2.06
		c-1.54,1.04-2.79,2.33-3.75,3.85c-0.96,1.52-1.6,3.14-1.93,4.84c-0.33,1.7-0.33,3.43,0,5.17c0.33,1.74,1,3.36,2,4.85
		c1.03,1.52,2.29,2.74,3.8,3.68c1.5,0.94,3.11,1.55,4.82,1.85c1.71,0.29,3.45,0.27,5.21-0.09c1.77-0.35,3.42-1.05,4.96-2.1
		c1.53-1.03,2.76-2.3,3.7-3.81c0.94-1.5,1.57-3.1,1.89-4.79c0.32-1.69,0.32-3.39-0.01-5.12
		C506.82,537.69,506.15,536.08,505.14,534.59z"/>
	<path class="st5" d="M541.82,513.32l-1.41-1.22c0.36,1.26,0.55,2.55,0.56,3.86c0.01,1.31-0.15,2.61-0.47,3.88
		c-0.33,1.27-0.81,2.51-1.46,3.69c-0.65,1.19-1.46,2.3-2.42,3.32c-1.04,1.1-2.17,2.03-3.42,2.78c-1.24,0.76-2.54,1.34-3.9,1.74
		c-1.36,0.4-2.74,0.64-4.15,0.71c-1.41,0.06-2.8-0.05-4.16-0.34c-1.36-0.29-2.68-0.77-3.94-1.42c-1.26-0.65-2.43-1.48-3.5-2.49
		c-1.07-1.01-1.97-2.13-2.69-3.35c-0.72-1.22-1.27-2.51-1.64-3.86c-0.37-1.35-0.56-2.73-0.59-4.13c-0.02-1.41,0.13-2.8,0.45-4.18
		c0.32-1.38,0.83-2.71,1.51-4c0.68-1.28,1.54-2.48,2.58-3.57c0.94-1,1.99-1.86,3.15-2.59c1.15-0.72,2.36-1.28,3.63-1.68
		c1.27-0.4,2.56-0.63,3.89-0.71c1.33-0.07,2.64,0.03,3.93,0.3l-1.32-1.24l-3.07-2.9c-0.38-0.36-0.39-0.73-0.04-1.11l0.9-0.95
		c0.39-0.42,0.78-0.44,1.16-0.09l21.46,20.23c0.2,0.19,0.29,0.39,0.25,0.61c-0.04,0.22-0.14,0.42-0.32,0.6l-0.71,0.75
		c-0.45,0.48-0.89,0.51-1.32,0.11L541.82,513.32z M534.2,505.93c-1.3-1.22-2.78-2.12-4.46-2.68c-1.68-0.57-3.39-0.82-5.12-0.75
		c-1.74,0.07-3.43,0.45-5.08,1.16c-1.65,0.7-3.11,1.71-4.36,3.02l-0.05,0.05c-1.23,1.31-2.14,2.8-2.73,4.47
		c-0.59,1.67-0.86,3.37-0.81,5.1c0.04,1.73,0.4,3.4,1.07,5.03c0.67,1.62,1.65,3.05,2.95,4.27c1.3,1.22,2.77,2.14,4.44,2.75
		c1.66,0.61,3.35,0.9,5.08,0.86c1.73-0.03,3.41-0.39,5.05-1.07c1.64-0.68,3.09-1.69,4.36-3.04c1.28-1.36,2.23-2.89,2.86-4.59
		c0.63-1.7,0.93-3.42,0.89-5.16c-0.03-1.74-0.39-3.43-1.07-5.07C536.54,508.64,535.53,507.19,534.2,505.93z"/>
	<path class="st5" d="M541.96,488.41c-0.39-1.83-0.78-3.69-1.19-5.57c-0.4-1.88-0.79-3.74-1.17-5.57c-0.38-1.83-0.74-3.54-1.08-5.14
		c-0.02-0.11-0.04-0.23-0.03-0.34c0-0.12,0.04-0.23,0.11-0.35l1.2-1.92c0.1-0.16,0.21-0.24,0.34-0.25c0.13-0.01,0.25,0,0.37,0.04
		c0.17,0.1,0.3,0.26,0.41,0.46c0.55,2.64,1.1,5.27,1.64,7.89c0.54,2.62,1.09,5.25,1.66,7.9l23.39-4.1c0.27-0.01,0.48,0.03,0.62,0.12
		c0.14,0.09,0.2,0.22,0.17,0.4c-0.03,0.18-0.09,0.38-0.2,0.59c-0.1,0.21-0.23,0.43-0.37,0.64c-0.15,0.22-0.27,0.4-0.36,0.56
		c-0.14,0.23-0.3,0.43-0.47,0.61c-0.17,0.18-0.37,0.26-0.61,0.23l-1.8,0.33l-19.79,3.34l1.4,7.19l9.44,5.87
		c0.44,0.28,0.53,0.64,0.24,1.09l-0.7,1.12c-0.27,0.44-0.63,0.52-1.07,0.24l-33.02-20.55c-0.43-0.27-0.51-0.62-0.24-1.06l0.7-1.12
		c0.12-0.2,0.28-0.32,0.48-0.38c0.2-0.05,0.39-0.02,0.59,0.1l20.44,12.72C542.72,491.95,542.35,490.25,541.96,488.41z"/>
	<path class="st5" d="M535.69,457.32c-0.28-0.13-0.49-0.28-0.63-0.45c-0.14-0.17-0.16-0.39-0.07-0.66l0.21-0.43l0.58-1.23
		c0.17-0.27,0.36-0.4,0.58-0.39c0.22,0.01,0.46,0.08,0.73,0.21l0.84,0.4c0.43,0.2,0.67,0.41,0.72,0.61c0.05,0.2-0.02,0.5-0.22,0.91
		l-0.39,0.82c-0.19,0.39-0.37,0.65-0.56,0.77c-0.18,0.12-0.41,0.11-0.67-0.01L535.69,457.32z M544.64,461.41
		c-0.47-0.22-0.6-0.58-0.36-1.06l0.57-1.21c0.23-0.48,0.58-0.61,1.05-0.39l26.59,12.64c0.47,0.23,0.6,0.57,0.37,1.04l-0.56,1.18
		c-0.24,0.51-0.6,0.66-1.08,0.44L544.64,461.41z"/>
	<path class="st5" d="M549.97,450.78c-0.28-0.1-0.46-0.25-0.55-0.47c-0.09-0.22-0.09-0.46,0.01-0.73l0.34-0.97
		c0.1-0.28,0.26-0.47,0.47-0.56c0.21-0.09,0.44-0.1,0.69-0.01l3.4,1.19c-0.77-1.03-1.32-2.09-1.66-3.17
		c-0.34-1.08-0.54-2.13-0.58-3.16c-0.05-1.03,0.02-2.01,0.2-2.93c0.18-0.93,0.39-1.76,0.66-2.5c0.64-1.82,1.54-3.37,2.72-4.65
		c1.17-1.28,2.51-2.25,4.01-2.92c1.5-0.67,3.1-1.03,4.8-1.1c1.7-0.06,3.4,0.2,5.1,0.8l16.54,5.78c0.34,0.12,0.56,0.29,0.67,0.53
		c0.11,0.23,0.11,0.49,0.02,0.77l-0.3,0.87c-0.13,0.36-0.29,0.58-0.49,0.65s-0.48,0.05-0.83-0.08l-16.63-5.82
		c-1.22-0.37-2.48-0.54-3.79-0.5c-1.3,0.04-2.55,0.31-3.73,0.81c-1.18,0.5-2.25,1.23-3.21,2.22s-1.7,2.23-2.23,3.73
		c-0.43,1.22-0.62,2.49-0.59,3.81c0.03,1.32,0.28,2.58,0.76,3.78c0.47,1.2,1.16,2.28,2.07,3.25c0.91,0.97,2.03,1.71,3.35,2.23
		l17.42,6.09c0.49,0.17,0.66,0.49,0.49,0.97l-0.44,1.25c-0.18,0.5-0.51,0.67-1,0.5l-6.42-2.24c-0.05,0-0.14-0.02-0.26-0.06
		L549.97,450.78z"/>
	<path class="st5" d="M571.74,391.88c-0.24-0.06-0.49-0.12-0.74-0.17c-0.26-0.05-0.51-0.12-0.76-0.2l-4.39-0.84
		c-0.27-0.05-0.47-0.18-0.6-0.39c-0.13-0.21-0.16-0.45-0.11-0.73l0.2-1.02c0.06-0.3,0.2-0.51,0.41-0.65
		c0.22-0.13,0.45-0.17,0.69-0.13l25.08,4.82c0.03,0.01,0.06,0.02,0.09,0.03c0.03,0.01,0.05,0.02,0.07,0.03
		c1.87,0.41,3.51,0.97,4.92,1.68c1.41,0.71,2.62,1.54,3.62,2.48c1,0.94,1.82,1.97,2.44,3.09c0.63,1.12,1.09,2.3,1.38,3.53
		c0.3,1.24,0.44,2.5,0.45,3.79c0,1.29-0.12,2.58-0.37,3.87c-0.35,1.8-0.85,3.38-1.51,4.75c-0.66,1.37-1.48,2.6-2.44,3.7
		c-0.11,0.15-0.23,0.26-0.35,0.33s-0.27,0.09-0.45,0.05c-0.14-0.03-0.26-0.06-0.33-0.09c-0.08-0.03-0.16-0.09-0.25-0.18
		c-0.09-0.09-0.22-0.22-0.38-0.41c-0.16-0.19-0.41-0.44-0.73-0.76c-0.11-0.11-0.14-0.23-0.09-0.38c0.05-0.14,0.11-0.27,0.18-0.38
		c0.18-0.17,0.44-0.49,0.78-0.95s0.69-1.02,1.04-1.66c0.36-0.64,0.69-1.35,1.01-2.13c0.32-0.78,0.55-1.57,0.71-2.38
		c0.34-1.8,0.4-3.52,0.16-5.17c-0.24-1.65-0.77-3.15-1.6-4.49c-0.83-1.34-1.94-2.48-3.35-3.43c-1.41-0.95-3.12-1.61-5.13-2
		l-2.63-0.51c1.03,0.88,1.91,1.89,2.64,3.02c0.73,1.13,1.3,2.34,1.71,3.61c0.4,1.27,0.65,2.59,0.74,3.95s0,2.71-0.25,4.04
		c-0.29,1.48-0.75,2.88-1.39,4.18s-1.42,2.49-2.35,3.56c-0.92,1.07-1.96,2.01-3.12,2.82c-1.16,0.81-2.39,1.46-3.7,1.94
		c-1.31,0.48-2.68,0.79-4.1,0.92c-1.42,0.13-2.86,0.05-4.3-0.22c-1.45-0.28-2.8-0.74-4.08-1.4c-1.27-0.65-2.43-1.45-3.46-2.38
		c-1.04-0.93-1.94-1.99-2.71-3.18c-0.77-1.18-1.39-2.44-1.85-3.78c-0.46-1.34-0.74-2.73-0.86-4.17c-0.11-1.44-0.03-2.9,0.26-4.39
		c0.26-1.35,0.69-2.64,1.28-3.87c0.6-1.23,1.32-2.35,2.17-3.37c0.85-1.02,1.82-1.9,2.9-2.66
		C569.37,392.91,570.52,392.31,571.74,391.88z M575.23,419.91c1.17,0.22,2.34,0.29,3.5,0.18c1.16-0.1,2.28-0.34,3.36-0.73
		c1.08-0.38,2.1-0.89,3.07-1.54c0.96-0.64,1.83-1.4,2.61-2.26c0.77-0.86,1.43-1.82,1.98-2.88c0.55-1.06,0.93-2.19,1.16-3.39
		c0.33-1.7,0.34-3.37,0.04-5.01c-0.3-1.64-0.85-3.15-1.66-4.54c-0.81-1.39-1.84-2.61-3.09-3.66c-1.26-1.05-2.66-1.83-4.23-2.34
		l-3.15-0.61c-1.64-0.11-3.24,0.08-4.79,0.58c-1.55,0.5-2.96,1.23-4.24,2.2c-1.28,0.97-2.36,2.14-3.25,3.53
		c-0.89,1.39-1.5,2.93-1.83,4.62c-0.23,1.22-0.3,2.43-0.21,3.63c0.1,1.2,0.33,2.34,0.71,3.43c0.38,1.09,0.89,2.12,1.54,3.08
		c0.65,0.96,1.4,1.83,2.26,2.6c0.86,0.77,1.82,1.42,2.87,1.95C572.92,419.3,574.04,419.68,575.23,419.91z"/>
</g>
</svg>
