<?xml version="1.0" encoding="utf-8"?>
<!-- Generator: Adobe Illustrator 25.0.1, SVG Export Plug-In . SVG Version: 6.00 Build 0)  -->
<svg version="1.1" id="레이어_1" xmlns="http://www.w3.org/2000/svg" xmlns:xlink="http://www.w3.org/1999/xlink" x="0px"
	 y="0px" viewBox="0 0 740.91 693.18" style="enable-background:new 0 0 740.91 693.18;" xml:space="preserve">
<style type="text/css">
	.st0{fill:#EFC7D4;}
	.st1{fill:none;stroke:#C85D32;stroke-width:4.6235;stroke-miterlimit:10;}
	.st2{fill:#FFFFFF;}
	.st3{fill:#F4CBDC;}
	.st4{fill:none;stroke:#FFFFFF;stroke-width:9.247;stroke-miterlimit:10;}
	.st5{fill:#C85D32;}
	.st6{fill:#F3CAD7;}
</style>
<circle class="st0" cx="363.44" cy="357.66" r="181.57"/>
<circle class="st1" cx="363.47" cy="348.39" r="270.69"/>
<ellipse class="st2" cx="295.89" cy="298.39" rx="16.89" ry="24.51"/>
<ellipse class="st2" cx="431.04" cy="298.39" rx="16.89" ry="24.51"/>
<path class="st3" d="M288.96,406.93"/>
<path class="st4" d="M235,374.78"/>
<path class="st4" d="M479.11,384.31c-14.03,49.76-59.76,86.23-114,86.23c-55.53,0-102.13-38.21-114.94-89.77"/>
<g>
	<g>
		<path class="st5" d="M178.19,240.73l-9.68,14.83l7.53,9.17c-0.07,0.47-0.2,0.94-0.38,1.4c-0.18,0.46-0.46,0.97-0.83,1.54
			c-0.66,1.01-1.43,1.69-2.31,2.05c-0.88,0.35-1.77,0.23-2.68-0.36c-0.45-0.3-0.86-0.65-1.21-1.05s-0.73-0.88-1.14-1.44
			c-1.39-1.66-3.15-3.86-5.27-6.61c-2.12-2.74-4.36-5.65-6.72-8.72c-2.35-3.07-4.65-6.11-6.89-9.13c-2.24-3.02-4.15-5.62-5.72-7.81
			c0.02-0.56,0.19-1.35,0.52-2.35c0.33-1,0.78-1.94,1.37-2.84c0.77-1.17,1.62-2.12,2.56-2.83c0.94-0.72,1.93-0.96,2.96-0.75
			c2.94,0.65,6.24,1.42,9.93,2.32c3.68,0.9,7.45,1.86,11.32,2.89c3.87,1.03,7.64,2.05,11.33,3.07c3.69,1.03,7.03,1.96,10.01,2.81
			c0.18,0.63,0.21,1.33,0.09,2.09c-0.12,0.76-0.44,1.55-0.97,2.36c-0.71,1.09-1.45,1.74-2.2,1.94c-0.75,0.21-1.75,0.13-2.99-0.22
			L178.19,240.73z M150.49,233.22c0.85,1.13,1.82,2.4,2.91,3.8c1.09,1.41,2.23,2.88,3.44,4.41c1.21,1.54,2.43,3.09,3.68,4.66
			c1.25,1.56,2.45,3.07,3.62,4.53l7.82-11.97c-2-0.55-4.01-1.1-6.04-1.65c-2.03-0.54-3.97-1.06-5.83-1.55
			c-1.86-0.49-3.6-0.95-5.24-1.38s-3.02-0.82-4.15-1.15L150.49,233.22z"/>
		<path class="st5" d="M207.92,223.02c-0.36,0.56-0.79,1.11-1.28,1.63c-1.03,1.09-1.97,1.68-2.84,1.76
			c-0.86,0.09-1.77-0.33-2.74-1.24l-30.3-28.58c0.19-0.35,0.47-0.8,0.83-1.36c0.36-0.56,0.78-1.1,1.28-1.63
			c0.96-1.02,1.87-1.59,2.73-1.71c0.86-0.12,1.79,0.29,2.8,1.24l30.24,28.53C208.52,222.01,208.28,222.46,207.92,223.02z"/>
		<path class="st5" d="M217.26,156.4c0.37,0.09,0.79,0.31,1.25,0.64c0.46,0.33,0.88,0.75,1.27,1.27c1.39,1.86,1.31,3.36-0.24,4.52
			l-14.81,11.09l8.07,10.78l14.41-10.79c0.4,0.13,0.82,0.35,1.27,0.67c0.45,0.31,0.88,0.75,1.29,1.3c1.36,1.82,1.28,3.29-0.23,4.42
			l-12.78,9.57l11,14.69c-0.21,0.28-0.54,0.67-0.99,1.16c-0.45,0.49-0.96,0.95-1.54,1.39c-2.28,1.71-4.15,1.6-5.6-0.33l-22.48-30.02
			c-0.77-1.03-1.07-2.08-0.91-3.15c0.16-1.07,0.74-1.99,1.75-2.74L217.26,156.4z"/>
		<path class="st5" d="M264.06,132.22c0.34,0.17,0.71,0.46,1.09,0.88c0.38,0.42,0.71,0.92,0.98,1.51c0.98,2.1,0.59,3.56-1.17,4.37
			l-16.78,7.79l5.67,12.21l16.33-7.58c0.36,0.21,0.73,0.52,1.1,0.92s0.71,0.91,1,1.54c0.96,2.06,0.58,3.49-1.13,4.28l-14.48,6.72
			l7.73,16.64c-0.27,0.23-0.67,0.54-1.21,0.93c-0.54,0.39-1.14,0.73-1.8,1.04c-2.59,1.2-4.39,0.71-5.41-1.48l-15.79-34.02
			c-0.54-1.16-0.62-2.25-0.24-3.27c0.38-1.02,1.14-1.79,2.28-2.32L264.06,132.22z"/>
		<path class="st5" d="M329.54,155.06c3-0.53,5.11-1.54,6.32-3.06c1.21-1.51,1.64-3.26,1.29-5.26c-0.31-1.75-1.1-3.06-2.38-3.94
			c-1.28-0.87-3.18-1.47-5.69-1.78l-5.65-0.74c-1.76-0.24-3.38-0.59-4.86-1.06s-2.78-1.09-3.9-1.87c-1.12-0.78-2.04-1.77-2.77-2.97
			c-0.73-1.2-1.24-2.65-1.54-4.35c-0.67-3.84,0.19-7.1,2.59-9.8c2.4-2.7,5.99-4.46,10.75-5.3c1.95-0.34,3.79-0.5,5.52-0.48
			c1.72,0.02,3.24,0.21,4.56,0.55c1.31,0.35,2.38,0.83,3.2,1.46c0.82,0.63,1.31,1.39,1.46,2.26c0.14,0.83,0.07,1.58-0.23,2.26
			c-0.3,0.68-0.7,1.26-1.21,1.75c-1.35-0.71-3.05-1.23-5.1-1.55c-2.05-0.32-4.24-0.27-6.57,0.14c-2.62,0.46-4.55,1.35-5.8,2.67
			c-1.24,1.32-1.71,2.88-1.39,4.68c0.26,1.46,0.96,2.55,2.12,3.27c1.16,0.73,2.94,1.23,5.35,1.51l4.36,0.51
			c4.22,0.51,7.62,1.63,10.2,3.36c2.59,1.72,4.2,4.41,4.84,8.05c0.34,1.94,0.28,3.79-0.17,5.55c-0.45,1.76-1.27,3.34-2.45,4.75
			c-1.18,1.41-2.75,2.61-4.71,3.6c-1.96,1-4.25,1.72-6.88,2.18c-2.19,0.38-4.23,0.54-6.11,0.47c-1.88-0.07-3.53-0.31-4.95-0.71
			s-2.56-0.95-3.42-1.65c-0.86-0.7-1.37-1.51-1.53-2.44c-0.17-0.97-0.03-1.85,0.42-2.63c0.45-0.78,1.03-1.41,1.73-1.88
			c1.33,0.87,3.07,1.62,5.22,2.24C324.32,155.47,326.78,155.54,329.54,155.06z"/>
		<path class="st5" d="M397.82,119.48c-0.07,0.84-0.36,1.55-0.87,2.15c-0.51,0.6-1.09,1.02-1.74,1.26
			c-1.18-0.94-2.55-1.85-4.11-2.72c-1.55-0.87-3.56-1.41-6.02-1.62c-2.12-0.18-4.1,0.03-5.92,0.62s-3.43,1.54-4.83,2.86
			c-1.4,1.32-2.55,3.01-3.45,5.06c-0.9,2.05-1.46,4.46-1.7,7.21c-0.46,5.55,0.54,9.87,3,12.94c2.46,3.08,5.91,4.8,10.35,5.17
			c2.36,0.2,4.44,0.03,6.23-0.52c1.8-0.54,3.35-1.21,4.68-1.98c0.5,0.39,0.95,0.92,1.36,1.6c0.41,0.68,0.57,1.43,0.5,2.27
			c-0.06,0.69-0.29,1.31-0.7,1.87c-0.41,0.56-1.05,1.05-1.91,1.47c-1.12,0.6-2.62,1.1-4.49,1.48c-1.88,0.39-4.22,0.46-7.01,0.23
			c-3.09-0.26-5.92-0.98-8.49-2.16c-2.57-1.18-4.77-2.82-6.58-4.93c-1.82-2.11-3.17-4.67-4.05-7.69c-0.89-3.02-1.17-6.49-0.84-10.43
			c0.32-3.83,1.18-7.18,2.59-10.03c1.4-2.85,3.16-5.18,5.28-6.98c2.12-1.8,4.52-3.1,7.21-3.89c2.69-0.79,5.5-1.06,8.44-0.82
			c2.07,0.17,3.93,0.51,5.56,1.02c1.63,0.51,3.01,1.11,4.15,1.8c1.13,0.69,1.99,1.45,2.57,2.29
			C397.63,117.88,397.89,118.69,397.82,119.48z"/>
		<path class="st5" d="M450.48,126.74c0.68,0.07,1.37,0.21,2.07,0.42c1.34,0.4,2.28,0.96,2.8,1.68c0.52,0.72,0.58,1.74,0.19,3.06
			l-11.82,39.86c-0.42,0.03-0.95,0.02-1.62-0.05c-0.66-0.07-1.34-0.2-2.04-0.41c-1.44-0.43-2.39-1.01-2.85-1.73
			c-0.47-0.73-0.51-1.73-0.13-3.01l4.6-15.53l-19.41-5.75l-5.49,18.51c-0.42,0.03-0.94,0.02-1.57-0.04
			c-0.64-0.06-1.33-0.2-2.07-0.42c-1.44-0.43-2.39-1.01-2.86-1.73c-0.46-0.73-0.51-1.73-0.13-3.01l11.84-39.93
			c0.4,0.02,0.93,0.06,1.59,0.12c0.66,0.07,1.34,0.21,2.04,0.41c1.35,0.4,2.28,0.96,2.8,1.68c0.52,0.72,0.58,1.74,0.19,3.06
			l-4.5,15.18l19.41,5.75l5.41-18.23C449.27,126.62,449.79,126.66,450.48,126.74z"/>
		<path class="st5" d="M505.96,179.39c-1.93,3.33-4.1,5.99-6.52,7.98c-2.41,1.99-4.95,3.35-7.61,4.09
			c-2.67,0.73-5.39,0.88-8.15,0.44c-2.76-0.44-5.49-1.44-8.17-2.99c-2.68-1.56-4.9-3.43-6.67-5.63c-1.77-2.2-3-4.63-3.65-7.3
			c-0.67-2.66-0.73-5.54-0.19-8.62c0.53-3.09,1.76-6.29,3.69-9.62c1.94-3.33,4.11-5.96,6.54-7.92c2.42-1.96,4.96-3.31,7.64-4.07
			c2.68-0.75,5.42-0.91,8.21-0.45c2.78,0.45,5.48,1.43,8.07,2.94c2.63,1.53,4.82,3.39,6.58,5.58c1.75,2.19,2.96,4.63,3.63,7.33
			c0.67,2.7,0.76,5.59,0.26,8.66C509.11,172.87,507.9,176.07,505.96,179.39z M499.12,175.42c2.78-4.78,3.83-9.03,3.14-12.76
			c-0.68-3.74-2.82-6.65-6.42-8.74c-3.52-2.04-7.08-2.43-10.7-1.17c-3.61,1.26-6.8,4.26-9.55,8.99c-2.77,4.78-3.83,9.04-3.15,12.8
			c0.67,3.75,2.78,6.67,6.34,8.73c3.6,2.09,7.19,2.5,10.79,1.22C493.16,183.22,496.35,180.2,499.12,175.42z"/>
		<path class="st5" d="M550.48,221.36c-2.75,2.68-5.56,4.66-8.42,5.93c-2.86,1.27-5.68,1.9-8.44,1.89
			c-2.76-0.01-5.42-0.59-7.97-1.75c-2.55-1.16-4.9-2.85-7.07-5.07c-2.16-2.22-3.8-4.62-4.92-7.21c-1.12-2.6-1.64-5.26-1.56-8.01
			c0.08-2.75,0.78-5.53,2.12-8.36c1.34-2.83,3.39-5.59,6.14-8.27c2.75-2.69,5.56-4.65,8.42-5.88c2.86-1.24,5.68-1.86,8.46-1.87
			c2.78-0.01,5.46,0.57,8.02,1.76c2.56,1.18,4.89,2.84,6.99,4.99c2.13,2.18,3.74,4.56,4.85,7.14c1.1,2.57,1.61,5.25,1.53,8.03
			c-0.08,2.78-0.77,5.58-2.07,8.41C555.26,215.92,553.23,218.68,550.48,221.36z M544.96,215.7c3.95-3.86,6.1-7.68,6.44-11.46
			c0.34-3.78-0.94-7.16-3.85-10.14c-2.84-2.91-6.17-4.24-9.99-3.99s-7.69,2.28-11.61,6.11c-3.95,3.86-6.11,7.69-6.47,11.48
			c-0.36,3.8,0.9,7.17,3.77,10.11c2.9,2.98,6.26,4.33,10.07,4.07S541,219.56,544.96,215.7z"/>
		<path class="st5" d="M544.06,249.98c0.28-1.07,0.97-1.93,2.08-2.58l34.96-20.81c0.28,0.28,0.65,0.67,1.09,1.17
			c0.44,0.5,0.85,1.06,1.22,1.68c0.72,1.21,1.02,2.25,0.92,3.13c-0.11,0.88-0.76,1.67-1.94,2.38l-30.19,17.98l10.06,16.9
			c-0.17,0.38-0.44,0.8-0.81,1.24c-0.37,0.45-0.85,0.84-1.44,1.2c-0.97,0.58-1.85,0.79-2.63,0.64c-0.78-0.16-1.4-0.61-1.84-1.35
			l-10.91-18.34C543.96,252.12,543.78,251.05,544.06,249.98z"/>
	</g>
</g>
<circle class="st6" cx="594.67" cy="356.24" r="13.57"/>
<circle class="st6" cx="132.97" cy="365.51" r="13.57"/>
<g>
	<g>
		<path class="st5" d="M166.69,436.15l5.28,9.23c1.04,1.82,1.36,3.59,0.96,5.31c-0.4,1.71-1.55,3.11-3.43,4.19
			c-1.62,0.93-3.32,1.24-5.1,0.93c-1.78-0.31-3.25-1.5-4.43-3.56l-3.68-6.44l-8.79,5.03l-1.6-2.79L166.69,436.15z M170.02,448.61
			c-0.06-0.78-0.39-1.71-1-2.77l-3.16-5.52l-7.2,4.12l3.16,5.52c0.71,1.24,1.56,2.1,2.54,2.57c0.98,0.47,2.15,0.31,3.51-0.46
			C169.39,451.19,170.11,450.04,170.02,448.61z"/>
		<path class="st5" d="M177.61,454.9l6.03,8.95c0.99,1.47,1.59,2.84,1.79,4.09c0.37,2.38-0.58,4.35-2.86,5.88
			c-1.19,0.8-2.33,1.22-3.41,1.24c-1.09,0.03-2.15-0.25-3.2-0.81c0.2,0.98,0.18,1.84-0.08,2.58c-0.25,0.73-0.94,1.51-2.06,2.33
			l-2.6,1.88c-0.74,0.54-1.26,0.98-1.56,1.33c-0.52,0.58-0.74,1.15-0.64,1.68l-0.45,0.3l-2.2-3.27c0.11-0.2,0.29-0.42,0.52-0.66
			c0.23-0.23,0.73-0.63,1.48-1.19l3.2-2.39c1.26-0.94,1.81-1.99,1.67-3.15c-0.09-0.66-0.49-1.52-1.21-2.58l-3.98-5.9l-8.52,5.74
			l-1.8-2.67L177.61,454.9z M174.35,469.7c0.82,1.21,1.72,2.01,2.7,2.37c0.98,0.37,2.13,0.11,3.45-0.77
			c1.42-0.95,2.05-2.1,1.89-3.44c-0.09-0.71-0.43-1.51-1.03-2.4l-4.27-6.34l-6.79,4.57L174.35,469.7z"/>
		<path class="st5" d="M190.87,474.19l10.67,13.54l-2.3,1.81l-8.72-11.07l-5.71,4.5l8.07,10.24l-2.18,1.71l-8.07-10.23l-6.37,5.02
			l8.88,11.26l-2.24,1.76l-10.82-13.73L190.87,474.19z"/>
		<path class="st5" d="M204.05,490.83l3.16,3.36l-10.07,18.84l19.39-8.94l3.14,3.34l-17.44,16.41l-2.1-2.24l10.29-9.68
			c0.36-0.34,0.95-0.88,1.79-1.64c0.84-0.76,1.73-1.58,2.67-2.46l-19.36,8.9l-2.19-2.32l10.02-18.83l-0.53,0.5
			c-0.43,0.4-1.07,1.03-1.92,1.87c-0.85,0.85-1.48,1.46-1.9,1.85l-10.3,9.68l-2.1-2.24L204.05,490.83z"/>
		<path class="st5" d="M223.61,510.85l2.39,2.2l-16.23,17.61l-2.39-2.21L223.61,510.85z"/>
		<path class="st5" d="M232.3,518.66l-9.24,11.56c-1.09,1.35-1.73,2.69-1.94,4c-0.33,1.96,0.4,3.66,2.19,5.09
			c2.14,1.72,4.19,2.15,6.14,1.3c1.05-0.47,2.12-1.37,3.2-2.72l9.24-11.56l2.54,2.03l-8.4,10.5c-1.84,2.3-3.56,3.82-5.17,4.57
			c-2.94,1.36-5.98,0.78-9.12-1.74c-3.14-2.52-4.37-5.35-3.69-8.5c0.38-1.73,1.48-3.75,3.32-6.05l8.4-10.5L232.3,518.66z"/>
		<path class="st5" d="M247.65,530.8l3.92,2.43l-4.87,20.8l16.43-13.64l3.89,2.41l-12.62,20.35l-2.61-1.62l7.45-12.01
			c0.26-0.42,0.69-1.1,1.31-2.05c0.61-0.95,1.26-1.98,1.94-3.07l-16.41,13.59l-2.71-1.68l4.83-20.77l-0.39,0.62
			c-0.31,0.5-0.77,1.27-1.37,2.3c-0.61,1.04-1.06,1.8-1.36,2.28l-7.45,12.01l-2.61-1.62L247.65,530.8z"/>
		<path class="st5" d="M278.69,548.46l2.92,1.16l-4.32,10.89l15.36-6.52l4.18,1.66l-13,5.24l4.36,17.1l-3.91-1.55l-3.47-14.32
			l-4.96,2l-3.08,7.76l-2.91-1.15L278.69,548.46z"/>
		<path class="st5" d="M299.53,556.15l3.11,0.93l-6.86,22.95l-3.11-0.93L299.53,556.15z"/>
		<path class="st5" d="M307.3,558.6l9.31,1.85c3.16,0.63,5.38,2.27,6.67,4.91c1.14,2.38,1.39,5.18,0.75,8.41
			c-0.49,2.49-1.4,4.65-2.72,6.48c-2.32,3.24-5.46,4.47-9.4,3.68l-9.28-1.85L307.3,558.6z M311.85,581.09
			c1.04,0.21,1.92,0.26,2.64,0.18c1.28-0.18,2.42-0.78,3.42-1.82c0.8-0.82,1.48-1.95,2.04-3.38c0.33-0.85,0.57-1.66,0.72-2.42
			c0.58-2.91,0.47-5.28-0.33-7.11c-0.8-1.83-2.44-3-4.94-3.49l-5.47-1.09L306.35,580L311.85,581.09z"/>
		<path class="st5" d="M330.78,579.06c-0.02,1.36,0.21,2.49,0.69,3.37c0.91,1.65,2.67,2.57,5.25,2.75c1.16,0.08,2.23-0.02,3.21-0.3
			c1.89-0.54,2.9-1.68,3.02-3.42c0.09-1.3-0.23-2.25-0.98-2.86c-0.75-0.6-1.96-1.15-3.62-1.67l-3.06-0.95c-2-0.62-3.4-1.25-4.2-1.88
			c-1.39-1.1-2.01-2.64-1.87-4.62c0.15-2.14,0.99-3.86,2.52-5.13c1.53-1.28,3.61-1.83,6.23-1.64c2.42,0.17,4.43,0.92,6.03,2.24
			c1.61,1.33,2.32,3.32,2.13,5.98l-3.02-0.21c-0.07-1.29-0.33-2.3-0.78-3.01c-0.85-1.31-2.4-2.05-4.65-2.2
			c-1.81-0.13-3.15,0.18-4,0.93c-0.85,0.75-1.31,1.65-1.38,2.71c-0.08,1.17,0.33,2.06,1.23,2.67c0.59,0.39,1.95,0.92,4.08,1.59
			l3.16,0.99c1.53,0.48,2.69,1.07,3.49,1.76c1.38,1.22,2,2.89,1.85,5.02c-0.19,2.64-1.25,4.47-3.19,5.48s-4.14,1.42-6.61,1.25
			c-2.87-0.2-5.07-1.12-6.59-2.75c-1.52-1.62-2.17-3.72-1.96-6.29L330.78,579.06z"/>
		<path class="st5" d="M359.98,563.74l10.23-0.93c2.79-0.26,4.85,0.4,6.18,1.95c0.78,0.92,1.23,2.03,1.35,3.32
			c0.14,1.5-0.17,2.78-0.93,3.82c-0.39,0.55-0.99,1.08-1.77,1.57c1.26,0.35,2.21,0.79,2.87,1.32c1.16,0.94,1.82,2.33,1.99,4.16
			c0.14,1.54-0.21,2.97-1.06,4.3c-1.27,1.99-3.46,3.13-6.6,3.41l-10.06,0.92L359.98,563.74z M369.93,572.99
			c1.37-0.12,2.41-0.41,3.14-0.86c1.14-0.71,1.64-1.83,1.5-3.38c-0.14-1.56-0.87-2.55-2.19-2.98c-0.74-0.24-1.82-0.29-3.23-0.16
			l-5.77,0.52l0.68,7.39L369.93,572.99z M372.02,583.91c1.98-0.18,3.34-0.89,4.08-2.11c0.47-0.77,0.65-1.67,0.56-2.7
			c-0.16-1.73-1.04-2.84-2.65-3.33c-0.85-0.26-1.96-0.33-3.31-0.2l-6.42,0.59l0.76,8.39L372.02,583.91z"/>
		<path class="st5" d="M388.39,560.5l3.58-0.62L404.56,582l-3.47,0.6l-3.6-6.65l-9.25,1.61l-1.3,7.51l-3.25,0.56L388.39,560.5z
			 M396.01,573.52l-5.36-9.81l-1.96,11.08L396.01,573.52z"/>
		<path class="st5" d="M402.8,557.81l3.04-0.77l2.88,11.36l8.64-14.28l4.36-1.1l-7.46,11.86l13.54,11.3l-4.08,1.03l-11.2-9.58
			l-2.85,4.53l2.05,8.09l-3.04,0.77L402.8,557.81z"/>
		<path class="st5" d="M424.74,551.9l3.1-0.97l7.1,22.87l-3.1,0.96L424.74,551.9z"/>
		<path class="st5" d="M432.62,549.53l3.55-1.33l17.88,13.97l-6.79-18.12l2.88-1.07l8.4,22.42l-3.38,1.27l-18.03-13.88l6.78,18.1
			l-2.88,1.07L432.62,549.53z"/>
		<path class="st5" d="M469,534.94c2.64,0.11,4.87,1.46,6.7,4.06l-2.86,1.39c-1.11-1.41-2.37-2.22-3.79-2.42s-2.95,0.1-4.59,0.89
			c-1.93,0.94-3.21,2.47-3.81,4.61c-0.6,2.14-0.18,4.69,1.25,7.66c1.24,2.56,2.79,4.39,4.67,5.46c1.87,1.08,4.04,1.03,6.52-0.17
			c1.89-0.91,3.19-2.23,3.88-3.97c0.69-1.73,0.44-3.86-0.75-6.4l-6.69,3.23l-1.17-2.42l9.39-4.54l5.57,11.54l-1.86,0.9l-2.04-2.44
			c-0.44,1.55-0.93,2.72-1.47,3.5c-0.9,1.33-2.32,2.46-4.24,3.39c-2.5,1.2-5.03,1.42-7.63,0.63c-2.96-1.13-5.31-3.5-7.06-7.12
			c-1.75-3.61-2.18-6.95-1.3-10c0.83-2.91,2.69-5.07,5.58-6.46C465.27,535.29,467.17,534.85,469,534.94z"/>
		<path class="st5" d="M495.68,537.64c0.81,1.09,1.69,1.84,2.61,2.24c1.74,0.74,3.68,0.39,5.84-1.05c0.97-0.65,1.75-1.38,2.35-2.2
			c1.16-1.59,1.26-3.1,0.29-4.55c-0.72-1.08-1.57-1.64-2.53-1.66c-0.96-0.01-2.26,0.29-3.88,0.9l-3,1.13
			c-1.96,0.74-3.45,1.1-4.47,1.09c-1.77-0.02-3.21-0.85-4.32-2.5c-1.2-1.79-1.59-3.66-1.16-5.6c0.42-1.95,1.73-3.66,3.92-5.12
			c2.01-1.35,4.06-1.99,6.14-1.92c2.08,0.06,3.86,1.2,5.35,3.41l-2.51,1.68c-0.84-0.98-1.67-1.61-2.47-1.9
			c-1.48-0.52-3.15-0.14-5.02,1.11c-1.51,1.02-2.37,2.08-2.58,3.19c-0.22,1.11-0.02,2.11,0.57,3c0.65,0.98,1.52,1.42,2.6,1.35
			c0.7-0.05,2.11-0.47,4.2-1.24l3.11-1.16c1.5-0.56,2.78-0.81,3.84-0.75c1.84,0.11,3.35,1.06,4.53,2.83c1.48,2.2,1.76,4.3,0.85,6.28
			c-0.91,1.99-2.4,3.67-4.45,5.04c-2.39,1.61-4.69,2.23-6.89,1.87c-2.19-0.34-4-1.6-5.41-3.77L495.68,537.64z"/>
		<path class="st5" d="M516.45,503.91c2.28,0.17,4.15,0.97,5.59,2.41l-2.4,2.01c-1.26-0.95-2.58-1.44-3.96-1.46
			c-1.38-0.02-2.79,0.58-4.23,1.79c-1.76,1.48-2.64,3.31-2.66,5.49c-0.01,2.18,1.08,4.58,3.28,7.2c1.81,2.15,3.76,3.48,5.86,3.99
			c2.1,0.52,4.12-0.04,6.06-1.67c1.78-1.5,2.55-3.34,2.3-5.53c-0.13-1.16-0.58-2.44-1.35-3.85l2.4-2.02
			c1.41,2.11,2.07,4.31,1.98,6.62c-0.11,2.77-1.37,5.18-3.79,7.21c-2.09,1.75-4.38,2.58-6.88,2.48c-3.3-0.13-6.45-1.99-9.45-5.55
			c-2.27-2.71-3.44-5.51-3.49-8.42c-0.07-3.16,1.23-5.86,3.9-8.1C511.89,504.61,514.17,503.74,516.45,503.91z"/>
		<path class="st5" d="M519.98,498.34l2.21-2.38l7.25,6.73l8.31-8.94l-7.25-6.73l2.21-2.38l17.55,16.3l-2.21,2.38l-8.21-7.62
			l-8.3,8.94l8.2,7.62l-2.21,2.38L519.98,498.34z"/>
		<path class="st5" d="M549.47,467.36c2.64-0.07,5.31,0.85,8.01,2.75c2.93,2.05,4.84,4.5,5.75,7.33c1.07,3.33,0.47,6.59-1.78,9.79
			c-2.1,2.99-4.75,4.64-7.94,4.95c-3,0.18-5.96-0.77-8.89-2.82c-2.65-1.86-4.46-4.11-5.43-6.74c-1.25-3.37-0.71-6.7,1.59-9.98
			C543.19,469.21,546.09,467.45,549.47,467.36z M560.33,478.46c-0.95-2.22-2.52-4.09-4.7-5.62c-2.3-1.62-4.58-2.32-6.83-2.11
			c-2.24,0.21-4.09,1.34-5.55,3.42c-1.41,2.01-1.87,4.14-1.36,6.39c0.5,2.25,2.1,4.32,4.82,6.23c2.17,1.53,4.39,2.27,6.64,2.22
			c2.26-0.04,4.24-1.28,5.96-3.72C560.93,482.94,561.28,480.67,560.33,478.46z"/>
		<path class="st5" d="M561.27,445.2c2.6-0.44,5.38,0.08,8.32,1.59c3.19,1.62,5.43,3.77,6.72,6.45c1.52,3.14,1.4,6.46-0.38,9.95
			c-1.65,3.26-4.04,5.26-7.16,6.02c-2.94,0.6-6.01,0.08-9.2-1.54c-2.88-1.47-4.99-3.43-6.33-5.9c-1.7-3.16-1.65-6.53,0.17-10.11
			C555.32,447.91,557.94,445.76,561.27,445.2z M573.59,454.65c-1.25-2.06-3.07-3.69-5.45-4.9c-2.51-1.27-4.86-1.66-7.05-1.13
			c-2.19,0.52-3.87,1.91-5.01,4.17c-1.12,2.19-1.27,4.36-0.45,6.52c0.81,2.16,2.7,3.98,5.65,5.49c2.37,1.2,4.66,1.62,6.89,1.26
			c2.23-0.36,4.02-1.87,5.37-4.53C574.83,459,574.84,456.71,573.59,454.65z"/>
		<path class="st5" d="M560.24,438.6l1.11-3.02l19.8,7.29l4.12-11.18l2.67,0.98l-5.23,14.2L560.24,438.6z"/>
	</g>
</g>
</svg>
