<?xml version="1.0" encoding="utf-8"?>
<!-- Generator: Adobe Illustrator 25.0.1, SVG Export Plug-In . SVG Version: 6.00 Build 0)  -->
<svg version="1.1" id="레이어_1" xmlns="http://www.w3.org/2000/svg" xmlns:xlink="http://www.w3.org/1999/xlink" x="0px"
	 y="0px" viewBox="0 0 740.91 693.18" style="enable-background:new 0 0 740.91 693.18;" xml:space="preserve">
<style type="text/css">
	.st0{opacity:0.5;fill:#D6487D;}
	.st1{fill:#D6487D;}
</style>
<path class="st0" d="M535.26,421.06v-5.85c33.44-11.8,56.77-43.65,56.77-80.31c0-38.55-25.79-71.78-62-81.97
	c-0.41-0.34-0.85-0.66-1.3-0.95c4.31-14.4,6.53-29.46,6.53-44.82c0-17.66-2.94-34.92-8.61-51.25c5.61-10.29,8.61-21.88,8.61-33.91
	c0-39.2-31.77-70.97-70.96-70.97c-12.02,0-23.62,3.01-33.91,8.61c-16.33-5.67-33.6-8.61-51.25-8.61c-17.65,0-34.92,2.94-51.25,8.61
	c-10.29-5.6-21.88-8.61-33.91-8.61c-39.19,0-70.96,31.77-70.96,70.97c0,12.02,3,23.62,8.61,33.91c-5.67,16.33-8.61,33.59-8.61,51.25
	c0,15.36,2.22,30.42,6.53,44.82c-0.45,0.29-0.89,0.6-1.3,0.95c-36.21,10.19-62,43.42-62,81.97c0,36.66,23.33,68.51,56.77,80.31v5.85
	h0.01c-48.15,6.89-85.16,48.3-85.16,98.35c0,54.87,44.48,99.35,99.35,99.35c26.4,0,51.16-10.37,69.53-28.38h144.79
	c18.37,18.02,43.13,28.38,69.53,28.38c54.87,0,99.35-44.48,99.35-99.35C620.42,469.35,583.41,427.95,535.26,421.06z"/>
<g>
	<path class="st1" d="M113.41,540.71c-1.13,0.19-4.46,0.54-9.99,1.05l-1.58-12.21l-7.82,0.47l-1.64,12.09l-9.34-1.28l10.1-39.02
		l10.46-0.47L113.41,540.71z M101.14,523.59l-3.68-10.63l-2.86,10.69L101.14,523.59z"/>
	<path class="st1" d="M126.02,501.57l-1.23,39.95l-9.58-0.58l-0.41-38.02L126.02,501.57z"/>
	<path class="st1" d="M143.26,501.57l-1.23,39.95l-9.58-0.58l-0.41-38.02L143.26,501.57z"/>
	<path class="st1" d="M178.12,501.57l-1.23,39.95l-9.58-0.58l-0.41-38.02L178.12,501.57z"/>
	<path class="st1" d="M223.03,511.68l-13.55,0.7l0.64,3.74l7.13-0.76l0.23,7.48l-6.95,0.64l1.57,16.35l-10.33,1.11l0.12-37.85
		l20.62-1.05C222.59,503.79,222.76,507,223.03,511.68z"/>
	<path class="st1" d="M255.68,544.21l-11.39-1.4l0.41-3.1c-5.33,0.12-9.67-0.41-13.02-1.58c-4.87-1.71-7.11-4.67-6.72-8.88
		c0.55-5.88,4.99-8.82,13.32-8.82c2.72,0,5.59,0.32,8.59,0.94c0.08-2.72-0.16-4.95-0.7-6.66c-0.78-2.33-2.12-3.49-4.03-3.45
		c-2.96,0.08-4.42,2.53-4.38,7.36l-8.99-0.76c0.35-4.32,1.32-7.82,2.92-10.51c2.22-3.89,5.57-5.84,10.05-5.84
		c4.86,0,8.49,2.14,10.86,6.42c1.64,2.96,2.49,6.47,2.57,10.51L255.68,544.21z M246.11,527.45c-2.65-0.54-5.04-0.82-7.18-0.82
		c-3.85,0-5.82,0.97-5.9,2.92c-0.12,2.53,2.02,3.8,6.42,3.8c1.95,0,4.05-0.24,6.31-0.7L246.11,527.45z"/>
	<path class="st1" d="M293.25,542.93l-10.28,1.05l0.12-18.81c0.08-10.24-1.33-15.32-4.2-15.24c-3.27,0.08-5.59,1.81-6.95,5.19
		c-0.86,2.07-1.29,4.54-1.29,7.42c-0.04,3.89,0.39,10.2,1.29,18.92l-9.52,1.4l-1.69-39.95l8.47-1.29l0.23,3.04
		c2.53-2.18,5.47-3.27,8.82-3.27c4.91,0,8.66,2.12,11.28,6.36c1.95,3.16,2.96,6.64,3.03,10.46
		C292.62,521.61,292.85,529.84,293.25,542.93z"/>
	<path class="st1" d="M318.88,519.68c-0.35-6.23-2.33-9.11-5.96-8.65c-2.49,0.31-4.34,2.51-5.55,6.6c-0.82,2.76-1.19,5.24-1.11,7.42
		c0.12,4.01,2.32,6.01,6.6,6.01c3.35,0,7.81-1.26,13.37-3.8l3.21,9.58c-7.44,3.19-13.76,4.79-18.98,4.79
		c-3.74,0-6.49-0.91-8.24-2.74c-3.43-3.54-5.14-8.24-5.14-14.08c0-5.65,1.5-10.71,4.5-15.19c3.16-4.71,6.91-7.13,11.27-7.24
		c5.57-0.16,9.54,2.34,11.92,7.48c0.97,2.14,1.61,4.73,1.93,7.77L318.88,519.68z"/>
	<path class="st1" d="M357.84,528.38c-0.5,3.62-1.71,6.85-3.62,9.69c-2.65,3.89-6.11,5.84-10.4,5.84c-0.58,0-1.17-0.04-1.75-0.12
		c-7.09-0.85-10.73-6.03-10.92-15.53l8.94-1.11c-0.04,0.5-0.06,1-0.06,1.46c0,3.35,1.21,5.2,3.62,5.55
		c3.54,0.54,5.55-3.02,6.02-10.69c-3.04,1.05-5.73,1.58-8.06,1.58c-7.24,0-10.86-4.69-10.86-14.08c0-2.88,0.33-5.8,1-8.76l9.46,0.47
		c-1.09,3.66-1.64,6.91-1.64,9.75c0,1.09,0.1,2.06,0.29,2.92c0.35,1.6,1.58,2.39,3.68,2.39c2.02,0,4.09-0.52,6.19-1.58l-0.12-13.02
		l10.04-0.88c-0.16,3.62-0.33,6.97-0.52,10.05C358.69,519.72,358.27,525.07,357.84,528.38z"/>
	<path class="st1" d="M404.74,517.93l-9.34,1.29c0.27-1.48,0.41-2.96,0.41-4.44c0-4.75-1.52-6.95-4.56-6.6
		c-2.33,0.27-3.5,2.22-3.5,5.84c0,2.49,0.5,5.39,1.52,8.7l11.92-1.52l0.64,7.82l-10.81,0.94l2.33,12.03l-9.69,1.93l-3.33-27.97
		c-0.12-1.13-0.17-2.22-0.17-3.27c0-8.06,3.6-12.56,10.81-13.49c0.58-0.08,1.15-0.12,1.69-0.12c5.02,0,8.55,3.15,10.57,9.46
		C404.04,511.13,404.54,514.27,404.74,517.93z"/>
	<path class="st1" d="M438.5,523.3c0,6.15-1.09,10.73-3.27,13.73c-2.65,3.66-7.13,5.39-13.43,5.19c-5.77-0.19-9.58-2.3-11.45-6.31
		c-1.21-2.61-1.81-7.28-1.81-14.02c0-5.37,1.56-10,4.67-13.9c3.03-3.78,6.54-5.66,10.51-5.66c4.01,0,7.44,1.95,10.28,5.84
		C437,512.22,438.5,517.27,438.5,523.3z M423.84,511.74c-1.4,0.31-2.65,1.03-3.74,2.16c-1.83,1.91-2.77,4.69-2.81,8.35
		c0,4.01,0.37,6.83,1.11,8.47c0.74,1.64,2.14,2.5,4.2,2.57c2.22,0.08,4.06-0.93,5.52-3.01c1.46-2.08,2.09-4.74,1.9-7.98
		c-0.19-3.11-0.99-5.7-2.39-7.77C426.39,512.71,425.12,511.78,423.84,511.74z"/>
	<path class="st1" d="M473.95,520.32l-10.57,2.75c-0.82-8.61-2.16-12.91-4.03-12.91c-1.79,0-3.1,0.46-3.91,1.37
		c-0.82,0.92-1.23,2.47-1.23,4.65c0,3.08,0.29,11.33,0.88,24.77H444.4l-0.41-38.02l8.82-1.58l0.35,2.98
		c1.64-1.32,3.54-2.3,5.72-2.92c0.78-0.23,1.56-0.35,2.33-0.35c4.05,0,7.4,3.21,10.05,9.64
		C472.35,513.37,473.25,516.58,473.95,520.32z"/>
	<path class="st1" d="M521.08,524.06c0.19,3-0.5,5.94-2.1,8.82c-3.16,5.53-9.07,8.3-17.76,8.3c-2.14,0-4.44-0.17-6.89-0.52
		l0.17-46.78l8.94,0.47l-0.41,10.51c7.9-0.5,13.28,2.45,16.12,8.88C520.64,517.03,521.28,520.47,521.08,524.06z M513.73,523.13
		c-0.12-2.22-0.54-4.11-1.29-5.66c-1.75-3.74-4.86-5.53-9.34-5.37l-0.76,22.14c0.54,0.04,1.09,0.06,1.64,0.06
		c4.44,0,7.4-1.85,8.88-5.55C513.47,527.17,513.76,525.3,513.73,523.13z"/>
	<path class="st1" d="M552.1,544.21l-11.39-1.4l0.41-3.1c-5.33,0.12-9.67-0.41-13.02-1.58c-4.87-1.71-7.11-4.67-6.72-8.88
		c0.55-5.88,4.99-8.82,13.32-8.82c2.72,0,5.59,0.32,8.59,0.94c0.08-2.72-0.16-4.95-0.7-6.66c-0.78-2.33-2.12-3.49-4.03-3.45
		c-2.96,0.08-4.42,2.53-4.38,7.36l-8.99-0.76c0.35-4.32,1.32-7.82,2.92-10.51c2.22-3.89,5.57-5.84,10.05-5.84
		c4.86,0,8.49,2.14,10.86,6.42c1.64,2.96,2.49,6.47,2.57,10.51L552.1,544.21z M542.52,527.45c-2.65-0.54-5.04-0.82-7.18-0.82
		c-3.85,0-5.82,0.97-5.9,2.92c-0.12,2.53,2.02,3.8,6.42,3.8c1.95,0,4.05-0.24,6.31-0.7L542.52,527.45z"/>
	<path class="st1" d="M578.38,521.72c3.12,2.02,5.41,4.71,6.89,8.06c2.22,5.14,3.23,12.75,3.04,22.83l-13.43,0.94
		c0.93-5.22,1.4-10.07,1.4-14.54c0-9.19-2.18-13.79-6.54-13.79c-0.74,0-1.52,0.14-2.34,0.41l-0.35,15.31h-9.93v-38.02l10.75-0.7
		l-0.47,15.48c5.84-0.19,8.76-3.58,8.76-10.16c0-0.93-0.06-1.91-0.17-2.92l9.4,2.63C584.77,513.78,582.43,518.61,578.38,521.72z"/>
	<path class="st1" d="M603.15,491.52c1.09,0.82,1.64,2.01,1.64,3.56c0,3.16-2.04,6.04-6.14,8.65c-5.06-2.14-7.59-4.85-7.59-8.12
		c0-1.05,0.29-2.11,0.88-3.16c0.7-0.74,1.51-1.11,2.45-1.11c1.29,0,2.53,0.78,3.74,2.34c0.85-1.95,1.91-2.92,3.16-2.92
		C601.94,490.77,602.56,491.02,603.15,491.52z M605.66,541l-13.84-0.47l1.17-33.35l10.75-1.4L605.66,541z"/>
	<path class="st1" d="M644.62,542.93l-10.28,1.05l0.12-18.81c0.08-10.24-1.33-15.32-4.2-15.24c-3.27,0.08-5.59,1.81-6.95,5.19
		c-0.86,2.07-1.29,4.54-1.29,7.42c-0.04,3.89,0.39,10.2,1.29,18.92l-9.52,1.4l-1.69-39.95l8.47-1.29l0.23,3.04
		c2.53-2.18,5.47-3.27,8.82-3.27c4.91,0,8.66,2.12,11.28,6.36c1.95,3.16,2.96,6.64,3.03,10.46
		C643.99,521.61,644.23,529.84,644.62,542.93z"/>
	<path class="st1" d="M675.63,531.71c0.12,1.13,0.17,2.22,0.17,3.27c0,8.06-3.6,12.56-10.81,13.49c-0.58,0.08-1.15,0.12-1.69,0.12
		c-5.02,0-8.55-3.16-10.57-9.46c-0.82-2.61-1.33-5.74-1.52-9.4l9.34-1.29c-0.27,1.48-0.41,2.96-0.41,4.44c0,4.75,1.52,6.95,4.55,6.6
		c2.65-0.31,3.98-2.81,3.98-7.48c0-2.3-0.3-4.77-0.88-7.42l-0.06-0.17c-1.44,1.67-3.78,2.61-7.01,2.8c-3.58,0.23-6.6-0.76-9.05-2.98
		c-2.3-2.06-3.45-4.53-3.45-7.42c0-0.5,0.04-1.01,0.12-1.51c1.13-6.54,4.5-9.82,10.11-9.82c1.64,0,3.33,0.25,5.08,0.76l-0.59-2.63
		l9.82-2.39L675.63,531.71z M666.05,518.51l-1.75-7.94c-5.1,1.17-7.65,3.1-7.65,5.78c0,0.47,0.08,0.94,0.23,1.4
		c0.58,1.75,1.79,2.63,3.62,2.63C662.14,520.38,663.99,519.76,666.05,518.51z"/>
</g>
<path class="st1" d="M358.65,303.53l-60.69-2.78l-2.42-28.3l-27.28-4.8l-10.74,25.98l-59.95-16.72l75.65-150.95l67.1,8.35
	L358.65,303.53z M297.68,235.09l-1.76-43.23l-16.18,40.08L297.68,235.09z"/>
<path class="st1" d="M402.57,151.5l-7.15,88.46l-27.41,1.43v-88.07L402.57,151.5z"/>
<path class="st1" d="M479.23,166.95c-0.26,4.07-0.5,8.1-0.71,12.08c-0.22,3.98-0.5,8.01-0.85,12.08l-27.54,1.43v8.19h23.9
	l-1.3,20.13l-22.73,0.65l0.13,38.45l-32.86,0.65l2.08-93.66H479.23z"/>
<path class="st1" d="M577.22,207.88c-2.39,5.39-4.71,10.74-6.99,16.04c-2.28,5.3-4.67,10.63-7.17,15.98l-38.1-11.79l-4.08,11.11
	l32.45,11.91l-11.8,26.68l-31.18-10.45l-18.99,52.27l-44.94-15.5l49.5-126.11L577.22,207.88z"/>
<path class="st1" d="M216.15,388.39c0.16,9.69-1.38,18.18-4.62,25.48c-3.25,7.3-7.75,13.41-13.49,18.31
	c-5.76,4.91-12.52,8.63-20.3,11.15s-16.15,3.87-25.13,4.02c-3.47,0.06-7.28-0.34-11.43-1.19c-4.16-0.85-8.36-1.93-12.62-3.24
	c-4.27-1.32-8.38-2.73-12.33-4.26s-7.45-2.97-10.52-4.34l3.96-43.78c6.07,3.51,12.77,6.15,20.13,7.89
	c7.35,1.76,14.56,2.58,21.63,2.46c1.34-0.02,2.97-0.1,4.88-0.24c1.91-0.13,3.72-0.48,5.45-1.04c1.72-0.55,3.17-1.38,4.36-2.46
	c1.19-1.08,1.77-2.61,1.73-4.59c-0.02-1.34-0.47-2.48-1.33-3.42c-0.87-0.94-1.97-1.7-3.33-2.28s-2.88-1.02-4.58-1.31
	c-1.7-0.29-3.37-0.49-5-0.61c-1.63-0.11-3.15-0.16-4.57-0.13c-1.42,0.02-2.55,0.04-3.39,0.06c-6.09,0.1-11.64-0.88-16.66-2.91
	c-5.02-2.04-9.35-4.92-12.98-8.65c-3.63-3.72-6.49-8.17-8.54-13.34c-2.07-5.17-3.16-10.79-3.25-16.87
	c-0.14-8.34,1.43-15.85,4.68-22.52c3.25-6.67,7.65-12.36,13.2-17.08c5.55-4.72,11.94-8.38,19.19-10.98
	c7.24-2.59,14.75-3.95,22.54-4.08c3.46-0.06,7.03,0.01,10.71,0.2s7.35,0.57,11.01,1.15c3.65,0.58,7.22,1.34,10.7,2.27
	c3.49,0.93,6.79,2.11,9.93,3.55l-3.32,43.13c-4.84-1.55-9.9-2.83-15.18-3.83c-5.29-1.02-10.44-1.47-15.46-1.39
	c-0.92,0.02-2.11,0.05-3.55,0.11c-1.45,0.06-2.97,0.19-4.56,0.39c-1.59,0.2-3.2,0.49-4.82,0.87s-3.06,0.89-4.32,1.51
	c-1.26,0.61-2.28,1.43-3.03,2.43c-0.77,1-1.1,2.17-1,3.51c0.09,1.56,0.69,2.8,1.81,3.74c1.11,0.94,2.53,1.65,4.28,2.16
	c1.74,0.5,3.66,0.84,5.74,1.02c2.1,0.18,4.16,0.27,6.21,0.27c2.05,0,3.96-0.03,5.73-0.09c1.76-0.06,3.21-0.04,4.35,0.09
	c5.66,0.26,10.78,1.38,15.33,3.36c4.56,1.97,8.44,4.63,11.64,7.98c3.21,3.34,5.67,7.35,7.41,12.03
	C215.14,377.57,216.06,382.74,216.15,388.39z"/>
<path class="st1" d="M292.63,322.32l-3.64,27.41c-1.25-0.35-2.51-0.59-3.76-0.72c-1.26-0.13-2.51-0.2-3.77-0.2
	c-3.2,0-6.26,0.42-9.16,1.27c-2.9,0.84-5.47,2.13-7.7,3.86c-2.23,1.73-4.01,3.9-5.33,6.49c-1.32,2.6-1.98,5.65-1.98,9.16
	c0,2.25,0.35,4.2,1.07,5.85c0.72,1.64,1.72,3.01,3.02,4.09c1.3,1.09,2.84,1.89,4.61,2.4c1.78,0.52,3.72,0.78,5.85,0.78
	c1.6,0,3.27-0.17,5-0.52c1.73-0.34,3.44-0.8,5.13-1.36c1.69-0.56,3.34-1.21,4.94-1.95c1.6-0.74,3.07-1.5,4.42-2.27l-2.6,30.52
	c-1.69,0.87-3.52,1.64-5.49,2.31c-1.97,0.67-4,1.25-6.08,1.76c-2.08,0.5-4.15,0.87-6.24,1.13c-2.08,0.26-4.07,0.39-5.97,0.39
	c-5.5,0-10.63-1.02-15.4-3.05c-4.76-2.03-8.9-4.83-12.41-8.38c-3.5-3.55-6.27-7.74-8.28-12.57c-2.01-4.83-3.02-10.04-3.02-15.62
	c0-7.41,1.06-14.38,3.18-20.95c2.12-6.56,5.24-12.31,9.36-17.25c4.11-4.93,9.21-8.83,15.3-11.69c6.08-2.86,13.09-4.29,21.01-4.29
	c2.99,0,6.05,0.24,9.19,0.71C287.03,320.13,289.95,321.02,292.63,322.32z"/>
<path class="st1" d="M424.51,452.83l-42.57,7.98l-5.82-39.56l-19.71,2.73l4,37.71L322,467l-13.41-120.96l41.06-3.76l5.94,61.9
	l19.03-2.63l-8.98-66.2l39.23-4.38L424.51,452.83z"/>
<path class="st1" d="M510.49,380.29c0,3.94-0.45,7.74-1.37,11.4c-0.91,3.66-2.22,7.09-3.93,10.3c-1.71,3.2-3.79,6.14-6.24,8.8
	c-2.45,2.67-5.2,4.95-8.25,6.85c-3.06,1.91-6.38,3.39-9.97,4.45c-3.59,1.06-7.41,1.59-11.43,1.59c-3.9,0-7.61-0.5-11.14-1.49
	c-3.53-1-6.83-2.39-9.9-4.19c-3.08-1.8-5.86-3.96-8.35-6.49c-2.49-2.54-4.61-5.35-6.37-8.44c-1.75-3.09-3.11-6.42-4.09-9.97
	c-0.98-3.55-1.46-7.25-1.46-11.11c0-3.77,0.45-7.46,1.37-11.07c0.91-3.62,2.21-7.03,3.93-10.23c1.71-3.2,3.78-6.15,6.2-8.83
	c2.42-2.68,5.14-5,8.15-6.95c3.01-1.95,6.27-3.47,9.78-4.55c3.51-1.08,7.21-1.62,11.11-1.62c6.28,0,12.01,0.98,17.18,2.92
	c5.17,1.95,9.59,4.73,13.25,8.35c3.66,3.62,6.49,7.99,8.51,13.12C509.48,368.24,510.49,373.97,510.49,380.29z M481.66,381.98
	c0-1.86-0.27-3.67-0.81-5.42c-0.54-1.76-1.33-3.31-2.37-4.68c-1.04-1.37-2.33-2.47-3.86-3.32c-1.54-0.84-3.3-1.26-5.3-1.26
	c-2.03,0-3.85,0.37-5.46,1.11c-1.6,0.73-2.98,1.74-4.12,3.02c-1.15,1.28-2.03,2.77-2.64,4.48c-0.61,1.71-0.91,3.52-0.91,5.42
	c0,1.82,0.26,3.64,0.78,5.46c0.52,1.82,1.3,3.46,2.33,4.94c1.04,1.47,2.33,2.66,3.87,3.57c1.53,0.91,3.32,1.37,5.35,1.37
	s3.87-0.4,5.49-1.2c1.62-0.8,2.99-1.88,4.12-3.25c1.13-1.37,1.99-2.94,2.6-4.71C481.35,385.73,481.66,383.89,481.66,381.98z"/>
<path class="st1" d="M615.35,380.29c0,3.94-0.45,7.74-1.37,11.4c-0.91,3.66-2.22,7.09-3.93,10.3c-1.71,3.2-3.79,6.14-6.24,8.8
	c-2.45,2.67-5.2,4.95-8.25,6.85c-3.06,1.91-6.38,3.39-9.97,4.45c-3.59,1.06-7.41,1.59-11.43,1.59c-3.9,0-7.61-0.5-11.14-1.49
	c-3.53-1-6.83-2.39-9.9-4.19c-3.08-1.8-5.86-3.96-8.35-6.49c-2.49-2.54-4.61-5.35-6.37-8.44c-1.75-3.09-3.11-6.42-4.09-9.97
	c-0.98-3.55-1.46-7.25-1.46-11.11c0-3.77,0.45-7.46,1.37-11.07c0.91-3.62,2.21-7.03,3.93-10.23c1.71-3.2,3.78-6.15,6.2-8.83
	c2.42-2.68,5.14-5,8.15-6.95c3.01-1.95,6.27-3.47,9.78-4.55c3.51-1.08,7.21-1.62,11.11-1.62c6.28,0,12.01,0.98,17.18,2.92
	c5.17,1.95,9.59,4.73,13.25,8.35c3.66,3.62,6.49,7.99,8.51,13.12C614.34,368.24,615.35,373.97,615.35,380.29z M586.51,381.98
	c0-1.86-0.27-3.67-0.81-5.42c-0.54-1.76-1.33-3.31-2.37-4.68c-1.04-1.37-2.33-2.47-3.86-3.32c-1.54-0.84-3.3-1.26-5.3-1.26
	c-2.03,0-3.85,0.37-5.46,1.11c-1.6,0.73-2.98,1.74-4.12,3.02c-1.15,1.28-2.03,2.77-2.64,4.48c-0.61,1.71-0.91,3.52-0.91,5.42
	c0,1.82,0.26,3.64,0.78,5.46c0.52,1.82,1.3,3.46,2.33,4.94c1.04,1.47,2.33,2.66,3.87,3.57c1.53,0.91,3.32,1.37,5.36,1.37
	c2.03,0,3.87-0.4,5.49-1.2c1.62-0.8,2.99-1.88,4.12-3.25c1.13-1.37,1.99-2.94,2.6-4.71C586.21,385.73,586.51,383.89,586.51,381.98z"
	/>
<path class="st1" d="M676.99,389.12l-2.73,28.84l-54.69,4.29c0.26-15.11,0.55-30.14,0.87-45.07c0.33-14.94,0.73-29.96,1.2-45.07
	h33.77c-1,9.48-1.94,18.95-2.86,28.41c-0.91,9.46-1.56,19-1.94,28.61c2.03,0.08,4.05,0.13,6.04,0.13c1.99,0,4,0,6.04,0
	c2.42,0,4.81-0.02,7.14-0.06C672.18,389.15,674.56,389.12,676.99,389.12z"/>
<rect x="457.64" y="444.96" transform="matrix(0.9987 -0.0517 0.0517 0.9987 -22.4857 29.5628)" class="st1" width="204.24" height="8.25"/>
<rect x="588.46" y="271.73" transform="matrix(0.8308 -0.5565 0.5565 0.8308 -52.0912 380.3328)" class="st1" width="22.25" height="8.25"/>
<rect x="386.41" y="278.84" transform="matrix(0.8311 -0.5562 0.5562 0.8311 -90.218 268.8945)" class="st1" width="22.25" height="8.25"/>
<rect x="147.27" y="206.74" class="st1" width="22.26" height="8.25"/>
<rect x="438.32" y="137.36" transform="matrix(0.8661 -0.4999 0.4999 0.8661 -10.4763 242.9797)" class="st1" width="19.86" height="7.36"/>
<rect x="51.56" y="365.87" transform="matrix(0.9219 -0.3873 0.3873 0.9219 -141.669 50.9928)" class="st1" width="8.25" height="22.26"/>
<rect x="206.23" y="132.78" class="st1" width="7.36" height="19.86"/>
<rect x="542.26" y="305.51" class="st1" width="8.25" height="22.26"/>
<rect x="78.46" y="451.67" transform="matrix(0.9892 -0.1465 0.1465 0.9892 -64.7272 32.5775)" class="st1" width="220.77" height="8.25"/>
<circle class="st1" cx="637.82" cy="267.98" r="7.03"/>
<circle class="st1" cx="606.17" cy="310.18" r="7.03"/>
<circle class="st1" cx="374.64" cy="125.96" r="7.09"/>
<circle class="st1" cx="146.55" cy="255.67" r="7.03"/>
<circle class="st1" cx="60.39" cy="431.5" r="7.03"/>
</svg>
