<?xml version="1.0" encoding="utf-8"?>
<!-- Generator: Adobe Illustrator 25.0.1, SVG Export Plug-In . SVG Version: 6.00 Build 0)  -->
<svg version="1.1" id="레이어_1" xmlns="http://www.w3.org/2000/svg" xmlns:xlink="http://www.w3.org/1999/xlink" x="0px"
	 y="0px" viewBox="0 0 740.91 693.18" style="enable-background:new 0 0 740.91 693.18;" xml:space="preserve">
<style type="text/css">
	.st0{fill:#BBD4C4;}
	.st1{fill:none;stroke:#C1797D;stroke-width:6.6442;stroke-linecap:round;stroke-linejoin:round;stroke-miterlimit:10;}
	.st2{fill:#C1797D;}
	.st3{fill:none;stroke:#C1797D;stroke-width:8.8589;stroke-linecap:round;stroke-linejoin:round;stroke-miterlimit:10;}
	.st4{fill:none;}
	.st5{fill:#7D7D7F;}
</style>
<path class="st0" d="M295.16,256.78c0,0-8.42-24.13,22.89-32.87c0,0,23.7-5.63,29.33,22.7c0,0,11.59-5.79,30.78,3.98
	c0,0,2.51-25.61,25.99-29.85c30.8-5.56,42.17,23.79,43.92,48.45c1.87,26.35,3.18,52.74,3.84,79.14c0.72,28.95,1.1,57.98-1.21,86.87
	c-0.37,4.61-0.81,9.22-1.33,13.82c-0.65,5.79-0.57,12.33-3.87,17.37c-2.98,4.56-8.55,7.91-14.04,8.24
	c-8.65,0.52-17.31,1.04-25.96,1.56c-18.75,1.13-36.96,2.64-55.65-0.24c-11.06-1.7-21.51-2.96-32.7-3.37
	c-7.48-0.28-13.94-1.33-21.11-3.5c-13.01-3.94-28.37-12.32-31.87-26.6c0,0-10.58-25.88,6.22-40.42c2.86-3.03,9.91-7.9,11.15-11.65
	c1.16-3.51-2.5-11.34-5.62-13.18c0,0-15.76-8.85-15.55-19.51c0,0-3.61-18.26,10.28-25.11c0,0,13.09-6.26,15.24-10.92
	c0,0,5.63-13.4,3-19.52c0,0-5.58-19.41,3.21-30.18C292.1,272.01,296.17,263.25,295.16,256.78z"/>
<path class="st1" d="M364.3,338.22c0,0-28.39-5.44-31.37,20.86c-0.39,3.48-1.17,5.9,0.26,9.46c1.43,3.54,4.32,6.31,7.33,8.54
	c5.92,4.38,15.22,3.73,16.38,12.01c0.65,4.66,1.34,10.76-0.36,15.25c-1.88,4.97-5.41,5.31-9.89,7.19
	c-9.89,4.15-19.35,11.63-20.51,23.02c0,0-4.11,14.35,5.47,31.34"/>
<circle class="st2" cx="322.47" cy="280.96" r="2.64"/>
<circle class="st2" cx="357.69" cy="281.02" r="2.64"/>
<path class="st3" d="M325.13,298.49"/>
<path class="st1" d="M321.13,296.92c0,0,1.14,12.11,16.88,13.01c0,0,14.39,1.34,15.89-10.75"/>
<ellipse transform="matrix(0.152 -0.9884 0.9884 0.152 -0.7711 577.5401)" class="st2" cx="336.18" cy="289.22" rx="3.44" ry="5.29"/>
<path id="SVGID_x5F_1_x5F_" class="st4" d="M170.13,361.55c0,0-9.42-192.24,194.36-205.94c0,0,197.09,4.28,194.01,205.94"/>
<text><textPath  xlink:href="#SVGID_x5F_1_x5F_" startOffset="0.5615%">
<tspan  style="fill:#424142; font-family:'Baloo2-Bold'; font-size:106.2768px; letter-spacing:10.72;">   </tspan><tspan  style="fill:#424142; font-family:'Baloo2-Bold'; font-size:106.2768px; letter-spacing:138.37;"> </tspan><tspan  style="fill:#424142; font-family:'Baloo2-Bold'; font-size:78.5524px; letter-spacing:10.72;">AIFF </tspan><tspan  style="fill:#424142; font-family:'Baloo2-Medium'; font-size:78.5524px; letter-spacing:10.72;">SCHOOL</tspan></textPath>
</text>
<g>
	<path class="st5" d="M167.68,393.13c1.53,0.99,3.07,1.99,4.64,3c1.57,1.01,3.11,2.01,4.63,3c1.52,0.99,2.94,1.91,4.27,2.77
		c0.1,0.06,0.18,0.13,0.26,0.22c0.08,0.08,0.13,0.19,0.16,0.31l0.5,2.14c0.04,0.17,0.02,0.31-0.06,0.4
		c-0.08,0.09-0.18,0.17-0.28,0.23c-0.19,0.04-0.38,0.03-0.6-0.04c-2.19-1.43-4.37-2.85-6.54-4.27c-2.17-1.42-4.35-2.85-6.56-4.27
		l-13.19,18.88c-0.18,0.19-0.35,0.31-0.51,0.34c-0.15,0.04-0.29-0.02-0.39-0.16c-0.11-0.14-0.2-0.32-0.27-0.54
		c-0.08-0.22-0.14-0.45-0.19-0.7c-0.05-0.25-0.1-0.46-0.14-0.63c-0.06-0.25-0.09-0.5-0.1-0.74c-0.01-0.24,0.08-0.43,0.26-0.57
		l1-1.46l11.25-15.89l-5.89-3.96l-10.49,2.46c-0.49,0.12-0.8-0.08-0.92-0.58l-0.29-1.25c-0.11-0.49,0.08-0.79,0.57-0.9l36.72-8.62
		c0.48-0.11,0.78,0.08,0.89,0.56l0.29,1.25c0.05,0.22,0.03,0.42-0.07,0.59c-0.1,0.17-0.26,0.28-0.47,0.33l-22.73,5.33
		C164.73,391.22,166.15,392.14,167.68,393.13z"/>
	<path class="st5" d="M184.2,413.75c0.48-0.16,0.8,0.01,0.97,0.51l0.4,1.23c0.16,0.5,0,0.82-0.48,0.98l-27.16,8.82
		c-0.48,0.16-0.8,0-0.96-0.49l-0.39-1.21c-0.17-0.53-0.02-0.87,0.47-1.03L184.2,413.75z M193.23,410.66
		c0.29-0.09,0.53-0.13,0.74-0.1c0.21,0.03,0.37,0.17,0.49,0.42l0.14,0.44l0.41,1.25c0.06,0.3,0.02,0.53-0.15,0.66
		s-0.38,0.25-0.65,0.34l-0.86,0.28c-0.44,0.14-0.74,0.16-0.91,0.05c-0.17-0.11-0.32-0.37-0.46-0.79l-0.27-0.84
		c-0.13-0.4-0.17-0.71-0.12-0.91c0.05-0.21,0.21-0.35,0.48-0.44L193.23,410.66z"/>
	<path class="st5" d="M173.71,464.2c-0.46,0.21-0.8,0.07-1.01-0.41l-0.51-1.16c-0.21-0.48-0.08-0.82,0.38-1.02l3.66-1.62l1.57-0.8
		c-0.61-0.09-1.24-0.19-1.88-0.31c-0.65-0.12-1.23-0.3-1.75-0.54c-1.81-0.79-3.4-1.86-4.79-3.23s-2.49-2.99-3.32-4.85
		c-0.59-1.34-0.99-2.71-1.2-4.1c-0.21-1.39-0.24-2.77-0.1-4.14c0.14-1.36,0.45-2.68,0.93-3.96c0.47-1.28,1.1-2.47,1.86-3.58
		c0.77-1.11,1.68-2.1,2.75-2.99c1.06-0.89,2.25-1.62,3.55-2.2c1.31-0.58,2.65-0.96,4.02-1.15c1.37-0.19,2.73-0.2,4.07-0.03
		c1.34,0.17,2.65,0.51,3.91,1.02c1.27,0.51,2.45,1.17,3.56,1.98s2.1,1.76,3,2.85c0.89,1.09,1.63,2.31,2.23,3.65
		c0.42,0.94,0.73,1.89,0.93,2.87c0.21,0.98,0.32,1.96,0.35,2.94c0.03,0.98-0.03,1.96-0.18,2.92c-0.15,0.96-0.37,1.89-0.66,2.79
		c-0.23,0.58-0.48,1.11-0.76,1.59c-0.28,0.48-0.6,1.04-0.96,1.68l13.99-6.2c0.1-0.04,0.2-0.05,0.31,0c0.1,0.04,0.18,0.12,0.24,0.24
		l0.72,1.58c0.18,0.4,0.07,0.69-0.32,0.86L173.71,464.2z M175.05,432.03c-1.6,0.71-2.97,1.69-4.13,2.94
		c-1.16,1.25-2.04,2.65-2.64,4.2c-0.61,1.55-0.91,3.18-0.91,4.9c0,1.72,0.36,3.4,1.08,5.04c0.73,1.65,1.73,3.08,3,4.28
		c1.27,1.2,2.68,2.12,4.24,2.76c1.56,0.64,3.2,0.96,4.92,0.96s3.39-0.35,5.02-1.07c1.6-0.71,2.98-1.69,4.14-2.96
		c1.17-1.26,2.05-2.68,2.66-4.25c0.61-1.57,0.91-3.23,0.91-4.97c0-1.74-0.37-3.44-1.1-5.1s-1.74-3.07-3.01-4.25s-2.7-2.07-4.26-2.67
		s-3.21-0.89-4.92-0.89C178.33,430.96,176.66,431.32,175.05,432.03z"/>
	<path class="st5" d="M182.94,469.11c0.05-0.07,0.1-0.13,0.15-0.18c0.05-0.05,0.1-0.09,0.16-0.13c0.17-0.11,0.33-0.14,0.47-0.1
		c0.14,0.04,0.29,0.12,0.46,0.23l0.85,0.59c0.03,0.02,0.07,0.06,0.13,0.14c0.05,0.07,0.09,0.12,0.11,0.15c0.07,0.11,0.07,0.24,0,0.4
		c-0.07,0.16-0.16,0.33-0.29,0.5c-0.12,0.17-0.26,0.36-0.42,0.54c-0.15,0.19-0.28,0.37-0.37,0.54c-0.38,0.61-0.62,1.29-0.72,2.05
		c-0.09,0.75-0.09,1.5,0.02,2.25s0.28,1.45,0.54,2.13s0.54,1.26,0.85,1.76c0.39,0.62,0.93,1.26,1.6,1.92
		c0.67,0.66,1.42,1.21,2.24,1.64s1.69,0.68,2.62,0.75c0.93,0.07,1.84-0.19,2.76-0.77c0.82-0.52,1.39-1.17,1.73-1.96
		c0.33-0.79,0.5-1.64,0.51-2.55c0-0.91-0.12-1.85-0.36-2.84c-0.25-0.98-0.54-1.92-0.87-2.83c-0.4-1.17-0.71-2.36-0.91-3.56
		c-0.2-1.2-0.25-2.35-0.14-3.44s0.39-2.09,0.86-3s1.16-1.66,2.08-2.25c1.06-0.67,2.14-1.08,3.25-1.24c1.11-0.15,2.19-0.07,3.25,0.26
		c1.06,0.33,2.08,0.89,3.04,1.68s1.84,1.8,2.61,3.03c0.64,1,1.1,2,1.38,3c0.28,1,0.41,1.97,0.39,2.94c-0.03,0.96-0.21,1.9-0.54,2.8
		s-0.79,1.78-1.37,2.61l0.01-0.03c-0.07,0.16-0.14,0.26-0.22,0.32c-0.12,0.08-0.27,0.1-0.46,0.06c-0.18-0.04-0.37-0.1-0.56-0.19
		c-0.19-0.09-0.36-0.19-0.5-0.3c-0.15-0.11-0.24-0.21-0.3-0.29c-0.1-0.15-0.14-0.29-0.14-0.4s0.03-0.24,0.08-0.36
		c0.05-0.12,0.13-0.26,0.23-0.41s0.2-0.33,0.3-0.52c0.54-1.13,0.79-2.37,0.75-3.72s-0.49-2.7-1.35-4.06
		c-0.47-0.74-1.02-1.39-1.64-1.96c-0.62-0.56-1.29-0.99-2.01-1.27c-0.72-0.29-1.47-0.4-2.25-0.34c-0.78,0.06-1.56,0.34-2.33,0.83
		c-0.67,0.43-1.13,1.01-1.4,1.75s-0.39,1.54-0.38,2.4c0.01,0.85,0.11,1.71,0.31,2.57s0.41,1.62,0.65,2.28
		c0.04,0.13,0.07,0.21,0.08,0.24c0.01,0.03,0.02,0.05,0.03,0.07c0.51,1.43,0.87,2.8,1.08,4.12c0.21,1.32,0.23,2.53,0.08,3.65
		c-0.15,1.12-0.5,2.13-1.05,3.04c-0.54,0.91-1.32,1.68-2.32,2.31c-1.15,0.73-2.34,1.14-3.56,1.22c-1.22,0.08-2.41-0.11-3.57-0.56
		c-1.16-0.45-2.25-1.12-3.29-2.02c-1.03-0.9-1.93-1.95-2.7-3.16c-0.65-1.02-1.14-2.07-1.48-3.17c-0.34-1.1-0.5-2.18-0.49-3.26
		c0.01-1.08,0.2-2.12,0.58-3.13S182.15,469.94,182.94,469.11z"/>
	<path class="st5" d="M226.38,491.07c0.34-0.37,0.71-0.38,1.09-0.03l1,0.93c0.38,0.35,0.4,0.72,0.06,1.09l-3.91,4.23
		c0.59-0.16,1.21-0.31,1.85-0.46c0.64-0.14,1.25-0.21,1.82-0.2c1.97,0.01,3.86,0.36,5.68,1.07c1.82,0.71,3.47,1.75,4.97,3.14
		c1.08,1,1.98,2.09,2.73,3.29s1.32,2.45,1.73,3.76c0.41,1.31,0.65,2.64,0.72,4c0.07,1.36-0.03,2.7-0.3,4.02
		c-0.27,1.32-0.71,2.6-1.34,3.84c-0.62,1.24-1.42,2.38-2.39,3.43c-0.97,1.05-2.05,1.93-3.23,2.65c-1.19,0.72-2.43,1.26-3.73,1.64
		c-1.3,0.37-2.63,0.58-4,0.61c-1.36,0.03-2.71-0.1-4.05-0.41c-1.34-0.31-2.63-0.79-3.88-1.44c-1.25-0.65-2.41-1.47-3.49-2.47
		c-0.75-0.7-1.42-1.45-1.99-2.27c-0.58-0.81-1.07-1.67-1.49-2.56c-0.42-0.89-0.75-1.81-1-2.75c-0.25-0.94-0.41-1.88-0.5-2.83
		c-0.02-0.62,0-1.21,0.07-1.77s0.14-1.19,0.22-1.92l-10.4,11.23c-0.08,0.08-0.17,0.12-0.28,0.13c-0.11,0-0.22-0.04-0.31-0.13
		l-1.29-1.16c-0.32-0.3-0.34-0.61-0.05-0.92L226.38,491.07z M237.88,521.14c1.17-1.27,2.05-2.71,2.62-4.32
		c0.57-1.61,0.83-3.25,0.77-4.91c-0.06-1.66-0.43-3.29-1.1-4.87c-0.68-1.58-1.67-2.98-2.99-4.19c-1.33-1.23-2.81-2.14-4.45-2.74
		c-1.64-0.6-3.3-0.88-4.98-0.85c-1.68,0.03-3.31,0.39-4.89,1.06c-1.58,0.68-2.98,1.67-4.18,2.97c-1.19,1.28-2.06,2.73-2.63,4.35
		s-0.82,3.27-0.76,4.96s0.44,3.32,1.13,4.92c0.69,1.6,1.7,3.02,3.03,4.25s2.81,2.13,4.45,2.71c1.64,0.58,3.3,0.83,4.97,0.76
		c1.67-0.07,3.3-0.45,4.87-1.13C235.3,523.42,236.68,522.43,237.88,521.14z"/>
	<path class="st5" d="M268.48,529.02c-0.11,0.02-0.21,0.01-0.29-0.04c-0.1-0.06-0.19-0.16-0.29-0.29c-0.1-0.14-0.2-0.34-0.32-0.62
		c-0.16-0.38-0.38-0.8-0.64-1.26c-0.26-0.46-0.56-0.91-0.88-1.36c-0.32-0.45-0.67-0.88-1.05-1.27c-0.38-0.4-0.78-0.73-1.21-0.99
		c-1.06-0.66-2.18-1.11-3.34-1.33s-2.31-0.22-3.43,0c-1.12,0.23-2.19,0.69-3.19,1.4c-1.01,0.71-1.88,1.65-2.62,2.84l-9.42,15.08
		c-0.26,0.42-0.61,0.49-1.05,0.21l-1.1-0.69c-0.46-0.29-0.55-0.64-0.29-1.05l15.14-24.24c0.23-0.36,0.53-0.42,0.92-0.18
		c0.04,0.03,0.07,0.05,0.09,0.08c0.04,0,0.09,0.03,0.16,0.07l0.85,0.53c0.25,0.16,0.39,0.34,0.44,0.57c0.04,0.22,0,0.44-0.14,0.66
		l-2.06,3.29c0.62-0.34,1.32-0.62,2.11-0.84c0.79-0.22,1.63-0.33,2.52-0.35c0.89-0.01,1.81,0.1,2.75,0.33
		c0.94,0.23,1.86,0.63,2.76,1.19c0.72,0.45,1.35,0.91,1.91,1.39c0.56,0.48,1.05,0.98,1.48,1.52s0.82,1.1,1.15,1.71
		c0.33,0.61,0.63,1.27,0.9,1.98c0.07,0.19,0.12,0.39,0.16,0.58c0.03,0.19,0,0.37-0.1,0.53c-0.08,0.12-0.31,0.23-0.7,0.33
		C269.3,528.88,268.9,528.96,268.48,529.02z"/>
	<path class="st5" d="M271.11,543.13c-0.06,0.27-0.16,0.62-0.31,1.04c-0.15,0.43-0.24,0.85-0.29,1.26c-0.16,1.46-0.09,2.88,0.2,4.27
		c0.29,1.39,0.78,2.67,1.47,3.86c0.69,1.19,1.57,2.26,2.64,3.21c1.06,0.95,2.29,1.7,3.68,2.27c0.8,0.33,1.57,0.57,2.31,0.74
		c0.74,0.16,1.45,0.26,2.14,0.29c0.68,0.03,1.35,0.01,2.01-0.07c0.65-0.08,1.29-0.19,1.92-0.35c0.19-0.03,0.38-0.07,0.59-0.13
		c0.21-0.06,0.41-0.12,0.61-0.16c0.2-0.05,0.37-0.09,0.54-0.12c0.16-0.03,0.29-0.02,0.4,0.02c0.12,0.05,0.22,0.2,0.29,0.45
		c0.11,0.46,0.19,0.8,0.22,1.04c0.04,0.24,0.03,0.41-0.01,0.51c-0.02,0.06-0.08,0.11-0.16,0.14c0.05,0.1,0.05,0.19,0.02,0.27
		c-0.25,0.14-0.54,0.27-0.87,0.39c-0.33,0.12-0.71,0.23-1.13,0.31c-1.56,0.34-3.15,0.46-4.77,0.37c-1.61-0.09-3.26-0.48-4.93-1.16
		c-2.04-0.83-3.8-1.99-5.3-3.48c-1.49-1.49-2.65-3.17-3.46-5.03s-1.26-3.83-1.34-5.9c-0.08-2.07,0.28-4.1,1.09-6.08
		c0.54-1.34,1.24-2.55,2.09-3.65c0.85-1.09,1.81-2.05,2.88-2.86s2.23-1.48,3.49-2c1.26-0.52,2.57-0.87,3.93-1.05
		c1.37-0.18,2.76-0.19,4.17-0.01c1.41,0.17,2.82,0.54,4.23,1.12c1.31,0.53,2.52,1.21,3.62,2.01c1.1,0.81,2.08,1.73,2.93,2.76
		c0.85,1.03,1.54,2.15,2.1,3.37c0.55,1.22,0.93,2.49,1.14,3.83c0.21,1.34,0.24,2.73,0.09,4.17c-0.15,1.45-0.5,2.91-1.05,4.4
		l0.01-0.02c-0.01,0.02-0.01,0.04-0.01,0.06c0,0.02-0.01,0.05-0.02,0.08c-0.2,0.5-0.55,0.65-1.03,0.46L271.11,543.13z
		 M285.04,534.28c-1.27-0.17-2.52-0.14-3.78,0.08c-1.25,0.23-2.44,0.62-3.56,1.17c-1.12,0.55-2.16,1.25-3.11,2.1
		s-1.76,1.81-2.43,2.89l24.21,9.84c0.42-1.54,0.52-3.09,0.32-4.64s-0.66-3-1.38-4.36c-0.71-1.36-1.65-2.58-2.82-3.66
		c-1.17-1.08-2.51-1.93-4.01-2.54c-0.51-0.21-1.02-0.38-1.52-0.53C286.45,534.49,285.81,534.37,285.04,534.28z"/>
	<path class="st5" d="M320.26,545.45c-1.11-0.2-2.21-0.2-3.3-0.01c-1.09,0.19-2.1,0.56-3.03,1.1c-0.92,0.54-1.73,1.25-2.41,2.12
		c-0.69,0.87-1.16,1.88-1.44,3.04l-2.14,11.95c-0.01,0.05-0.02,0.09-0.04,0.14c-0.02,0.04-0.03,0.08-0.03,0.11l-1.17,6.54
		c-0.09,0.5-0.38,0.7-0.88,0.62l-1.25-0.22c-0.53-0.09-0.75-0.39-0.66-0.89l5.04-28.11c0.05-0.27,0.17-0.45,0.38-0.55
		c0.21-0.1,0.44-0.13,0.7-0.08l0.99,0.18c0.29,0.05,0.49,0.17,0.62,0.36c0.12,0.19,0.16,0.41,0.12,0.66l-0.64,3.56
		c0.69-0.65,1.41-1.21,2.14-1.7c0.73-0.48,1.5-0.87,2.3-1.16s1.65-0.47,2.53-0.54c0.88-0.07,1.83-0.01,2.84,0.17
		c2.4,0.43,4.36,1.35,5.86,2.77c1.5,1.41,2.55,3.17,3.15,5.28c0.64-0.96,1.38-1.78,2.22-2.43c0.84-0.65,1.75-1.16,2.73-1.52
		c0.97-0.36,1.99-0.57,3.06-0.65c1.07-0.07,2.15-0.01,3.24,0.18c1.54,0.28,2.9,0.78,4.1,1.52s2.2,1.63,3.01,2.68
		s1.42,2.22,1.81,3.52c0.4,1.3,0.57,2.65,0.51,4.06c-0.02,0.54-0.06,1.09-0.15,1.64c-0.08,0.55-0.17,1.1-0.27,1.64l-2.86,15.97
		c-0.06,0.36-0.2,0.61-0.4,0.75c-0.21,0.14-0.45,0.18-0.74,0.13l-0.91-0.16c-0.37-0.07-0.59-0.19-0.68-0.37
		c-0.09-0.18-0.1-0.45-0.04-0.8l3.15-17.59c0.15-1.1,0.12-2.21-0.1-3.34c-0.21-1.13-0.61-2.16-1.21-3.1
		c-0.59-0.94-1.38-1.76-2.35-2.45c-0.98-0.69-2.15-1.16-3.51-1.4c-1.11-0.2-2.17-0.21-3.18-0.04c-1.02,0.17-1.95,0.5-2.8,0.97
		s-1.6,1.09-2.25,1.83c-0.65,0.75-1.14,1.6-1.47,2.55c-0.39,1.04-0.68,2.16-0.9,3.34l-2.88,16.07c-0.06,0.34-0.2,0.58-0.4,0.73
		c-0.21,0.14-0.46,0.18-0.74,0.13l-0.91-0.16c-0.37-0.07-0.6-0.19-0.7-0.37c-0.1-0.18-0.12-0.45-0.05-0.81l2.88-16.09
		c0.09-0.5,0.17-1.01,0.24-1.54s0.11-1.06,0.12-1.59c0.03-0.99-0.11-1.96-0.42-2.9c-0.31-0.94-0.78-1.8-1.4-2.58
		s-1.39-1.45-2.29-2.01C322.46,546.04,321.42,545.66,320.26,545.45z"/>
	<path class="st5" d="M358.53,549.04c0.03-0.51,0.31-0.75,0.83-0.71l1.29,0.08c0.52,0.03,0.77,0.3,0.73,0.81l-1.73,28.5
		c-0.03,0.51-0.3,0.75-0.8,0.71l-1.27-0.08c-0.55-0.03-0.81-0.3-0.78-0.81L358.53,549.04z M358.96,539.51
		c0.02-0.3,0.08-0.54,0.18-0.73c0.1-0.18,0.29-0.28,0.57-0.3l0.46,0.03l1.32,0.08c0.31,0.05,0.49,0.18,0.56,0.38s0.1,0.45,0.08,0.73
		l-0.05,0.9c-0.03,0.46-0.12,0.75-0.28,0.86c-0.16,0.12-0.46,0.16-0.9,0.14l-0.88-0.05c-0.42-0.03-0.72-0.1-0.89-0.22
		c-0.17-0.12-0.25-0.33-0.23-0.61L358.96,539.51z"/>
	<path class="st5" d="M394.48,573.04l-0.23-1.46c-0.45,0.86-0.97,1.66-1.58,2.38c-0.61,0.72-1.3,1.36-2.08,1.9
		c-0.77,0.55-1.63,1-2.58,1.35c-0.94,0.35-1.98,0.59-3.12,0.71c-1.88,0.21-3.64,0.06-5.28-0.43c-1.64-0.49-3.09-1.24-4.35-2.25
		c-1.26-1.01-2.29-2.25-3.1-3.72c-0.81-1.47-1.31-3.08-1.5-4.83l-1.85-16.89c-0.04-0.35,0.02-0.62,0.18-0.81
		c0.16-0.19,0.39-0.31,0.7-0.34l0.92-0.1c0.37-0.04,0.63,0.01,0.77,0.16s0.23,0.4,0.27,0.76l1.87,17.03
		c0.17,1.26,0.56,2.44,1.18,3.56c0.61,1.11,1.41,2.08,2.38,2.9c0.97,0.82,2.11,1.43,3.41,1.84c1.3,0.41,2.72,0.53,4.28,0.36
		c1.28-0.14,2.48-0.51,3.59-1.1c1.11-0.59,2.08-1.36,2.89-2.29c0.81-0.93,1.43-2.01,1.86-3.23c0.42-1.22,0.57-2.53,0.46-3.92
		l-1.93-17.6c-0.06-0.5,0.18-0.79,0.69-0.84l1.26-0.14c0.53-0.06,0.83,0.16,0.88,0.67l3.11,28.39c0.07,0.66-0.19,1.03-0.79,1.09
		l-1,0.11c-0.63,0.07-0.98-0.18-1.04-0.75L394.48,573.04z"/>
	<path class="st5" d="M412.84,544.47c-1.08,0.33-2.06,0.82-2.94,1.49s-1.62,1.45-2.2,2.36c-0.58,0.9-0.97,1.9-1.19,2.98
		s-0.18,2.21,0.1,3.36l3.52,11.62c0.01,0.04,0.02,0.09,0.03,0.14s0.01,0.09,0.02,0.12l1.92,6.35c0.15,0.49-0.02,0.8-0.5,0.95
		l-1.22,0.37c-0.51,0.16-0.84-0.01-0.99-0.5l-8.27-27.33c-0.08-0.26-0.05-0.48,0.09-0.66c0.14-0.18,0.33-0.31,0.58-0.39l0.96-0.29
		c0.28-0.08,0.52-0.07,0.72,0.04c0.2,0.11,0.33,0.29,0.4,0.54l1.05,3.46c0.32-0.89,0.7-1.72,1.14-2.48
		c0.43-0.76,0.94-1.45,1.53-2.08c0.58-0.62,1.25-1.17,2.01-1.63c0.75-0.46,1.62-0.84,2.6-1.14c2.34-0.71,4.5-0.77,6.47-0.19
		c1.98,0.58,3.71,1.67,5.2,3.27c0.13-1.15,0.42-2.21,0.87-3.17s1.03-1.83,1.74-2.59c0.7-0.76,1.52-1.42,2.44-1.97
		c0.92-0.55,1.91-0.99,2.97-1.31c1.49-0.45,2.94-0.62,4.34-0.51s2.7,0.45,3.9,1.02c1.2,0.57,2.27,1.34,3.21,2.31
		c0.94,0.97,1.71,2.1,2.3,3.38c0.23,0.49,0.44,1,0.62,1.53c0.18,0.53,0.35,1.06,0.51,1.59l4.7,15.53c0.11,0.35,0.1,0.63-0.02,0.85
		c-0.12,0.22-0.32,0.37-0.6,0.45l-0.88,0.27c-0.36,0.11-0.61,0.1-0.78-0.01c-0.16-0.12-0.3-0.35-0.4-0.7l-5.18-17.1
		c-0.37-1.05-0.9-2.03-1.6-2.93c-0.7-0.91-1.53-1.65-2.48-2.22s-2.03-0.94-3.21-1.12c-1.18-0.17-2.44-0.06-3.76,0.34
		c-1.08,0.33-2.03,0.8-2.85,1.41c-0.83,0.62-1.51,1.33-2.06,2.14c-0.54,0.81-0.94,1.7-1.17,2.66c-0.24,0.96-0.29,1.94-0.15,2.94
		c0.13,1.1,0.37,2.23,0.72,3.39l4.73,15.62c0.1,0.33,0.09,0.61-0.03,0.83c-0.12,0.22-0.32,0.37-0.6,0.46l-0.89,0.27
		c-0.36,0.11-0.62,0.11-0.79-0.01c-0.17-0.11-0.31-0.35-0.41-0.7l-4.74-15.65c-0.15-0.49-0.31-0.98-0.49-1.48
		c-0.18-0.5-0.38-0.99-0.61-1.47c-0.43-0.9-0.99-1.7-1.69-2.4c-0.71-0.7-1.51-1.25-2.42-1.67c-0.91-0.41-1.89-0.66-2.96-0.75
		C415.08,543.99,413.98,544.12,412.84,544.47z"/>
	<path class="st5" d="M456.95,516.14c-0.24-0.35-0.18-0.66,0.19-0.9l1.45-0.95c0.11-0.07,0.22-0.1,0.33-0.08
		c0.11,0.02,0.2,0.08,0.26,0.17l8.58,12.67c0.03-0.73,0.06-1.38,0.08-1.93c0.02-0.56,0.08-1.14,0.2-1.76
		c0.22-0.92,0.53-1.82,0.92-2.72c0.39-0.89,0.85-1.75,1.4-2.57c0.55-0.82,1.17-1.59,1.86-2.31c0.69-0.72,1.46-1.37,2.31-1.94
		c1.21-0.82,2.49-1.46,3.82-1.91c1.33-0.45,2.69-0.73,4.05-0.83c1.37-0.1,2.72-0.03,4.06,0.21c1.34,0.24,2.63,0.64,3.86,1.21
		c1.23,0.57,2.38,1.29,3.44,2.18c1.06,0.89,2,1.92,2.8,3.11s1.42,2.43,1.85,3.75c0.43,1.32,0.68,2.65,0.74,3.99
		s-0.04,2.69-0.32,4.02c-0.28,1.33-0.71,2.62-1.32,3.85c-0.6,1.23-1.36,2.38-2.28,3.45c-0.92,1.07-1.98,2.02-3.2,2.84
		c-1.69,1.14-3.48,1.92-5.38,2.35c-1.9,0.43-3.83,0.49-5.78,0.2c-0.56-0.08-1.15-0.23-1.76-0.47c-0.61-0.24-1.2-0.48-1.76-0.73
		l0.91,1.51l2.24,3.31c0.28,0.42,0.21,0.78-0.22,1.07l-1.05,0.71c-0.43,0.29-0.79,0.23-1.07-0.19L456.95,516.14z M494.06,519.47
		c-0.99-1.46-2.21-2.64-3.66-3.56c-1.45-0.91-3-1.53-4.65-1.85c-1.64-0.32-3.32-0.32-5.03,0c-1.71,0.32-3.31,0.99-4.81,2
		s-2.71,2.26-3.63,3.74c-0.93,1.48-1.55,3.04-1.86,4.7c-0.32,1.65-0.32,3.32,0,5.01c0.32,1.69,0.97,3.26,1.94,4.7
		c1,1.47,2.22,2.66,3.68,3.57c1.46,0.91,3.02,1.51,4.68,1.79c1.66,0.29,3.34,0.26,5.06-0.09c1.71-0.35,3.32-1.02,4.81-2.04
		c1.48-1,2.68-2.23,3.59-3.69s1.52-3.01,1.83-4.64c0.31-1.63,0.3-3.29-0.01-4.96C495.68,522.47,495.03,520.91,494.06,519.47z"/>
	<path class="st5" d="M529.64,498.79l-1.37-1.19c0.35,1.22,0.53,2.47,0.54,3.75c0.01,1.27-0.14,2.53-0.46,3.76
		c-0.31,1.24-0.78,2.43-1.41,3.58s-1.41,2.23-2.35,3.22c-1,1.07-2.11,1.97-3.31,2.7c-1.2,0.74-2.46,1.3-3.78,1.69
		c-1.32,0.39-2.66,0.62-4.03,0.69c-1.37,0.07-2.71-0.04-4.04-0.33c-1.32-0.28-2.6-0.74-3.83-1.37c-1.23-0.63-2.36-1.43-3.4-2.41
		c-1.04-0.98-1.91-2.06-2.61-3.25c-0.7-1.19-1.23-2.43-1.59-3.74s-0.55-2.65-0.57-4.01c-0.02-1.36,0.12-2.71,0.43-4.05
		c0.31-1.34,0.8-2.63,1.46-3.88c0.66-1.25,1.49-2.4,2.5-3.47c0.92-0.97,1.93-1.81,3.05-2.51c1.12-0.7,2.29-1.25,3.52-1.64
		c1.23-0.39,2.48-0.62,3.77-0.69c1.29-0.07,2.56,0.02,3.81,0.29l-1.28-1.21l-2.98-2.81c-0.37-0.35-0.38-0.71-0.04-1.07l0.87-0.92
		c0.38-0.4,0.75-0.43,1.12-0.08l20.83,19.61c0.2,0.19,0.28,0.38,0.24,0.6c-0.04,0.21-0.14,0.41-0.31,0.58l-0.69,0.73
		c-0.44,0.46-0.86,0.5-1.28,0.11L529.64,498.79z M522.24,491.63c-1.26-1.18-2.7-2.05-4.33-2.6c-1.63-0.55-3.28-0.79-4.97-0.72
		c-1.69,0.07-3.33,0.44-4.93,1.13s-3.01,1.66-4.23,2.93l-0.05,0.05c-1.19,1.27-2.08,2.71-2.64,4.33c-0.57,1.62-0.83,3.27-0.79,4.95
		c0.04,1.67,0.39,3.3,1.04,4.87c0.65,1.58,1.61,2.95,2.86,4.14c1.26,1.18,2.69,2.07,4.3,2.66c1.61,0.59,3.25,0.87,4.93,0.83
		c1.67-0.03,3.31-0.38,4.9-1.04c1.59-0.66,3-1.64,4.23-2.95c1.24-1.32,2.16-2.8,2.77-4.45s0.9-3.32,0.86-5.01s-0.38-3.33-1.04-4.92
		S523.54,492.84,522.24,491.63z"/>
	<path class="st5" d="M529.77,474.62c-0.38-1.78-0.76-3.58-1.15-5.4s-0.77-3.62-1.14-5.4s-0.72-3.43-1.05-4.98
		c-0.02-0.11-0.03-0.22-0.03-0.33c0-0.11,0.04-0.22,0.11-0.33l1.16-1.87c0.09-0.15,0.21-0.23,0.33-0.24c0.13-0.01,0.25,0,0.36,0.03
		c0.16,0.1,0.29,0.25,0.39,0.45c0.54,2.56,1.07,5.11,1.6,7.65s1.06,5.09,1.62,7.66l22.68-4c0.27-0.01,0.47,0.03,0.6,0.11
		s0.19,0.21,0.16,0.39s-0.09,0.37-0.19,0.57s-0.22,0.41-0.36,0.62c-0.14,0.21-0.26,0.39-0.35,0.54c-0.14,0.22-0.29,0.42-0.45,0.59
		c-0.17,0.18-0.36,0.25-0.59,0.22l-1.74,0.33l-19.2,3.26l1.36,6.97l9.16,5.69c0.43,0.27,0.51,0.62,0.24,1.06l-0.68,1.09
		c-0.26,0.43-0.61,0.5-1.04,0.24l-32.04-19.9c-0.42-0.26-0.5-0.6-0.23-1.03l0.68-1.09c0.12-0.19,0.27-0.31,0.47-0.37
		c0.19-0.05,0.38-0.02,0.57,0.1l19.83,12.32C530.5,478.05,530.15,476.4,529.77,474.62z"/>
	<path class="st5" d="M523.67,444.46c-0.27-0.13-0.48-0.27-0.61-0.44c-0.13-0.16-0.16-0.38-0.07-0.64l0.2-0.42l0.57-1.19
		c0.16-0.27,0.35-0.39,0.56-0.38c0.21,0.01,0.45,0.08,0.71,0.2l0.82,0.39c0.42,0.2,0.65,0.39,0.7,0.59s-0.02,0.49-0.21,0.89
		l-0.38,0.79c-0.18,0.38-0.36,0.63-0.54,0.75c-0.18,0.11-0.39,0.11-0.65-0.01L523.67,444.46z M532.35,448.42
		c-0.46-0.22-0.58-0.56-0.35-1.03l0.55-1.17c0.22-0.47,0.56-0.6,1.02-0.38l25.8,12.24c0.46,0.22,0.58,0.55,0.36,1.01l-0.54,1.15
		c-0.24,0.5-0.58,0.64-1.04,0.42L532.35,448.42z"/>
	<path class="st5" d="M537.5,438.11c-0.27-0.09-0.45-0.25-0.53-0.46c-0.09-0.21-0.08-0.44,0.01-0.7l0.33-0.94
		c0.1-0.27,0.25-0.46,0.46-0.55s0.43-0.09,0.67-0.01l3.3,1.15c-0.74-1-1.28-2.02-1.61-3.07c-0.33-1.05-0.52-2.07-0.57-3.07
		c-0.05-1,0.02-1.95,0.19-2.84s0.38-1.71,0.63-2.43c0.62-1.77,1.5-3.27,2.63-4.51c1.14-1.24,2.44-2.18,3.89-2.83
		c1.45-0.65,3.01-1,4.66-1.06c1.65-0.06,3.3,0.2,4.95,0.77l16.04,5.6c0.33,0.12,0.55,0.29,0.65,0.51c0.11,0.23,0.11,0.47,0.02,0.75
		l-0.29,0.85c-0.12,0.35-0.28,0.56-0.47,0.63c-0.19,0.07-0.46,0.04-0.81-0.08l-16.13-5.63c-1.18-0.36-2.41-0.52-3.68-0.48
		s-2.47,0.3-3.61,0.78c-1.14,0.48-2.18,1.2-3.11,2.15s-1.65,2.16-2.16,3.62c-0.41,1.19-0.6,2.42-0.57,3.7
		c0.03,1.28,0.28,2.5,0.74,3.66c0.46,1.16,1.13,2.21,2.01,3.15s1.97,1.66,3.25,2.16l16.9,5.9c0.48,0.17,0.64,0.48,0.48,0.94
		l-0.42,1.21c-0.17,0.49-0.49,0.65-0.97,0.48l-6.22-2.17c-0.05,0-0.14-0.02-0.26-0.06L537.5,438.11z"/>
	<path class="st5" d="M558.58,380.96c-0.23-0.06-0.47-0.12-0.72-0.16c-0.25-0.05-0.5-0.11-0.74-0.19l-4.25-0.82
		c-0.26-0.05-0.46-0.17-0.58-0.38c-0.12-0.2-0.16-0.44-0.11-0.71l0.19-0.99c0.06-0.29,0.19-0.5,0.4-0.63
		c0.21-0.13,0.43-0.17,0.67-0.12l24.33,4.66c0.03,0.01,0.06,0.02,0.09,0.03c0.03,0.01,0.05,0.02,0.07,0.03
		c1.81,0.4,3.41,0.94,4.78,1.63c1.37,0.69,2.54,1.49,3.51,2.4c0.97,0.91,1.76,1.91,2.37,3c0.61,1.09,1.05,2.23,1.34,3.43
		c0.29,1.2,0.43,2.42,0.43,3.68c0,1.25-0.12,2.5-0.35,3.75c-0.33,1.74-0.82,3.28-1.46,4.61s-1.43,2.52-2.36,3.59
		c-0.11,0.15-0.22,0.25-0.34,0.32c-0.12,0.07-0.26,0.09-0.43,0.05c-0.14-0.03-0.25-0.06-0.32-0.09c-0.07-0.03-0.16-0.09-0.25-0.17
		c-0.09-0.08-0.21-0.21-0.37-0.39s-0.4-0.42-0.71-0.73c-0.11-0.1-0.14-0.23-0.09-0.37c0.05-0.14,0.11-0.26,0.18-0.36
		c0.18-0.17,0.43-0.47,0.76-0.92c0.33-0.45,0.67-0.99,1.01-1.61c0.34-0.62,0.67-1.31,0.98-2.06c0.31-0.75,0.53-1.52,0.68-2.31
		c0.33-1.74,0.38-3.42,0.15-5.02s-0.75-3.05-1.55-4.35c-0.8-1.3-1.89-2.4-3.25-3.32s-3.02-1.56-4.97-1.94l-2.55-0.49
		c1,0.85,1.85,1.83,2.56,2.93s1.26,2.26,1.66,3.5s0.63,2.51,0.72,3.83c0.09,1.32,0.01,2.62-0.24,3.92
		c-0.28,1.44-0.73,2.79-1.35,4.06c-0.62,1.26-1.38,2.42-2.27,3.46c-0.89,1.04-1.9,1.95-3.02,2.74c-1.12,0.79-2.31,1.42-3.58,1.89
		c-1.27,0.47-2.59,0.77-3.98,0.89s-2.77,0.05-4.17-0.22s-2.72-0.72-3.96-1.36s-2.36-1.4-3.36-2.31c-1.01-0.91-1.88-1.93-2.63-3.08
		c-0.75-1.15-1.35-2.37-1.79-3.66c-0.45-1.29-0.73-2.64-0.84-4.04c-0.11-1.4-0.03-2.82,0.25-4.25c0.25-1.31,0.67-2.56,1.24-3.75
		c0.58-1.19,1.28-2.28,2.1-3.26s1.76-1.85,2.81-2.58C556.29,381.96,557.4,381.38,558.58,380.96z M561.99,408.14
		c1.14,0.22,2.27,0.28,3.39,0.18c1.12-0.1,2.21-0.33,3.26-0.71c1.05-0.37,2.04-0.87,2.97-1.49s1.78-1.35,2.53-2.19
		c0.75-0.83,1.39-1.76,1.91-2.79c0.53-1.03,0.9-2.12,1.13-3.29c0.32-1.65,0.33-3.27,0.03-4.85c-0.29-1.59-0.83-3.06-1.61-4.4
		c-0.78-1.34-1.78-2.53-3-3.55c-1.22-1.02-2.58-1.78-4.1-2.27l-3.06-0.59c-1.59-0.11-3.14,0.08-4.65,0.56s-2.88,1.19-4.11,2.13
		c-1.24,0.94-2.29,2.08-3.15,3.42c-0.86,1.34-1.45,2.84-1.77,4.49c-0.23,1.18-0.29,2.36-0.2,3.52c0.09,1.16,0.32,2.27,0.69,3.33
		c0.37,1.06,0.87,2.05,1.5,2.99s1.36,1.77,2.19,2.52s1.76,1.38,2.78,1.89C559.75,407.55,560.83,407.92,561.99,408.14z"/>
</g>
</svg>
