<?xml version="1.0" encoding="utf-8"?>
<!-- Generator: Adobe Illustrator 25.0.1, SVG Export Plug-In . SVG Version: 6.00 Build 0)  -->
<svg version="1.1" id="레이어_1" xmlns="http://www.w3.org/2000/svg" xmlns:xlink="http://www.w3.org/1999/xlink" x="0px"
	 y="0px" viewBox="0 0 653 350.6" style="enable-background:new 0 0 653 350.6;" xml:space="preserve">
<style type="text/css">
	.st0{fill-rule:evenodd;clip-rule:evenodd;fill:#EC88AA;}
	.st1{fill-rule:evenodd;clip-rule:evenodd;fill:#F7B7B2;}
	.st2{fill-rule:evenodd;clip-rule:evenodd;fill:#FFFFFF;}
	.st3{fill:none;stroke:#ED7D31;stroke-linejoin:round;stroke-miterlimit:10;}
	.st4{clip-path:url(#SVGID_2_);}
	.st5{fill:#FFFFFF;}
</style>
<rect x="47.3" y="96.4" class="st0" width="56" height="28.8"/>
<rect x="103.2" y="96.4" class="st0" width="83.6" height="28.8"/>
<rect x="186.8" y="96.4" class="st0" width="69.6" height="28.8"/>
<rect x="256.4" y="96.4" class="st0" width="79.6" height="28.8"/>
<rect x="336" y="96.4" class="st0" width="94.7" height="28.8"/>
<rect x="430.7" y="96.4" class="st0" width="92.8" height="28.8"/>
<rect x="523.6" y="96.4" class="st0" width="77.7" height="28.8"/>
<rect x="47.3" y="125.2" class="st1" width="56" height="29.2"/>
<rect x="103.2" y="125.2" class="st2" width="498" height="29.2"/>
<rect x="47.3" y="154.4" class="st1" width="56" height="29.2"/>
<rect x="103.2" y="154.4" class="st2" width="498" height="29.2"/>
<rect x="47.3" y="183.6" class="st1" width="56" height="48"/>
<rect x="103.2" y="183.6" class="st2" width="83.6" height="48"/>
<rect x="186.8" y="183.6" class="st2" width="69.6" height="48"/>
<rect x="256.4" y="183.6" class="st2" width="79.6" height="48"/>
<rect x="336" y="183.6" class="st2" width="94.7" height="48"/>
<rect x="430.7" y="183.6" class="st2" width="92.8" height="48"/>
<rect x="523.6" y="183.6" class="st2" width="77.7" height="48"/>
<line class="st3" x1="103.2" y1="95.9" x2="103.2" y2="232.1"/>
<line class="st3" x1="186.8" y1="95.9" x2="186.8" y2="125.7"/>
<line class="st3" x1="186.8" y1="183.1" x2="186.8" y2="232.1"/>
<line class="st3" x1="256.4" y1="95.9" x2="256.4" y2="125.7"/>
<line class="st3" x1="256.4" y1="183.1" x2="256.4" y2="232.1"/>
<line class="st3" x1="336" y1="95.9" x2="336" y2="125.7"/>
<line class="st3" x1="336" y1="183.1" x2="336" y2="232.1"/>
<line class="st3" x1="430.7" y1="95.9" x2="430.7" y2="125.7"/>
<line class="st3" x1="430.7" y1="183.1" x2="430.7" y2="232.1"/>
<line class="st3" x1="523.6" y1="95.9" x2="523.6" y2="125.7"/>
<line class="st3" x1="523.6" y1="183.1" x2="523.6" y2="232.1"/>
<line class="st3" x1="46.8" y1="125.2" x2="601.8" y2="125.2"/>
<line class="st3" x1="46.8" y1="154.4" x2="601.8" y2="154.4"/>
<line class="st3" x1="46.8" y1="183.6" x2="601.8" y2="183.6"/>
<line class="st3" x1="47.3" y1="95.9" x2="47.3" y2="232.1"/>
<line class="st3" x1="601.3" y1="95.9" x2="601.3" y2="232.1"/>
<line class="st3" x1="46.8" y1="96.4" x2="601.8" y2="96.4"/>
<line class="st3" x1="46.8" y1="231.6" x2="601.8" y2="231.6"/>
<g>
	<defs>
		<rect id="SVGID_1_" x="47" y="35" width="56.4" height="151.4"/>
	</defs>
	<clipPath id="SVGID_2_">
		<use xlink:href="#SVGID_1_"  style="overflow:visible;"/>
	</clipPath>
	<g class="st4">
		<path class="st5" d="M56,102.8h2.5l5.1,8.7h0.1v-8.7h2v12.4h-2.2l-5.4-9.3H58v9.3h-2V102.8z"/>
		<path class="st5" d="M67.9,109.2v-0.4c0-4,2.3-6.2,5.7-6.2c3.3,0,5.5,2.1,5.5,6.2v0.4c0,4-2.3,6.2-5.7,6.2
			C70.1,115.4,67.9,113.3,67.9,109.2z M76.7,109.4v-0.6c0-2.8-0.9-4.4-3.3-4.5c-2.1,0-3.2,1.7-3.2,4.2v0.6c0,2.8,0.9,4.5,3.3,4.5
			C75.7,113.7,76.7,112,76.7,109.4z"/>
		<path class="st5" d="M80.3,102.8h2.3l3.2,9.5h0.1l3.2-9.5h2.1l-4.4,12.4h-2.2L80.3,102.8z"/>
		<path class="st5" d="M92.6,113.4h2.2v2.1h-2.2V113.4z"/>
	</g>
</g>
<g>
	<path class="st5" d="M132.4,104.4l-1.8,0.4v-1.2l2.8-1.2h1v11.1h-2V104.4z"/>
	<path class="st5" d="M136.8,108.3v-0.7c0-3.9,2-5.3,4.3-5.3c2.3,0,4.2,1.4,4.2,5.3v0.7c0,3.9-2,5.3-4.2,5.3
		C138.6,113.5,136.8,112,136.8,108.3z M143.2,108.3v-0.8c0-2.6-0.8-3.8-2.2-3.8c-1.5,0-2.2,1.1-2.2,3.6v0.8c0,2.5,0.7,3.8,2.2,3.8
		C142.5,112,143.2,111,143.2,108.3z"/>
</g>
<g>
	<path class="st5" d="M154.5,112c-1.2-0.7-2.7-2.4-3.1-3.9c-0.5,1.6-1.9,3.4-3.4,4.2l-1.1-1.4c2.3-1.5,3.5-3.7,3.5-6.6v-2.2h1.9v2.1
		c0,2.8,1.1,4.9,3.3,6.3L154.5,112z M156.7,115.3V101h1.9v14.3H156.7z"/>
</g>
<g>
	<path class="st5" d="M211.1,104.4l-1.8,0.4v-1.2l2.8-1.2h1v11.1h-2V104.4z"/>
	<path class="st5" d="M217.1,104.4l-1.8,0.4v-1.2l2.8-1.2h1v11.1h-2V104.4z"/>
</g>
<g>
	<path class="st5" d="M228.9,112c-1.2-0.7-2.7-2.4-3.1-3.9c-0.5,1.6-1.9,3.4-3.4,4.2l-1.1-1.4c2.3-1.5,3.5-3.7,3.5-6.6v-2.2h1.9v2.1
		c0,2.8,1.1,4.9,3.3,6.3L228.9,112z M231.1,115.3V101h1.9v14.3H231.1z"/>
</g>
<g>
	<path class="st5" d="M284.5,104.4l-1.8,0.4v-1.2l2.8-1.2h1v11.1h-2V104.4z"/>
	<path class="st5" d="M288.9,112.2l2.1-2.2c1.5-1.6,2.7-3,2.7-4.3c0-1.3-0.7-1.8-2.1-1.8c-0.8,0-1.7,0.4-2.3,0.7l-0.3-1.5
		c0.7-0.4,1.9-0.8,3.1-0.8c2.4,0,3.6,1.2,3.6,3.1c0,2-1.7,3.7-3,5.1l-1.3,1.3h4.4v1.5h-7V112.2z"/>
</g>
<g>
	<path class="st5" d="M304.8,112c-1.2-0.7-2.7-2.4-3.1-3.9c-0.5,1.6-1.9,3.4-3.4,4.2l-1.1-1.4c2.3-1.5,3.5-3.7,3.5-6.6v-2.2h1.9v2.1
		c0,2.8,1.1,4.9,3.3,6.3L304.8,112z M306.9,115.3V101h1.9v14.3H306.9z"/>
</g>
<g>
	<path class="st5" d="M371.6,104.4l-1.8,0.4v-1.2l2.8-1.2h1v11.1h-2V104.4z"/>
	<path class="st5" d="M375.7,112.7l0.3-1.4c0.6,0.4,1.7,0.6,2.6,0.6c1.5,0,2.3-0.6,2.3-1.8c0-1.2-0.9-1.6-2.3-1.7l-1.1,0V107l1,0
		c1.3,0,2.1-0.6,2.1-1.6c0-1.1-0.8-1.5-2-1.5c-0.8,0-1.7,0.3-2.3,0.6l-0.2-1.5c0.7-0.4,2-0.7,3.1-0.7c2,0,3.4,1,3.4,2.7
		c0,1.3-0.8,2.1-2,2.6c1.4,0.3,2.3,1.1,2.3,2.7c0,2-1.6,3.3-4,3.3C377.6,113.5,376.3,113.1,375.7,112.7z"/>
</g>
<g>
	<path class="st5" d="M392,112c-1.2-0.7-2.7-2.4-3.1-3.9c-0.5,1.6-1.9,3.4-3.4,4.2l-1.1-1.4c2.3-1.5,3.5-3.7,3.5-6.6v-2.2h1.9v2.1
		c0,2.8,1.1,4.9,3.3,6.3L392,112z M394.1,115.3V101h1.9v14.3H394.1z"/>
</g>
<g>
	<path class="st5" d="M465,104.4l-1.8,0.4v-1.2l2.8-1.2h1v11.1h-2V104.4z"/>
	<path class="st5" d="M474,111.3h-5v-1.2l5.6-7.8h1.3v7.5h1.6v1.5h-1.6v2.2H474V111.3z M474,109.8v-4.1l-2.9,4.1H474z"/>
</g>
<g>
	<path class="st5" d="M486.2,112c-1.2-0.7-2.7-2.4-3.1-3.9c-0.5,1.6-1.9,3.4-3.4,4.2l-1.1-1.4c2.3-1.5,3.5-3.7,3.5-6.6v-2.2h1.9v2.1
		c0,2.8,1.1,4.9,3.3,6.3L486.2,112z M488.3,115.3V101h1.9v14.3H488.3z"/>
</g>
<g>
	<path class="st5" d="M550.8,104.4l-1.8,0.4v-1.2l2.8-1.2h1v11.1h-2V104.4z"/>
	<path class="st5" d="M554.9,112.8l0.4-1.5c0.6,0.4,1.4,0.7,2.3,0.7c1.5,0,2.4-0.7,2.4-2.1c0-1.4-0.9-2-2.4-2
		c-0.7,0-1.7,0.3-2.2,0.6l0.4-6h5.7v1.5h-4.2l-0.2,2.7c0.4-0.1,1-0.2,1.4-0.2c2.2,0,3.6,1.1,3.6,3.4c0,2-1.5,3.6-4,3.6
		C556.7,113.5,555.6,113.2,554.9,112.8z"/>
</g>
<g>
	<path class="st5" d="M570.9,112c-1.2-0.7-2.7-2.4-3.1-3.9c-0.5,1.6-1.9,3.4-3.4,4.2l-1.1-1.4c2.3-1.5,3.5-3.7,3.5-6.6v-2.2h1.9v2.1
		c0,2.8,1.1,4.9,3.3,6.3L570.9,112z M573,115.3V101h1.9v14.3H573z"/>
</g>
<g>
	<path d="M68.5,138.7v-1.1h6v-1.7h-4.3v-5.1h10v5.1h-4.4v1.7h6.1v1.1H68.5z M80.3,140.1v4.9H79v-3.8h-9v-1.1H80.3z M78.9,131.8h-7.4
		v2.9h7.4V131.8z"/>
</g>
<g>
	<path d="M323.4,143v-1.1h13.4v1.1H323.4z M324.6,132.7v-1.1h11v1.1H324.6z M324.6,139v-1.1h2.4l-0.4-4.1l1.3-0.2l0.3,4.3h3.7
		l0.5-4.3l1.3,0.2l-0.6,4.1h2.4v1.1H324.6z"/>
	<path d="M347.1,140.9c-1.7,0.3-4.8,0.6-7.2,0.6h-1.3v-5.7h5.5v-3.1h-5.6v-1.1h6.9v5.3H340v3.6c2.4,0,5-0.1,7-0.5L347.1,140.9z
		 M349.5,136.1h2.4v1.1h-2.4v7.8h-1.3v-14.9h1.3V136.1z"/>
	<path d="M357.2,131.2c2.5,0,3.8,2.1,3.8,5.3c0,3.1-1.4,5.3-3.8,5.3c-2.4,0-3.8-2.1-3.8-5.3C353.4,133.3,354.8,131.2,357.2,131.2z
		 M357.2,132.3c-1.6,0-2.6,1.7-2.6,4.1c0,2.4,1,4.1,2.6,4.1c1.6,0,2.6-1.7,2.6-4.1C359.8,134,358.8,132.3,357.2,132.3z M363.8,145
		v-14.9h1.3V145H363.8z"/>
	<path d="M368.4,138.1v-7h1.3v2.4h4.2v-2.4h1.3v7H368.4z M380,145.1c-2-0.4-4.4-2-5-3.3c-0.6,1.5-2.8,2.9-5,3.4l-0.7-1
		c2.4-0.3,5.1-2.1,5.1-4.2v-0.6h1.4v0.6c0,2.1,2.9,3.8,5,4.2L380,145.1z M373.9,134.6h-4.2v2.4h4.2V134.6z M378.5,140v-9.9h1.3v9.9
		H378.5z"/>
</g>
<g>
	<path d="M79.7,165.8h2.3v1.1H68.5v-1.1h9.9c0.3-1.1,0.5-3.3,0.5-4.5h-8.6v-1.1h9.9C80.2,162.2,80,164.3,79.7,165.8z M70.1,173.9
		v-5.2h10.2v5.2H70.1z M79,169.8h-7.6v3H79V169.8z"/>
</g>
<g>
	<path d="M323.4,172.3v-1.1h13.4v1.1H323.4z M324.6,162v-1.1h11v1.1H324.6z M324.6,168.2v-1.1h2.4l-0.4-4.1l1.3-0.2l0.3,4.3h3.7
		l0.5-4.3l1.3,0.2l-0.6,4.1h2.4v1.1H324.6z"/>
	<path d="M347.1,170.1c-1.7,0.3-4.8,0.6-7.2,0.6h-1.3v-5.7h5.5v-3.1h-5.6v-1.1h6.9v5.3H340v3.6c2.4,0,5-0.1,7-0.5L347.1,170.1z
		 M349.5,165.4h2.4v1.1h-2.4v7.8h-1.3v-14.9h1.3V165.4z"/>
	<path d="M357.2,160.5c2.5,0,3.8,2.1,3.8,5.3c0,3.1-1.4,5.3-3.8,5.3c-2.4,0-3.8-2.1-3.8-5.3C353.4,162.6,354.8,160.5,357.2,160.5z
		 M357.2,161.6c-1.6,0-2.6,1.7-2.6,4.1c0,2.4,1,4.1,2.6,4.1c1.6,0,2.6-1.7,2.6-4.1C359.8,163.3,358.8,161.6,357.2,161.6z
		 M363.8,174.2v-14.9h1.3v14.9H363.8z"/>
	<path d="M368.4,167.4v-7h1.3v2.4h4.2v-2.4h1.3v7H368.4z M380,174.4c-2-0.4-4.4-2-5-3.3c-0.6,1.5-2.8,2.9-5,3.4l-0.7-1
		c2.4-0.3,5.1-2.1,5.1-4.2v-0.6h1.4v0.6c0,2.1,2.9,3.8,5,4.2L380,174.4z M373.9,163.9h-4.2v2.4h4.2V163.9z M378.5,169.3v-9.9h1.3
		v9.9H378.5z"/>
</g>
<g>
	<path d="M71.4,194.3v2.3h9.1v1.1h-4.6v2.9h6.1v1.1H68.5v-1.1h6v-2.9h-4.5v-7.7h10.2v1.1h-8.9v2.2h8.4v1.1H71.4z"/>
</g>
<g>
	<path d="M124,199.8v-9.9h1.3v3.8h4.4v-3.8h1.3v9.9H124z M129.7,194.8h-4.4v4h4.4V194.8z M135,195.7v7.9h-1.3v-14.9h1.3v5.9h2.4v1.1
		H135z"/>
	<path d="M147.3,199.1c-1.8,0.4-5.4,0.7-7.6,0.7h-0.9v-9.6h1.3v8.5c2.5,0,5.5-0.2,7.1-0.6L147.3,199.1z M149.7,194.6h2.4v1.1h-2.4
		v7.9h-1.3v-14.9h1.3V194.6z"/>
	<path d="M162.1,199.1c-1.8,0.4-5.4,0.7-7.6,0.7h-0.9v-9.6h1.3v8.5c2.5,0,5.5-0.2,7.1-0.6L162.1,199.1z M164.4,194.6h2.4v1.1h-2.4
		v7.9h-1.3v-14.9h1.3V194.6z"/>
</g>
<g>
	<path d="M138.7,217.3v-6.8h1.2v2.5h1.5v-2.5h1.2v6.8H138.7z M141.3,214.1h-1.5v2.2h1.5V214.1z M145.2,224.3c-3.2,0-4.9-1.1-4.9-2.8
		c0-1.7,1.7-2.8,4.9-2.8c3.2,0,4.9,1.2,4.9,2.8C150.1,223.2,148.4,224.3,145.2,224.3z M145.2,219.7c-2.2,0-3.6,0.7-3.6,1.8
		c0,1.1,1.3,1.8,3.6,1.8c2.2,0,3.6-0.7,3.6-1.8C148.8,220.4,147.4,219.7,145.2,219.7z M143.6,217.3v-6.8h1.2v2.5h1.5v-2.5h1.2v6.8
		H143.6z M146.2,214h-1.5v2.2h1.5V214z M150,214.5v3.9h-1.3v-8.8h1.3v3.9h2v1.1H150z"/>
</g>
<g>
	<path d="M206.4,201.3v-1.1c0.5,0.2,1.2,0.3,2,0.3c1.3,0,1.8-0.7,1.8-1.9v-8.5h1.4v8.5c0,1.7-0.9,3-3.1,3
		C207.6,201.7,207,201.6,206.4,201.3z"/>
	<path d="M213.7,197.5v-0.2c0-2.9,1.7-4.2,3.7-4.2c2.3,0,3.4,1.3,3.4,4v0.7H215c0.1,2.1,1.1,2.9,2.9,2.9c1.1,0,1.9-0.3,2.6-0.6v1
		c-0.5,0.4-1.5,0.8-2.8,0.8C215,201.8,213.7,200.1,213.7,197.5z M215,196.7h4.4c0-1.8-0.7-2.6-2.1-2.6
		C216.3,194.1,215.1,194.7,215,196.7z"/>
	<path d="M222.7,189.4h1.3v12.2h-1.3V189.4z"/>
	<path d="M226.6,189.4h1.3v12.2h-1.3V189.4z"/>
	<path d="M230,203.9v-1c0.2,0,0.5,0.1,0.8,0.1c0.8,0,1.3-0.1,1.7-1.1l0.3-0.7l-3.2-8.1h1.4l2.5,6.4h0l2.3-6.4h1.3l-3.3,9
		c-0.6,1.5-1.3,2-2.7,2C230.7,204.1,230.2,204,230,203.9z"/>
</g>
<g>
	<path d="M207.1,222.2v-11.9h1.3v4.3h0.1c0.6-0.4,1.4-0.7,2.6-0.7c1.6,0,3.3,1,3.3,4.1v0.2c0,2.8-1.5,4.4-4.2,4.4
		C209.1,222.7,207.8,222.5,207.1,222.2z M213,218.5v-0.3c0-2.3-0.8-3.1-2.5-3.1c-0.9,0-1.6,0.3-2.1,0.5v5.7c0.4,0.2,1,0.3,1.8,0.3
		C211.7,221.6,213,220.9,213,218.5z"/>
	<path d="M215.8,218.4v-0.2c0-2.9,1.7-4.2,3.7-4.2c2.3,0,3.4,1.3,3.4,4v0.7h-5.7c0.1,2.1,1.1,2.9,2.9,2.9c1.1,0,1.9-0.3,2.6-0.6v1
		c-0.5,0.4-1.5,0.8-2.8,0.8C217.1,222.6,215.8,221,215.8,218.4z M217.1,217.6h4.4c0-1.8-0.7-2.6-2.1-2.6
		C218.4,215,217.3,215.6,217.1,217.6z"/>
	<path d="M224.2,220.3c0-1.5,1-2.3,2.6-2.4l2.3-0.3v-0.9c0-1.3-0.6-1.6-2.1-1.6c-0.8,0-1.5,0.1-2,0.3v-0.9c0.7-0.3,1.5-0.5,2.5-0.5
		c1.9,0,2.9,0.8,2.9,2.5v6.1h-1.1l-0.1-0.7h-0.1c-0.4,0.5-1.1,0.9-2.2,0.9C225.3,222.6,224.2,221.9,224.2,220.3z M229.1,221v-2.5
		l-1.9,0.2c-1,0.1-1.5,0.5-1.5,1.5c0,0.9,0.6,1.4,1.6,1.4C228,221.6,228.7,221.4,229.1,221z"/>
	<path d="M232.8,214.1h1.2v1h0.1c0.5-0.5,1.4-1,2.3-1c0.2,0,0.4,0,0.5,0v1.2c-0.2,0-0.5-0.1-0.6-0.1c-0.9,0-1.7,0.3-2.3,0.7v6.6
		h-1.3V214.1z"/>
</g>
<g>
	<path d="M278.7,215.1h-1.2v-1.1h1.2v-1.2c0-1.9,1.1-2.7,2.6-2.7c0.7,0,1.1,0.1,1.4,0.3v0.9c-0.3-0.1-0.6-0.1-1.2-0.1
		c-1,0-1.6,0.5-1.6,1.6v1.1h1.9v1.1H280v7.3h-1.3V215.1z"/>
	<path d="M283.1,220.3c0-1.5,1-2.3,2.6-2.4l2.3-0.3v-0.9c0-1.3-0.6-1.6-2.1-1.6c-0.8,0-1.5,0.1-2,0.3v-0.9c0.7-0.3,1.5-0.5,2.5-0.5
		c1.9,0,2.9,0.8,2.9,2.5v6.1h-1.1l-0.1-0.7H288c-0.4,0.5-1.1,0.9-2.2,0.9C284.2,222.6,283.1,221.9,283.1,220.3z M288,221v-2.5
		l-1.9,0.2c-1,0.1-1.5,0.5-1.5,1.5c0,0.9,0.6,1.4,1.6,1.4C286.9,221.6,287.6,221.4,288,221z"/>
	<path d="M291.7,214.1h1.2v0.7h0.1c0.8-0.5,1.9-0.9,2.9-0.9c1.6,0,2.4,0.7,2.4,2.3v6.3h-1.3v-6c0-1-0.4-1.4-1.7-1.4
		c-0.8,0-1.7,0.3-2.4,0.6v6.9h-1.3V214.1z"/>
	<path d="M300.3,218.4v-0.3c0-3,1.8-4.3,3.9-4.3c1.1,0,1.8,0.2,2.3,0.6v1.1c-0.7-0.3-1.3-0.5-2.4-0.5c-1.5,0-2.5,1-2.5,3v0.4
		c0,2.2,0.9,3.1,2.7,3.1c1.1,0,1.9-0.4,2.3-0.6v1.1c-0.5,0.3-1.3,0.7-2.5,0.7C301.8,222.6,300.3,221.2,300.3,218.4z"/>
	<path d="M308,224.8v-1c0.2,0,0.5,0.1,0.8,0.1c0.8,0,1.3-0.1,1.7-1.1l0.3-0.7l-3.2-8.1h1.4l2.5,6.4h0l2.3-6.4h1.3l-3.3,9
		c-0.6,1.5-1.3,2-2.7,2C308.7,225,308.3,224.9,308,224.8z"/>
</g>
<g>
	<path d="M348.6,196v-0.3c0-4.1,2.3-5.7,5.2-5.7c1.2,0,2.1,0.3,2.8,0.6v1.1c-0.9-0.4-1.8-0.6-2.9-0.6c-2.2,0-3.7,1.3-3.7,4.3v0.6
		c0,2.9,1.1,4.6,3.7,4.6c1.4,0,2.3-0.4,3-0.7v1.1c-0.8,0.4-1.8,0.7-3.1,0.7C350.5,201.8,348.6,199.9,348.6,196z"/>
	<path d="M358.8,189.4h1.3v4.5h0.1c0.7-0.5,1.8-0.9,2.8-0.9c1.6,0,2.4,0.7,2.4,2.3v6.3h-1.3v-6c0-1-0.4-1.4-1.7-1.4
		c-0.8,0-1.7,0.3-2.4,0.6v6.8h-1.3V189.4z"/>
	<path d="M367.4,197.5v-0.3c0-2.7,1.5-4.3,3.8-4.3c2.4,0,3.8,1.5,3.8,4.2v0.2c0,2.7-1.6,4.3-3.8,4.3
		C368.8,201.8,367.4,200.2,367.4,197.5z M373.7,197.6v-0.4c0-2.3-1.1-3.1-2.5-3.1c-1.5,0-2.5,1.1-2.5,3.1v0.4c0,2.3,1.1,3.1,2.5,3.1
		C372.7,200.7,373.7,199.6,373.7,197.6z"/>
	<path d="M376.5,197.6v-0.3c0-3,1.8-4.3,3.9-4.3c1.1,0,1.8,0.2,2.3,0.6v1.1c-0.7-0.3-1.3-0.5-2.4-0.5c-1.5,0-2.5,1-2.5,3v0.4
		c0,2.2,0.9,3.1,2.7,3.1c1.1,0,1.9-0.4,2.3-0.6v1.1c-0.5,0.3-1.3,0.7-2.5,0.7C378,201.8,376.5,200.3,376.5,197.6z"/>
	<path d="M384.1,197.5v-0.3c0-2.7,1.5-4.3,3.8-4.3c2.4,0,3.8,1.5,3.8,4.2v0.2c0,2.7-1.6,4.3-3.8,4.3
		C385.5,201.8,384.1,200.2,384.1,197.5z M390.4,197.6v-0.4c0-2.3-1.1-3.1-2.5-3.1c-1.5,0-2.5,1.1-2.5,3.1v0.4c0,2.3,1.1,3.1,2.5,3.1
		C389.5,200.7,390.4,199.6,390.4,197.6z"/>
	<path d="M393.8,189.4h1.3v12.2h-1.3V189.4z"/>
	<path d="M397,199.4c0-1.5,1-2.3,2.6-2.4l2.3-0.3v-0.9c0-1.3-0.6-1.6-2.1-1.6c-0.8,0-1.5,0.1-2,0.3v-0.9c0.7-0.3,1.5-0.5,2.5-0.5
		c1.9,0,2.9,0.8,2.9,2.5v6.1h-1.1l-0.1-0.7h-0.1c-0.4,0.5-1.1,0.9-2.2,0.9C398.1,201.8,397,201,397,199.4z M401.9,200.1v-2.5
		l-1.9,0.2c-1,0.1-1.5,0.5-1.5,1.5c0,0.9,0.6,1.4,1.6,1.4C400.8,200.7,401.5,200.5,401.9,200.1z"/>
	<path d="M406.1,199.7v-5.4h-1.2v-1.1h1.2v-2h1.3v2h2.2v1.1h-2.2v5.2c0,0.8,0.3,1.1,1.2,1.1c0.4,0,0.7-0.1,1.1-0.2v0.9
		c-0.3,0.2-0.7,0.3-1.4,0.3C407,201.7,406.1,201.1,406.1,199.7z"/>
	<path d="M411.1,197.5v-0.2c0-2.9,1.7-4.2,3.7-4.2c2.3,0,3.4,1.3,3.4,4v0.7h-5.7c0.1,2.1,1.1,2.9,2.9,2.9c1.1,0,1.9-0.3,2.6-0.6v1
		c-0.5,0.4-1.5,0.8-2.8,0.8C412.4,201.8,411.1,200.1,411.1,197.5z M412.4,196.7h4.4c0-1.8-0.7-2.6-2.1-2.6
		C413.7,194.1,412.5,194.7,412.4,196.7z"/>
</g>
<g>
	<path d="M359.2,223c0-0.9,0.7-1.4,1.6-1.7v-0.1c-0.5-0.1-0.8-0.5-0.8-1.1c0-0.5,0.3-0.9,1-1.4c-0.6-0.4-1.1-1.1-1.1-2.1v0
		c0-1.8,1.3-2.7,3.2-2.7c0.4,0,0.8,0.1,1.2,0.1h2.9v1h-1.5c0.4,0.4,0.6,0.9,0.6,1.5v0c0,1.8-1.4,2.7-3.2,2.7c-0.5,0-1-0.1-1.4-0.2
		c-0.2,0.2-0.4,0.4-0.4,0.7c0,0.5,0.3,0.6,0.8,0.6h2.3c1.5,0,2.7,0.5,2.7,2c0,1.4-1.2,2.6-4,2.6C360.4,225,359.2,224.2,359.2,223z
		 M365.6,222.6c0-0.8-0.4-1-1.5-1h-2.4c-0.6,0.2-1.1,0.6-1.1,1.3c0,0.7,0.7,1.1,2.4,1.1C364.9,224,365.6,223.5,365.6,222.6z
		 M364.8,216.7L364.8,216.7c0-1.2-0.7-1.8-1.9-1.8c-1.2,0-1.9,0.6-1.9,1.7v0.1c0,1.1,0.7,1.6,1.9,1.6
		C364.1,218.3,364.8,217.7,364.8,216.7z"/>
	<path d="M368.6,214.1h1.2v1h0.1c0.5-0.5,1.4-1,2.3-1c0.2,0,0.4,0,0.5,0v1.2c-0.2,0-0.5-0.1-0.6-0.1c-0.8,0-1.7,0.3-2.3,0.7v6.6
		h-1.3V214.1z"/>
	<path d="M374.5,211h1.3v1.4h-1.3V211z M374.5,214.1h1.3v8.4h-1.3V214.1z"/>
	<path d="M377.8,222v-1c0.7,0.3,1.3,0.5,2.5,0.5c1.3,0,1.9-0.5,1.9-1.2c0-0.8-0.4-1.1-1.5-1.4l-0.8-0.2c-1.2-0.3-2.1-0.9-2.1-2.3
		s0.9-2.4,2.9-2.4c1.1,0,1.9,0.3,2.3,0.5v1.1c-0.4-0.2-1.3-0.4-2.2-0.4c-1.1,0-1.7,0.4-1.7,1.2c0,0.7,0.4,1,1.3,1.3l0.9,0.2
		c1.6,0.4,2.3,1,2.3,2.4c0,1.6-1.1,2.5-3,2.5C379.4,222.6,378.5,222.4,377.8,222z"/>
	<path d="M384.8,222v-1c0.7,0.3,1.3,0.5,2.5,0.5c1.3,0,1.9-0.5,1.9-1.2c0-0.8-0.4-1.1-1.5-1.4l-0.8-0.2c-1.2-0.3-2.1-0.9-2.1-2.3
		s0.9-2.4,2.9-2.4c1.1,0,1.9,0.3,2.3,0.5v1.1c-0.4-0.2-1.3-0.4-2.2-0.4c-1.1,0-1.7,0.4-1.7,1.2c0,0.7,0.4,1,1.3,1.3l0.9,0.2
		c1.6,0.4,2.3,1,2.3,2.4c0,1.6-1.1,2.5-3,2.5C386.4,222.6,385.5,222.4,384.8,222z"/>
	<path d="M392.4,211h1.3v1.4h-1.3V211z M392.4,214.1h1.3v8.4h-1.3V214.1z"/>
	<path d="M396.2,214.1h1.2v0.7h0.1c0.8-0.5,1.9-0.9,2.9-0.9c1.6,0,2.4,0.7,2.4,2.3v6.3h-1.3v-6c0-1-0.4-1.4-1.7-1.4
		c-0.8,0-1.7,0.3-2.4,0.6v6.9h-1.3V214.1z"/>
	<path d="M405.4,211h1.3v1.4h-1.3V211z M405.4,214.1h1.3v8.4h-1.3V214.1z"/>
</g>
<g>
	<path d="M442.4,196v-0.3c0-4.1,2.3-5.7,5.2-5.7c1.2,0,2.1,0.3,2.8,0.6v1.1c-0.9-0.4-1.8-0.6-2.9-0.6c-2.2,0-3.7,1.3-3.7,4.3v0.6
		c0,2.9,1.1,4.6,3.7,4.6c1.4,0,2.3-0.4,3-0.7v1.1c-0.8,0.4-1.8,0.7-3.1,0.7C444.3,201.8,442.4,199.9,442.4,196z"/>
	<path d="M452.6,189.4h1.3v4.5h0.1c0.7-0.5,1.8-0.9,2.8-0.9c1.6,0,2.4,0.7,2.4,2.3v6.3h-1.3v-6c0-1-0.4-1.4-1.7-1.4
		c-0.8,0-1.7,0.3-2.4,0.6v6.8h-1.3V189.4z"/>
	<path d="M461.2,197.5v-0.3c0-2.7,1.5-4.3,3.8-4.3c2.4,0,3.8,1.5,3.8,4.2v0.2c0,2.7-1.6,4.3-3.8,4.3
		C462.6,201.8,461.2,200.2,461.2,197.5z M467.5,197.6v-0.4c0-2.3-1.1-3.1-2.5-3.1c-1.5,0-2.5,1.1-2.5,3.1v0.4c0,2.3,1.1,3.1,2.5,3.1
		C466.5,200.7,467.5,199.6,467.5,197.6z"/>
	<path d="M470.3,197.6v-0.3c0-3,1.8-4.3,3.9-4.3c1.1,0,1.8,0.2,2.3,0.6v1.1c-0.7-0.3-1.3-0.5-2.4-0.5c-1.5,0-2.5,1-2.5,3v0.4
		c0,2.2,0.9,3.1,2.7,3.1c1.1,0,1.9-0.4,2.3-0.6v1.1c-0.5,0.3-1.3,0.7-2.5,0.7C471.8,201.8,470.3,200.3,470.3,197.6z"/>
	<path d="M477.9,197.5v-0.3c0-2.7,1.5-4.3,3.8-4.3c2.4,0,3.8,1.5,3.8,4.2v0.2c0,2.7-1.6,4.3-3.8,4.3
		C479.3,201.8,477.9,200.2,477.9,197.5z M484.2,197.6v-0.4c0-2.3-1.1-3.1-2.5-3.1c-1.5,0-2.5,1.1-2.5,3.1v0.4c0,2.3,1.1,3.1,2.5,3.1
		C483.3,200.7,484.2,199.6,484.2,197.6z"/>
	<path d="M487.6,189.4h1.3v12.2h-1.3V189.4z"/>
	<path d="M490.8,199.4c0-1.5,1-2.3,2.6-2.4l2.3-0.3v-0.9c0-1.3-0.6-1.6-2.1-1.6c-0.8,0-1.5,0.1-2,0.3v-0.9c0.7-0.3,1.5-0.5,2.5-0.5
		c1.9,0,2.9,0.8,2.9,2.5v6.1h-1.1l-0.1-0.7h-0.1c-0.4,0.5-1.1,0.9-2.2,0.9C491.9,201.8,490.8,201,490.8,199.4z M495.7,200.1v-2.5
		l-1.9,0.2c-1,0.1-1.5,0.5-1.5,1.5c0,0.9,0.6,1.4,1.6,1.4C494.6,200.7,495.3,200.5,495.7,200.1z"/>
	<path d="M499.9,199.7v-5.4h-1.2v-1.1h1.2v-2h1.3v2h2.2v1.1h-2.2v5.2c0,0.8,0.3,1.1,1.2,1.1c0.4,0,0.7-0.1,1.1-0.2v0.9
		c-0.3,0.2-0.7,0.3-1.4,0.3C500.8,201.7,499.9,201.1,499.9,199.7z"/>
	<path d="M504.9,197.5v-0.2c0-2.9,1.7-4.2,3.7-4.2c2.3,0,3.4,1.3,3.4,4v0.7h-5.7c0.1,2.1,1.1,2.9,2.9,2.9c1.1,0,1.9-0.3,2.6-0.6v1
		c-0.5,0.4-1.5,0.8-2.8,0.8C506.2,201.8,504.9,200.1,504.9,197.5z M506.2,196.7h4.4c0-1.8-0.7-2.6-2.1-2.6
		C507.5,194.1,506.3,194.7,506.2,196.7z"/>
</g>
<g>
	<path d="M452.9,223c0-0.9,0.7-1.4,1.6-1.7v-0.1c-0.5-0.1-0.8-0.5-0.8-1.1c0-0.5,0.3-0.9,1-1.4c-0.6-0.4-1.1-1.1-1.1-2.1v0
		c0-1.8,1.3-2.7,3.2-2.7c0.4,0,0.8,0.1,1.2,0.1h2.9v1h-1.5c0.4,0.4,0.6,0.9,0.6,1.5v0c0,1.8-1.4,2.7-3.2,2.7c-0.5,0-1-0.1-1.4-0.2
		c-0.2,0.2-0.4,0.4-0.4,0.7c0,0.5,0.3,0.6,0.8,0.6h2.3c1.5,0,2.7,0.5,2.7,2c0,1.4-1.2,2.6-4,2.6C454.1,225,452.9,224.2,452.9,223z
		 M459.4,222.6c0-0.8-0.4-1-1.5-1h-2.4c-0.6,0.2-1.1,0.6-1.1,1.3c0,0.7,0.7,1.1,2.4,1.1C458.7,224,459.4,223.5,459.4,222.6z
		 M458.6,216.7L458.6,216.7c0-1.2-0.7-1.8-1.9-1.8c-1.2,0-1.9,0.6-1.9,1.7v0.1c0,1.1,0.7,1.6,1.9,1.6
		C457.9,218.3,458.6,217.7,458.6,216.7z"/>
	<path d="M462.4,214.1h1.2v1h0.1c0.5-0.5,1.4-1,2.3-1c0.2,0,0.4,0,0.5,0v1.2c-0.2,0-0.5-0.1-0.6-0.1c-0.8,0-1.7,0.3-2.3,0.7v6.6
		h-1.3V214.1z"/>
	<path d="M468.3,211h1.3v1.4h-1.3V211z M468.3,214.1h1.3v8.4h-1.3V214.1z"/>
	<path d="M471.6,222v-1c0.7,0.3,1.3,0.5,2.5,0.5c1.3,0,1.9-0.5,1.9-1.2c0-0.8-0.4-1.1-1.5-1.4l-0.8-0.2c-1.2-0.3-2.1-0.9-2.1-2.3
		s0.9-2.4,2.9-2.4c1.1,0,1.9,0.3,2.3,0.5v1.1c-0.4-0.2-1.3-0.4-2.2-0.4c-1.1,0-1.7,0.4-1.7,1.2c0,0.7,0.4,1,1.3,1.3l0.8,0.2
		c1.6,0.4,2.3,1,2.3,2.4c0,1.6-1.1,2.5-3,2.5C473.2,222.6,472.3,222.4,471.6,222z"/>
	<path d="M478.6,222v-1c0.7,0.3,1.3,0.5,2.5,0.5c1.3,0,1.9-0.5,1.9-1.2c0-0.8-0.4-1.1-1.5-1.4l-0.8-0.2c-1.2-0.3-2.1-0.9-2.1-2.3
		s0.9-2.4,2.9-2.4c1.1,0,1.9,0.3,2.3,0.5v1.1c-0.4-0.2-1.3-0.4-2.2-0.4c-1.1,0-1.7,0.4-1.7,1.2c0,0.7,0.4,1,1.3,1.3l0.8,0.2
		c1.6,0.4,2.3,1,2.3,2.4c0,1.6-1.1,2.5-3,2.5C480.2,222.6,479.3,222.4,478.6,222z"/>
	<path d="M486.2,211h1.3v1.4h-1.3V211z M486.2,214.1h1.3v8.4h-1.3V214.1z"/>
	<path d="M490,214.1h1.2v0.7h0.1c0.8-0.5,1.9-0.9,2.9-0.9c1.6,0,2.4,0.7,2.4,2.3v6.3h-1.3v-6c0-1-0.4-1.4-1.7-1.4
		c-0.8,0-1.7,0.3-2.4,0.6v6.9H490V214.1z"/>
	<path d="M499.2,211h1.3v1.4h-1.3V211z M499.2,214.1h1.3v8.4h-1.3V214.1z"/>
</g>
<g>
	<path d="M540.9,201.6v-1.1h6v-3.4h1.3v3.4h6.1v1.1H540.9z M553.2,198.1c-2.4-0.4-4.8-1.9-5.6-3.5c-0.6,1.6-3,3-5.6,3.5l-0.5-1.1
		c2.4-0.3,5.3-2,5.5-3.9h-4.8v-1.1h10.9v1.1h-4.8c0.3,1.9,3.3,3.6,5.5,3.8L553.2,198.1z M545.2,190.4v-1.2h4.9v1.2H545.2z"/>
	<path d="M555.7,196.2v-1.1h5.4v-1.8h1.3v1.8h6.7v1.1H555.7z M567.4,190.4c0,1.2-0.2,3-0.4,4l-1.3-0.2c0.1-0.5,0.2-1.1,0.3-1.7
		l-9,0.4l-0.2-1.1l9.2-0.3v-1.2h-8.8v-1.1h10.2V190.4z M557.2,203.3v-3.5h8.9v-1.3h-8.9v-1.1h10.2v3.4h-8.9v1.4h9.4v1.1H557.2z"/>
	<path d="M579.3,196.7c-1.5,0.3-3.9,0.4-6.5,0.4h-1.6v-4.4h5.3v-2.1h-5.4v-1.1h6.6v4.2h-5.3v2.2c2.3,0,5.2-0.1,6.7-0.4L579.3,196.7z
		 M582.8,203.7c-1.9-0.4-4.4-1.9-5-3.2c-0.6,1.5-2.8,2.8-5,3.2c-0.3-0.3-0.5-0.7-0.7-1c2.4-0.3,5.1-2,5.1-4.1v-0.5h1.3v0.5
		c0,2.1,2.9,3.7,5,4L582.8,203.7z M581.3,198.6v-9.9h1.3v9.9H581.3z"/>
</g>
<g>
	<path d="M541.3,220.7v-9.4h1.1v3.7h1.1v-3.8h1.1v9.4H541.3z M543.6,216.1h-1.1v3.5h1.1V216.1z M545.6,220.7v-9.4h1.1v3.8h1.2v-3.8
		h1.1v9.4H545.6z M547.9,216.1h-1.2v3.5h1.2V216.1z M552.5,224.4v-7.8h-1.3v7H550v-13.7h1.2v5.6h1.3v-6h1.2v14.9H552.5z"/>
	<path d="M556.1,220.7v-9.4h1.1v3.7h1.1v-3.8h1.1v9.4H556.1z M558.3,216.1h-1.1v3.5h1.1V216.1z M560.3,220.7v-9.4h1.1v3.8h1.2v-3.8
		h1.1v9.4H560.3z M562.6,216.1h-1.2v3.5h1.2V216.1z M567.2,224.4v-7.8H566v7h-1.2v-13.7h1.2v5.6h1.3v-6h1.2v14.9H567.2z"/>
	<path d="M570.4,222.5v-1.1h6v-2.5h-4.4v-4.6h8.8v-2.4h-8.8v-1.1h10.1v4.5h-8.8v2.5h9.2v1.1h-4.8v2.5h6.1v1.1H570.4z"/>
</g>
<g>
	<path d="M62.2,44.8c3.6,0,5.6,1.3,5.6,3.1c0,1-0.6,1.8-1.8,2.4v1.9h3.5v1.7H55v-1.7h3.4v-1.9c-1.1-0.6-1.7-1.4-1.7-2.3
		C56.6,46.1,58.7,44.8,62.2,44.8z M62.3,60.5c-3.5,0-5.6-1.2-5.6-3c0-1.8,2-3,5.6-3c3.6,0,5.6,1.2,5.6,3
		C67.8,59.3,65.8,60.5,62.3,60.5z M62.2,49.3c2.1,0,3.5-0.6,3.5-1.5c0-0.9-1.3-1.5-3.5-1.5c-2.2,0-3.4,0.6-3.4,1.5
		C58.8,48.7,60.1,49.3,62.2,49.3z M62.2,56.2c-2.1,0-3.4,0.5-3.4,1.3c0,0.8,1.3,1.3,3.4,1.3c2.1,0,3.4-0.5,3.4-1.3
		C65.7,56.7,64.3,56.2,62.2,56.2z M60.5,50.8v1.3h3.4v-1.3c-0.5,0.1-1.1,0.1-1.7,0.1C61.6,51,61,50.9,60.5,50.8z"/>
	<path d="M78.8,53.6c-1.2-0.5-2.9-1.9-3.6-3.4c-0.5,1.6-2.2,3.3-3.7,3.9l-1.3-1.7c2.3-0.8,3.8-3,3.8-5.4v-1.7h2.2v1.6
		c0,2.5,1.9,4.5,3.7,5.1L78.8,53.6z M73,60v-5.2h2.1v3.5h8.5V60H73z M83.2,49h2.3v1.7h-2.3v5.3h-2.1V44.4h2.1V49z"/>
	<path d="M86.8,45.4h8.5v1.7h-3.1c0.1,2.3,1.8,3.8,3.6,4.4l-1.2,1.7c-1.2-0.5-2.8-1.7-3.5-3.2c-0.5,1.6-2.2,3.1-3.7,3.6L86.2,52
		c2.2-0.8,3.8-2.5,3.9-4.9h-3.2V45.4z M88.9,60.3v-5.9h10.7v5.9H88.9z M97.4,56h-6.5v2.7h6.5V56z M97.4,53.6V50H95v-1.7h2.4v-3.9
		h2.1v9.1H97.4z"/>
</g>
<g>
	<path d="M150.4,277.9l-1.1,0.7L149,278l1.1-0.6l-1.1-0.6l0.3-0.6l1.1,0.7l0-1.3h0.7l0,1.3l1.1-0.7l0.3,0.6l-1.1,0.6l1.1,0.6
		l-0.3,0.6l-1.1-0.7l0,1.3h-0.7L150.4,277.9z"/>
</g>
<g>
	<path d="M156.4,284.9v-3.6c-1,0-1.9,0.1-2.8,0.1l-0.1-0.8c1.2,0,2.4,0,3.5,0c1.3,0,2.6-0.1,3.7-0.2l0,0.7c-0.8,0.1-2.1,0.2-3.3,0.3
		v3.6H156.4z M156.9,279.8c-1.6,0-2.8-0.9-2.8-2.2c0-1.3,1.1-2.3,2.8-2.3c1.6,0,2.7,0.9,2.7,2.3
		C159.6,278.8,158.5,279.8,156.9,279.8z M156.9,276c-1.1,0-1.9,0.5-1.9,1.5c0,0.9,0.8,1.5,1.9,1.5c1,0,1.9-0.5,1.9-1.5
		C158.7,276.6,157.9,276,156.9,276z M161.2,285.2v-10.5h0.9v10.5H161.2z"/>
</g>
<g>
	<path d="M172.8,282.7c-0.9-0.6-2.2-1.9-2.6-3.2c-0.4,1.3-1.5,2.6-2.7,3.5l-0.6-0.7c1.5-1,2.8-2.9,2.8-4.7v-1.9h0.9v1.9
		c0,1.9,1.3,3.6,2.7,4.5L172.8,282.7z M174.7,285.2v-10.5h0.9v10.5H174.7z"/>
	<path d="M182.5,275.7c-0.1,2.9-2.1,4.9-4.7,5.7l-0.5-0.8c2.3-0.6,3.9-2.2,4.2-4.2h-3.8v-0.8H182.5z M178.8,285v-3.2h0.9v2.5h6v0.8
		H178.8z M185.4,278.8v3.8h-0.9v-7.8h0.9v3.3h1.6v0.8H185.4z"/>
	<path d="M187.7,283.9v-0.8h2.6v-2.2h0.9v2.2h2.5v-2.2h0.9v2.2h2.6v0.8H187.7z M188.6,276.4v-0.8h7.6v0.8H188.6z M188.6,280.4v-0.8
		h1.6l-0.3-2.5l0.9-0.1l0.2,2.6h2.6l0.3-2.6l0.9,0.1l-0.4,2.5h1.6v0.8H188.6z"/>
	<path d="M198.1,280.9v-0.8h9.5v0.8H198.1z M199.3,285v-3.1h0.9v2.3h6.3v0.8H199.3z M199.4,278.9v-3.7h0.9v2.9h6.2v0.8H199.4z"/>
</g>
<g>
	<path d="M217.3,277.5c0,1.4-1.2,2.3-2.7,2.3c-1.5,0-2.7-0.9-2.7-2.3c0-1.4,1.2-2.4,2.7-2.4C216.1,275.1,217.3,276,217.3,277.5z
		 M212.8,277.4c0,0.9,0.8,1.6,1.8,1.6c1.1,0,1.8-0.6,1.8-1.5c0-0.9-0.7-1.6-1.8-1.6C213.6,275.9,212.8,276.5,212.8,277.4z
		 M213.4,285.1v-2.7h5.9v-1.1h-5.9v-0.7h6.8v2.5h-5.9v1.2h6.3v0.7H213.4z M219.2,280.1v-5.3h0.9v5.3H219.2z"/>
	<path d="M226.2,285.3v-3.5H222V281h9.5v0.8h-4.3v3.5H226.2z M223.1,279.8v-4.6h0.9v1.5h5.3v-1.5h0.9v4.6H223.1z M229.4,277.5H224
		v1.6h5.3V277.5z"/>
</g>
<g>
	<path d="M235.9,280.8v-5.3h0.9v1.9h2.8v-1.9h0.9v5.3H235.9z M239.6,278.1h-2.8v1.9h2.8V278.1z M237.3,284.9v-3.2h0.9v2.4h6.1v0.8
		H237.3z M244,282.5h-0.9v-2.9h-2v-0.8h2v-1.6h-2v-0.8h2v-1.8h0.9V282.5z"/>
	<path d="M246.4,281.2l-0.5-0.8c2.2-0.6,3.9-2.3,4.2-4.1h-3.8v-0.8h4.8C251.1,278.2,249.2,280.3,246.4,281.2z M250.9,285.2
		c-2.3,0-3.6-0.8-3.6-2c0-1.2,1.3-2,3.6-2c2.3,0,3.6,0.8,3.6,2C254.5,284.4,253.2,285.2,250.9,285.2z M248.3,283.2
		c0,0.8,1,1.2,2.6,1.2s2.6-0.5,2.6-1.2c0-0.8-1-1.2-2.6-1.2S248.3,282.4,248.3,283.2z M251.2,278.8h2.3v-1.4h-2.1v-0.8h2.1v-1.9h0.9
		v6.6h-0.9v-1.8h-2.3V278.8z"/>
	<path d="M259.3,275.5c1.7,0,2.7,1.5,2.7,3.7s-1,3.7-2.7,3.7c-1.7,0-2.7-1.5-2.7-3.7C256.6,277,257.6,275.5,259.3,275.5z
		 M259.3,276.3c-1.1,0-1.8,1.2-1.8,2.9c0,1.7,0.7,2.9,1.8,2.9c1.1,0,1.8-1.2,1.8-2.9C261.1,277.5,260.4,276.3,259.3,276.3z
		 M263.9,285.2v-10.5h0.9v10.5H263.9z"/>
</g>
<g>
	<path d="M273.3,280.1c-1.2,0.1-2.7,0.1-3.4,0.1l-0.1-0.8c0.8,0,1.9,0,3,0v-1h-2.1v-3.1h5.1v0.7h-4.2v1.6h4.3v0.8h-2.2v1
		c1.1,0,2.3-0.1,3-0.2l0.1,0.7C275.8,279.9,274.6,280,273.3,280.1z M271.4,285.1v-2.5h6v-1h-6v-0.7h6.9v2.4h-6v1.1h6.4v0.7H271.4z
		 M277.4,280.4v-5.6h0.9v5.6H277.4z"/>
</g>
<g>
	<path d="M287.5,285.3v-3.8h-4.3v-0.8h9.5v0.8h-4.3v3.8H287.5z M291.9,279.6c-1.6-0.3-3.3-1.3-3.9-2.5c-0.5,1.2-2.3,2.2-3.9,2.6
		l-0.4-0.8c2-0.3,3.9-1.6,3.9-3v-0.7h1v0.7c0,1.4,2,2.8,3.9,3L291.9,279.6z"/>
</g>
<g>
	<path d="M302.4,277.9c0,1.5-1.2,2.5-2.7,2.5s-2.7-1-2.7-2.5s1.2-2.5,2.7-2.5S302.4,276.4,302.4,277.9z M301.2,284.4
		c-0.5-0.3-1.1-0.8-1.3-1.4c-0.3,0.8-1.2,1.8-2.1,2.2l-0.6-0.6c1.1-0.5,2.1-1.6,2.1-2.9v-0.5h0.9v0.4c0,1.1,0.7,1.8,1.5,2.2
		L301.2,284.4z M297.9,277.9c0,1,0.8,1.8,1.8,1.8c1.1,0,1.8-0.7,1.8-1.7c0-1-0.7-1.8-1.8-1.8C298.6,276.1,297.9,276.8,297.9,277.9z
		 M305.7,285.3c-0.7-0.3-1.7-1.3-1.9-2c-0.3,0.8-1.1,1.7-2,2.2l-0.6-0.6c1.1-0.6,2.1-1.7,2.1-3v-0.6h0.9v0.6c0,1.3,1,2.4,2,2.8
		L305.7,285.3L305.7,285.3z M304.4,280.9v-6.1h0.9v6.1H304.4z"/>
	<path d="M307.1,283.8V283h9.5v0.8H307.1z M311.8,281c-2.3,0-3.8-1-3.8-2.7c0-1.6,1.5-2.7,3.8-2.7c2.3,0,3.8,1.1,3.8,2.7
		C315.6,279.9,314.1,281,311.8,281z M311.8,276.4c-1.7,0-2.9,0.8-2.9,1.9c0,1.1,1.2,1.9,2.9,1.9c1.8,0,2.9-0.7,2.9-1.9
		C314.7,277.2,313.6,276.4,311.8,276.4z"/>
	<path d="M324.1,282.2c-1.2,0.3-3.9,0.5-5.6,0.5h-0.5v-6.8h0.9v6c1.3,0,3.8-0.2,5-0.5L324.1,282.2z M326,285.2h-0.9v-10.5h0.9V285.2
		z"/>
</g>
<g>
	<path d="M331.2,275.6h5.7v0.8h-2.4c0,0.2,0,0.4,0,0.6c0.1,1.4,1.4,2.6,2.7,3l-0.5,0.7c-1.1-0.4-2.2-1.4-2.7-2.4
		c-0.3,1-1.5,2.2-2.7,2.7l-0.5-0.7c1.3-0.5,2.7-1.8,2.7-3.3c0-0.1,0-0.4,0-0.6h-2.4V275.6z M336.1,285.2c-2.2,0-3.5-0.8-3.5-2
		c0-1.2,1.3-2,3.5-2c2.3,0,3.5,0.8,3.5,2C339.6,284.5,338.3,285.2,336.1,285.2z M333.5,283.2c0,0.8,1,1.2,2.6,1.2
		c1.6,0,2.6-0.4,2.6-1.2c0-0.8-0.9-1.2-2.6-1.2C334.5,282,333.5,282.5,333.5,283.2z M336.5,278.2v-0.8h2.1v-2.7h0.9v6.5h-0.9v-3
		H336.5z"/>
	<path d="M344.7,281.5c-1.2,0.1-2.6,0.1-3.4,0.1l-0.1-0.8c0.8,0,1.8,0,2.9-0.1v-0.7c-1.1-0.1-1.9-0.5-1.9-1.4c0-1,1.1-1.4,2.4-1.4
		s2.4,0.4,2.4,1.4c0,0.9-0.9,1.3-2,1.4v0.7c1.1,0,2.2-0.1,2.9-0.2l0.1,0.7C347.2,281.3,345.9,281.5,344.7,281.5z M341.5,277v-0.7h6
		v0.7H341.5z M349.4,282.3v3h-0.9V283h-5.9v-0.8H349.4z M344.5,278c-0.9,0-1.6,0.2-1.6,0.7c0,0.5,0.7,0.7,1.6,0.7
		c0.9,0,1.6-0.2,1.6-0.7C346.1,278.2,345.4,278,344.5,278z M343.1,275.6v-0.8h2.9v0.8H343.1z M349.4,279v2.7h-0.9v-7h0.9v3.5h1.6
		v0.8H349.4z"/>
	<path d="M351.7,277.5v-0.8h6.1v0.8H351.7z M354.7,281.7c-1.4,0-2.5-0.7-2.5-1.8c0-1.1,1.1-1.8,2.5-1.8c1.4,0,2.5,0.7,2.5,1.8
		C357.2,281,356.2,281.7,354.7,281.7z M354.7,278.8c-0.8,0-1.6,0.4-1.6,1.1c0,0.7,0.8,1.1,1.6,1.1c0.9,0,1.6-0.4,1.6-1.1
		C356.4,279.2,355.6,278.8,354.7,278.8z M353.2,275.9v-0.8h3v0.8H353.2z M353.2,284.9v-2.7h0.9v1.9h6.1v0.8H353.2z M359.8,279.1v3.4
		h-0.9v-7.7h0.9v3.5h1.6v0.8H359.8z"/>
</g>
<g>
	<path d="M365.2,283.8V283h9.5v0.8H365.2z M373.8,280.9c-1.8-0.5-3.5-2-3.9-3.1c-0.4,1.1-2,2.6-3.9,3.1l-0.5-0.8
		c1.7-0.3,3.9-2,3.9-3.7v-0.8h0.9v0.8c0,1.7,2.3,3.3,3.9,3.7L373.8,280.9z"/>
	<path d="M376.1,283.1l-0.6-0.7c1.6-0.9,2.6-2,3.1-3.3l-2.8,0.3l-0.2-0.8l3.3-0.2c0.2-0.6,0.2-1.1,0.3-1.7H376V276h4.1
		C380.1,279.2,378.8,281.5,376.1,283.1z M381.5,284.7v-5.1h-1.6v-0.8h1.6V275h0.9v9.7H381.5z M383.5,285.2v-10.5h0.9v10.5H383.5z"/>
	<path d="M387.1,285.1v-2.4h6.3v-0.9h-6.3v-0.7h3.1v-1H386v-0.7h9.5v0.7h-4.3v1h3.1v2.3H388v0.9h6.6v0.8H387.1z M394.5,278.8
		c-1.7-0.3-3.3-1.1-3.8-2c-0.4,0.9-2.1,1.8-3.8,2l-0.4-0.7c1.6-0.1,3.4-0.8,3.7-2h-3.3v-0.8h7.7v0.8h-3.3c0.3,1.2,2.2,1.9,3.7,2
		L394.5,278.8z"/>
	<path d="M396.4,280.9v-0.8h9.5v0.8H396.4z M401.1,279.2c-2.3,0-3.6-0.7-3.6-2.1c0-1.3,1.4-2.1,3.6-2.1c2.3,0,3.6,0.7,3.6,2.1
		C404.7,278.5,403.4,279.2,401.1,279.2z M397.6,284.9v-3.1h0.9v2.3h6.2v0.8H397.6z M398.4,277.1c0,0.9,1.1,1.3,2.7,1.3
		c1.7,0,2.8-0.4,2.8-1.3c0-0.9-1.1-1.3-2.7-1.3C399.4,275.8,398.4,276.3,398.4,277.1z"/>
</g>
<g>
	<path d="M414.2,277.3h1.5V275h0.9v9.8h-0.9v-3.4h-1.5c-0.4,1-1,1.6-2,1.6c-1.5,0-2.3-1.5-2.3-3.7c0-2.1,0.8-3.6,2.3-3.6
		C413.2,275.6,413.9,276.2,414.2,277.3z M412.2,276.4c-0.9,0-1.4,1.1-1.4,2.9c0,1.8,0.5,2.9,1.4,2.9c0.9,0,1.4-1.1,1.4-2.9
		C413.7,277.5,413.1,276.4,412.2,276.4z M414.4,278c0.1,0.4,0.1,0.8,0.1,1.2c0,0.5,0,0.9-0.1,1.3h1.3V278H414.4z M417.8,285.2v-10.5
		h0.9v10.5H417.8z"/>
	<path d="M425.8,277.9c0,1.5-1.2,2.5-2.7,2.5c-1.5,0-2.7-0.9-2.7-2.5c0-1.5,1.2-2.5,2.7-2.5C424.5,275.3,425.8,276.3,425.8,277.9z
		 M421.2,277.9c0,1,0.8,1.8,1.8,1.8c1.1,0,1.8-0.7,1.8-1.7c0-1-0.7-1.8-1.8-1.8C422,276.1,421.2,276.8,421.2,277.9z M427.4,285.2v-3
		h-5.8v-0.8h6.8v3.8H427.4z M429.9,279.5h-1.6v1.5h-0.9v-6.2h0.9v1.6h1.6v0.8h-1.6v1.5h1.6V279.5z"/>
	<path d="M436.4,282.7c-0.9-0.6-2.2-1.9-2.6-3.2c-0.4,1.3-1.5,2.6-2.7,3.5l-0.6-0.7c1.5-1,2.8-2.9,2.8-4.7v-1.9h0.9v1.9
		c0,1.9,1.3,3.6,2.7,4.5L436.4,282.7z M438.3,285.2v-10.5h0.9v10.5H438.3z"/>
</g>
<g>
	<path d="M447.4,281.5c-1.2,0.1-2.6,0.1-3.4,0.1l-0.1-0.8c0.8,0,1.8,0,2.9-0.1v-0.7c-1.1-0.1-1.9-0.5-1.9-1.4c0-1,1.1-1.4,2.4-1.4
		c1.3,0,2.4,0.4,2.4,1.4c0,0.9-0.9,1.3-2,1.4v0.7c1.1,0,2.2-0.1,2.9-0.2l0.1,0.7C449.9,281.3,448.6,281.5,447.4,281.5z M444.3,277
		v-0.7h6v0.7H444.3z M452.2,282.3v3h-0.9V283h-5.9v-0.8H452.2z M447.3,278c-0.9,0-1.6,0.2-1.6,0.7c0,0.5,0.7,0.7,1.6,0.7
		c0.9,0,1.6-0.2,1.6-0.7C448.8,278.2,448.2,278,447.3,278z M445.8,275.6v-0.8h2.9v0.8H445.8z M452.2,279v2.7h-0.9v-7h0.9v3.5h1.6
		v0.8H452.2z"/>
	<path d="M460.3,278.1c0,1.6-1.2,2.6-2.8,2.6c-1.6,0-2.8-1-2.8-2.6c0-1.6,1.2-2.6,2.8-2.6C459.1,275.5,460.3,276.5,460.3,278.1z
		 M455.6,278.1c0,1.1,0.9,1.8,2,1.8c1.2,0,2-0.7,2-1.8c0-1.1-0.8-1.8-2-1.8C456.4,276.2,455.6,277,455.6,278.1z M456.2,284.9v-3.2
		h0.9v2.5h6.2v0.8H456.2z M462.1,282.4v-7.7h0.9v7.7H462.1z"/>
	<path d="M464.8,278.1v-0.8h5.2v0.8H464.8z M467.6,282.9c-1.3,0-2.3-0.9-2.3-2.1c0-1.3,0.9-2.1,2.3-2.1c1.4,0,2.3,0.8,2.3,2.1
		C469.8,282,468.9,282.9,467.6,282.9z M466,276.4v-0.8h2.9v0.8H466z M467.6,279.4c-0.8,0-1.4,0.5-1.4,1.3c0,0.8,0.6,1.3,1.4,1.3
		c0.8,0,1.4-0.5,1.4-1.3C469,280,468.4,279.4,467.6,279.4z M472.8,285.2v-5.4h-1.3v4.9h-0.9V275h0.9v4h1.3v-4.3h0.9v10.5H472.8z"/>
</g>
<g>
	<path d="M482.6,285.2v-3.8h-4.3v-0.8h9.5v0.8h-4.3v3.8H482.6z M486.9,279.7c-1.7-0.3-3.4-1.4-3.9-2.3c-0.4,1-2.1,2.1-3.8,2.4
		l-0.4-0.8c1.7-0.2,3.7-1.3,3.8-2.7h-3.4v-0.8h7.7v0.8h-3.4c0,1.5,2.2,2.5,3.8,2.7L486.9,279.7z"/>
	<path d="M493.4,282.6c-0.8-0.6-1.9-1.8-2.2-3c-0.2,1.2-1.1,2.6-2.1,3.3l-0.6-0.7c1.2-0.8,2.2-2.5,2.2-4.6v-1.9h0.9v1.9
		c0,2,1.2,3.6,2.4,4.3L493.4,282.6z M494.6,284.7v-5.4h-1.9v-0.8h1.9V275h0.9v9.7H494.6z M496.7,285.2v-10.5h0.9v10.5H496.7z"/>
	<path d="M499.1,283.9v-0.8h2.3v-2l0.9,0v2h2.9v-2l0.9,0v2h2.4v0.8H499.1z M503.8,280.9c-2.3,0-3.8-1.1-3.8-2.7s1.5-2.7,3.8-2.7
		c2.3,0,3.8,1.1,3.8,2.7S506.1,280.9,503.8,280.9z M503.8,276.2c-1.7,0-2.9,0.8-2.9,2s1.2,2,2.9,2c1.8,0,2.9-0.8,2.9-2
		S505.6,276.2,503.8,276.2z"/>
</g>
<g>
	<path d="M276.4,199.5c0,2.3-1.5,3.4-4.6,3.4h-1.9c-0.2,0-0.4,0-0.4-0.1c0,0-0.1-0.2-0.1-0.4v-10.9c0-0.2,0-0.4,0.1-0.4
		c0,0,0.2-0.1,0.4-0.1h2.4c2.5,0,3.8,1,3.8,2.9c0,1.5-0.7,2.4-2.1,2.7c0.8,0.2,1.4,0.6,1.8,1.1S276.4,198.7,276.4,199.5z
		 M275.3,199.5c0-0.8-0.3-1.4-0.9-1.8c-0.6-0.4-1.5-0.6-2.7-0.6h-1v4.6h1.2C274.1,201.8,275.3,201.1,275.3,199.5z M274.9,193.9
		c0-1.3-0.9-2-2.6-2h-1.6v4.2h1.3c1,0,1.7-0.2,2.2-0.6C274.7,195.2,274.9,194.7,274.9,193.9z"/>
	<path d="M279.5,195.5c-0.1,0-0.1,0-0.2,0c0,0-0.1-0.1-0.1-0.1v-0.6c0-0.1,0.1-0.3,0.2-0.3c0.4-0.2,0.8-0.3,1.2-0.4s0.9-0.1,1.4-0.1
		c1.1,0,1.8,0.3,2.3,0.8c0.5,0.5,0.7,1.3,0.7,2.3v4c0,0.3,0,0.6,0,0.9c0,0.2,0,0.5,0,0.7c0,0.1-0.1,0.2-0.2,0.2h-0.6
		c-0.1,0-0.2-0.1-0.2-0.2v-1.2c-0.2,0.5-0.6,1-1.1,1.3s-1.1,0.4-1.7,0.4c-1.1,0-1.9-0.3-2.4-0.9c-0.2-0.2-0.3-0.5-0.4-0.7
		c-0.1-0.3-0.1-0.6-0.1-0.8c0-0.7,0.2-1.2,0.5-1.7c0.3-0.5,0.8-0.8,1.4-1.1c0.8-0.3,1.9-0.4,3.5-0.4h0.2v-0.5c0-0.7-0.2-1.2-0.5-1.5
		s-0.8-0.5-1.5-0.5c-0.5,0-0.9,0.1-1.4,0.2S279.9,195.3,279.5,195.5z M284,198.3h-0.3c-0.6,0-1.1,0-1.6,0.1s-0.9,0.2-1.2,0.3
		c-0.4,0.2-0.8,0.4-1,0.7s-0.3,0.7-0.3,1.1c0,0.3,0,0.5,0.1,0.7s0.2,0.4,0.4,0.5c0.3,0.3,0.7,0.4,1.3,0.4c0.4,0,0.7-0.1,1-0.2
		c0.3-0.1,0.6-0.4,0.8-0.6c0.2-0.3,0.4-0.6,0.5-1c0.1-0.4,0.2-0.9,0.2-1.4V198.3z"/>
	<path d="M294.7,202.6c0,0.1-0.1,0.2-0.2,0.2h-0.6c-0.1,0-0.2-0.1-0.2-0.2v-5c0-1-0.2-1.7-0.5-2.1c-0.4-0.4-0.8-0.6-1.5-0.6
		c-0.9,0-1.5,0.2-2,0.7c-0.5,0.5-0.7,1.2-0.7,2v5c0,0.1-0.1,0.2-0.2,0.2h-0.6c-0.1,0-0.2-0.1-0.2-0.2v-6.4c0-0.5,0-0.8,0-1.1
		s0-0.5,0-0.7c0-0.1,0-0.1,0.1-0.2c0,0,0.1-0.1,0.2-0.1h0.6c0.1,0,0.2,0.1,0.2,0.2v0.9c0.3-0.5,0.7-0.8,1.1-1c0.4-0.2,1-0.3,1.7-0.3
		c1,0,1.8,0.3,2.3,0.9c0.5,0.6,0.8,1.4,0.8,2.5V202.6z"/>
	<path d="M297.9,195.5c-0.1,0-0.1,0-0.2,0c0,0-0.1-0.1-0.1-0.1v-0.6c0-0.1,0.1-0.3,0.2-0.3c0.4-0.2,0.8-0.3,1.2-0.4s0.9-0.1,1.4-0.1
		c1.1,0,1.8,0.3,2.3,0.8c0.5,0.5,0.7,1.3,0.7,2.3v4c0,0.3,0,0.6,0,0.9c0,0.2,0,0.5,0,0.7c0,0.1-0.1,0.2-0.2,0.2h-0.6
		c-0.1,0-0.2-0.1-0.2-0.2v-1.2c-0.2,0.5-0.6,1-1.1,1.3s-1.1,0.4-1.7,0.4c-1.1,0-1.9-0.3-2.4-0.9c-0.2-0.2-0.3-0.5-0.4-0.7
		c-0.1-0.3-0.1-0.6-0.1-0.8c0-0.7,0.2-1.2,0.5-1.7c0.3-0.5,0.8-0.8,1.4-1.1c0.8-0.3,1.9-0.4,3.5-0.4h0.2v-0.5c0-0.7-0.2-1.2-0.5-1.5
		s-0.8-0.5-1.5-0.5c-0.5,0-0.9,0.1-1.4,0.2S298.3,195.3,297.9,195.5z M302.5,198.3h-0.3c-0.6,0-1.1,0-1.6,0.1s-0.9,0.2-1.2,0.3
		c-0.4,0.2-0.8,0.4-1,0.7s-0.3,0.7-0.3,1.1c0,0.3,0,0.5,0.1,0.7s0.2,0.4,0.4,0.5c0.3,0.3,0.7,0.4,1.3,0.4c0.4,0,0.7-0.1,1-0.2
		c0.3-0.1,0.6-0.4,0.8-0.6c0.2-0.3,0.4-0.6,0.5-1c0.1-0.4,0.2-0.9,0.2-1.4V198.3z"/>
	<path d="M313.1,202.6c0,0.1-0.1,0.2-0.2,0.2h-0.6c-0.1,0-0.2-0.1-0.2-0.2v-5c0-1-0.2-1.7-0.5-2.1c-0.4-0.4-0.8-0.6-1.5-0.6
		c-0.9,0-1.5,0.2-2,0.7c-0.5,0.5-0.7,1.2-0.7,2v5c0,0.1-0.1,0.2-0.2,0.2h-0.6c-0.1,0-0.2-0.1-0.2-0.2v-6.4c0-0.5,0-0.8,0-1.1
		s0-0.5,0-0.7c0-0.1,0-0.1,0.1-0.2c0,0,0.1-0.1,0.2-0.1h0.6c0.1,0,0.2,0.1,0.2,0.2v0.9c0.3-0.5,0.7-0.8,1.1-1c0.4-0.2,1-0.3,1.7-0.3
		c1,0,1.8,0.3,2.3,0.9c0.5,0.6,0.8,1.4,0.8,2.5V202.6z"/>
	<path d="M316.3,195.5c-0.1,0-0.1,0-0.2,0c0,0-0.1-0.1-0.1-0.1v-0.6c0-0.1,0.1-0.3,0.2-0.3c0.4-0.2,0.8-0.3,1.2-0.4s0.9-0.1,1.4-0.1
		c1.1,0,1.8,0.3,2.3,0.8c0.5,0.5,0.7,1.3,0.7,2.3v4c0,0.3,0,0.6,0,0.9c0,0.2,0,0.5,0,0.7c0,0.1-0.1,0.2-0.2,0.2h-0.6
		c-0.1,0-0.2-0.1-0.2-0.2v-1.2c-0.2,0.5-0.6,1-1.1,1.3s-1.1,0.4-1.7,0.4c-1.1,0-1.9-0.3-2.4-0.9c-0.2-0.2-0.3-0.5-0.4-0.7
		c-0.1-0.3-0.1-0.6-0.1-0.8c0-0.7,0.2-1.2,0.5-1.7c0.3-0.5,0.8-0.8,1.4-1.1c0.8-0.3,1.9-0.4,3.5-0.4h0.2v-0.5c0-0.7-0.2-1.2-0.5-1.5
		s-0.8-0.5-1.5-0.5c-0.5,0-0.9,0.1-1.4,0.2S316.7,195.3,316.3,195.5z M320.9,198.3h-0.3c-0.6,0-1.1,0-1.6,0.1s-0.9,0.2-1.2,0.3
		c-0.4,0.2-0.8,0.4-1,0.7s-0.3,0.7-0.3,1.1c0,0.3,0,0.5,0.1,0.7s0.2,0.4,0.4,0.5c0.3,0.3,0.7,0.4,1.3,0.4c0.4,0,0.7-0.1,1-0.2
		c0.3-0.1,0.6-0.4,0.8-0.6c0.2-0.3,0.4-0.6,0.5-1c0.1-0.4,0.2-0.9,0.2-1.4V198.3z"/>
</g>
</svg>
