<?xml version="1.0" encoding="UTF-8" standalone="no"?>
<!-- Created with Inkscape (http://www.inkscape.org/) -->

<svg
   xmlns:dc="http://purl.org/dc/elements/1.1/"
   xmlns:cc="http://creativecommons.org/ns#"
   xmlns:rdf="http://www.w3.org/1999/02/22-rdf-syntax-ns#"
   xmlns:svg="http://www.w3.org/2000/svg"
   xmlns="http://www.w3.org/2000/svg"
   xmlns:sodipodi="http://sodipodi.sourceforge.net/DTD/sodipodi-0.dtd"
   xmlns:inkscape="http://www.inkscape.org/namespaces/inkscape"
   id="svg3390"
   version="1.1"
   inkscape:version="0.91 r13725"
   width="2976.25"
   height="3000"
   viewBox="0 0 2976.25 3000"
   sodipodi:docname="snowman2.svg">
  <metadata
     id="metadata3396">
    <rdf:RDF>
      <cc:Work
         rdf:about="">
        <dc:format>image/svg+xml</dc:format>
        <dc:type
           rdf:resource="http://purl.org/dc/dcmitype/StillImage" />
        <dc:title></dc:title>
      </cc:Work>
    </rdf:RDF>
  </metadata>
  <defs
     id="defs3394" />
  <sodipodi:namedview
     pagecolor="#ffffff"
     bordercolor="#666666"
     borderopacity="1"
     objecttolerance="10"
     gridtolerance="10"
     guidetolerance="10"
     inkscape:pageopacity="0"
     inkscape:pageshadow="2"
     inkscape:window-width="1871"
     inkscape:window-height="1056"
     id="namedview3392"
     showgrid="false"
     inkscape:zoom="3.5072496"
     inkscape:cx="821.99081"
     inkscape:cy="1500"
     inkscape:window-x="49"
     inkscape:window-y="24"
     inkscape:window-maximized="1"
     inkscape:current-layer="svg3390" />
  <path
     inkscape:connector-curvature="0"
     id="path3432"
     d="m 1369.375,2995.4956 c -2.75,-0.2626 -12.3125,-1.0634 -21.25,-1.7793 -8.9375,-0.716 -28.0625,-2.9923 -42.5,-5.0584 -132.0658,-18.8991 -254.0984,-62.6426 -368.75,-132.1815 C 835.13321,2794.7678 742.68118,2710.8074 670.28747,2614.375 557.66814,2464.3598 491.45709,2285.3508 480.03285,2100 c -1.62725,-26.4012 -1.63885,-93.3114 -0.0208,-120 2.81531,-46.4364 7.93984,-85.2839 17.47856,-132.5 17.06538,-84.4725 43.21874,-159.9849 82.6899,-238.75 60.30557,-120.3402 140.23961,-220.5234 247.31948,-309.971 14.14255,-11.8137 41.16234,-32.5092 72.1875,-55.2911 3.60937,-2.6504 6.55903,-5.5038 6.5548,-6.3409 -0.004,-0.8371 -6.52755,-9.1157 -14.4962,-18.397 -29.71818,-34.6134 -49.31959,-60.3043 -68.67188,-90.0058 C 761.89864,1034.8527 722.57623,926.27515 710.04544,816.64746 704.38747,767.14792 704.13403,698.32004 709.43639,651.25 733.36416,438.83831 846.60249,250.19685 1022.5,129.72356 c 87.5447,-59.959872 187.4572,-99.963598 295.6629,-118.379723 67.3881,-11.469143 157.9192,-11.72717014 226.7141,-0.646168 73.2378,11.796625 142.8522,33.668808 208.261,65.433494 31.4961,15.295541 54.9501,28.698437 84.362,48.208977 43.5781,28.90781 71.4555,51.94294 111.8974,92.46077 39.6977,39.77239 61.3817,66.00854 89.9422,108.82409 48.644,72.9228 82.3054,149.55379 103.0097,234.50354 9.1932,37.71966 13.6178,64.26461 17.2725,103.62146 3.0096,32.41059 2.9783,106.9033 -0.057,137.5 -13.3171,134.20931 -63.1894,262.1495 -143.9862,369.375 -5.6985,7.5625 -18.0875,23.0313 -27.5311,34.375 -19.8695,23.8674 -23.4053,28.8616 -22.3604,31.5844 0.4173,1.0874 9.2929,8.0627 19.7237,15.5005 47.4194,33.8137 83.3755,64.2063 124.6956,105.402 56.3164,56.1466 96.7702,106.0963 135.4223,167.2106 123.9039,195.9082 172.3426,422.9961 139.3785,653.4275 -35.5483,248.4962 -170.7994,475.464 -374.2816,628.0895 -121.1267,90.8533 -262.1507,151.6031 -411.875,177.426 -57.3814,9.8965 -78.6342,11.5035 -158.125,11.9557 -36.4375,0.2073 -68.5,0.162 -71.25,-0.1012 z m 126.2379,-1874.8933 c 33.3862,-3.9053 60.1902,-12.435 94.0012,-29.9133 30.5582,-15.7968 58.7567,-36.1752 86.0566,-62.1913 19.3309,-18.4217 32.4793,-33.89063 37.6324,-44.27374 7.2858,-14.68045 5.9587,-28.63647 -4.1099,-43.21923 -10.0828,-14.60345 -34.2742,-21.11585 -49.5291,-13.3334 -2.7351,1.3954 -14.8879,12.1962 -27.0061,24.00177 -12.1181,11.80558 -25.6893,24.61626 -30.158,28.46819 -45.0265,38.81151 -96.6316,59.86841 -146.6868,59.85391 -58.2623,-0.017 -114.8828,-26.9192 -181.1592,-86.07515 -26.85,-23.9654 -35.3375,-29.04999 -48.7206,-29.18709 -9.8737,-0.10112 -16.4092,1.71018 -23.7755,6.58936 -7.1546,4.73903 -15.0838,16.28172 -17.1761,25.00372 -2.0613,8.5922 -0.9862,20.55477 2.4531,27.29635 5.796,11.3612 36.9672,40.55201 68.4875,64.13641 54.7141,40.9387 115.7186,66.8286 172.8276,73.3468 15.5929,1.7798 49.5299,1.5243 66.8629,-0.5033 z M 1164.7791,738.6001 c 23.3202,-3.34073 45.2295,-14.80299 63.4364,-33.18806 16.0392,-16.19605 26.8361,-35.7548 31.2621,-56.63146 2.7447,-12.94632 2.3489,-44.87639 -0.7041,-56.81375 -10.2723,-40.1643 -48.5187,-76.61847 -88.7735,-84.61357 -13.1608,-2.61388 -44.8546,-1.96863 -56.4196,1.14864 -30.6883,8.27195 -60.3111,32.61775 -74.8279,61.4981 -8.6227,17.15451 -10.2883,24.40861 -10.9464,47.67494 -0.464,16.40566 -0.1414,23.00532 1.527,31.23897 5.6909,28.0859 25.449,56.24188 51.2437,73.02419 25.3884,16.5179 50.5088,21.48876 84.2023,16.662 z m 562.6007,1.37145 c 27.9747,-3.63114 47.6783,-13.02704 68.0898,-32.46934 21.3758,-20.36072 32.625,-42.80562 35.8593,-71.54772 4.0549,-36.03554 -8.3256,-70.80344 -34.4293,-96.6869 -15.3265,-15.19718 -33.212,-25.60446 -52.4121,-30.49771 -7.9335,-2.02192 -13.9367,-2.51988 -30.3782,-2.51988 -23.9668,0 -33.5335,1.71614 -48.6328,8.72401 -32.232,14.9595 -55.8652,42.69619 -65.7495,77.16537 -2.4112,8.40862 -2.7845,12.63208 -2.7387,30.98562 0.049,19.53513 0.3305,22.15788 3.49,32.5 13.3938,43.84176 50.616,76.89218 94.2493,83.68609 13.3262,2.07495 20.6183,2.22245 32.6522,0.66046 z m 1135.716,2241.37855 c -50.7232,-8.1432 -85.1679,-53.7053 -79.36,-104.9743 3.7086,-32.7383 23.5117,-60.5567 53.1392,-74.6474 13.9452,-6.6323 22.8402,-8.4655 41.25,-8.5017 18.8193,-0.037 28.1237,2.2173 45,10.902 12.2084,6.2825 29.9814,23.4113 37.2206,35.8713 11.9529,20.5733 15.2198,49.1741 8.4006,73.5482 -8.7187,31.1641 -35.1502,57.3616 -65.8706,65.2876 -10.9262,2.819 -30.2677,4.0415 -39.7798,2.5143 z M 175,2741.6869 c -34.48481,-5.2792 -67.50471,-22.7907 -95.004018,-50.3838 -32.801062,-32.913 -50.016078,-71.5337 -52.120127,-116.9281 -2.417963,-52.167 15.597219,-98.2513 52.773859,-135 36.008376,-35.5939 81.726526,-53.5233 131.225286,-51.4629 46.83292,1.9495 86.67887,19.3182 119.41182,52.051 20.0272,20.0273 34.82799,43.7009 43.48715,69.557 10.49947,31.3511 11.77063,68.0374 3.48873,100.6857 -17.24199,67.9698 -77.0436,122.0297 -145.56239,131.5865 -17.10334,2.3854 -41.72237,2.3405 -57.70031,-0.105 z m 2502.8041,-469.2977 c -16.7618,-1.2623 -30.2557,-4.773 -44.7667,-11.647 -31.681,-15.0073 -54.7959,-37.7106 -69.9524,-68.7066 -21.7565,-44.4932 -18.5509,-98.7477 8.2455,-139.5565 35.2496,-53.6822 100.2035,-78.0552 161.0366,-60.4265 41.4005,11.9974 76.8383,43.9284 92.6909,83.5185 11.6838,29.1789 13.8358,61.6499 6.068,91.5584 -3.1939,12.2974 -12.7941,32.5754 -21.1329,44.6377 -7.5745,10.957 -26.0986,29.256 -37.3303,36.8769 -19.0234,12.9075 -43.2245,21.7168 -63.8737,23.2504 -5.1777,0.3845 -11.3828,0.8704 -13.7891,1.0797 -2.4062,0.2093 -10.1444,-0.054 -17.1959,-0.585 z M 274.94889,1826.0253 c -42.64003,-3.8938 -77.50257,-43.4197 -77.43042,-87.7878 0.0222,-13.6446 2.3181,-24.1181 7.92498,-36.152 10.72736,-23.0241 33.96406,-42.7782 57.05655,-48.5054 10.96945,-2.7206 39.98146,-2.1 49.59276,1.0608 25.14576,8.2694 47.91045,30.4214 55.9866,54.4797 6.14772,18.3138 6.24437,42.2977 0.23717,58.8473 -13.92972,38.376 -51.70041,61.8624 -93.36764,58.0574 z M 2753.5386,1731.221 c -14.7186,-2.4837 -32.2841,-9.7359 -45.66,-18.8512 -8.6987,-5.9282 -22.3071,-19.3077 -28.6621,-28.1804 -7.3951,-10.3248 -16.0439,-29.0886 -18.3514,-39.8144 -6.315,-29.3521 -1.9721,-62.3495 11.1647,-84.8311 16.9628,-29.0291 47.5182,-50.8303 79.2202,-56.5231 48.7228,-8.7494 96.4855,12.7757 121.4845,54.7492 10.3693,17.4101 16.0254,38.2435 16.006,58.9563 -0.045,48.354 -30.5337,91.8193 -75.9285,108.2451 -18.4604,6.6797 -42.0104,9.1629 -59.2734,6.2496 z m -199.0517,-597.5959 c -83.7573,-8.8291 -153.5688,-73.2814 -169.1074,-156.1251 -3.3956,-18.10365 -3.0305,-54.93771 0.7186,-72.5 10.4197,-48.8098 35.1898,-87.52196 75.1519,-117.45165 12.479,-9.34615 38.4879,-23.0327 52.5,-27.62679 37.0596,-12.15061 84.528,-12.29527 120.6119,-0.36757 64.3727,21.2787 115.5412,78.85862 129.0482,145.21823 3.1268,15.36122 3.0985,59.90265 -0.048,75.56516 -7.4982,37.32652 -24.6345,68.60892 -53.2741,97.25322 -42.3981,42.4047 -97.3096,62.1793 -155.6012,56.0345 z M 129.59774,1074.8849 c -28.87674,-3.0495 -59.022885,-18.1261 -82.145376,-41.0823 -56.2711836,-55.86644 -56.2627736,-146.29979 0.01884,-202.5814 21.82755,-21.82755 50.360235,-36.51835 77.496006,-39.90086 14.77305,-1.84149 35.98118,-1.63373 50.07258,0.49053 33.61649,5.06762 66.76904,25.5216 88.83892,54.81055 9.70623,12.88114 20.36272,34.7644 23.5589,48.37858 12.62351,53.7699 -0.94093,102.95877 -38.60676,140 -32.04219,31.5108 -71.99046,44.874 -119.23311,39.8849 z M 327.15387,561.18259 c -14.65913,-2.03967 -35.06415,-10.3246 -48.93789,-19.86999 -21.69762,-14.92836 -42.75549,-44.4849 -48.90908,-68.64811 -4.25526,-16.70905 -4.29154,-47.28024 -0.0756,-63.73648 8.8478,-34.53633 32.78218,-63.25675 66.85113,-80.21901 17.30119,-8.61394 21.26775,-9.334 51.4176,-9.334 24.70258,0 27.62926,0.23685 36.20595,2.93001 39.8415,12.51067 72.56163,46.32292 83.22444,86.00229 2.70861,10.0795 3.75604,38.41871 1.92582,52.10535 -6.18547,46.25621 -46.79755,89.43591 -93.01561,98.89636 -12.10187,2.47715 -37.36236,3.44924 -48.68673,1.87358 z"
     style="fill:#fdfdfd" />
</svg>
