<?xml version="1.0" encoding="utf-8"?>
<!-- Generator: Adobe Illustrator 25.0.1, SVG Export Plug-In . SVG Version: 6.00 Build 0)  -->
<svg version="1.1" id="레이어_1" xmlns="http://www.w3.org/2000/svg" xmlns:xlink="http://www.w3.org/1999/xlink" x="0px"
	 y="0px" viewBox="0 0 793 438" style="enable-background:new 0 0 793 438;" xml:space="preserve">
<style type="text/css">
	.st0{fill-rule:evenodd;clip-rule:evenodd;fill:#EC88AA;}
	.st1{fill-rule:evenodd;clip-rule:evenodd;fill:#F7B7B2;}
	.st2{fill-rule:evenodd;clip-rule:evenodd;fill:#FFFFFF;}
	.st3{fill:none;stroke:#ED7D31;stroke-linejoin:round;stroke-miterlimit:10;}
	.st4{clip-path:url(#SVGID_2_);}
	.st5{fill:#FFFFFF;}
</style>
<rect x="53.6" y="71.7" class="st0" width="57.3" height="28.8"/>
<rect x="110.9" y="71.7" class="st0" width="85.8" height="28.8"/>
<rect x="196.7" y="71.7" class="st0" width="89.6" height="28.8"/>
<rect x="286.3" y="71.7" class="st0" width="88.6" height="28.8"/>
<rect x="374.9" y="71.7" class="st0" width="86.1" height="28.8"/>
<rect x="460.9" y="71.7" class="st0" width="86.2" height="28.8"/>
<rect x="547.2" y="71.7" class="st0" width="90" height="28.8"/>
<rect x="637.2" y="71.7" class="st0" width="82.4" height="28.8"/>
<rect x="53.6" y="100.5" class="st1" width="57.3" height="29.2"/>
<rect x="110.9" y="100.5" class="st2" width="608.7" height="29.2"/>
<rect x="53.6" y="129.7" class="st1" width="57.3" height="29.2"/>
<rect x="110.9" y="129.7" class="st2" width="608.7" height="29.2"/>
<rect x="53.6" y="158.9" class="st1" width="57.3" height="29.2"/>
<rect x="110.9" y="158.9" class="st2" width="85.8" height="29.2"/>
<rect x="196.7" y="158.9" class="st2" width="89.6" height="29.2"/>
<rect x="286.3" y="158.9" class="st2" width="88.6" height="29.2"/>
<rect x="374.9" y="158.9" class="st2" width="86.1" height="29.2"/>
<rect x="460.9" y="158.9" class="st2" width="86.2" height="29.2"/>
<rect x="547.2" y="158.9" class="st2" width="90" height="29.2"/>
<rect x="637.2" y="158.9" class="st2" width="82.4" height="29.2"/>
<rect x="53.6" y="188.1" class="st1" width="57.3" height="29.2"/>
<rect x="110.9" y="188.1" class="st2" width="85.8" height="29.2"/>
<rect x="196.7" y="188.1" class="st2" width="89.6" height="29.2"/>
<rect x="286.3" y="188.1" class="st2" width="88.6" height="29.2"/>
<rect x="374.9" y="188.1" class="st2" width="86.1" height="29.2"/>
<rect x="460.9" y="188.1" class="st2" width="86.2" height="29.2"/>
<rect x="547.2" y="188.1" class="st2" width="90" height="29.2"/>
<rect x="637.2" y="188.1" class="st2" width="82.4" height="29.2"/>
<rect x="53.6" y="217.3" class="st1" width="57.3" height="29.2"/>
<rect x="110.9" y="217.3" class="st2" width="85.8" height="29.2"/>
<rect x="196.7" y="217.3" class="st2" width="89.6" height="29.2"/>
<rect x="286.3" y="217.3" class="st2" width="88.6" height="29.2"/>
<rect x="374.9" y="217.3" class="st2" width="86.1" height="29.2"/>
<rect x="460.9" y="217.3" class="st2" width="86.2" height="29.2"/>
<rect x="547.2" y="217.3" class="st2" width="90" height="29.2"/>
<rect x="637.2" y="217.3" class="st2" width="82.4" height="29.2"/>
<rect x="53.6" y="246.5" class="st1" width="57.3" height="27.6"/>
<rect x="110.9" y="246.5" class="st2" width="85.8" height="27.6"/>
<rect x="196.7" y="246.5" class="st2" width="89.6" height="27.6"/>
<rect x="286.3" y="246.5" class="st2" width="88.6" height="27.6"/>
<rect x="374.9" y="246.5" class="st2" width="86.1" height="27.6"/>
<rect x="460.9" y="246.5" class="st2" width="86.2" height="27.6"/>
<rect x="547.2" y="246.5" class="st2" width="90" height="27.6"/>
<rect x="637.2" y="246.5" class="st2" width="82.4" height="27.6"/>
<rect x="53.6" y="274.1" class="st1" width="57.3" height="29.2"/>
<rect x="110.9" y="274.1" class="st2" width="85.8" height="29.2"/>
<rect x="196.7" y="274.1" class="st2" width="89.6" height="29.2"/>
<rect x="286.3" y="274.1" class="st2" width="88.6" height="29.2"/>
<rect x="374.9" y="274.1" class="st2" width="86.1" height="29.2"/>
<rect x="460.9" y="274.1" class="st2" width="86.2" height="29.2"/>
<rect x="547.2" y="274.1" class="st2" width="90" height="29.2"/>
<rect x="637.2" y="274.1" class="st2" width="82.4" height="29.2"/>
<line class="st3" x1="110.9" y1="71.2" x2="110.9" y2="303.8"/>
<line class="st3" x1="196.7" y1="71.2" x2="196.7" y2="101"/>
<line class="st3" x1="196.7" y1="158.4" x2="196.7" y2="303.8"/>
<line class="st3" x1="286.3" y1="71.2" x2="286.3" y2="101"/>
<line class="st3" x1="286.3" y1="158.4" x2="286.3" y2="303.8"/>
<line class="st3" x1="374.9" y1="71.2" x2="374.9" y2="101"/>
<line class="st3" x1="374.9" y1="158.4" x2="374.9" y2="303.8"/>
<line class="st3" x1="460.9" y1="71.2" x2="460.9" y2="101"/>
<line class="st3" x1="460.9" y1="158.4" x2="460.9" y2="303.8"/>
<line class="st3" x1="547.2" y1="71.2" x2="547.2" y2="101"/>
<line class="st3" x1="547.2" y1="158.4" x2="547.2" y2="303.8"/>
<line class="st3" x1="637.2" y1="71.2" x2="637.2" y2="101"/>
<line class="st3" x1="637.2" y1="158.4" x2="637.2" y2="303.8"/>
<line class="st3" x1="53.1" y1="100.5" x2="720.1" y2="100.5"/>
<line class="st3" x1="53.1" y1="129.7" x2="720.1" y2="129.7"/>
<line class="st3" x1="53.1" y1="158.9" x2="720.1" y2="158.9"/>
<line class="st3" x1="53.1" y1="188.1" x2="720.1" y2="188.1"/>
<line class="st3" x1="53.1" y1="217.3" x2="720.1" y2="217.3"/>
<line class="st3" x1="53.1" y1="246.5" x2="720.1" y2="246.5"/>
<line class="st3" x1="53.1" y1="274.1" x2="720.1" y2="274.1"/>
<line class="st3" x1="53.6" y1="71.2" x2="53.6" y2="303.8"/>
<line class="st3" x1="719.6" y1="71.2" x2="719.6" y2="303.8"/>
<line class="st3" x1="53.1" y1="71.7" x2="720.1" y2="71.7"/>
<line class="st3" x1="53.1" y1="303.3" x2="720.1" y2="303.3"/>
<g>
	<defs>
		<rect id="SVGID_1_" x="53.4" y="10.3" width="57.6" height="151.4"/>
	</defs>
	<clipPath id="SVGID_2_">
		<use xlink:href="#SVGID_1_"  style="overflow:visible;"/>
	</clipPath>
	<g class="st4">
		<path class="st5" d="M64.2,78.4h1.7l5.8,9.7h0.1v-9.7h1.3v12.1h-1.5l-6-10.1h-0.1v10.1h-1.3V78.4z"/>
		<path class="st5" d="M75.5,84.5v-0.3c0-3.8,2-6.1,5.3-6.1c3.3,0,5.3,2.1,5.3,6.1v0.3c0,3.8-2,6.1-5.3,6.1
			C77.5,90.6,75.5,88.5,75.5,84.5z M84.6,84.8v-0.6c0-2.9-1.1-4.9-3.8-4.9c-2.5,0-3.7,1.9-3.7,4.6v0.6c0,2.9,1.1,4.9,3.8,4.9
			C83.4,89.5,84.6,87.5,84.6,84.8z"/>
		<path class="st5" d="M87.3,78.4h1.5l3.6,10.2h0L96,78.4h1.4L93,90.4h-1.3L87.3,78.4z"/>
		<path class="st5" d="M98.4,89.3h1.6v1.6h-1.6V89.3z"/>
	</g>
</g>
<g>
	<path class="st5" d="M141.8,79.1l-2,0.5v-0.7l2.5-1.2h0.7v11h-1.2V79.1z"/>
	<path class="st5" d="M145.8,83.7v-0.9c0-3.8,1.8-5.1,4-5.1c2.1,0,3.8,1.3,3.8,5v1c0,3.6-1.7,5.1-3.8,5.1
		C147.5,88.8,145.8,87.3,145.8,83.7z M152.3,83.9v-1.2c0-2.7-0.9-3.9-2.5-3.9c-1.7,0-2.6,1.2-2.6,3.9v1.2c0,2.7,0.9,4,2.6,4
		C151.4,87.7,152.3,86.6,152.3,83.9z"/>
</g>
<g>
	<path class="st5" d="M163.2,87c-1.3-0.9-2.9-2.6-3.5-4.3c-0.5,1.7-2,3.5-3.6,4.6l-0.8-0.9c2-1.3,3.7-3.8,3.7-6.3v-2.5h1.2v2.5
		c0,2.6,1.7,4.9,3.6,6L163.2,87z M165.7,90.4v-14h1.2v14H165.7z"/>
</g>
<g>
	<path class="st5" d="M231.7,79.1l-2,0.5v-0.7l2.5-1.2h0.7v11h-1.2V79.1z"/>
	<path class="st5" d="M237.4,79.1l-2,0.5v-0.7l2.5-1.2h0.7v11h-1.2V79.1z"/>
</g>
<g>
	<path class="st5" d="M248.7,87c-1.3-0.9-2.9-2.6-3.5-4.3c-0.5,1.7-2,3.5-3.6,4.6l-0.8-0.9c2-1.3,3.7-3.8,3.7-6.3v-2.5h1.2v2.5
		c0,2.6,1.7,4.9,3.6,6L248.7,87z M251.2,90.4v-14h1.2v14H251.2z"/>
</g>
<g>
	<path class="st5" d="M319.4,79.1l-2,0.5v-0.7l2.5-1.2h0.7v11h-1.2V79.1z"/>
	<path class="st5" d="M323.3,87.9l2.6-2.7c1.5-1.6,2.5-2.8,2.5-4.3c0-1.4-0.7-2.1-2.2-2.1c-0.9,0-1.8,0.4-2.4,0.9l-0.4-1
		c0.7-0.4,1.8-1,3-1c2.2,0,3.3,1.2,3.3,3.1c0,1.9-1.1,3.1-3,5l-1.7,1.7h4.9v1.1h-6.7V87.9z"/>
</g>
<g>
	<path class="st5" d="M339.1,87c-1.3-0.9-2.9-2.6-3.5-4.3c-0.5,1.7-2,3.5-3.6,4.6l-0.8-0.9c2-1.3,3.7-3.8,3.7-6.3v-2.5h1.2v2.5
		c0,2.6,1.7,4.9,3.6,6L339.1,87z M341.7,90.4v-14h1.2v14H341.7z"/>
</g>
<g>
	<path class="st5" d="M406.7,79.1l-2,0.5v-0.7l2.5-1.2h0.7v11h-1.2V79.1z"/>
	<path class="st5" d="M410.4,88l0.3-1c0.6,0.4,1.7,0.7,2.5,0.7c1.8,0,2.8-0.8,2.8-2.1c0-1.4-1.1-2-2.7-2h-1v-1.1h1
		c1.4,0,2.3-0.7,2.3-1.9c0-1.3-0.8-1.8-2.2-1.8c-0.9,0-1.7,0.4-2.4,0.8l-0.2-1c0.6-0.4,1.9-0.8,2.8-0.8c1.9,0,3.2,1,3.2,2.7
		c0,1.3-0.8,2.1-2,2.5c1.4,0.3,2.4,1.1,2.4,2.7c0,1.9-1.5,3.2-3.9,3.2C412,88.8,410.9,88.4,410.4,88z"/>
</g>
<g>
	<path class="st5" d="M426.5,87c-1.3-0.9-2.9-2.6-3.5-4.3c-0.5,1.7-2,3.5-3.6,4.6l-0.8-0.9c2-1.3,3.7-3.8,3.7-6.3v-2.5h1.2v2.5
		c0,2.6,1.7,4.9,3.6,6L426.5,87z M429.1,90.4v-14h1.2v14H429.1z"/>
</g>
<g>
	<path class="st5" d="M492.7,79.1l-2,0.5v-0.7l2.5-1.2h0.7v11h-1.2V79.1z"/>
	<path class="st5" d="M501.1,86.4H496v-1l5.2-7.7h1v7.6h1.8v1h-1.8v2.5h-1.2V86.4z M501.1,85.3v-5.6l-3.7,5.6H501.1z"/>
</g>
<g>
	<path class="st5" d="M512.8,87c-1.3-0.9-2.9-2.6-3.5-4.3c-0.5,1.7-2,3.5-3.6,4.6l-0.8-0.9c2-1.3,3.7-3.8,3.7-6.3v-2.5h1.2v2.5
		c0,2.6,1.7,4.9,3.6,6L512.8,87z M515.3,90.4v-14h1.2v14H515.3z"/>
</g>
<g>
	<path class="st5" d="M581.2,79.1l-2,0.5v-0.7l2.5-1.2h0.7v11h-1.2V79.1z"/>
	<path class="st5" d="M584.6,88l0.2-1c0.6,0.4,1.6,0.8,2.5,0.8c1.7,0,2.7-1,2.7-2.5c0-1.6-1-2.3-2.6-2.3c-0.7,0-1.7,0.3-2.2,0.5
		l0.4-5.6h5.4v1.1h-4.4l-0.2,3.3c0.4-0.1,1.1-0.2,1.5-0.2c2.2,0,3.5,1,3.5,3.3c0,1.9-1.4,3.5-3.8,3.5
		C586.3,88.8,585.2,88.4,584.6,88z"/>
</g>
<g>
	<path class="st5" d="M600.5,87c-1.3-0.9-2.9-2.6-3.5-4.3c-0.5,1.7-2,3.5-3.6,4.6l-0.8-0.9c2-1.3,3.7-3.8,3.7-6.3v-2.5h1.2v2.5
		c0,2.6,1.7,4.9,3.6,6L600.5,87z M603,90.4v-14h1.2v14H603z"/>
</g>
<g>
	<path class="st5" d="M667,79.1l-2,0.5v-0.7l2.5-1.2h0.7v11H667V79.1z"/>
	<path class="st5" d="M670.8,84v-0.8c0-3.8,1.7-5.5,4.2-5.5c1.1,0,2.1,0.4,2.5,0.6l-0.4,0.9c-0.4-0.2-1.3-0.5-2-0.5
		c-1.8,0-2.8,0.9-3,4.3c0.6-0.6,1.5-1.2,2.7-1.2c1.8,0,3.2,1.2,3.2,3.3s-1.3,3.6-3.5,3.6C672.1,88.8,670.8,87,670.8,84z M676.7,85.3
		c0-1.7-0.9-2.3-2.2-2.3c-1,0-2,0.7-2.4,1.4v0.1c0,2,0.7,3.3,2.4,3.3C675.8,87.7,676.7,86.8,676.7,85.3z"/>
</g>
<g>
	<path class="st5" d="M687.1,87c-1.3-0.9-2.9-2.6-3.5-4.3c-0.5,1.7-2,3.5-3.6,4.6l-0.8-0.9c2-1.3,3.7-3.8,3.7-6.3v-2.5h1.2v2.5
		c0,2.6,1.7,4.9,3.6,6L687.1,87z M689.6,90.4v-14h1.2v14H689.6z"/>
</g>
<g>
	<path d="M79.4,114.2v-1.8c-1.3,0.1-2.5,0.1-3.8,0.1l-0.2-1.1c1.7,0,3.3-0.1,4.9-0.1c1.8-0.1,3.3-0.2,4.7-0.3l0.1,1
		c-1,0.1-2.8,0.3-4.5,0.4v1.9H79.4z M80.1,110.6c-2.1,0-3.6-1-3.6-2.5c0-1.4,1.5-2.4,3.6-2.4c2.1,0,3.6,0.9,3.6,2.5
		C83.7,109.7,82.2,110.6,80.1,110.6z M77.7,120.2V117h8.7v-1.1h-8.8v-1h10v3H79v1.3h9.3v1H77.7z M80.1,106.8c-1.4,0-2.3,0.5-2.3,1.4
		c0,0.9,1,1.4,2.3,1.4s2.3-0.5,2.3-1.4C82.4,107.3,81.5,106.8,80.1,106.8z M86.4,114.1v-0.5h-3.3v-1h3.3v-7.3h1.3v8.8H86.4z"/>
</g>
<g>
	<path d="M386.4,118.3v-1.1h13.4v1.1H386.4z M387.6,108v-1.1h11v1.1H387.6z M387.6,114.2v-1.1h2.4l-0.4-4.1l1.3-0.2l0.3,4.3h3.7
		l0.5-4.3l1.3,0.2l-0.6,4.1h2.4v1.1H387.6z"/>
	<path d="M410.1,116.1c-1.7,0.3-4.8,0.6-7.2,0.6h-1.3v-5.7h5.5v-3.1h-5.6v-1.1h6.9v5.3H403v3.6c2.4,0,5-0.1,7-0.5L410.1,116.1z
		 M412.5,111.4h2.4v1.1h-2.4v7.8h-1.3v-14.9h1.3V111.4z"/>
	<path d="M420.2,106.5c2.5,0,3.8,2.1,3.8,5.3c0,3.1-1.4,5.3-3.8,5.3c-2.4,0-3.8-2.1-3.8-5.3C416.4,108.6,417.8,106.5,420.2,106.5z
		 M420.2,107.6c-1.6,0-2.6,1.7-2.6,4.1c0,2.4,1,4.1,2.6,4.1c1.6,0,2.6-1.7,2.6-4.1C422.8,109.3,421.8,107.6,420.2,107.6z
		 M426.8,120.2v-14.9h1.3v14.9H426.8z"/>
	<path d="M431.4,113.4v-7h1.3v2.4h4.2v-2.4h1.3v7H431.4z M443,120.4c-2-0.4-4.4-2-5-3.3c-0.6,1.5-2.8,2.9-5,3.4l-0.7-1
		c2.4-0.3,5.1-2.1,5.1-4.2v-0.6h1.4v0.6c0,2.1,2.9,3.8,5,4.2L443,120.4z M436.9,109.9h-4.2v2.4h4.2V109.9z M441.5,115.3v-9.9h1.3
		v9.9H441.5z"/>
</g>
<g>
	<path d="M84.9,146.6c-1.2,0.1-3.1,0.3-4.9,0.4c-1.6,0.1-3.2,0.1-4.5,0.1l-0.2-1.1c1.1,0,2.6,0,4,0v-1.5c-1.7-0.2-2.8-1.1-2.8-2.4
		c0-1.5,1.4-2.5,3.5-2.5c2.1,0,3.5,1,3.5,2.5c0,1.4-1.1,2.3-2.9,2.4v1.4c1.6-0.1,3.2-0.2,4.2-0.4L84.9,146.6z M75.6,138.8v-1.1h8.8
		v1.1H75.6z M79.9,140.6c-1.3,0-2.3,0.6-2.3,1.4c0,0.8,0.9,1.4,2.3,1.4c1.4,0,2.3-0.6,2.3-1.4C82.2,141.2,81.3,140.6,79.9,140.6z
		 M77.8,136.5v-1.1H82v1.1H77.8z M87,142.4v7.2h-1.3v-14.9H87v6.6h2.4v1.1H87z"/>
</g>
<g>
	<path d="M386.4,147.5v-1.1h13.4v1.1H386.4z M387.6,137.3v-1.1h11v1.1H387.6z M387.6,143.5v-1.1h2.4l-0.4-4.1l1.3-0.2l0.3,4.3h3.7
		l0.5-4.3l1.3,0.2l-0.6,4.1h2.4v1.1H387.6z"/>
	<path d="M410.1,145.4c-1.7,0.3-4.8,0.6-7.2,0.6h-1.3v-5.7h5.5v-3.1h-5.6V136h6.9v5.3H403v3.6c2.4,0,5-0.1,7-0.5L410.1,145.4z
		 M412.5,140.6h2.4v1.1h-2.4v7.8h-1.3v-14.9h1.3V140.6z"/>
	<path d="M420.2,135.8c2.5,0,3.8,2.1,3.8,5.3c0,3.1-1.4,5.3-3.8,5.3c-2.4,0-3.8-2.1-3.8-5.3C416.4,137.9,417.8,135.8,420.2,135.8z
		 M420.2,136.9c-1.6,0-2.6,1.7-2.6,4.1c0,2.4,1,4.1,2.6,4.1c1.6,0,2.6-1.7,2.6-4.1C422.8,138.6,421.8,136.9,420.2,136.9z
		 M426.8,149.5v-14.9h1.3v14.9H426.8z"/>
	<path d="M431.4,142.6v-7h1.3v2.4h4.2v-2.4h1.3v7H431.4z M443,149.6c-2-0.4-4.4-2-5-3.3c-0.6,1.5-2.8,2.9-5,3.4l-0.7-1
		c2.4-0.3,5.1-2.1,5.1-4.2v-0.6h1.4v0.6c0,2.1,2.9,3.8,5,4.2L443,149.6z M436.9,139.1h-4.2v2.4h4.2V139.1z M441.5,144.6v-9.9h1.3
		v9.9H441.5z"/>
</g>
<g>
	<path d="M81.6,178.8v-5.4h-6v-1.1h13.4v1.1h-6.1v5.4H81.6z M87.8,170.8c-2.2-0.5-4.7-1.9-5.6-3.6c-0.7,1.7-3.2,3.2-5.5,3.6
		l-0.6-1.1c2.9-0.4,5.5-2.3,5.5-4.3v-1h1.4v1c0,2,2.9,3.9,5.5,4.2L87.8,170.8z"/>
</g>
<g>
	<path d="M132.7,175.1v-9.4h1.1v3.7h1.1v-3.8h1.1v9.4H132.7z M135,170.5h-1.1v3.5h1.1V170.5z M137,175.1v-9.4h1.1v3.8h1.2v-3.8h1.1
		v9.4H137z M139.3,170.5h-1.2v3.5h1.2V170.5z M143.9,178.8V171h-1.3v7h-1.2v-13.7h1.2v5.6h1.3v-6h1.2v14.9H143.9z"/>
	<path d="M147.5,175.1v-9.4h1.1v3.7h1.1v-3.8h1.1v9.4H147.5z M149.7,170.5h-1.1v3.5h1.1V170.5z M151.7,175.1v-9.4h1.1v3.8h1.2v-3.8
		h1.1v9.4H151.7z M154,170.5h-1.2v3.5h1.2V170.5z M158.6,178.8V171h-1.3v7h-1.2v-13.7h1.2v5.6h1.3v-6h1.2v14.9H158.6z"/>
	<path d="M161.8,176.9v-1.1h6v-2.5h-4.4v-4.6h8.8v-2.4h-8.8v-1.1h10.1v4.5h-8.8v2.5h9.2v1.1h-4.8v2.5h6.1v1.1H161.8z"/>
</g>
<g>
	<path d="M213.1,175.1v-9.9h1.3v3.8h4.4v-3.8h1.3v9.9H213.1z M218.8,170h-4.4v4h4.4V170z M224.1,170.9v7.9h-1.3v-14.9h1.3v5.9h2.4
		v1.1H224.1z"/>
	<path d="M236.4,174.4c-1.8,0.4-5.4,0.7-7.6,0.7h-0.9v-9.6h1.3v8.5c2.5,0,5.5-0.2,7.1-0.6L236.4,174.4z M238.8,169.8h2.4v1.1h-2.4
		v7.9h-1.3v-14.9h1.3V169.8z"/>
	<path d="M251.2,174.4c-1.8,0.4-5.4,0.7-7.6,0.7h-0.9v-9.6h1.3v8.5c2.5,0,5.5-0.2,7.1-0.6L251.2,174.4z M253.5,169.8h2.4v1.1h-2.4
		v7.9h-1.3v-14.9h1.3V169.8z"/>
	<path d="M257.2,171.7v-6.8h1.2v2.5h1.5v-2.5h1.2v6.8H257.2z M259.9,168.5h-1.5v2.2h1.5V168.5z M263.7,178.7c-3.2,0-4.9-1.1-4.9-2.8
		c0-1.7,1.7-2.8,4.9-2.8c3.2,0,4.9,1.2,4.9,2.8C268.7,177.6,267,178.7,263.7,178.7z M263.7,174.1c-2.2,0-3.6,0.7-3.6,1.8
		c0,1.1,1.3,1.8,3.6,1.8c2.2,0,3.6-0.7,3.6-1.8C267.3,174.8,266,174.1,263.7,174.1z M262.1,171.7v-6.8h1.2v2.5h1.5v-2.5h1.2v6.8
		H262.1z M264.8,168.4h-1.5v2.2h1.5V168.4z M268.6,168.9v3.9h-1.3v-8.8h1.3v3.9h2v1.1H268.6z"/>
</g>
<g>
	<path d="M309.1,172v-1.1h5.5v-3.1h1.3v3.1h6.6v1.1H309.1z M320.9,166.1c0,1.2-0.2,3-0.4,3.9l-1.3-0.2c0.2-0.8,0.3-2.1,0.4-2.8
		l0-1.2h-9v-1.1h10.4V166.1z M310.8,178.6v-5.1h10v5.1H310.8z M319.5,174.5h-7.4v3h7.4V174.5z"/>
	<path d="M324.2,164.8h6.5v1.1h-2.6v0.4c0,2.3,1.7,3.6,3.1,4.1l-0.7,1c-1.1-0.5-2.5-1.7-2.9-2.8c-0.4,1.2-1.7,2.5-3,3.3l-0.8-1
		c1.6-0.8,3.1-2.4,3.1-4.6v-0.4h-2.7V164.8z M326.6,178.7v-3.6h8.4v-1.5h-8.5v-1.1h9.8v3.5h-8.4v1.6h9v1.1H326.6z M332.3,171.6v-3.5
		H330v-1.1h2.3v-2.8h1.3v7.4H332.3z M335.1,171.7v-7.8h1.3v7.8H335.1z"/>
	<path d="M348.3,174.7c-1.5,0.2-4.1,0.5-7.4,0.5h-1.5v-5.7h5.6v-3.1h-5.7v-1.1h7v5.3h-5.6v3.6h0.4c2.4,0,5.3-0.1,7.1-0.5
		L348.3,174.7z M350.8,163.9v14.9h-1.3v-14.9H350.8z"/>
</g>
<g>
	<path d="M396.8,175.1v-9.4h1.1v3.7h1.1v-3.8h1.1v9.4H396.8z M399.1,170.5h-1.1v3.5h1.1V170.5z M401.1,175.1v-9.4h1.1v3.8h1.2v-3.8
		h1.1v9.4H401.1z M403.4,170.5h-1.2v3.5h1.2V170.5z M408,178.8V171h-1.3v7h-1.2v-13.7h1.2v5.6h1.3v-6h1.2v14.9H408z"/>
	<path d="M411.6,175.1v-9.4h1.1v3.7h1.1v-3.8h1.1v9.4H411.6z M413.8,170.5h-1.1v3.5h1.1V170.5z M415.8,175.1v-9.4h1.1v3.8h1.2v-3.8
		h1.1v9.4H415.8z M418.1,170.5h-1.2v3.5h1.2V170.5z M422.7,178.8V171h-1.3v7h-1.2v-13.7h1.2v5.6h1.3v-6h1.2v14.9H422.7z"/>
	<path d="M425.9,176.9v-1.1h6v-2.5h-4.4v-4.6h8.8v-2.4h-8.8v-1.1h10.1v4.5h-8.8v2.5h9.2v1.1h-4.8v2.5h6.1v1.1H425.9z"/>
</g>
<g>
	<path d="M475.7,175.1v-9.9h1.3v3.8h4.4v-3.8h1.3v9.9H475.7z M481.4,170H477v4h4.4V170z M486.6,170.9v7.9h-1.3v-14.9h1.3v5.9h2.4
		v1.1H486.6z"/>
	<path d="M499,174.4c-1.8,0.4-5.4,0.7-7.6,0.7h-0.9v-9.6h1.3v8.5c2.5,0,5.5-0.2,7.1-0.6L499,174.4z M501.3,169.8h2.4v1.1h-2.4v7.9
		h-1.3v-14.9h1.3V169.8z"/>
	<path d="M513.7,174.4c-1.8,0.4-5.4,0.7-7.6,0.7h-0.9v-9.6h1.3v8.5c2.5,0,5.5-0.2,7.1-0.6L513.7,174.4z M516.1,169.8h2.4v1.1h-2.4
		v7.9h-1.3v-14.9h1.3V169.8z"/>
	<path d="M519.8,171.7v-6.8h1.2v2.5h1.5v-2.5h1.2v6.8H519.8z M522.4,168.5H521v2.2h1.5V168.5z M526.3,178.7c-3.2,0-4.9-1.1-4.9-2.8
		c0-1.7,1.7-2.8,4.9-2.8c3.2,0,4.9,1.2,4.9,2.8C531.2,177.6,529.5,178.7,526.3,178.7z M526.3,174.1c-2.2,0-3.6,0.7-3.6,1.8
		c0,1.1,1.3,1.8,3.6,1.8c2.2,0,3.6-0.7,3.6-1.8C529.9,174.8,528.5,174.1,526.3,174.1z M524.7,171.7v-6.8h1.2v2.5h1.5v-2.5h1.2v6.8
		H524.7z M527.3,168.4h-1.5v2.2h1.5V168.4z M531.1,168.9v3.9h-1.3v-8.8h1.3v3.9h2v1.1H531.1z"/>
</g>
<g>
	<path d="M570.7,172v-1.1h5.5v-3.1h1.3v3.1h6.6v1.1H570.7z M582.5,166.1c0,1.2-0.2,3-0.4,3.9l-1.3-0.2c0.2-0.8,0.3-2.1,0.4-2.8
		l0-1.2h-9v-1.1h10.4V166.1z M572.4,178.6v-5.1h10v5.1H572.4z M581.1,174.5h-7.4v3h7.4V174.5z"/>
	<path d="M585.8,164.8h6.5v1.1h-2.6v0.4c0,2.3,1.7,3.6,3.1,4.1l-0.7,1c-1.1-0.5-2.5-1.7-2.9-2.8c-0.4,1.2-1.7,2.5-3,3.3l-0.8-1
		c1.6-0.8,3.1-2.4,3.1-4.6v-0.4h-2.7V164.8z M588.2,178.7v-3.6h8.4v-1.5h-8.5v-1.1h9.8v3.5h-8.4v1.6h9v1.1H588.2z M593.9,171.6v-3.5
		h-2.3v-1.1h2.3v-2.8h1.3v7.4H593.9z M596.7,171.7v-7.8h1.3v7.8H596.7z"/>
	<path d="M609.8,174.7c-1.5,0.2-4.1,0.5-7.4,0.5H601v-5.7h5.6v-3.1h-5.7v-1.1h7v5.3h-5.6v3.6h0.4c2.4,0,5.3-0.1,7.1-0.5L609.8,174.7
		z M612.4,163.9v14.9h-1.3v-14.9H612.4z"/>
</g>
<g>
	<path d="M657.3,175.1v-9.4h1.1v3.7h1.1v-3.8h1.1v9.4H657.3z M659.5,170.5h-1.1v3.5h1.1V170.5z M661.5,175.1v-9.4h1.1v3.8h1.2v-3.8
		h1.1v9.4H661.5z M663.8,170.5h-1.2v3.5h1.2V170.5z M668.4,178.8V171h-1.3v7H666v-13.7h1.2v5.6h1.3v-6h1.2v14.9H668.4z"/>
	<path d="M672,175.1v-9.4h1.1v3.7h1.1v-3.8h1.1v9.4H672z M674.3,170.5h-1.1v3.5h1.1V170.5z M676.3,175.1v-9.4h1.1v3.8h1.2v-3.8h1.1
		v9.4H676.3z M678.5,170.5h-1.2v3.5h1.2V170.5z M683.2,178.8V171h-1.3v7h-1.2v-13.7h1.2v5.6h1.3v-6h1.2v14.9H683.2z"/>
	<path d="M686.4,176.9v-1.1h6v-2.5H688v-4.6h8.8v-2.4H688v-1.1h10.1v4.5h-8.8v2.5h9.2v1.1h-4.8v2.5h6.1v1.1H686.4z"/>
</g>
<g>
	<path d="M75.5,201.5v-1.1h6v-1.7h-4.3v-5.1h10v5.1h-4.4v1.7h6.1v1.1H75.5z M87.3,203v4.9H86v-3.8h-9V203H87.3z M85.9,194.7h-7.4
		v2.9h7.4V194.7z"/>
</g>
<g>
	<path d="M132.7,204.1v-9.4h1.1v3.7h1.1v-3.8h1.1v9.4H132.7z M135,199.5h-1.1v3.5h1.1V199.5z M137,204.1v-9.4h1.1v3.8h1.2v-3.8h1.1
		v9.4H137z M139.3,199.5h-1.2v3.5h1.2V199.5z M143.9,207.8V200h-1.3v7h-1.2v-13.7h1.2v5.6h1.3v-6h1.2v14.9H143.9z"/>
	<path d="M147.5,204.1v-9.4h1.1v3.7h1.1v-3.8h1.1v9.4H147.5z M149.7,199.5h-1.1v3.5h1.1V199.5z M151.7,204.1v-9.4h1.1v3.8h1.2v-3.8
		h1.1v9.4H151.7z M154,199.5h-1.2v3.5h1.2V199.5z M158.6,207.8V200h-1.3v7h-1.2v-13.7h1.2v5.6h1.3v-6h1.2v14.9H158.6z"/>
	<path d="M161.8,205.9v-1.1h6v-2.5h-4.4v-4.6h8.8v-2.4h-8.8v-1.1h10.1v4.5h-8.8v2.5h9.2v1.1h-4.8v2.5h6.1v1.1H161.8z"/>
</g>
<g>
	<path d="M220,201V200h5.5v-3.1h1.3v3.1h6.6v1.1H220z M231.9,195.1c0,1.2-0.2,3-0.4,3.9l-1.3-0.2c0.2-0.8,0.3-2.1,0.4-2.8l0-1.2h-9
		v-1.1h10.4V195.1z M221.7,207.6v-5.1h10v5.1H221.7z M230.4,203.6H223v3h7.4V203.6z"/>
	<path d="M235.1,193.9h6.5v1.1h-2.6v0.4c0,2.3,1.7,3.6,3.1,4.1l-0.7,1c-1.1-0.5-2.5-1.7-2.9-2.8c-0.4,1.2-1.7,2.5-3,3.3l-0.8-1
		c1.6-0.8,3.1-2.4,3.1-4.6v-0.4h-2.7V193.9z M237.5,207.7v-3.6h8.4v-1.5h-8.5v-1.1h9.8v3.5h-8.4v1.6h9v1.1H237.5z M243.2,200.7v-3.5
		h-2.3v-1.1h2.3v-2.8h1.3v7.4H243.2z M246,200.8V193h1.3v7.8H246z"/>
	<path d="M259.2,203.8c-1.5,0.2-4.1,0.5-7.4,0.5h-1.5v-5.7h5.6v-3.1h-5.7v-1.1h7v5.3h-5.6v3.6h0.4c2.4,0,5.3-0.1,7.1-0.5
		L259.2,203.8z M261.7,193v14.9h-1.3V193H261.7z"/>
</g>
<g>
	<path d="M309.5,204.1v-9.4h1.1v3.7h1.1v-3.8h1.1v9.4H309.5z M311.7,199.5h-1.1v3.5h1.1V199.5z M313.7,204.1v-9.4h1.1v3.8h1.2v-3.8
		h1.1v9.4H313.7z M316,199.5h-1.2v3.5h1.2V199.5z M320.7,207.8V200h-1.3v7h-1.2v-13.7h1.2v5.6h1.3v-6h1.2v14.9H320.7z"/>
	<path d="M324.2,204.1v-9.4h1.1v3.7h1.1v-3.8h1.1v9.4H324.2z M326.5,199.5h-1.1v3.5h1.1V199.5z M328.5,204.1v-9.4h1.1v3.8h1.2v-3.8
		h1.1v9.4H328.5z M330.8,199.5h-1.2v3.5h1.2V199.5z M335.4,207.8V200h-1.3v7h-1.2v-13.7h1.2v5.6h1.3v-6h1.2v14.9H335.4z"/>
	<path d="M338.6,205.9v-1.1h6v-2.5h-4.4v-4.6h8.8v-2.4h-8.8v-1.1h10.1v4.5h-8.8v2.5h9.2v1.1h-4.8v2.5h6.1v1.1H338.6z"/>
</g>
<g>
	<path d="M389.6,204.1v-9.9h1.3v3.8h4.4v-3.8h1.3v9.9H389.6z M395.2,199.1h-4.4v4h4.4V199.1z M400.5,200v7.9h-1.3V193h1.3v5.9h2.4
		v1.1H400.5z"/>
	<path d="M412.8,203.4c-1.8,0.4-5.4,0.7-7.6,0.7h-0.9v-9.6h1.3v8.5c2.5,0,5.5-0.2,7.1-0.6L412.8,203.4z M415.2,198.9h2.4v1.1h-2.4
		v7.9h-1.3V193h1.3V198.9z"/>
	<path d="M427.6,203.4c-1.8,0.4-5.4,0.7-7.6,0.7H419v-9.6h1.3v8.5c2.5,0,5.5-0.2,7.1-0.6L427.6,203.4z M430,198.9h2.4v1.1H430v7.9
		h-1.3V193h1.3V198.9z"/>
	<path d="M433.7,200.8V194h1.2v2.5h1.5V194h1.2v6.8H433.7z M436.3,197.5h-1.5v2.2h1.5V197.5z M440.1,207.8c-3.2,0-4.9-1.1-4.9-2.8
		c0-1.7,1.7-2.8,4.9-2.8c3.2,0,4.9,1.2,4.9,2.8C445.1,206.6,443.4,207.8,440.1,207.8z M440.1,203.2c-2.2,0-3.6,0.7-3.6,1.8
		c0,1.1,1.3,1.8,3.6,1.8c2.2,0,3.6-0.7,3.6-1.8C443.8,203.9,442.4,203.2,440.1,203.2z M438.5,200.8V194h1.2v2.5h1.5V194h1.2v6.8
		H438.5z M441.2,197.5h-1.5v2.2h1.5V197.5z M445,197.9v3.9h-1.3V193h1.3v3.9h2v1.1H445z"/>
</g>
<g>
	<path d="M482.9,204.1v-9.4h1.1v3.7h1.1v-3.8h1.1v9.4H482.9z M485.2,199.5h-1.1v3.5h1.1V199.5z M487.2,204.1v-9.4h1.1v3.8h1.2v-3.8
		h1.1v9.4H487.2z M489.5,199.5h-1.2v3.5h1.2V199.5z M494.1,207.8V200h-1.3v7h-1.2v-13.7h1.2v5.6h1.3v-6h1.2v14.9H494.1z"/>
	<path d="M497.7,204.1v-9.4h1.1v3.7h1.1v-3.8h1.1v9.4H497.7z M499.9,199.5h-1.1v3.5h1.1V199.5z M501.9,204.1v-9.4h1.1v3.8h1.2v-3.8
		h1.1v9.4H501.9z M504.2,199.5h-1.2v3.5h1.2V199.5z M508.9,207.8V200h-1.3v7h-1.2v-13.7h1.2v5.6h1.3v-6h1.2v14.9H508.9z"/>
	<path d="M512.1,205.9v-1.1h6v-2.5h-4.4v-4.6h8.8v-2.4h-8.8v-1.1h10.1v4.5H515v2.5h9.2v1.1h-4.8v2.5h6.1v1.1H512.1z"/>
</g>
<g>
	<path d="M563.8,204.1v-9.9h1.3v3.8h4.4v-3.8h1.3v9.9H563.8z M569.5,199.1h-4.4v4h4.4V199.1z M574.7,200v7.9h-1.3V193h1.3v5.9h2.4
		v1.1H574.7z"/>
	<path d="M587.1,203.4c-1.8,0.4-5.4,0.7-7.6,0.7h-0.9v-9.6h1.3v8.5c2.5,0,5.5-0.2,7.1-0.6L587.1,203.4z M589.4,198.9h2.4v1.1h-2.4
		v7.9h-1.3V193h1.3V198.9z"/>
	<path d="M601.8,203.4c-1.8,0.4-5.4,0.7-7.6,0.7h-0.9v-9.6h1.3v8.5c2.5,0,5.5-0.2,7.1-0.6L601.8,203.4z M604.2,198.9h2.4v1.1h-2.4
		v7.9h-1.3V193h1.3V198.9z"/>
	<path d="M607.9,200.8V194h1.2v2.5h1.5V194h1.2v6.8H607.9z M610.5,197.5h-1.5v2.2h1.5V197.5z M614.4,207.8c-3.2,0-4.9-1.1-4.9-2.8
		c0-1.7,1.7-2.8,4.9-2.8c3.2,0,4.9,1.2,4.9,2.8C619.3,206.6,617.6,207.8,614.4,207.8z M614.4,203.2c-2.2,0-3.6,0.7-3.6,1.8
		c0,1.1,1.3,1.8,3.6,1.8c2.2,0,3.6-0.7,3.6-1.8C618,203.9,616.6,203.2,614.4,203.2z M612.8,200.8V194h1.2v2.5h1.5V194h1.2v6.8H612.8
		z M615.4,197.5h-1.5v2.2h1.5V197.5z M619.2,197.9v3.9H618V193h1.3v3.9h2v1.1H619.2z"/>
</g>
<g>
	<path d="M656.9,201V200h5.5v-3.1h1.3v3.1h6.6v1.1H656.9z M668.7,195.1c0,1.2-0.2,3-0.4,3.9l-1.3-0.2c0.2-0.8,0.3-2.1,0.4-2.8l0-1.2
		h-9v-1.1h10.4V195.1z M658.6,207.6v-5.1h10v5.1H658.6z M667.3,203.6h-7.4v3h7.4V203.6z"/>
	<path d="M672,193.9h6.5v1.1H676v0.4c0,2.3,1.7,3.6,3.1,4.1l-0.7,1c-1.1-0.5-2.5-1.7-2.9-2.8c-0.4,1.2-1.7,2.5-3,3.3l-0.8-1
		c1.6-0.8,3.1-2.4,3.1-4.6v-0.4H672V193.9z M674.4,207.7v-3.6h8.4v-1.5h-8.5v-1.1h9.8v3.5h-8.4v1.6h9v1.1H674.4z M680.1,200.7v-3.5
		h-2.3v-1.1h2.3v-2.8h1.3v7.4H680.1z M682.9,200.8V193h1.3v7.8H682.9z"/>
	<path d="M696,203.8c-1.5,0.2-4.1,0.5-7.4,0.5h-1.5v-5.7h5.6v-3.1h-5.7v-1.1h7v5.3h-5.6v3.6h0.4c2.4,0,5.3-0.1,7.1-0.5L696,203.8z
		 M698.6,193v14.9h-1.3V193H698.6z"/>
</g>
<g>
	<path d="M86.7,228.7h2.3v1.1H75.5v-1.1h9.9c0.3-1.1,0.5-3.3,0.5-4.5h-8.6v-1.1h9.9C87.2,225.1,87,227.2,86.7,228.7z M77.1,236.8
		v-5.2h10.2v5.2H77.1z M86,232.7h-7.6v3H86V232.7z"/>
</g>
<g>
	<path d="M125.5,233.4v-9.9h1.3v3.8h4.4v-3.8h1.3v9.9H125.5z M131.1,228.4h-4.4v4h4.4V228.4z M136.4,229.3v7.9h-1.3v-14.9h1.3v5.9
		h2.4v1.1H136.4z"/>
	<path d="M148.7,232.7c-1.8,0.4-5.4,0.7-7.6,0.7h-0.9v-9.6h1.3v8.5c2.5,0,5.5-0.2,7.1-0.6L148.7,232.7z M151.1,228.2h2.4v1.1h-2.4
		v7.9h-1.3v-14.9h1.3V228.2z"/>
	<path d="M163.5,232.7c-1.8,0.4-5.4,0.7-7.6,0.7h-0.9v-9.6h1.3v8.5c2.5,0,5.5-0.2,7.1-0.6L163.5,232.7z M165.8,228.2h2.4v1.1h-2.4
		v7.9h-1.3v-14.9h1.3V228.2z"/>
	<path d="M169.6,230v-6.8h1.2v2.5h1.5v-2.5h1.2v6.8H169.6z M172.2,226.8h-1.5v2.2h1.5V226.8z M176,237c-3.2,0-4.9-1.1-4.9-2.8
		c0-1.7,1.7-2.8,4.9-2.8c3.2,0,4.9,1.2,4.9,2.8C181,235.9,179.3,237,176,237z M176,232.5c-2.2,0-3.6,0.7-3.6,1.8
		c0,1.1,1.3,1.8,3.6,1.8c2.2,0,3.6-0.7,3.6-1.8C179.6,233.1,178.3,232.5,176,232.5z M174.4,230v-6.8h1.2v2.5h1.5v-2.5h1.2v6.8H174.4
		z M177.1,226.8h-1.5v2.2h1.5V226.8z M180.9,227.2v3.9h-1.3v-8.8h1.3v3.9h2v1.1H180.9z"/>
</g>
<g>
	<path d="M220.4,233.4V224h1.1v3.7h1.1V224h1.1v9.4H220.4z M222.7,228.8h-1.1v3.5h1.1V228.8z M224.6,233.4V224h1.1v3.8h1.2V224h1.1
		v9.4H224.6z M226.9,228.8h-1.2v3.5h1.2V228.8z M231.6,237.1v-7.8h-1.3v7h-1.2v-13.7h1.2v5.6h1.3v-6h1.2v14.9H231.6z"/>
	<path d="M235.1,233.4V224h1.1v3.7h1.1V224h1.1v9.4H235.1z M237.4,228.8h-1.1v3.5h1.1V228.8z M239.4,233.4V224h1.1v3.8h1.2V224h1.1
		v9.4H239.4z M241.7,228.8h-1.2v3.5h1.2V228.8z M246.3,237.1v-7.8H245v7h-1.2v-13.7h1.2v5.6h1.3v-6h1.2v14.9H246.3z"/>
	<path d="M249.5,235.2v-1.1h6v-2.5h-4.4V227h8.8v-2.4h-8.8v-1.1h10.1v4.5h-8.8v2.5h9.2v1.1h-4.8v2.5h6.1v1.1H249.5z"/>
</g>
<g>
	<path d="M309.1,230.3v-1.1h5.5v-3.1h1.3v3.1h6.6v1.1H309.1z M320.9,224.4c0,1.2-0.2,3-0.4,3.9l-1.3-0.2c0.2-0.8,0.3-2.1,0.4-2.8
		l0-1.2h-9v-1.1h10.4V224.4z M310.8,236.9v-5.1h10v5.1H310.8z M319.5,232.8h-7.4v3h7.4V232.8z"/>
	<path d="M324.2,223.2h6.5v1.1h-2.6v0.4c0,2.3,1.7,3.6,3.1,4.1l-0.7,1c-1.1-0.5-2.5-1.7-2.9-2.8c-0.4,1.2-1.7,2.5-3,3.3l-0.8-1
		c1.6-0.8,3.1-2.4,3.1-4.6v-0.4h-2.7V223.2z M326.6,237v-3.6h8.4v-1.5h-8.5v-1.1h9.8v3.5h-8.4v1.6h9v1.1H326.6z M332.3,229.9v-3.5
		H330v-1.1h2.3v-2.8h1.3v7.4H332.3z M335.1,230.1v-7.8h1.3v7.8H335.1z"/>
	<path d="M348.3,233.1c-1.5,0.2-4.1,0.5-7.4,0.5h-1.5v-5.7h5.6v-3.1h-5.7v-1.1h7v5.3h-5.6v3.6h0.4c2.4,0,5.3-0.1,7.1-0.5
		L348.3,233.1z M350.8,222.3v14.9h-1.3v-14.9H350.8z"/>
</g>
<g>
	<path d="M389.6,233.4v-9.9h1.3v3.8h4.4v-3.8h1.3v9.9H389.6z M395.2,228.4h-4.4v4h4.4V228.4z M400.5,229.3v7.9h-1.3v-14.9h1.3v5.9
		h2.4v1.1H400.5z"/>
	<path d="M412.8,232.7c-1.8,0.4-5.4,0.7-7.6,0.7h-0.9v-9.6h1.3v8.5c2.5,0,5.5-0.2,7.1-0.6L412.8,232.7z M415.2,228.2h2.4v1.1h-2.4
		v7.9h-1.3v-14.9h1.3V228.2z"/>
	<path d="M427.6,232.7c-1.8,0.4-5.4,0.7-7.6,0.7H419v-9.6h1.3v8.5c2.5,0,5.5-0.2,7.1-0.6L427.6,232.7z M430,228.2h2.4v1.1H430v7.9
		h-1.3v-14.9h1.3V228.2z"/>
	<path d="M433.7,230v-6.8h1.2v2.5h1.5v-2.5h1.2v6.8H433.7z M436.3,226.8h-1.5v2.2h1.5V226.8z M440.1,237c-3.2,0-4.9-1.1-4.9-2.8
		c0-1.7,1.7-2.8,4.9-2.8c3.2,0,4.9,1.2,4.9,2.8C445.1,235.9,443.4,237,440.1,237z M440.1,232.5c-2.2,0-3.6,0.7-3.6,1.8
		c0,1.1,1.3,1.8,3.6,1.8c2.2,0,3.6-0.7,3.6-1.8C443.8,233.1,442.4,232.5,440.1,232.5z M438.5,230v-6.8h1.2v2.5h1.5v-2.5h1.2v6.8
		H438.5z M441.2,226.8h-1.5v2.2h1.5V226.8z M445,227.2v3.9h-1.3v-8.8h1.3v3.9h2v1.1H445z"/>
</g>
<g>
	<path d="M482.9,233.4V224h1.1v3.7h1.1V224h1.1v9.4H482.9z M485.2,228.8h-1.1v3.5h1.1V228.8z M487.2,233.4V224h1.1v3.8h1.2V224h1.1
		v9.4H487.2z M489.5,228.8h-1.2v3.5h1.2V228.8z M494.1,237.1v-7.8h-1.3v7h-1.2v-13.7h1.2v5.6h1.3v-6h1.2v14.9H494.1z"/>
	<path d="M497.7,233.4V224h1.1v3.7h1.1V224h1.1v9.4H497.7z M499.9,228.8h-1.1v3.5h1.1V228.8z M501.9,233.4V224h1.1v3.8h1.2V224h1.1
		v9.4H501.9z M504.2,228.8h-1.2v3.5h1.2V228.8z M508.9,237.1v-7.8h-1.3v7h-1.2v-13.7h1.2v5.6h1.3v-6h1.2v14.9H508.9z"/>
	<path d="M512.1,235.2v-1.1h6v-2.5h-4.4V227h8.8v-2.4h-8.8v-1.1h10.1v4.5H515v2.5h9.2v1.1h-4.8v2.5h6.1v1.1H512.1z"/>
</g>
<g>
	<path d="M570.7,230.3v-1.1h5.5v-3.1h1.3v3.1h6.6v1.1H570.7z M582.5,224.4c0,1.2-0.2,3-0.4,3.9l-1.3-0.2c0.2-0.8,0.3-2.1,0.4-2.8
		l0-1.2h-9v-1.1h10.4V224.4z M572.4,236.9v-5.1h10v5.1H572.4z M581.1,232.8h-7.4v3h7.4V232.8z"/>
	<path d="M585.8,223.2h6.5v1.1h-2.6v0.4c0,2.3,1.7,3.6,3.1,4.1l-0.7,1c-1.1-0.5-2.5-1.7-2.9-2.8c-0.4,1.2-1.7,2.5-3,3.3l-0.8-1
		c1.6-0.8,3.1-2.4,3.1-4.6v-0.4h-2.7V223.2z M588.2,237v-3.6h8.4v-1.5h-8.5v-1.1h9.8v3.5h-8.4v1.6h9v1.1H588.2z M593.9,229.9v-3.5
		h-2.3v-1.1h2.3v-2.8h1.3v7.4H593.9z M596.7,230.1v-7.8h1.3v7.8H596.7z"/>
	<path d="M609.8,233.1c-1.5,0.2-4.1,0.5-7.4,0.5H601v-5.7h5.6v-3.1h-5.7v-1.1h7v5.3h-5.6v3.6h0.4c2.4,0,5.3-0.1,7.1-0.5L609.8,233.1
		z M612.4,222.3v14.9h-1.3v-14.9H612.4z"/>
</g>
<g>
	<path d="M650,233.4v-9.9h1.3v3.8h4.4v-3.8h1.3v9.9H650z M655.7,228.4h-4.4v4h4.4V228.4z M660.9,229.3v7.9h-1.3v-14.9h1.3v5.9h2.4
		v1.1H660.9z"/>
	<path d="M673.3,232.7c-1.8,0.4-5.4,0.7-7.6,0.7h-0.9v-9.6h1.3v8.5c2.5,0,5.5-0.2,7.1-0.6L673.3,232.7z M675.7,228.2h2.4v1.1h-2.4
		v7.9h-1.3v-14.9h1.3V228.2z"/>
	<path d="M688,232.7c-1.8,0.4-5.4,0.7-7.6,0.7h-0.9v-9.6h1.3v8.5c2.5,0,5.5-0.2,7.1-0.6L688,232.7z M690.4,228.2h2.4v1.1h-2.4v7.9
		h-1.3v-14.9h1.3V228.2z"/>
	<path d="M694.1,230v-6.8h1.2v2.5h1.5v-2.5h1.2v6.8H694.1z M696.8,226.8h-1.5v2.2h1.5V226.8z M700.6,237c-3.2,0-4.9-1.1-4.9-2.8
		c0-1.7,1.7-2.8,4.9-2.8c3.2,0,4.9,1.2,4.9,2.8C705.5,235.9,703.8,237,700.6,237z M700.6,232.5c-2.2,0-3.6,0.7-3.6,1.8
		c0,1.1,1.3,1.8,3.6,1.8c2.2,0,3.6-0.7,3.6-1.8C704.2,233.1,702.8,232.5,700.6,232.5z M699,230v-6.8h1.2v2.5h1.5v-2.5h1.2v6.8H699z
		 M701.7,226.8h-1.5v2.2h1.5V226.8z M705.4,227.2v3.9h-1.3v-8.8h1.3v3.9h2v1.1H705.4z"/>
</g>
<g>
	<path d="M78.4,257.2v2.3h9.1v1.1h-4.6v2.9h6.1v1.1H75.5v-1.1h6v-2.9h-4.5v-7.7h10.2v1.1h-8.9v2.2h8.4v1.1H78.4z"/>
</g>
<g>
	<path d="M128.9,259v-0.3c0-4.3,2.5-5.8,5.4-5.8c1.4,0,2.3,0.3,3,0.7v1.2c-0.7-0.3-1.6-0.7-3.1-0.7c-2.8,0-3.8,2.1-3.8,4.5v0.5
		c0,2.7,0.8,4.6,3.9,4.6c0.8,0,1.6-0.1,2.1-0.3v-3.1H134V259h3.8v5.1c-0.9,0.3-2.1,0.6-3.5,0.6C131,264.7,128.9,262.9,128.9,259z"/>
	<path d="M140.1,256.1h1.2v1h0.1c0.5-0.5,1.4-1,2.3-1c0.2,0,0.4,0,0.5,0v1.2c-0.2,0-0.5-0.1-0.6-0.1c-0.9,0-1.7,0.3-2.3,0.7v6.6
		h-1.3V256.1z"/>
	<path d="M146,253h1.3v1.4H146V253z M146.1,256.1h1.3v8.4h-1.3V256.1z"/>
	<path d="M149.3,264v-1c0.7,0.3,1.3,0.5,2.5,0.5c1.3,0,1.9-0.5,1.9-1.2c0-0.8-0.4-1.1-1.5-1.4l-0.8-0.2c-1.2-0.3-2.1-0.9-2.1-2.3
		s0.9-2.4,2.9-2.4c1.1,0,1.9,0.3,2.3,0.5v1.1c-0.4-0.2-1.3-0.4-2.2-0.4c-1.1,0-1.7,0.4-1.7,1.2c0,0.7,0.4,1,1.3,1.3l0.9,0.2
		c1.6,0.4,2.3,1,2.3,2.4c0,1.6-1.1,2.5-3,2.5C150.9,264.6,150,264.4,149.3,264z"/>
	<path d="M156.3,264v-1c0.7,0.3,1.3,0.5,2.5,0.5c1.3,0,1.9-0.5,1.9-1.2c0-0.8-0.4-1.1-1.5-1.4l-0.8-0.2c-1.2-0.3-2.1-0.9-2.1-2.3
		s0.9-2.4,2.9-2.4c1.1,0,1.9,0.3,2.3,0.5v1.1c-0.4-0.2-1.3-0.4-2.2-0.4c-1.1,0-1.7,0.4-1.7,1.2c0,0.7,0.4,1,1.3,1.3l0.9,0.2
		c1.6,0.4,2.3,1,2.3,2.4c0,1.6-1.1,2.5-3,2.5C157.9,264.6,157,264.4,156.3,264z"/>
	<path d="M163.9,253h1.3v1.4h-1.3V253z M163.9,256.1h1.3v8.4h-1.3V256.1z"/>
	<path d="M167.8,256.1h1.2v0.7h0.1c0.8-0.5,1.9-0.9,2.9-0.9c1.6,0,2.4,0.7,2.4,2.3v6.3h-1.3v-6c0-1-0.4-1.4-1.7-1.4
		c-0.8,0-1.7,0.3-2.4,0.6v6.9h-1.3V256.1z"/>
	<path d="M176.9,253h1.3v1.4h-1.3V253z M176.9,256.1h1.3v8.4h-1.3V256.1z"/>
</g>
<g>
	<path d="M226.3,264.2v-1.1c0.5,0.2,1.2,0.3,2,0.3c1.3,0,1.8-0.7,1.8-1.9v-8.5h1.4v8.5c0,1.7-0.9,3-3.1,3
		C227.5,264.6,226.9,264.5,226.3,264.2z"/>
	<path d="M233.5,260.4v-0.2c0-2.9,1.7-4.2,3.7-4.2c2.3,0,3.4,1.3,3.4,4v0.7h-5.7c0.1,2.1,1.1,2.9,2.9,2.9c1.1,0,1.9-0.3,2.6-0.6v1
		c-0.5,0.4-1.5,0.8-2.8,0.8C234.9,264.6,233.5,263,233.5,260.4z M234.9,259.6h4.4c0-1.8-0.7-2.6-2.1-2.6
		C236.1,257,235,257.6,234.9,259.6z"/>
	<path d="M242.6,252.3h1.3v12.2h-1.3V252.3z"/>
	<path d="M246.5,252.3h1.3v12.2h-1.3V252.3z"/>
	<path d="M249.9,266.8v-1c0.2,0,0.5,0.1,0.8,0.1c0.8,0,1.3-0.1,1.7-1.1l0.3-0.7l-3.2-8.1h1.4l2.5,6.4h0l2.3-6.4h1.3l-3.3,9
		c-0.6,1.5-1.3,2-2.7,2C250.5,267,250.1,266.9,249.9,266.8z"/>
</g>
<g>
	<path d="M306.1,264.2v-11.9h1.3v4.3h0.1c0.6-0.4,1.4-0.7,2.6-0.7c1.6,0,3.3,1,3.3,4.1v0.2c0,2.8-1.5,4.4-4.2,4.4
		C308.2,264.7,306.8,264.5,306.1,264.2z M312,260.5v-0.3c0-2.3-0.8-3.1-2.5-3.1c-0.9,0-1.6,0.3-2.1,0.5v5.7c0.4,0.2,1,0.3,1.8,0.3
		C310.7,263.6,312,262.9,312,260.5z"/>
	<path d="M314.8,262.3c0-1.5,1-2.3,2.6-2.4l2.3-0.3v-0.9c0-1.3-0.6-1.6-2.1-1.6c-0.8,0-1.5,0.1-2,0.3v-0.9c0.7-0.3,1.5-0.5,2.5-0.5
		c1.9,0,2.9,0.8,2.9,2.5v6.1h-1.1l-0.1-0.7h-0.1c-0.4,0.5-1.1,0.9-2.2,0.9C315.9,264.6,314.8,263.9,314.8,262.3z M319.6,263v-2.5
		l-1.9,0.2c-1,0.1-1.5,0.5-1.5,1.5c0,0.9,0.6,1.4,1.6,1.4C318.5,263.6,319.3,263.4,319.6,263z"/>
	<path d="M323.4,256.1h1.2v0.7h0.1c0.8-0.5,1.9-0.9,2.9-0.9c1.6,0,2.4,0.7,2.4,2.3v6.3h-1.3v-6c0-1-0.4-1.4-1.7-1.4
		c-0.8,0-1.7,0.3-2.4,0.6v6.9h-1.3V256.1z"/>
	<path d="M331.9,262.3c0-1.5,1-2.3,2.6-2.4l2.3-0.3v-0.9c0-1.3-0.6-1.6-2.1-1.6c-0.8,0-1.5,0.1-2,0.3v-0.9c0.7-0.3,1.5-0.5,2.5-0.5
		c1.9,0,2.9,0.8,2.9,2.5v6.1H337l-0.1-0.7h-0.1c-0.4,0.5-1.1,0.9-2.2,0.9C333,264.6,331.9,263.9,331.9,262.3z M336.8,263v-2.5
		l-1.9,0.2c-1,0.1-1.5,0.5-1.5,1.5c0,0.9,0.6,1.4,1.6,1.4C335.7,263.6,336.4,263.4,336.8,263z"/>
	<path d="M340.5,256.1h1.2v0.7h0.1c0.8-0.5,1.9-0.9,2.9-0.9c1.6,0,2.4,0.7,2.4,2.3v6.3h-1.3v-6c0-1-0.4-1.4-1.7-1.4
		c-0.8,0-1.7,0.3-2.4,0.6v6.9h-1.3V256.1z"/>
	<path d="M349.1,262.3c0-1.5,1-2.3,2.6-2.4l2.3-0.3v-0.9c0-1.3-0.6-1.6-2.1-1.6c-0.8,0-1.5,0.1-2,0.3v-0.9c0.7-0.3,1.5-0.5,2.5-0.5
		c1.9,0,2.9,0.8,2.9,2.5v6.1h-1.1l-0.1-0.7H354c-0.4,0.5-1.1,0.9-2.2,0.9C350.2,264.6,349.1,263.9,349.1,262.3z M353.9,263v-2.5
		l-1.9,0.2c-1,0.1-1.5,0.5-1.5,1.5c0,0.9,0.6,1.4,1.6,1.4C352.8,263.6,353.6,263.4,353.9,263z"/>
</g>
<g>
	<path d="M393,259v-0.3c0-4.3,2.5-5.8,5.4-5.8c1.4,0,2.3,0.3,3,0.7v1.2c-0.7-0.3-1.6-0.7-3.1-0.7c-2.8,0-3.8,2.1-3.8,4.5v0.5
		c0,2.7,0.8,4.6,3.9,4.6c0.8,0,1.6-0.1,2.1-0.3v-3.1h-2.4V259h3.8v5.1c-0.9,0.3-2.1,0.6-3.5,0.6C395.1,264.7,393,262.9,393,259z"/>
	<path d="M404.2,256.1h1.2v1h0.1c0.5-0.5,1.4-1,2.3-1c0.2,0,0.4,0,0.5,0v1.2c-0.2,0-0.5-0.1-0.6-0.1c-0.9,0-1.7,0.3-2.3,0.7v6.6
		h-1.3V256.1z"/>
	<path d="M410.2,253h1.3v1.4h-1.3V253z M410.2,256.1h1.3v8.4h-1.3V256.1z"/>
	<path d="M413.4,264v-1c0.7,0.3,1.3,0.5,2.5,0.5c1.3,0,1.9-0.5,1.9-1.2c0-0.8-0.4-1.1-1.5-1.4l-0.8-0.2c-1.2-0.3-2.1-0.9-2.1-2.3
		s0.9-2.4,2.9-2.4c1.1,0,1.9,0.3,2.3,0.5v1.1c-0.4-0.2-1.3-0.4-2.2-0.4c-1.1,0-1.7,0.4-1.7,1.2c0,0.7,0.4,1,1.3,1.3l0.9,0.2
		c1.6,0.4,2.3,1,2.3,2.4c0,1.6-1.1,2.5-3,2.5C415,264.6,414.1,264.4,413.4,264z"/>
	<path d="M420.4,264v-1c0.7,0.3,1.3,0.5,2.5,0.5c1.3,0,1.9-0.5,1.9-1.2c0-0.8-0.4-1.1-1.5-1.4l-0.8-0.2c-1.2-0.3-2.1-0.9-2.1-2.3
		s0.9-2.4,2.9-2.4c1.1,0,1.9,0.3,2.3,0.5v1.1c-0.4-0.2-1.3-0.4-2.2-0.4c-1.1,0-1.7,0.4-1.7,1.2c0,0.7,0.4,1,1.3,1.3l0.9,0.2
		c1.6,0.4,2.3,1,2.3,2.4c0,1.6-1.1,2.5-3,2.5C422,264.6,421.1,264.4,420.4,264z"/>
	<path d="M428,253h1.3v1.4H428V253z M428.1,256.1h1.3v8.4h-1.3V256.1z"/>
	<path d="M431.9,256.1h1.2v0.7h0.1c0.8-0.5,1.9-0.9,2.9-0.9c1.6,0,2.4,0.7,2.4,2.3v6.3h-1.3v-6c0-1-0.4-1.4-1.7-1.4
		c-0.8,0-1.7,0.3-2.4,0.6v6.9h-1.3V256.1z"/>
	<path d="M441,253h1.3v1.4H441V253z M441,256.1h1.3v8.4H441V256.1z"/>
</g>
<g>
	<path d="M475.7,262.7v-9.9h1.3v3.8h4.4v-3.8h1.3v9.9H475.7z M481.4,257.6H477v4h4.4V257.6z M486.6,258.5v7.9h-1.3v-14.9h1.3v5.9
		h2.4v1.1H486.6z"/>
	<path d="M499,262c-1.8,0.4-5.4,0.7-7.6,0.7h-0.9V253h1.3v8.5c2.5,0,5.5-0.2,7.1-0.6L499,262z M501.3,257.4h2.4v1.1h-2.4v7.9h-1.3
		v-14.9h1.3V257.4z"/>
	<path d="M513.7,262c-1.8,0.4-5.4,0.7-7.6,0.7h-0.9V253h1.3v8.5c2.5,0,5.5-0.2,7.1-0.6L513.7,262z M516.1,257.4h2.4v1.1h-2.4v7.9
		h-1.3v-14.9h1.3V257.4z"/>
	<path d="M519.8,259.3v-6.8h1.2v2.5h1.5v-2.5h1.2v6.8H519.8z M522.4,256.1H521v2.2h1.5V256.1z M526.3,266.3c-3.2,0-4.9-1.1-4.9-2.8
		c0-1.7,1.7-2.8,4.9-2.8c3.2,0,4.9,1.2,4.9,2.8C531.2,265.2,529.5,266.3,526.3,266.3z M526.3,261.7c-2.2,0-3.6,0.7-3.6,1.8
		c0,1.1,1.3,1.8,3.6,1.8c2.2,0,3.6-0.7,3.6-1.8C529.9,262.4,528.5,261.7,526.3,261.7z M524.7,259.3v-6.8h1.2v2.5h1.5v-2.5h1.2v6.8
		H524.7z M527.3,256h-1.5v2.2h1.5V256z M531.1,256.5v3.9h-1.3v-8.8h1.3v3.9h2v1.1H531.1z"/>
</g>
<g>
	<path d="M571.1,262.7v-9.4h1.1v3.7h1.1v-3.8h1.1v9.4H571.1z M573.3,258.1h-1.1v3.5h1.1V258.1z M575.3,262.7v-9.4h1.1v3.8h1.2v-3.8
		h1.1v9.4H575.3z M577.6,258.1h-1.2v3.5h1.2V258.1z M582.2,266.4v-7.8H581v7h-1.2v-13.7h1.2v5.6h1.3v-6h1.2v14.9H582.2z"/>
	<path d="M585.8,262.7v-9.4h1.1v3.7h1.1v-3.8h1.1v9.4H585.8z M588.1,258.1h-1.1v3.5h1.1V258.1z M590,262.7v-9.4h1.1v3.8h1.2v-3.8
		h1.1v9.4H590z M592.3,258.1h-1.2v3.5h1.2V258.1z M597,266.4v-7.8h-1.3v7h-1.2v-13.7h1.2v5.6h1.3v-6h1.2v14.9H597z"/>
	<path d="M600.2,264.5v-1.1h6v-2.5h-4.4v-4.6h8.8v-2.4h-8.8v-1.1h10.1v4.5h-8.8v2.5h9.2v1.1h-4.8v2.5h6.1v1.1H600.2z"/>
</g>
<g>
	<path d="M656.9,259.6v-1.1h5.5v-3.1h1.3v3.1h6.6v1.1H656.9z M668.7,253.7c0,1.2-0.2,3-0.4,3.9l-1.3-0.2c0.2-0.8,0.3-2.1,0.4-2.8
		l0-1.2h-9v-1.1h10.4V253.7z M658.6,266.2v-5.1h10v5.1H658.6z M667.3,262.1h-7.4v3h7.4V262.1z"/>
	<path d="M672,252.4h6.5v1.1H676v0.4c0,2.3,1.7,3.6,3.1,4.1l-0.7,1c-1.1-0.5-2.5-1.7-2.9-2.8c-0.4,1.2-1.7,2.5-3,3.3l-0.8-1
		c1.6-0.8,3.1-2.4,3.1-4.6v-0.4H672V252.4z M674.4,266.3v-3.6h8.4v-1.5h-8.5v-1.1h9.8v3.5h-8.4v1.6h9v1.1H674.4z M680.1,259.2v-3.5
		h-2.3v-1.1h2.3v-2.8h1.3v7.4H680.1z M682.9,259.3v-7.8h1.3v7.8H682.9z"/>
	<path d="M696,262.3c-1.5,0.2-4.1,0.5-7.4,0.5h-1.5v-5.7h5.6V254h-5.7v-1.1h7v5.3h-5.6v3.6h0.4c2.4,0,5.3-0.1,7.1-0.5L696,262.3z
		 M698.6,251.5v14.9h-1.3v-14.9H698.6z"/>
</g>
<g>
	<path d="M83.6,283c0,2-1.7,3.3-3.8,3.3c-2.1,0-3.9-1.3-3.9-3.3c0-2,1.7-3.4,3.9-3.4C81.9,279.6,83.6,280.9,83.6,283z M77.2,282.9
		c0,1.3,1.1,2.2,2.6,2.2c1.5,0,2.6-0.9,2.6-2.2c0-1.3-1-2.2-2.6-2.2C78.3,280.7,77.2,281.6,77.2,282.9z M78,293.8V290h8.3v-1.5H78
		v-1.1h9.7v3.6h-8.3v1.7h8.9v1.1H78z M86.4,286.6v-7.5h1.3v7.5H86.4z"/>
</g>
<g>
	<path d="M213.1,290.3v-9.9h1.3v3.8h4.4v-3.8h1.3v9.9H213.1z M218.8,285.2h-4.4v4h4.4V285.2z M224.1,286.1v7.9h-1.3v-14.9h1.3v5.9
		h2.4v1.1H224.1z"/>
	<path d="M236.4,289.6c-1.8,0.4-5.4,0.7-7.6,0.7h-0.9v-9.6h1.3v8.5c2.5,0,5.5-0.2,7.1-0.6L236.4,289.6z M238.8,285h2.4v1.1h-2.4v7.9
		h-1.3v-14.9h1.3V285z"/>
	<path d="M251.2,289.6c-1.8,0.4-5.4,0.7-7.6,0.7h-0.9v-9.6h1.3v8.5c2.5,0,5.5-0.2,7.1-0.6L251.2,289.6z M253.5,285h2.4v1.1h-2.4v7.9
		h-1.3v-14.9h1.3V285z"/>
	<path d="M257.2,286.9v-6.8h1.2v2.5h1.5v-2.5h1.2v6.8H257.2z M259.9,283.7h-1.5v2.2h1.5V283.7z M263.7,293.9c-3.2,0-4.9-1.1-4.9-2.8
		c0-1.7,1.7-2.8,4.9-2.8c3.2,0,4.9,1.2,4.9,2.8C268.7,292.8,267,293.9,263.7,293.9z M263.7,289.3c-2.2,0-3.6,0.7-3.6,1.8
		c0,1.1,1.3,1.8,3.6,1.8c2.2,0,3.6-0.7,3.6-1.8C267.3,290,266,289.3,263.7,289.3z M262.1,286.9v-6.8h1.2v2.5h1.5v-2.5h1.2v6.8H262.1
		z M264.8,283.6h-1.5v2.2h1.5V283.6z M268.6,284.1v3.9h-1.3v-8.8h1.3v3.9h2v1.1H268.6z"/>
</g>
<g>
	<path d="M309.5,290.2v-9.4h1.1v3.7h1.1v-3.8h1.1v9.4H309.5z M311.7,285.7h-1.1v3.5h1.1V285.7z M313.7,290.2v-9.4h1.1v3.8h1.2v-3.8
		h1.1v9.4H313.7z M316,285.7h-1.2v3.5h1.2V285.7z M320.7,294v-7.8h-1.3v7h-1.2v-13.7h1.2v5.6h1.3v-6h1.2V294H320.7z"/>
	<path d="M324.2,290.2v-9.4h1.1v3.7h1.1v-3.8h1.1v9.4H324.2z M326.5,285.7h-1.1v3.5h1.1V285.7z M328.5,290.2v-9.4h1.1v3.8h1.2v-3.8
		h1.1v9.4H328.5z M330.8,285.7h-1.2v3.5h1.2V285.7z M335.4,294v-7.8h-1.3v7h-1.2v-13.7h1.2v5.6h1.3v-6h1.2V294H335.4z"/>
	<path d="M338.6,292.1V291h6v-2.5h-4.4v-4.6h8.8v-2.4h-8.8v-1.1h10.1v4.5h-8.8v2.5h9.2v1.1h-4.8v2.5h6.1v1.1H338.6z"/>
</g>
<g>
	<path d="M396.4,287.2v-1.1h5.5v-3.1h1.3v3.1h6.6v1.1H396.4z M408.3,281.3c0,1.2-0.2,3-0.4,3.9l-1.3-0.2c0.2-0.8,0.3-2.1,0.4-2.8
		l0-1.2h-9v-1.1h10.4V281.3z M398.1,293.8v-5.1h10v5.1H398.1z M406.8,289.7h-7.4v3h7.4V289.7z"/>
	<path d="M411.6,280h6.5v1.1h-2.6v0.4c0,2.3,1.7,3.6,3.1,4.1l-0.7,1c-1.1-0.5-2.5-1.7-2.9-2.8c-0.4,1.2-1.7,2.5-3,3.3l-0.8-1
		c1.6-0.8,3.1-2.4,3.1-4.6v-0.4h-2.7V280z M414,293.9v-3.6h8.4v-1.5h-8.5v-1.1h9.8v3.5h-8.4v1.6h9v1.1H414z M419.6,286.8v-3.5h-2.3
		v-1.1h2.3v-2.8h1.3v7.4H419.6z M422.4,286.9v-7.8h1.3v7.8H422.4z"/>
	<path d="M435.6,289.9c-1.5,0.2-4.1,0.5-7.4,0.5h-1.5v-5.7h5.6v-3.1h-5.7v-1.1h7v5.3H428v3.6h0.4c2.4,0,5.3-0.1,7.1-0.5L435.6,289.9
		z M438.1,279.1V294h-1.3v-14.9H438.1z"/>
</g>
<g>
	<path d="M475.7,290.3v-9.9h1.3v3.8h4.4v-3.8h1.3v9.9H475.7z M481.4,285.2H477v4h4.4V285.2z M486.6,286.1v7.9h-1.3v-14.9h1.3v5.9
		h2.4v1.1H486.6z"/>
	<path d="M499,289.6c-1.8,0.4-5.4,0.7-7.6,0.7h-0.9v-9.6h1.3v8.5c2.5,0,5.5-0.2,7.1-0.6L499,289.6z M501.3,285h2.4v1.1h-2.4v7.9
		h-1.3v-14.9h1.3V285z"/>
	<path d="M513.7,289.6c-1.8,0.4-5.4,0.7-7.6,0.7h-0.9v-9.6h1.3v8.5c2.5,0,5.5-0.2,7.1-0.6L513.7,289.6z M516.1,285h2.4v1.1h-2.4v7.9
		h-1.3v-14.9h1.3V285z"/>
	<path d="M519.8,286.9v-6.8h1.2v2.5h1.5v-2.5h1.2v6.8H519.8z M522.4,283.7H521v2.2h1.5V283.7z M526.3,293.9c-3.2,0-4.9-1.1-4.9-2.8
		c0-1.7,1.7-2.8,4.9-2.8c3.2,0,4.9,1.2,4.9,2.8C531.2,292.8,529.5,293.9,526.3,293.9z M526.3,289.3c-2.2,0-3.6,0.7-3.6,1.8
		c0,1.1,1.3,1.8,3.6,1.8c2.2,0,3.6-0.7,3.6-1.8C529.9,290,528.5,289.3,526.3,289.3z M524.7,286.9v-6.8h1.2v2.5h1.5v-2.5h1.2v6.8
		H524.7z M527.3,283.6h-1.5v2.2h1.5V283.6z M531.1,284.1v3.9h-1.3v-8.8h1.3v3.9h2v1.1H531.1z"/>
</g>
<g>
	<path d="M571.1,290.2v-9.4h1.1v3.7h1.1v-3.8h1.1v9.4H571.1z M573.3,285.7h-1.1v3.5h1.1V285.7z M575.3,290.2v-9.4h1.1v3.8h1.2v-3.8
		h1.1v9.4H575.3z M577.6,285.7h-1.2v3.5h1.2V285.7z M582.2,294v-7.8H581v7h-1.2v-13.7h1.2v5.6h1.3v-6h1.2V294H582.2z"/>
	<path d="M585.8,290.2v-9.4h1.1v3.7h1.1v-3.8h1.1v9.4H585.8z M588.1,285.7h-1.1v3.5h1.1V285.7z M590,290.2v-9.4h1.1v3.8h1.2v-3.8
		h1.1v9.4H590z M592.3,285.7h-1.2v3.5h1.2V285.7z M597,294v-7.8h-1.3v7h-1.2v-13.7h1.2v5.6h1.3v-6h1.2V294H597z"/>
	<path d="M600.2,292.1V291h6v-2.5h-4.4v-4.6h8.8v-2.4h-8.8v-1.1h10.1v4.5h-8.8v2.5h9.2v1.1h-4.8v2.5h6.1v1.1H600.2z"/>
</g>
<g>
	<path d="M656.9,287.2v-1.1h5.5v-3.1h1.3v3.1h6.6v1.1H656.9z M668.7,281.3c0,1.2-0.2,3-0.4,3.9L667,285c0.2-0.8,0.3-2.1,0.4-2.8
		l0-1.2h-9v-1.1h10.4V281.3z M658.6,293.8v-5.1h10v5.1H658.6z M667.3,289.7h-7.4v3h7.4V289.7z"/>
	<path d="M672,280h6.5v1.1H676v0.4c0,2.3,1.7,3.6,3.1,4.1l-0.7,1c-1.1-0.5-2.5-1.7-2.9-2.8c-0.4,1.2-1.7,2.5-3,3.3l-0.8-1
		c1.6-0.8,3.1-2.4,3.1-4.6v-0.4H672V280z M674.4,293.9v-3.6h8.4v-1.5h-8.5v-1.1h9.8v3.5h-8.4v1.6h9v1.1H674.4z M680.1,286.8v-3.5
		h-2.3v-1.1h2.3v-2.8h1.3v7.4H680.1z M682.9,286.9v-7.8h1.3v7.8H682.9z"/>
	<path d="M696,289.9c-1.5,0.2-4.1,0.5-7.4,0.5h-1.5v-5.7h5.6v-3.1h-5.7v-1.1h7v5.3h-5.6v3.6h0.4c2.4,0,5.3-0.1,7.1-0.5L696,289.9z
		 M698.6,279.1V294h-1.3v-14.9H698.6z"/>
</g>
<g>
	<path d="M60.7,47.8v-5.3c-1.5,0.1-2.8,0.1-4,0.1l-0.3-1.7c4.1,0,8.3-0.3,10.6-0.5l0.2,1.6c-1.2,0.2-2.8,0.3-4.3,0.4v5.4H60.7z
		 M61.7,39.7c-2.5,0-4.2-1.4-4.2-3.3c0-2,1.7-3.4,4.2-3.4c2.5,0,4.2,1.4,4.2,3.4C65.9,38.3,64.2,39.7,61.7,39.7z M61.7,34.6
		c-1.2,0-2.1,0.7-2.1,1.7c0,1,0.8,1.6,2.1,1.6c1.3,0,2.1-0.7,2.1-1.6C63.8,35.4,63,34.6,61.7,34.6z M69.9,48.2h-2.1v-16h2.1V48.2z"
		/>
	<path d="M74,44.5h-1.3v-6.4h3.6v-2.5h-3.6v-1.7h5.7v5.9h-3.6v3c1.8,0,3-0.1,4.4-0.4c0.1,0.5,0.2,1.1,0.2,1.6
		C78.1,44.4,75.8,44.5,74,44.5z M79,41.7v-1.8h1.8v-2.1H79V36h1.8v-3.5h2v15h-2v-5.8H79z M83.8,48.2v-16h2v16H83.8z"/>
	<path d="M88.4,33.2h8.5v1.7h-3.1c0.1,2.3,1.8,3.8,3.6,4.4L96.2,41c-1.2-0.5-2.8-1.7-3.5-3.2c-0.5,1.6-2.2,3.1-3.7,3.6l-1.2-1.7
		c2.2-0.8,3.8-2.5,3.9-4.9h-3.2V33.2z M90.4,48v-5.9h10.7V48H90.4z M99,43.7h-6.5v2.7H99V43.7z M99,41.3v-3.6h-2.4v-1.7H99v-3.9h2.1
		v9.1H99z"/>
</g>
<g>
	<path d="M208.1,345.6l-1.1,0.7l-0.3-0.6l1.1-0.6l-1.1-0.6l0.3-0.6l1.1,0.7l0-1.3h0.7l0,1.3l1.1-0.7l0.3,0.6l-1.1,0.6l1.1,0.6
		l-0.3,0.6l-1.1-0.7l0,1.3h-0.7L208.1,345.6z"/>
</g>
<g>
	<path d="M214,352.6V349c-1,0-1.9,0.1-2.8,0.1l-0.1-0.8c1.2,0,2.4,0,3.5,0c1.3,0,2.6-0.1,3.7-0.2l0,0.7c-0.8,0.1-2.1,0.2-3.3,0.3
		v3.6H214z M214.5,347.4c-1.6,0-2.8-0.9-2.8-2.2c0-1.3,1.1-2.3,2.8-2.3c1.6,0,2.7,0.9,2.7,2.3C217.3,346.5,216.1,347.4,214.5,347.4z
		 M214.5,343.7c-1.1,0-1.9,0.5-1.9,1.5c0,0.9,0.8,1.5,1.9,1.5c1,0,1.9-0.5,1.9-1.5C216.4,344.3,215.6,343.7,214.5,343.7z
		 M218.9,352.9v-10.5h0.9v10.5H218.9z"/>
</g>
<g>
	<path d="M230.5,350.4c-0.9-0.6-2.2-1.9-2.6-3.2c-0.4,1.3-1.5,2.6-2.7,3.5l-0.6-0.7c1.5-1,2.8-2.9,2.8-4.7v-1.9h0.9v1.9
		c0,1.9,1.3,3.6,2.7,4.5L230.5,350.4z M232.4,352.9v-10.5h0.9v10.5H232.4z"/>
	<path d="M240.2,343.4c-0.1,2.9-2.1,4.9-4.7,5.7l-0.5-0.8c2.3-0.6,3.9-2.2,4.2-4.2h-3.8v-0.8H240.2z M236.5,352.7v-3.2h0.9v2.5h6
		v0.8H236.5z M243.1,346.5v3.8h-0.9v-7.8h0.9v3.3h1.6v0.8H243.1z"/>
	<path d="M245.4,351.6v-0.8h2.6v-2.2h0.9v2.2h2.5v-2.2h0.9v2.2h2.6v0.8H245.4z M246.3,344.1v-0.8h7.6v0.8H246.3z M246.3,348.1v-0.8
		h1.6l-0.3-2.5l0.9-0.1l0.2,2.6h2.6l0.3-2.6l0.9,0.1l-0.4,2.5h1.6v0.8H246.3z"/>
	<path d="M255.8,348.6v-0.8h9.5v0.8H255.8z M257,352.7v-3.1h0.9v2.3h6.3v0.8H257z M257.1,346.5v-3.7h0.9v2.9h6.2v0.8H257.1z"/>
</g>
<g>
	<path d="M275,345.1c0,1.4-1.2,2.3-2.7,2.3c-1.5,0-2.7-0.9-2.7-2.3c0-1.4,1.2-2.4,2.7-2.4C273.8,342.8,275,343.7,275,345.1z
		 M270.4,345.1c0,0.9,0.8,1.6,1.8,1.6c1.1,0,1.8-0.6,1.8-1.5c0-0.9-0.7-1.6-1.8-1.6C271.2,343.6,270.4,344.2,270.4,345.1z
		 M271,352.8v-2.7h5.9V349H271v-0.7h6.8v2.5H272v1.2h6.3v0.7H271z M276.9,347.7v-5.3h0.9v5.3H276.9z"/>
	<path d="M283.9,352.9v-3.5h-4.3v-0.8h9.5v0.8h-4.3v3.5H283.9z M280.8,347.5v-4.6h0.9v1.5h5.3v-1.5h0.9v4.6H280.8z M287.1,345.1
		h-5.3v1.6h5.3V345.1z"/>
</g>
<g>
	<path d="M293.6,348.4v-5.3h0.9v1.9h2.8v-1.9h0.9v5.3H293.6z M297.3,345.8h-2.8v1.9h2.8V345.8z M295,352.6v-3.2h0.9v2.4h6.1v0.8H295
		z M301.7,350.2h-0.9v-2.9h-2v-0.8h2V345h-2v-0.8h2v-1.8h0.9V350.2z"/>
	<path d="M304.1,348.9l-0.5-0.8c2.2-0.6,3.9-2.3,4.2-4.1h-3.8v-0.8h4.8C308.8,345.9,306.9,348,304.1,348.9z M308.6,352.9
		c-2.3,0-3.6-0.8-3.6-2c0-1.2,1.3-2,3.6-2c2.3,0,3.6,0.8,3.6,2C312.2,352.1,310.9,352.9,308.6,352.9z M306,350.9
		c0,0.8,1,1.2,2.6,1.2c1.7,0,2.6-0.5,2.6-1.2c0-0.8-1-1.2-2.6-1.2C307,349.7,306,350.1,306,350.9z M308.9,346.5h2.3v-1.4H309v-0.8
		h2.1v-1.9h0.9v6.6h-0.9v-1.8h-2.3V346.5z"/>
	<path d="M317,343.2c1.7,0,2.7,1.5,2.7,3.7s-1,3.7-2.7,3.7c-1.7,0-2.7-1.5-2.7-3.7C314.3,344.7,315.2,343.2,317,343.2z M317,344
		c-1.1,0-1.8,1.2-1.8,2.9c0,1.7,0.7,2.9,1.8,2.9c1.1,0,1.8-1.2,1.8-2.9C318.8,345.2,318.1,344,317,344z M321.6,352.9v-10.5h0.9v10.5
		H321.6z"/>
</g>
<g>
	<path d="M331,347.8c-1.2,0.1-2.7,0.1-3.4,0.1l-0.1-0.8c0.8,0,1.9,0,3,0v-1h-2.1V343h5.1v0.7h-4.2v1.6h4.3v0.8h-2.2v1
		c1.1,0,2.3-0.1,3-0.2l0.1,0.7C333.5,347.6,332.2,347.7,331,347.8z M329.1,352.8v-2.5h6v-1h-6v-0.7h6.9v2.4h-6v1.1h6.4v0.7H329.1z
		 M335.1,348.1v-5.6h0.9v5.6H335.1z"/>
</g>
<g>
	<path d="M345.2,352.9v-3.8h-4.3v-0.8h9.5v0.8h-4.3v3.8H345.2z M349.5,347.2c-1.6-0.3-3.3-1.3-3.9-2.5c-0.5,1.2-2.3,2.2-3.9,2.6
		l-0.4-0.8c2-0.3,3.9-1.6,3.9-3v-0.7h1v0.7c0,1.4,2,2.8,3.9,3L349.5,347.2z"/>
</g>
<g>
	<path d="M360.1,345.5c0,1.5-1.2,2.5-2.7,2.5s-2.7-1-2.7-2.5s1.2-2.5,2.7-2.5S360.1,344,360.1,345.5z M358.9,352.1
		c-0.5-0.3-1.1-0.8-1.3-1.4c-0.3,0.8-1.2,1.8-2.1,2.2l-0.6-0.6c1.1-0.5,2.1-1.6,2.1-2.9v-0.5h0.9v0.4c0,1.1,0.7,1.8,1.5,2.2
		L358.9,352.1z M355.5,345.5c0,1,0.8,1.8,1.8,1.8c1.1,0,1.8-0.7,1.8-1.7c0-1-0.7-1.8-1.8-1.8C356.3,343.8,355.5,344.5,355.5,345.5z
		 M363.4,352.9c-0.7-0.3-1.7-1.3-1.9-2c-0.3,0.8-1.1,1.7-2,2.2l-0.6-0.6c1.1-0.6,2.1-1.7,2.1-3v-0.6h0.9v0.6c0,1.3,1,2.4,2,2.8
		L363.4,352.9L363.4,352.9z M362,348.5v-6.1h0.9v6.1H362z"/>
	<path d="M364.8,351.5v-0.8h9.5v0.8H364.8z M369.5,348.7c-2.3,0-3.8-1-3.8-2.7c0-1.6,1.5-2.7,3.8-2.7c2.3,0,3.8,1.1,3.8,2.7
		C373.3,347.6,371.8,348.7,369.5,348.7z M369.5,344.1c-1.7,0-2.9,0.8-2.9,1.9c0,1.1,1.2,1.9,2.9,1.9c1.8,0,2.9-0.7,2.9-1.9
		C372.4,344.9,371.3,344.1,369.5,344.1z"/>
	<path d="M381.8,349.9c-1.2,0.3-3.9,0.5-5.6,0.5h-0.5v-6.8h0.9v6c1.3,0,3.8-0.2,5-0.5L381.8,349.9z M383.6,352.9h-0.9v-10.5h0.9
		V352.9z"/>
</g>
<g>
	<path d="M388.9,343.3h5.7v0.8h-2.4c0,0.2,0,0.4,0,0.6c0.1,1.4,1.4,2.6,2.7,3l-0.5,0.7c-1.1-0.4-2.2-1.4-2.7-2.4
		c-0.3,1-1.5,2.2-2.7,2.7l-0.5-0.7c1.3-0.5,2.7-1.8,2.7-3.3c0-0.1,0-0.4,0-0.6h-2.4V343.3z M393.8,352.9c-2.2,0-3.5-0.8-3.5-2
		c0-1.2,1.3-2,3.5-2c2.3,0,3.5,0.8,3.5,2C397.3,352.2,396,352.9,393.8,352.9z M391.2,350.9c0,0.8,1,1.2,2.6,1.2
		c1.6,0,2.6-0.4,2.6-1.2c0-0.8-0.9-1.2-2.6-1.2C392.2,349.7,391.2,350.1,391.2,350.9z M394.2,345.9v-0.8h2.1v-2.7h0.9v6.5h-0.9v-3
		H394.2z"/>
	<path d="M402.3,349.2c-1.2,0.1-2.6,0.1-3.4,0.1l-0.1-0.8c0.8,0,1.8,0,2.9-0.1v-0.7c-1.1-0.1-1.9-0.5-1.9-1.4c0-1,1.1-1.4,2.4-1.4
		s2.4,0.4,2.4,1.4c0,0.9-0.9,1.3-2,1.4v0.7c1.1,0,2.2-0.1,2.9-0.2l0.1,0.7C404.8,349,403.6,349.1,402.3,349.2z M399.2,344.6v-0.7h6
		v0.7H399.2z M407.1,350v3h-0.9v-2.3h-5.9V350H407.1z M402.2,345.7c-0.9,0-1.6,0.2-1.6,0.7c0,0.5,0.7,0.7,1.6,0.7
		c0.9,0,1.6-0.2,1.6-0.7C403.8,345.9,403.1,345.7,402.2,345.7z M400.8,343.3v-0.8h2.9v0.8H400.8z M407.1,346.7v2.7h-0.9v-7h0.9v3.5
		h1.6v0.8H407.1z"/>
	<path d="M409.4,345.2v-0.8h6.1v0.8H409.4z M412.4,349.4c-1.4,0-2.5-0.7-2.5-1.8c0-1.1,1.1-1.8,2.5-1.8c1.4,0,2.5,0.7,2.5,1.8
		C414.9,348.7,413.8,349.4,412.4,349.4z M412.4,346.4c-0.8,0-1.6,0.4-1.6,1.1c0,0.7,0.8,1.1,1.6,1.1c0.9,0,1.6-0.4,1.6-1.1
		C414,346.9,413.3,346.4,412.4,346.4z M410.9,343.6v-0.8h3v0.8H410.9z M410.9,352.6v-2.7h0.9v1.9h6.1v0.8H410.9z M417.5,346.8v3.4
		h-0.9v-7.7h0.9v3.5h1.6v0.8H417.5z"/>
</g>
<g>
	<path d="M422.9,351.5v-0.8h9.5v0.8H422.9z M431.5,348.6c-1.8-0.5-3.5-2-3.9-3.1c-0.4,1.1-2,2.6-3.9,3.1l-0.5-0.8
		c1.7-0.3,3.9-2,3.9-3.7v-0.8h0.9v0.8c0,1.7,2.3,3.3,3.9,3.7L431.5,348.6z"/>
	<path d="M433.8,350.8l-0.6-0.7c1.6-0.9,2.6-2,3.1-3.3l-2.8,0.3l-0.2-0.8l3.3-0.2c0.2-0.6,0.2-1.1,0.3-1.7h-3.1v-0.8h4.1
		C437.8,346.9,436.5,349.1,433.8,350.8z M439.2,352.4v-5.1h-1.6v-0.8h1.6v-3.8h0.9v9.7H439.2z M441.2,352.9v-10.5h0.9v10.5H441.2z"
		/>
	<path d="M444.8,352.8v-2.4h6.3v-0.9h-6.3v-0.7h3.1v-1h-4.3V347h9.5v0.7h-4.3v1h3.1v2.3h-6.3v0.9h6.6v0.8H444.8z M452.2,346.4
		c-1.7-0.3-3.3-1.1-3.8-2c-0.4,0.9-2.1,1.8-3.8,2l-0.4-0.7c1.6-0.1,3.4-0.8,3.7-2h-3.3v-0.8h7.7v0.8h-3.3c0.3,1.2,2.2,1.9,3.7,2
		L452.2,346.4z"/>
	<path d="M454,348.6v-0.8h9.5v0.8H454z M458.8,346.9c-2.3,0-3.6-0.7-3.6-2.1c0-1.3,1.4-2.1,3.6-2.1c2.3,0,3.6,0.7,3.6,2.1
		C462.4,346.1,461.1,346.9,458.8,346.9z M455.3,352.6v-3.1h0.9v2.3h6.2v0.8H455.3z M456,344.8c0,0.9,1.1,1.3,2.7,1.3
		c1.7,0,2.8-0.4,2.8-1.3c0-0.9-1.1-1.3-2.7-1.3C457.1,343.5,456,343.9,456,344.8z"/>
</g>
<g>
	<path d="M471.9,344.9h1.5v-2.3h0.9v9.8h-0.9V349h-1.5c-0.4,1-1,1.6-2,1.6c-1.5,0-2.3-1.5-2.3-3.7c0-2.1,0.8-3.6,2.3-3.6
		C470.9,343.3,471.6,343.9,471.9,344.9z M469.9,344.1c-0.9,0-1.4,1.1-1.4,2.9c0,1.8,0.5,2.9,1.4,2.9c0.9,0,1.4-1.1,1.4-2.9
		C471.3,345.2,470.8,344.1,469.9,344.1z M472.1,345.7c0.1,0.4,0.1,0.8,0.1,1.2c0,0.5,0,0.9-0.1,1.3h1.3v-2.5H472.1z M475.5,352.9
		v-10.5h0.9v10.5H475.5z"/>
	<path d="M483.4,345.5c0,1.5-1.2,2.5-2.7,2.5c-1.5,0-2.7-0.9-2.7-2.5c0-1.5,1.2-2.5,2.7-2.5C482.2,343,483.4,344,483.4,345.5z
		 M478.9,345.5c0,1,0.8,1.8,1.8,1.8c1.1,0,1.8-0.7,1.8-1.7c0-1-0.7-1.8-1.8-1.8C479.7,343.8,478.9,344.5,478.9,345.5z M485,352.9v-3
		h-5.8v-0.8h6.8v3.8H485z M487.6,347.1H486v1.5H485v-6.2h0.9v1.6h1.6v0.8H486v1.5h1.6V347.1z"/>
	<path d="M494.1,350.4c-0.9-0.6-2.2-1.9-2.6-3.2c-0.4,1.3-1.5,2.6-2.7,3.5l-0.6-0.7c1.5-1,2.8-2.9,2.8-4.7v-1.9h0.9v1.9
		c0,1.9,1.3,3.6,2.7,4.5L494.1,350.4z M496,352.9v-10.5h0.9v10.5H496z"/>
</g>
<g>
	<path d="M505.1,349.2c-1.2,0.1-2.6,0.1-3.4,0.1l-0.1-0.8c0.8,0,1.8,0,2.9-0.1v-0.7c-1.1-0.1-1.9-0.5-1.9-1.4c0-1,1.1-1.4,2.4-1.4
		c1.3,0,2.4,0.4,2.4,1.4c0,0.9-0.9,1.3-2,1.4v0.7c1.1,0,2.2-0.1,2.9-0.2l0.1,0.7C507.6,349,506.3,349.1,505.1,349.2z M502,344.6
		v-0.7h6v0.7H502z M509.9,350v3h-0.9v-2.3H503V350H509.9z M505,345.7c-0.9,0-1.6,0.2-1.6,0.7c0,0.5,0.7,0.7,1.6,0.7
		c0.9,0,1.6-0.2,1.6-0.7C506.5,345.9,505.8,345.7,505,345.7z M503.5,343.3v-0.8h2.9v0.8H503.5z M509.9,346.7v2.7h-0.9v-7h0.9v3.5
		h1.6v0.8H509.9z"/>
	<path d="M518,345.7c0,1.6-1.2,2.6-2.8,2.6c-1.6,0-2.8-1-2.8-2.6c0-1.6,1.2-2.6,2.8-2.6C516.8,343.1,518,344.2,518,345.7z
		 M513.3,345.7c0,1.1,0.9,1.8,2,1.8c1.2,0,2-0.7,2-1.8c0-1.1-0.8-1.8-2-1.8C514.1,343.9,513.3,344.7,513.3,345.7z M513.9,352.6v-3.2
		h0.9v2.5h6.2v0.8H513.9z M519.8,350.1v-7.7h0.9v7.7H519.8z"/>
	<path d="M522.5,345.7V345h5.2v0.8H522.5z M525.2,350.5c-1.3,0-2.3-0.9-2.3-2.1c0-1.3,0.9-2.1,2.3-2.1c1.4,0,2.3,0.8,2.3,2.1
		C527.5,349.7,526.6,350.5,525.2,350.5z M523.7,344v-0.8h2.9v0.8H523.7z M525.2,347.1c-0.8,0-1.4,0.5-1.4,1.3c0,0.8,0.6,1.3,1.4,1.3
		c0.8,0,1.4-0.5,1.4-1.3C526.7,347.6,526.1,347.1,525.2,347.1z M530.5,352.9v-5.4h-1.3v4.9h-0.9v-9.7h0.9v4h1.3v-4.3h0.9v10.5H530.5
		z"/>
</g>
<g>
	<path d="M540.3,352.9v-3.8H536v-0.8h9.5v0.8h-4.3v3.8H540.3z M544.6,347.4c-1.7-0.3-3.4-1.4-3.9-2.3c-0.4,1-2.1,2.1-3.8,2.4
		l-0.4-0.8c1.7-0.2,3.7-1.3,3.8-2.7h-3.4v-0.8h7.7v0.8h-3.4c0,1.5,2.2,2.5,3.8,2.7L544.6,347.4z"/>
	<path d="M551.1,350.3c-0.8-0.6-1.9-1.8-2.2-3c-0.2,1.2-1.1,2.6-2.1,3.3l-0.6-0.7c1.2-0.8,2.2-2.5,2.2-4.6v-1.9h0.9v1.9
		c0,2,1.2,3.6,2.4,4.3L551.1,350.3z M552.3,352.4V347h-1.9v-0.8h1.9v-3.5h0.9v9.7H552.3z M554.4,352.9v-10.5h0.9v10.5H554.4z"/>
	<path d="M556.8,351.6v-0.8h2.3v-2l0.9,0v2h2.9v-2l0.9,0v2h2.4v0.8H556.8z M561.5,348.6c-2.3,0-3.8-1.1-3.8-2.7s1.5-2.7,3.8-2.7
		c2.3,0,3.8,1.1,3.8,2.7S563.8,348.6,561.5,348.6z M561.5,343.9c-1.7,0-2.9,0.8-2.9,2s1.2,2,2.9,2c1.8,0,2.9-0.8,2.9-2
		S563.3,343.9,561.5,343.9z"/>
</g>
</svg>
