<?xml version="1.0" encoding="utf-8"?>
<!-- Generator: Adobe Illustrator 25.0.1, SVG Export Plug-In . SVG Version: 6.00 Build 0)  -->
<svg version="1.1" id="레이어_1" xmlns="http://www.w3.org/2000/svg" xmlns:xlink="http://www.w3.org/1999/xlink" x="0px"
	 y="0px" viewBox="0 0 780 430" style="enable-background:new 0 0 780 430;" xml:space="preserve">
<style type="text/css">
	.st0{fill-rule:evenodd;clip-rule:evenodd;fill:#EC88AA;}
	.st1{fill-rule:evenodd;clip-rule:evenodd;fill:#F7B7B2;}
	.st2{fill-rule:evenodd;clip-rule:evenodd;fill:#FFFFFF;}
	.st3{fill:none;stroke:#ED7D31;stroke-linejoin:round;stroke-miterlimit:10;}
	.st4{clip-path:url(#SVGID_2_);}
	.st5{fill:#FFFFFF;}
</style>
<rect x="51.6" y="71.7" class="st0" width="57.3" height="28.8"/>
<rect x="108.9" y="71.7" class="st0" width="85.8" height="28.8"/>
<rect x="194.7" y="71.7" class="st0" width="89.6" height="28.8"/>
<rect x="284.3" y="71.7" class="st0" width="88.6" height="28.8"/>
<rect x="372.9" y="71.7" class="st0" width="86.1" height="28.8"/>
<rect x="458.9" y="71.7" class="st0" width="86.2" height="28.8"/>
<rect x="545.2" y="71.7" class="st0" width="90" height="28.8"/>
<rect x="635.2" y="71.7" class="st0" width="82.4" height="28.8"/>
<rect x="51.6" y="100.5" class="st1" width="57.3" height="29.2"/>
<rect x="108.9" y="100.5" class="st2" width="608.7" height="29.2"/>
<rect x="51.6" y="129.7" class="st1" width="57.3" height="27.6"/>
<rect x="108.9" y="129.7" class="st2" width="608.7" height="27.6"/>
<rect x="51.6" y="157.3" class="st1" width="57.3" height="29.2"/>
<rect x="108.9" y="157.3" class="st2" width="85.8" height="29.2"/>
<rect x="194.7" y="157.3" class="st2" width="89.6" height="29.2"/>
<rect x="284.3" y="157.3" class="st2" width="88.6" height="29.2"/>
<rect x="372.9" y="157.3" class="st2" width="86.1" height="29.2"/>
<rect x="458.9" y="157.3" class="st2" width="86.2" height="29.2"/>
<rect x="545.2" y="157.3" class="st2" width="90" height="29.2"/>
<rect x="635.2" y="157.3" class="st2" width="82.4" height="29.2"/>
<rect x="51.6" y="186.5" class="st1" width="57.3" height="29.2"/>
<rect x="108.9" y="186.5" class="st2" width="85.8" height="29.2"/>
<rect x="194.7" y="186.5" class="st2" width="89.6" height="29.2"/>
<rect x="284.3" y="186.5" class="st2" width="88.6" height="29.2"/>
<rect x="372.9" y="186.5" class="st2" width="86.1" height="29.2"/>
<rect x="458.9" y="186.5" class="st2" width="86.2" height="29.2"/>
<rect x="545.2" y="186.5" class="st2" width="90" height="29.2"/>
<rect x="635.2" y="186.5" class="st2" width="82.4" height="29.2"/>
<rect x="51.6" y="215.7" class="st1" width="57.3" height="29.2"/>
<rect x="108.9" y="215.7" class="st2" width="85.8" height="29.2"/>
<rect x="194.7" y="215.7" class="st2" width="89.6" height="29.2"/>
<rect x="284.3" y="215.7" class="st2" width="88.6" height="29.2"/>
<rect x="372.9" y="215.7" class="st2" width="86.1" height="29.2"/>
<rect x="458.9" y="215.7" class="st2" width="86.2" height="29.2"/>
<rect x="545.2" y="215.7" class="st2" width="90" height="29.2"/>
<rect x="635.2" y="215.7" class="st2" width="82.4" height="29.2"/>
<rect x="51.6" y="244.9" class="st1" width="57.3" height="27.6"/>
<rect x="108.9" y="244.9" class="st2" width="85.8" height="27.6"/>
<rect x="194.7" y="244.9" class="st2" width="89.6" height="27.6"/>
<rect x="284.3" y="244.9" class="st2" width="88.6" height="27.6"/>
<rect x="372.9" y="244.9" class="st2" width="86.1" height="27.6"/>
<rect x="458.9" y="244.9" class="st2" width="86.2" height="27.6"/>
<rect x="545.2" y="244.9" class="st2" width="90" height="27.6"/>
<rect x="635.2" y="244.9" class="st2" width="82.4" height="27.6"/>
<rect x="51.6" y="272.5" class="st1" width="57.3" height="29.2"/>
<rect x="108.9" y="272.5" class="st2" width="85.8" height="29.2"/>
<rect x="194.7" y="272.5" class="st2" width="89.6" height="29.2"/>
<rect x="284.3" y="272.5" class="st2" width="88.6" height="29.2"/>
<rect x="372.9" y="272.5" class="st2" width="86.1" height="29.2"/>
<rect x="458.9" y="272.5" class="st2" width="86.2" height="29.2"/>
<rect x="545.2" y="272.5" class="st2" width="90" height="29.2"/>
<rect x="635.2" y="272.5" class="st2" width="82.4" height="29.2"/>
<line class="st3" x1="108.9" y1="71.2" x2="108.9" y2="302.2"/>
<line class="st3" x1="194.7" y1="71.2" x2="194.7" y2="101"/>
<line class="st3" x1="194.7" y1="156.8" x2="194.7" y2="302.2"/>
<line class="st3" x1="284.3" y1="71.2" x2="284.3" y2="101"/>
<line class="st3" x1="284.3" y1="156.8" x2="284.3" y2="302.2"/>
<line class="st3" x1="372.9" y1="71.2" x2="372.9" y2="101"/>
<line class="st3" x1="372.9" y1="156.8" x2="372.9" y2="302.2"/>
<line class="st3" x1="458.9" y1="71.2" x2="458.9" y2="101"/>
<line class="st3" x1="458.9" y1="156.8" x2="458.9" y2="302.2"/>
<line class="st3" x1="545.2" y1="71.2" x2="545.2" y2="101"/>
<line class="st3" x1="545.2" y1="156.8" x2="545.2" y2="302.2"/>
<line class="st3" x1="635.2" y1="71.2" x2="635.2" y2="101"/>
<line class="st3" x1="635.2" y1="156.8" x2="635.2" y2="302.2"/>
<line class="st3" x1="51.1" y1="100.5" x2="718.1" y2="100.5"/>
<line class="st3" x1="51.1" y1="129.7" x2="718.1" y2="129.7"/>
<line class="st3" x1="51.1" y1="157.3" x2="718.1" y2="157.3"/>
<line class="st3" x1="51.1" y1="186.5" x2="718.1" y2="186.5"/>
<line class="st3" x1="51.1" y1="215.7" x2="718.1" y2="215.7"/>
<line class="st3" x1="51.1" y1="244.9" x2="718.1" y2="244.9"/>
<line class="st3" x1="51.1" y1="272.5" x2="718.1" y2="272.5"/>
<line class="st3" x1="51.6" y1="71.2" x2="51.6" y2="302.2"/>
<line class="st3" x1="717.6" y1="71.2" x2="717.6" y2="302.2"/>
<line class="st3" x1="51.1" y1="71.7" x2="718.1" y2="71.7"/>
<line class="st3" x1="51.1" y1="301.7" x2="718.1" y2="301.7"/>
<g>
	<defs>
		<rect id="SVGID_1_" x="51.4" y="10.3" width="57.6" height="151.4"/>
	</defs>
	<clipPath id="SVGID_2_">
		<use xlink:href="#SVGID_1_"  style="overflow:visible;"/>
	</clipPath>
	<g class="st4">
		<path class="st5" d="M62.2,78.4h1.7l5.8,9.7h0.1v-9.7h1.3v12.1h-1.5l-6-10.1h-0.1v10.1h-1.3V78.4z"/>
		<path class="st5" d="M73.5,84.5v-0.3c0-3.8,2-6.1,5.3-6.1c3.3,0,5.3,2.1,5.3,6.1v0.3c0,3.8-2,6.1-5.3,6.1
			C75.5,90.6,73.5,88.5,73.5,84.5z M82.6,84.8v-0.6c0-2.9-1.1-4.9-3.8-4.9c-2.5,0-3.7,1.9-3.7,4.6v0.6c0,2.9,1.1,4.9,3.8,4.9
			C81.4,89.5,82.6,87.5,82.6,84.8z"/>
		<path class="st5" d="M85.3,78.4h1.5l3.6,10.2h0L94,78.4h1.4L91,90.4h-1.3L85.3,78.4z"/>
		<path class="st5" d="M96.4,89.3H98v1.6h-1.6V89.3z"/>
	</g>
</g>
<g>
	<path class="st5" d="M142,79.1l-2,0.5v-0.7l2.5-1.2h0.7v11H142V79.1z"/>
	<path class="st5" d="M147.7,79.1l-2,0.5v-0.7l2.5-1.2h0.7v11h-1.2V79.1z"/>
</g>
<g>
	<path class="st5" d="M159,87c-1.3-0.9-2.9-2.6-3.5-4.3c-0.5,1.7-2,3.5-3.6,4.6l-0.8-0.9c2-1.3,3.7-3.8,3.7-6.3v-2.5h1.2v2.5
		c0,2.6,1.7,4.9,3.6,6L159,87z M161.5,90.4v-14h1.2v14H161.5z"/>
</g>
<g>
	<path class="st5" d="M228.3,79.1l-2,0.5v-0.7l2.5-1.2h0.7v11h-1.2V79.1z"/>
	<path class="st5" d="M232.2,87.9l2.6-2.7c1.5-1.6,2.5-2.8,2.5-4.3c0-1.4-0.7-2.1-2.2-2.1c-0.9,0-1.8,0.4-2.4,0.9l-0.4-1
		c0.7-0.4,1.8-1,3-1c2.2,0,3.3,1.2,3.3,3.1c0,1.9-1.1,3.1-3,5l-1.7,1.7h4.9v1.1h-6.7V87.9z"/>
</g>
<g>
	<path class="st5" d="M248,87c-1.3-0.9-2.9-2.6-3.5-4.3c-0.5,1.7-2,3.5-3.6,4.6l-0.8-0.9c2-1.3,3.7-3.8,3.7-6.3v-2.5h1.2v2.5
		c0,2.6,1.7,4.9,3.6,6L248,87z M250.6,90.4v-14h1.2v14H250.6z"/>
</g>
<g>
	<path class="st5" d="M317.3,79.1l-2,0.5v-0.7l2.5-1.2h0.7v11h-1.2V79.1z"/>
	<path class="st5" d="M321,88l0.3-1c0.6,0.4,1.7,0.7,2.5,0.7c1.8,0,2.8-0.8,2.8-2.1c0-1.4-1.1-2-2.7-2h-1v-1.1h1
		c1.4,0,2.3-0.7,2.3-1.9c0-1.3-0.8-1.8-2.2-1.8c-0.9,0-1.7,0.4-2.4,0.8l-0.2-1c0.6-0.4,1.9-0.8,2.8-0.8c1.9,0,3.2,1,3.2,2.7
		c0,1.3-0.8,2.1-2,2.5c1.4,0.3,2.4,1.1,2.4,2.7c0,1.9-1.5,3.2-3.9,3.2C322.7,88.8,321.6,88.4,321,88z"/>
</g>
<g>
	<path class="st5" d="M337.2,87c-1.3-0.9-2.9-2.6-3.5-4.3c-0.5,1.7-2,3.5-3.6,4.6l-0.8-0.9c2-1.3,3.7-3.8,3.7-6.3v-2.5h1.2v2.5
		c0,2.6,1.7,4.9,3.6,6L337.2,87z M339.7,90.4v-14h1.2v14H339.7z"/>
</g>
<g>
	<path class="st5" d="M404.5,79.1l-2,0.5v-0.7l2.5-1.2h0.7v11h-1.2V79.1z"/>
	<path class="st5" d="M413,86.4h-5.1v-1l5.2-7.7h1v7.6h1.8v1h-1.8v2.5H413V86.4z M413,85.3v-5.6l-3.7,5.6H413z"/>
</g>
<g>
	<path class="st5" d="M424.7,87c-1.3-0.9-2.9-2.6-3.5-4.3c-0.5,1.7-2,3.5-3.6,4.6l-0.8-0.9c2-1.3,3.7-3.8,3.7-6.3v-2.5h1.2v2.5
		c0,2.6,1.7,4.9,3.6,6L424.7,87z M427.2,90.4v-14h1.2v14H427.2z"/>
</g>
<g>
	<path class="st5" d="M491.1,79.1l-2,0.5v-0.7l2.5-1.2h0.7v11h-1.2V79.1z"/>
	<path class="st5" d="M494.5,88l0.2-1c0.6,0.4,1.6,0.8,2.5,0.8c1.7,0,2.7-1,2.7-2.5c0-1.6-1-2.3-2.6-2.3c-0.7,0-1.7,0.3-2.2,0.5
		l0.4-5.6h5.4v1.1h-4.4l-0.2,3.3c0.4-0.1,1.1-0.2,1.5-0.2c2.2,0,3.5,1,3.5,3.3c0,1.9-1.4,3.5-3.8,3.5
		C496.2,88.8,495.1,88.4,494.5,88z"/>
</g>
<g>
	<path class="st5" d="M510.3,87c-1.3-0.9-2.9-2.6-3.5-4.3c-0.5,1.7-2,3.5-3.6,4.6l-0.8-0.9c2-1.3,3.7-3.8,3.7-6.3v-2.5h1.2v2.5
		c0,2.6,1.7,4.9,3.6,6L510.3,87z M512.9,90.4v-14h1.2v14H512.9z"/>
</g>
<g>
	<path class="st5" d="M578.8,79.1l-2,0.5v-0.7l2.5-1.2h0.7v11h-1.2V79.1z"/>
	<path class="st5" d="M582.6,84v-0.8c0-3.8,1.7-5.5,4.2-5.5c1.1,0,2.1,0.4,2.5,0.6l-0.4,0.9c-0.4-0.2-1.3-0.5-2-0.5
		c-1.8,0-2.8,0.9-3,4.3c0.6-0.6,1.5-1.2,2.7-1.2c1.8,0,3.2,1.2,3.2,3.3s-1.3,3.6-3.5,3.6C583.8,88.8,582.6,87,582.6,84z M588.5,85.3
		c0-1.7-0.9-2.3-2.2-2.3c-1,0-2,0.7-2.4,1.4v0.1c0,2,0.7,3.3,2.4,3.3C587.6,87.7,588.5,86.8,588.5,85.3z"/>
</g>
<g>
	<path class="st5" d="M598.9,87c-1.3-0.9-2.9-2.6-3.5-4.3c-0.5,1.7-2,3.5-3.6,4.6l-0.8-0.9c2-1.3,3.7-3.8,3.7-6.3v-2.5h1.2v2.5
		c0,2.6,1.7,4.9,3.6,6L598.9,87z M601.4,90.4v-14h1.2v14H601.4z"/>
</g>
<g>
	<path class="st5" d="M665.5,79.1l-2,0.5v-0.7l2.5-1.2h0.7v11h-1.2V79.1z"/>
	<path class="st5" d="M674.4,79h-5.5v-1.1h6.9v0.8l-4.2,9.9h-1.4L674.4,79z"/>
</g>
<g>
	<path class="st5" d="M684.6,87c-1.3-0.9-2.9-2.6-3.5-4.3c-0.5,1.7-2,3.5-3.6,4.6l-0.8-0.9c2-1.3,3.7-3.8,3.7-6.3v-2.5h1.2v2.5
		c0,2.6,1.7,4.9,3.6,6L684.6,87z M687.1,90.4v-14h1.2v14H687.1z"/>
</g>
<g>
	<path d="M77.4,114.2v-1.8c-1.3,0.1-2.5,0.1-3.8,0.1l-0.2-1.1c1.7,0,3.3-0.1,4.9-0.1c1.8-0.1,3.3-0.2,4.7-0.3l0.1,1
		c-1,0.1-2.8,0.3-4.5,0.4v1.9H77.4z M78.1,110.6c-2.1,0-3.6-1-3.6-2.5c0-1.4,1.5-2.4,3.6-2.4c2.1,0,3.6,0.9,3.6,2.5
		C81.7,109.7,80.2,110.6,78.1,110.6z M75.7,120.2V117h8.7v-1.1h-8.8v-1h10v3H77v1.3h9.3v1H75.7z M78.1,106.8c-1.4,0-2.3,0.5-2.3,1.4
		c0,0.9,1,1.4,2.3,1.4s2.3-0.5,2.3-1.4C80.4,107.3,79.5,106.8,78.1,106.8z M84.4,114.1v-0.5h-3.3v-1h3.3v-7.3h1.3v8.8H84.4z"/>
</g>
<g>
	<path d="M384.4,118.3v-1.1h13.4v1.1H384.4z M385.6,108v-1.1h11v1.1H385.6z M385.6,114.2v-1.1h2.4l-0.4-4.1l1.3-0.2l0.3,4.3h3.7
		l0.5-4.3l1.3,0.2l-0.6,4.1h2.4v1.1H385.6z"/>
	<path d="M408.1,116.1c-1.7,0.3-4.8,0.6-7.2,0.6h-1.3v-5.7h5.5v-3.1h-5.6v-1.1h6.9v5.3H401v3.6c2.4,0,5-0.1,7-0.5L408.1,116.1z
		 M410.5,111.4h2.4v1.1h-2.4v7.8h-1.3v-14.9h1.3V111.4z"/>
	<path d="M418.2,106.5c2.5,0,3.8,2.1,3.8,5.3c0,3.1-1.4,5.3-3.8,5.3c-2.4,0-3.8-2.1-3.8-5.3C414.4,108.6,415.8,106.5,418.2,106.5z
		 M418.2,107.6c-1.6,0-2.6,1.7-2.6,4.1c0,2.4,1,4.1,2.6,4.1c1.6,0,2.6-1.7,2.6-4.1C420.8,109.3,419.8,107.6,418.2,107.6z
		 M424.8,120.2v-14.9h1.3v14.9H424.8z"/>
	<path d="M429.4,113.4v-7h1.3v2.4h4.2v-2.4h1.3v7H429.4z M441,120.4c-2-0.4-4.4-2-5-3.3c-0.6,1.5-2.8,2.9-5,3.4l-0.7-1
		c2.4-0.3,5.1-2.1,5.1-4.2v-0.6h1.4v0.6c0,2.1,2.9,3.8,5,4.2L441,120.4z M434.9,109.9h-4.2v2.4h4.2V109.9z M439.5,115.3v-9.9h1.3
		v9.9H439.5z"/>
</g>
<g>
	<path d="M82.9,146.6c-1.2,0.1-3.1,0.3-4.9,0.4c-1.6,0.1-3.2,0.1-4.5,0.1l-0.2-1.1c1.1,0,2.6,0,4,0v-1.5c-1.7-0.2-2.8-1.1-2.8-2.4
		c0-1.5,1.4-2.5,3.5-2.5c2.1,0,3.5,1,3.5,2.5c0,1.4-1.1,2.3-2.9,2.4v1.4c1.6-0.1,3.2-0.2,4.2-0.4L82.9,146.6z M73.6,138.8v-1.1h8.8
		v1.1H73.6z M77.9,140.6c-1.3,0-2.3,0.6-2.3,1.4c0,0.8,0.9,1.4,2.3,1.4c1.4,0,2.3-0.6,2.3-1.4C80.2,141.2,79.3,140.6,77.9,140.6z
		 M75.8,136.5v-1.1H80v1.1H75.8z M85,142.4v7.2h-1.3v-14.9H85v6.6h2.4v1.1H85z"/>
</g>
<g>
	<path d="M384.4,147.5v-1.1h13.4v1.1H384.4z M385.6,137.3v-1.1h11v1.1H385.6z M385.6,143.5v-1.1h2.4l-0.4-4.1l1.3-0.2l0.3,4.3h3.7
		l0.5-4.3l1.3,0.2l-0.6,4.1h2.4v1.1H385.6z"/>
	<path d="M408.1,145.4c-1.7,0.3-4.8,0.6-7.2,0.6h-1.3v-5.7h5.5v-3.1h-5.6V136h6.9v5.3H401v3.6c2.4,0,5-0.1,7-0.5L408.1,145.4z
		 M410.5,140.6h2.4v1.1h-2.4v7.8h-1.3v-14.9h1.3V140.6z"/>
	<path d="M418.2,135.8c2.5,0,3.8,2.1,3.8,5.3c0,3.1-1.4,5.3-3.8,5.3c-2.4,0-3.8-2.1-3.8-5.3C414.4,137.9,415.8,135.8,418.2,135.8z
		 M418.2,136.9c-1.6,0-2.6,1.7-2.6,4.1c0,2.4,1,4.1,2.6,4.1c1.6,0,2.6-1.7,2.6-4.1C420.8,138.6,419.8,136.9,418.2,136.9z
		 M424.8,149.5v-14.9h1.3v14.9H424.8z"/>
	<path d="M429.4,142.6v-7h1.3v2.4h4.2v-2.4h1.3v7H429.4z M441,149.6c-2-0.4-4.4-2-5-3.3c-0.6,1.5-2.8,2.9-5,3.4l-0.7-1
		c2.4-0.3,5.1-2.1,5.1-4.2v-0.6h1.4v0.6c0,2.1,2.9,3.8,5,4.2L441,149.6z M434.9,139.1h-4.2v2.4h4.2V139.1z M439.5,144.6v-9.9h1.3
		v9.9H439.5z"/>
</g>
<g>
	<path d="M79.6,177.1v-5.4h-6v-1.1h13.4v1.1h-6.1v5.4H79.6z M85.8,169.1c-2.2-0.5-4.7-1.9-5.6-3.6c-0.7,1.7-3.2,3.2-5.5,3.6
		l-0.6-1.1c2.9-0.4,5.5-2.3,5.5-4.3v-1h1.4v1c0,2,2.9,3.9,5.5,4.2L85.8,169.1z"/>
</g>
<g>
	<path d="M138,170.3c-1.4-0.7-2.9-2-3.5-3.5c-0.5,1.5-1.9,3.1-3.6,4l-0.8-1c2.1-1,3.7-2.9,3.7-5.3v-1.5h1.3v1.4c0,2.4,2,4.2,3.6,4.8
		L138,170.3z M137.6,177.1c-3.2,0-5-1.1-5-2.8s1.8-2.8,5-2.8c3.2,0,5,1.1,5,2.8S140.8,177.1,137.6,177.1z M134,174.3
		c0,1.1,1.4,1.8,3.7,1.8c2.3,0,3.7-0.6,3.7-1.8c0-1.1-1.4-1.8-3.7-1.8C135.4,172.5,134,173.2,134,174.3z M138,166.7v-1.1h3.2v-3.4
		h1.3v9.2h-1.3v-4.7H138z"/>
	<path d="M153.4,166.9c0,2.2-1.7,3.7-4,3.7s-4-1.5-4-3.7c0-2.2,1.8-3.7,4-3.7C151.7,163.2,153.4,164.7,153.4,166.9z M146.6,166.9
		c0,1.5,1.2,2.5,2.8,2.5c1.6,0,2.8-1.1,2.8-2.5c0-1.5-1.1-2.6-2.8-2.6C147.8,164.4,146.6,165.4,146.6,166.9z M147.5,176.6V172h1.3
		v3.5h8.8v1.1H147.5z M155.9,173.1v-10.8h1.3v10.8H155.9z"/>
	<path d="M160.3,170.8v-7.5h1.3v2.5h4.4v-2.5h1.3v7.5H160.3z M166,166.9h-4.4v2.9h4.4V166.9z M161.8,176.6V172h1.3v3.5h8.7v1.1
		H161.8z M171.2,167.8v5.3h-1.3v-10.8h1.3v4.4h2.3v1.1H171.2z"/>
</g>
<g>
	<path d="M218,170.3v-1.1h5.5v-3.1h1.3v3.1h6.6v1.1H218z M229.9,164.4c0,1.2-0.2,3-0.4,3.9l-1.3-0.2c0.2-0.8,0.3-2.1,0.4-2.8l0-1.2
		h-9v-1.1h10.4V164.4z M219.7,176.9v-5.1h10v5.1H219.7z M228.4,172.8H221v3h7.4V172.8z"/>
	<path d="M233.1,163.2h6.5v1.1h-2.6v0.4c0,2.3,1.7,3.6,3.1,4.1l-0.7,1c-1.1-0.5-2.5-1.7-2.9-2.8c-0.4,1.2-1.7,2.5-3,3.3l-0.8-1
		c1.6-0.8,3.1-2.4,3.1-4.6v-0.4h-2.7V163.2z M235.5,177v-3.6h8.4v-1.5h-8.5v-1.1h9.8v3.5h-8.4v1.6h9v1.1H235.5z M241.2,169.9v-3.5
		h-2.3v-1.1h2.3v-2.8h1.3v7.4H241.2z M244,170.1v-7.8h1.3v7.8H244z"/>
	<path d="M257.2,173.1c-1.5,0.2-4.1,0.5-7.4,0.5h-1.5v-5.7h5.6v-3.1h-5.7v-1.1h7v5.3h-5.6v3.6h0.4c2.4,0,5.3-0.1,7.1-0.5
		L257.2,173.1z M259.7,162.3v14.9h-1.3v-14.9H259.7z"/>
</g>
<g>
	<path d="M307.5,173.4V164h1.1v3.7h1.1V164h1.1v9.4H307.5z M309.7,168.8h-1.1v3.5h1.1V168.8z M311.7,173.4V164h1.1v3.8h1.2V164h1.1
		v9.4H311.7z M314,168.8h-1.2v3.5h1.2V168.8z M318.7,177.1v-7.8h-1.3v7h-1.2v-13.7h1.2v5.6h1.3v-6h1.2v14.9H318.7z"/>
	<path d="M322.2,173.4V164h1.1v3.7h1.1V164h1.1v9.4H322.2z M324.5,168.8h-1.1v3.5h1.1V168.8z M326.5,173.4V164h1.1v3.8h1.2V164h1.1
		v9.4H326.5z M328.8,168.8h-1.2v3.5h1.2V168.8z M333.4,177.1v-7.8h-1.3v7h-1.2v-13.7h1.2v5.6h1.3v-6h1.2v14.9H333.4z"/>
	<path d="M336.6,175.2v-1.1h6v-2.5h-4.4V167h8.8v-2.4h-8.8v-1.1h10.1v4.5h-8.8v2.5h9.2v1.1h-4.8v2.5h6.1v1.1H336.6z"/>
</g>
<g>
	<path d="M395.3,171.1l-0.7-1c2.3-0.6,3.9-1.7,4.8-3.2l-4.6,0.4l-0.3-1.1l5.5-0.3c0.2-0.5,0.4-1.1,0.4-1.6h-5.3v-1.1h6.7
		C401.8,167.2,399.2,169.9,395.3,171.1z M397.1,176.9v-5.8h1.3v1.8h6.9v-1.9h1.3v5.8H397.1z M405.3,174h-6.9v1.8h6.9V174z
		 M402,167.1V166h3.3v-3.8h1.3v8.1h-1.3v-3.2H402z"/>
	<path d="M409.9,174.1l-0.9-1c2.2-1.2,3.6-2.8,4.4-4.6l-4,0.5l-0.3-1.2l4.7-0.3c0.2-0.8,0.3-1.6,0.4-2.4h-4.5V164h5.8
		C415.5,168.5,413.7,171.7,409.9,174.1z M417.6,176.4v-7.3h-2.3V168h2.3v-5.4h1.2v13.8H417.6z M420.4,177.1v-14.9h1.3v14.9H420.4z"
		/>
	<path d="M432,166.7c0,2.2-1.7,3.5-3.8,3.5c-2.1,0-3.9-1.4-3.9-3.5s1.8-3.6,3.9-3.6C430.2,163.1,432,164.5,432,166.7z M425.5,166.7
		c0,1.5,1.1,2.5,2.6,2.5c1.5,0,2.6-1,2.6-2.5c0-1.5-1-2.5-2.6-2.5C426.6,164.1,425.5,165.2,425.5,166.7z M434.8,177.1v-4.3h-8.6
		v-1.1h9.9v5.4H434.8z M434.8,171v-8.7h1.3v8.7H434.8z"/>
</g>
<g>
	<path d="M480.6,170.3v-1.1h5.5v-3.1h1.3v3.1h6.6v1.1H480.6z M492.4,164.4c0,1.2-0.2,3-0.4,3.9l-1.3-0.2c0.2-0.8,0.3-2.1,0.4-2.8
		l0-1.2h-9v-1.1h10.4V164.4z M482.3,176.9v-5.1h10v5.1H482.3z M491,172.8h-7.4v3h7.4V172.8z"/>
	<path d="M495.7,163.2h6.5v1.1h-2.6v0.4c0,2.3,1.7,3.6,3.1,4.1l-0.7,1c-1.1-0.5-2.5-1.7-2.9-2.8c-0.4,1.2-1.7,2.5-3,3.3l-0.8-1
		c1.6-0.8,3.1-2.4,3.1-4.6v-0.4h-2.7V163.2z M498.1,177v-3.6h8.4v-1.5H498v-1.1h9.8v3.5h-8.4v1.6h9v1.1H498.1z M503.8,169.9v-3.5
		h-2.3v-1.1h2.3v-2.8h1.3v7.4H503.8z M506.5,170.1v-7.8h1.3v7.8H506.5z"/>
	<path d="M519.7,173.1c-1.5,0.2-4.1,0.5-7.4,0.5h-1.5v-5.7h5.6v-3.1h-5.7v-1.1h7v5.3h-5.6v3.6h0.4c2.4,0,5.3-0.1,7.1-0.5
		L519.7,173.1z M522.3,162.3v14.9H521v-14.9H522.3z"/>
</g>
<g>
	<path d="M569.1,173.4V164h1.1v3.7h1.1V164h1.1v9.4H569.1z M571.3,168.8h-1.1v3.5h1.1V168.8z M573.3,173.4V164h1.1v3.8h1.2V164h1.1
		v9.4H573.3z M575.6,168.8h-1.2v3.5h1.2V168.8z M580.2,177.1v-7.8H579v7h-1.2v-13.7h1.2v5.6h1.3v-6h1.2v14.9H580.2z"/>
	<path d="M583.8,173.4V164h1.1v3.7h1.1V164h1.1v9.4H583.8z M586.1,168.8h-1.1v3.5h1.1V168.8z M588,173.4V164h1.1v3.8h1.2V164h1.1
		v9.4H588z M590.3,168.8h-1.2v3.5h1.2V168.8z M595,177.1v-7.8h-1.3v7h-1.2v-13.7h1.2v5.6h1.3v-6h1.2v14.9H595z"/>
	<path d="M598.2,175.2v-1.1h6v-2.5h-4.4V167h8.8v-2.4h-8.8v-1.1h10.1v4.5h-8.8v2.5h9.2v1.1h-4.8v2.5h6.1v1.1H598.2z"/>
</g>
<g>
	<path d="M655.8,171.1l-0.7-1c2.3-0.6,3.9-1.7,4.8-3.2l-4.6,0.4l-0.3-1.1l5.5-0.3c0.2-0.5,0.4-1.1,0.4-1.6h-5.3v-1.1h6.7
		C662.2,167.2,659.7,169.9,655.8,171.1z M657.5,176.9v-5.8h1.3v1.8h6.9v-1.9h1.3v5.8H657.5z M665.8,174h-6.9v1.8h6.9V174z
		 M662.5,167.1V166h3.3v-3.8h1.3v8.1h-1.3v-3.2H662.5z"/>
	<path d="M670.3,174.1l-0.8-1c2.2-1.2,3.6-2.8,4.4-4.6l-4,0.5l-0.3-1.2l4.7-0.3c0.2-0.8,0.3-1.6,0.4-2.4h-4.5V164h5.8
		C676,168.5,674.2,171.7,670.3,174.1z M678,176.4v-7.3h-2.3V168h2.3v-5.4h1.2v13.8H678z M680.9,177.1v-14.9h1.3v14.9H680.9z"/>
	<path d="M692.4,166.7c0,2.2-1.7,3.5-3.8,3.5c-2.1,0-3.9-1.4-3.9-3.5s1.8-3.6,3.9-3.6C690.7,163.1,692.4,164.5,692.4,166.7z
		 M686,166.7c0,1.5,1.1,2.5,2.6,2.5c1.5,0,2.6-1,2.6-2.5c0-1.5-1-2.5-2.6-2.5C687.1,164.1,686,165.2,686,166.7z M695.2,177.1v-4.3
		h-8.6v-1.1h9.9v5.4H695.2z M695.2,171v-8.7h1.3v8.7H695.2z"/>
</g>
<g>
	<path d="M73.5,200.1V199h6v-1.7h-4.3v-5.1h10v5.1h-4.4v1.7h6.1v1.1H73.5z M85.3,201.6v4.9H84v-3.8h-9v-1.1H85.3z M83.9,193.3h-7.4
		v2.9h7.4V193.3z"/>
</g>
<g>
	<path d="M131.2,200.3l-0.7-1c2.3-0.6,3.9-1.7,4.8-3.2l-4.6,0.4l-0.3-1.1l5.5-0.3c0.2-0.5,0.4-1.1,0.4-1.6h-5.3v-1.1h6.7
		C137.7,196.5,135.1,199.2,131.2,200.3z M133,206.2v-5.8h1.3v1.8h6.9v-1.9h1.3v5.8H133z M141.2,203.3h-6.9v1.8h6.9V203.3z
		 M137.9,196.4v-1.1h3.3v-3.8h1.3v8.1h-1.3v-3.2H137.9z"/>
	<path d="M145.8,203.4l-0.9-1c2.2-1.2,3.6-2.8,4.4-4.6l-4,0.5l-0.3-1.2l4.7-0.3c0.2-0.8,0.3-1.6,0.4-2.4h-4.5v-1.1h5.8
		C151.4,197.8,149.6,201,145.8,203.4z M153.5,205.6v-7.3h-2.3v-1.1h2.3v-5.4h1.2v13.8H153.5z M156.3,206.4v-14.9h1.3v14.9H156.3z"/>
	<path d="M167.9,195.9c0,2.2-1.7,3.5-3.8,3.5c-2.1,0-3.9-1.4-3.9-3.5s1.8-3.6,3.9-3.6C166.1,192.4,167.9,193.8,167.9,195.9z
		 M161.4,195.9c0,1.5,1.1,2.5,2.6,2.5c1.5,0,2.6-1,2.6-2.5c0-1.5-1-2.5-2.6-2.5C162.5,193.4,161.4,194.5,161.4,195.9z M170.7,206.4
		v-4.3h-8.6V201h9.9v5.4H170.7z M170.7,200.3v-8.7h1.3v8.7H170.7z"/>
</g>
<g>
	<path d="M225.7,199.6c-1.4-0.7-2.9-2-3.5-3.5c-0.5,1.5-1.9,3.1-3.6,4l-0.8-1c2.1-1,3.7-2.9,3.7-5.3v-1.5h1.3v1.4
		c0,2.4,2,4.2,3.6,4.8L225.7,199.6z M225.3,206.4c-3.2,0-5-1.1-5-2.8s1.8-2.8,5-2.8c3.2,0,5,1.1,5,2.8S228.5,206.4,225.3,206.4z
		 M221.7,203.6c0,1.1,1.4,1.8,3.7,1.8c2.3,0,3.7-0.6,3.7-1.8c0-1.1-1.4-1.8-3.7-1.8C223.1,201.8,221.7,202.5,221.7,203.6z
		 M225.7,196V195h3.2v-3.4h1.3v9.2h-1.3V196H225.7z"/>
	<path d="M241.1,196.2c0,2.2-1.7,3.7-4,3.7s-4-1.5-4-3.7c0-2.2,1.8-3.7,4-3.7C239.3,192.5,241.1,194,241.1,196.2z M234.3,196.2
		c0,1.5,1.2,2.5,2.8,2.5c1.6,0,2.8-1.1,2.8-2.5c0-1.5-1.1-2.6-2.8-2.6C235.5,193.6,234.3,194.7,234.3,196.2z M235.2,205.9v-4.6h1.3
		v3.5h8.8v1.1H235.2z M243.6,202.4v-10.8h1.3v10.8H243.6z"/>
	<path d="M248,200.1v-7.5h1.3v2.5h4.4v-2.5h1.3v7.5H248z M253.7,196.1h-4.4v2.9h4.4V196.1z M249.5,205.9v-4.6h1.3v3.5h8.7v1.1H249.5
		z M258.9,197v5.3h-1.3v-10.8h1.3v4.4h2.3v1.1H258.9z"/>
</g>
<g>
	<path d="M307.5,202.7v-9.4h1.1v3.7h1.1v-3.8h1.1v9.4H307.5z M309.7,198.1h-1.1v3.5h1.1V198.1z M311.7,202.7v-9.4h1.1v3.8h1.2v-3.8
		h1.1v9.4H311.7z M314,198.1h-1.2v3.5h1.2V198.1z M318.7,206.4v-7.8h-1.3v7h-1.2v-13.7h1.2v5.6h1.3v-6h1.2v14.9H318.7z"/>
	<path d="M322.2,202.7v-9.4h1.1v3.7h1.1v-3.8h1.1v9.4H322.2z M324.5,198.1h-1.1v3.5h1.1V198.1z M326.5,202.7v-9.4h1.1v3.8h1.2v-3.8
		h1.1v9.4H326.5z M328.8,198.1h-1.2v3.5h1.2V198.1z M333.4,206.4v-7.8h-1.3v7h-1.2v-13.7h1.2v5.6h1.3v-6h1.2v14.9H333.4z"/>
	<path d="M336.6,204.5v-1.1h6v-2.5h-4.4v-4.6h8.8v-2.4h-8.8v-1.1h10.1v4.5h-8.8v2.5h9.2v1.1h-4.8v2.5h6.1v1.1H336.6z"/>
</g>
<g>
	<path d="M394.4,199.6v-1.1h5.5v-3.1h1.3v3.1h6.6v1.1H394.4z M406.3,193.7c0,1.2-0.2,3-0.4,3.9l-1.3-0.2c0.2-0.8,0.3-2.1,0.4-2.8
		l0-1.2h-9v-1.1h10.4V193.7z M396.1,206.2v-5.1h10v5.1H396.1z M404.8,202.1h-7.4v3h7.4V202.1z"/>
	<path d="M409.6,192.4h6.5v1.1h-2.6v0.4c0,2.3,1.7,3.6,3.1,4.1l-0.7,1c-1.1-0.5-2.5-1.7-2.9-2.8c-0.4,1.2-1.7,2.5-3,3.3l-0.8-1
		c1.6-0.8,3.1-2.4,3.1-4.6v-0.4h-2.7V192.4z M412,206.3v-3.6h8.4v-1.5h-8.5v-1.1h9.8v3.5h-8.4v1.6h9v1.1H412z M417.6,199.2v-3.5
		h-2.3v-1.1h2.3v-2.8h1.3v7.4H417.6z M420.4,199.3v-7.8h1.3v7.8H420.4z"/>
	<path d="M433.6,202.3c-1.5,0.2-4.1,0.5-7.4,0.5h-1.5v-5.7h5.6V194h-5.7v-1.1h7v5.3H426v3.6h0.4c2.4,0,5.3-0.1,7.1-0.5L433.6,202.3z
		 M436.1,191.5v14.9h-1.3v-14.9H436.1z"/>
</g>
<g>
	<path d="M481.5,200.3l-0.7-1c2.3-0.6,3.9-1.7,4.8-3.2l-4.6,0.4l-0.3-1.1l5.5-0.3c0.2-0.5,0.4-1.1,0.4-1.6h-5.3v-1.1h6.7
		C487.9,196.5,485.4,199.2,481.5,200.3z M483.2,206.2v-5.8h1.3v1.8h6.9v-1.9h1.3v5.8H483.2z M491.4,203.3h-6.9v1.8h6.9V203.3z
		 M488.2,196.4v-1.1h3.3v-3.8h1.3v8.1h-1.3v-3.2H488.2z"/>
	<path d="M496,203.4l-0.9-1c2.2-1.2,3.6-2.8,4.4-4.6l-4,0.5l-0.3-1.2l4.7-0.3c0.2-0.8,0.3-1.6,0.4-2.4h-4.5v-1.1h5.8
		C501.7,197.8,499.9,201,496,203.4z M503.7,205.6v-7.3h-2.3v-1.1h2.3v-5.4h1.2v13.8H503.7z M506.6,206.4v-14.9h1.3v14.9H506.6z"/>
	<path d="M518.1,195.9c0,2.2-1.7,3.5-3.8,3.5c-2.1,0-3.9-1.4-3.9-3.5s1.8-3.6,3.9-3.6C516.4,192.4,518.1,193.8,518.1,195.9z
		 M511.7,195.9c0,1.5,1.1,2.5,2.6,2.5c1.5,0,2.6-1,2.6-2.5c0-1.5-1-2.5-2.6-2.5C512.8,193.4,511.7,194.5,511.7,195.9z M520.9,206.4
		v-4.3h-8.6V201h9.9v5.4H520.9z M520.9,200.3v-8.7h1.3v8.7H520.9z"/>
</g>
<g>
	<path d="M569.1,202.7v-9.4h1.1v3.7h1.1v-3.8h1.1v9.4H569.1z M571.3,198.1h-1.1v3.5h1.1V198.1z M573.3,202.7v-9.4h1.1v3.8h1.2v-3.8
		h1.1v9.4H573.3z M575.6,198.1h-1.2v3.5h1.2V198.1z M580.2,206.4v-7.8H579v7h-1.2v-13.7h1.2v5.6h1.3v-6h1.2v14.9H580.2z"/>
	<path d="M583.8,202.7v-9.4h1.1v3.7h1.1v-3.8h1.1v9.4H583.8z M586.1,198.1h-1.1v3.5h1.1V198.1z M588,202.7v-9.4h1.1v3.8h1.2v-3.8
		h1.1v9.4H588z M590.3,198.1h-1.2v3.5h1.2V198.1z M595,206.4v-7.8h-1.3v7h-1.2v-13.7h1.2v5.6h1.3v-6h1.2v14.9H595z"/>
	<path d="M598.2,204.5v-1.1h6v-2.5h-4.4v-4.6h8.8v-2.4h-8.8v-1.1h10.1v4.5h-8.8v2.5h9.2v1.1h-4.8v2.5h6.1v1.1H598.2z"/>
</g>
<g>
	<path d="M654.9,199.6v-1.1h5.5v-3.1h1.3v3.1h6.6v1.1H654.9z M666.7,193.7c0,1.2-0.2,3-0.4,3.9l-1.3-0.2c0.2-0.8,0.3-2.1,0.4-2.8
		l0-1.2h-9v-1.1h10.4V193.7z M656.6,206.2v-5.1h10v5.1H656.6z M665.3,202.1h-7.4v3h7.4V202.1z"/>
	<path d="M670,192.4h6.5v1.1H674v0.4c0,2.3,1.7,3.6,3.1,4.1l-0.7,1c-1.1-0.5-2.5-1.7-2.9-2.8c-0.4,1.2-1.7,2.5-3,3.3l-0.8-1
		c1.6-0.8,3.1-2.4,3.1-4.6v-0.4H670V192.4z M672.4,206.3v-3.6h8.4v-1.5h-8.5v-1.1h9.8v3.5h-8.4v1.6h9v1.1H672.4z M678.1,199.2v-3.5
		h-2.3v-1.1h2.3v-2.8h1.3v7.4H678.1z M680.9,199.3v-7.8h1.3v7.8H680.9z"/>
	<path d="M694,202.3c-1.5,0.2-4.1,0.5-7.4,0.5h-1.5v-5.7h5.6V194h-5.7v-1.1h7v5.3h-5.6v3.6h0.4c2.4,0,5.3-0.1,7.1-0.5L694,202.3z
		 M696.6,191.5v14.9h-1.3v-14.9H696.6z"/>
</g>
<g>
	<path d="M84.7,227h2.3v1.1H73.5V227h9.9c0.3-1.1,0.5-3.3,0.5-4.5h-8.6v-1.1h9.9C85.2,223.4,85,225.5,84.7,227z M75.1,235.1V230
		h10.2v5.2H75.1z M84,231h-7.6v3H84V231z"/>
</g>
<g>
	<path d="M138,228.6c-1.4-0.7-2.9-2-3.5-3.5c-0.5,1.5-1.9,3.1-3.6,4l-0.8-1c2.1-1,3.7-2.9,3.7-5.3v-1.5h1.3v1.4c0,2.4,2,4.2,3.6,4.8
		L138,228.6z M137.6,235.4c-3.2,0-5-1.1-5-2.8s1.8-2.8,5-2.8c3.2,0,5,1.1,5,2.8S140.8,235.4,137.6,235.4z M134,232.6
		c0,1.1,1.4,1.8,3.7,1.8c2.3,0,3.7-0.6,3.7-1.8c0-1.1-1.4-1.8-3.7-1.8C135.4,230.9,134,231.5,134,232.6z M138,225.1V224h3.2v-3.4
		h1.3v9.2h-1.3v-4.7H138z"/>
	<path d="M153.4,225.3c0,2.2-1.7,3.7-4,3.7s-4-1.5-4-3.7c0-2.2,1.8-3.7,4-3.7C151.7,221.6,153.4,223.1,153.4,225.3z M146.6,225.3
		c0,1.5,1.2,2.5,2.8,2.5c1.6,0,2.8-1.1,2.8-2.5c0-1.5-1.1-2.6-2.8-2.6C147.8,222.7,146.6,223.8,146.6,225.3z M147.5,234.9v-4.6h1.3
		v3.5h8.8v1.1H147.5z M155.9,231.4v-10.8h1.3v10.8H155.9z"/>
	<path d="M160.3,229.1v-7.5h1.3v2.5h4.4v-2.5h1.3v7.5H160.3z M166,225.2h-4.4v2.9h4.4V225.2z M161.8,234.9v-4.6h1.3v3.5h8.7v1.1
		H161.8z M171.2,226.1v5.3h-1.3v-10.8h1.3v4.4h2.3v1.1H171.2z"/>
</g>
<g>
	<path d="M218.4,231.7v-9.4h1.1v3.7h1.1v-3.8h1.1v9.4H218.4z M220.7,227.1h-1.1v3.5h1.1V227.1z M222.6,231.7v-9.4h1.1v3.8h1.2v-3.8
		h1.1v9.4H222.6z M224.9,227.1h-1.2v3.5h1.2V227.1z M229.6,235.4v-7.8h-1.3v7h-1.2v-13.7h1.2v5.6h1.3v-6h1.2v14.9H229.6z"/>
	<path d="M233.1,231.7v-9.4h1.1v3.7h1.1v-3.8h1.1v9.4H233.1z M235.4,227.1h-1.1v3.5h1.1V227.1z M237.4,231.7v-9.4h1.1v3.8h1.2v-3.8
		h1.1v9.4H237.4z M239.7,227.1h-1.2v3.5h1.2V227.1z M244.3,235.4v-7.8H243v7h-1.2v-13.7h1.2v5.6h1.3v-6h1.2v14.9H244.3z"/>
	<path d="M247.5,233.5v-1.1h6v-2.5h-4.4v-4.6h8.8v-2.4h-8.8v-1.1h10.1v4.5h-8.8v2.5h9.2v1.1h-4.8v2.5h6.1v1.1H247.5z"/>
</g>
<g>
	<path d="M307.1,228.6v-1.1h5.5v-3.1h1.3v3.1h6.6v1.1H307.1z M318.9,222.7c0,1.2-0.2,3-0.4,3.9l-1.3-0.2c0.2-0.8,0.3-2.1,0.4-2.8
		l0-1.2h-9v-1.1h10.4V222.7z M308.8,235.2v-5.1h10v5.1H308.8z M317.5,231.2h-7.4v3h7.4V231.2z"/>
	<path d="M322.2,221.5h6.5v1.1h-2.6v0.4c0,2.3,1.7,3.6,3.1,4.1l-0.7,1c-1.1-0.5-2.5-1.7-2.9-2.8c-0.4,1.2-1.7,2.5-3,3.3l-0.8-1
		c1.6-0.8,3.1-2.4,3.1-4.6v-0.4h-2.7V221.5z M324.6,235.3v-3.6h8.4v-1.5h-8.5v-1.1h9.8v3.5h-8.4v1.6h9v1.1H324.6z M330.3,228.3v-3.5
		H328v-1.1h2.3v-2.8h1.3v7.4H330.3z M333.1,228.4v-7.8h1.3v7.8H333.1z"/>
	<path d="M346.3,231.4c-1.5,0.2-4.1,0.5-7.4,0.5h-1.5v-5.7h5.6V223h-5.7V222h7v5.3h-5.6v3.6h0.4c2.4,0,5.3-0.1,7.1-0.5L346.3,231.4z
		 M348.8,220.6v14.9h-1.3v-14.9H348.8z"/>
</g>
<g>
	<path d="M395.3,229.4l-0.7-1c2.3-0.6,3.9-1.7,4.8-3.2l-4.6,0.4l-0.3-1.1l5.5-0.3c0.2-0.5,0.4-1.1,0.4-1.6h-5.3v-1.1h6.7
		C401.8,225.6,399.2,228.2,395.3,229.4z M397.1,235.2v-5.8h1.3v1.8h6.9v-1.9h1.3v5.8H397.1z M405.3,232.3h-6.9v1.8h6.9V232.3z
		 M402,225.4v-1.1h3.3v-3.8h1.3v8.1h-1.3v-3.2H402z"/>
	<path d="M409.9,232.4l-0.9-1c2.2-1.2,3.6-2.8,4.4-4.6l-4,0.5l-0.3-1.2l4.7-0.3c0.2-0.8,0.3-1.6,0.4-2.4h-4.5v-1.1h5.8
		C415.5,226.8,413.7,230.1,409.9,232.4z M417.6,234.7v-7.3h-2.3v-1.1h2.3v-5.4h1.2v13.8H417.6z M420.4,235.4v-14.9h1.3v14.9H420.4z"
		/>
	<path d="M432,225c0,2.2-1.7,3.5-3.8,3.5c-2.1,0-3.9-1.4-3.9-3.5s1.8-3.6,3.9-3.6C430.2,221.4,432,222.8,432,225z M425.5,225
		c0,1.5,1.1,2.5,2.6,2.5c1.5,0,2.6-1,2.6-2.5c0-1.5-1-2.5-2.6-2.5C426.6,222.5,425.5,223.5,425.5,225z M434.8,235.4v-4.3h-8.6v-1.1
		h9.9v5.4H434.8z M434.8,229.3v-8.7h1.3v8.7H434.8z"/>
</g>
<g>
	<path d="M480.6,228.6v-1.1h5.5v-3.1h1.3v3.1h6.6v1.1H480.6z M492.4,222.7c0,1.2-0.2,3-0.4,3.9l-1.3-0.2c0.2-0.8,0.3-2.1,0.4-2.8
		l0-1.2h-9v-1.1h10.4V222.7z M482.3,235.2v-5.1h10v5.1H482.3z M491,231.2h-7.4v3h7.4V231.2z"/>
	<path d="M495.7,221.5h6.5v1.1h-2.6v0.4c0,2.3,1.7,3.6,3.1,4.1l-0.7,1c-1.1-0.5-2.5-1.7-2.9-2.8c-0.4,1.2-1.7,2.5-3,3.3l-0.8-1
		c1.6-0.8,3.1-2.4,3.1-4.6v-0.4h-2.7V221.5z M498.1,235.3v-3.6h8.4v-1.5H498v-1.1h9.8v3.5h-8.4v1.6h9v1.1H498.1z M503.8,228.3v-3.5
		h-2.3v-1.1h2.3v-2.8h1.3v7.4H503.8z M506.5,228.4v-7.8h1.3v7.8H506.5z"/>
	<path d="M519.7,231.4c-1.5,0.2-4.1,0.5-7.4,0.5h-1.5v-5.7h5.6V223h-5.7V222h7v5.3h-5.6v3.6h0.4c2.4,0,5.3-0.1,7.1-0.5L519.7,231.4z
		 M522.3,220.6v14.9H521v-14.9H522.3z"/>
</g>
<g>
	<path d="M569.6,229.4l-0.7-1c2.3-0.6,3.9-1.7,4.8-3.2l-4.6,0.4l-0.3-1.1l5.5-0.3c0.2-0.5,0.4-1.1,0.4-1.6h-5.3v-1.1h6.7
		C576,225.6,573.5,228.2,569.6,229.4z M571.3,235.2v-5.8h1.3v1.8h6.9v-1.9h1.3v5.8H571.3z M579.5,232.3h-6.9v1.8h6.9V232.3z
		 M576.3,225.4v-1.1h3.3v-3.8h1.3v8.1h-1.3v-3.2H576.3z"/>
	<path d="M584.1,232.4l-0.9-1c2.2-1.2,3.6-2.8,4.4-4.6l-4,0.5l-0.3-1.2l4.7-0.3c0.2-0.8,0.3-1.6,0.4-2.4H584v-1.1h5.8
		C589.8,226.8,588,230.1,584.1,232.4z M591.8,234.7v-7.3h-2.3v-1.1h2.3v-5.4h1.2v13.8H591.8z M594.7,235.4v-14.9h1.3v14.9H594.7z"/>
	<path d="M606.2,225c0,2.2-1.7,3.5-3.8,3.5c-2.1,0-3.9-1.4-3.9-3.5s1.8-3.6,3.9-3.6C604.5,221.4,606.2,222.8,606.2,225z M599.8,225
		c0,1.5,1.1,2.5,2.6,2.5c1.5,0,2.6-1,2.6-2.5c0-1.5-1-2.5-2.6-2.5C600.9,222.5,599.8,223.5,599.8,225z M609,235.4v-4.3h-8.6v-1.1
		h9.9v5.4H609z M609,229.3v-8.7h1.3v8.7H609z"/>
</g>
<g>
	<path d="M655.3,231.7v-9.4h1.1v3.7h1.1v-3.8h1.1v9.4H655.3z M657.5,227.1h-1.1v3.5h1.1V227.1z M659.5,231.7v-9.4h1.1v3.8h1.2v-3.8
		h1.1v9.4H659.5z M661.8,227.1h-1.2v3.5h1.2V227.1z M666.4,235.4v-7.8h-1.3v7H664v-13.7h1.2v5.6h1.3v-6h1.2v14.9H666.4z"/>
	<path d="M670,231.7v-9.4h1.1v3.7h1.1v-3.8h1.1v9.4H670z M672.3,227.1h-1.1v3.5h1.1V227.1z M674.3,231.7v-9.4h1.1v3.8h1.2v-3.8h1.1
		v9.4H674.3z M676.5,227.1h-1.2v3.5h1.2V227.1z M681.2,235.4v-7.8h-1.3v7h-1.2v-13.7h1.2v5.6h1.3v-6h1.2v14.9H681.2z"/>
	<path d="M684.4,233.5v-1.1h6v-2.5H686v-4.6h8.8v-2.4H686v-1.1h10.1v4.5h-8.8v2.5h9.2v1.1h-4.8v2.5h6.1v1.1H684.4z"/>
</g>
<g>
	<path d="M76.4,255.5v2.3h9.1v1.1h-4.6v2.9h6.1v1.1H73.5v-1.1h6v-2.9h-4.5v-7.7h10.2v1.1h-8.9v2.2h8.4v1.1H76.4z"/>
</g>
<g>
	<path d="M136.6,262.5v-1.1c0.5,0.2,1.2,0.3,2,0.3c1.3,0,1.8-0.7,1.8-1.9v-8.5h1.4v8.5c0,1.7-0.9,3-3.1,3
		C137.8,262.9,137.2,262.8,136.6,262.5z"/>
	<path d="M143.9,258.7v-0.2c0-2.9,1.7-4.2,3.7-4.2c2.3,0,3.4,1.3,3.4,4v0.7h-5.7c0.1,2.1,1.1,2.9,2.9,2.9c1.1,0,1.9-0.3,2.6-0.6v1
		c-0.5,0.4-1.5,0.8-2.8,0.8C145.2,263,143.9,261.3,143.9,258.7z M145.2,257.9h4.4c0-1.8-0.7-2.6-2.1-2.6
		C146.4,255.3,145.3,255.9,145.2,257.9z"/>
	<path d="M152.9,250.6h1.3v12.2h-1.3V250.6z"/>
	<path d="M156.8,250.6h1.3v12.2h-1.3V250.6z"/>
	<path d="M160.2,265.1v-1c0.2,0,0.5,0.1,0.8,0.1c0.8,0,1.3-0.1,1.7-1.1l0.3-0.7l-3.2-8.1h1.4l2.5,6.4h0l2.3-6.4h1.3l-3.3,9
		c-0.6,1.5-1.3,2-2.7,2C160.9,265.3,160.4,265.2,160.2,265.1z"/>
</g>
<g>
	<path d="M210.2,257.2v-0.3c0-4.1,2.3-5.7,5.2-5.7c1.2,0,2.1,0.3,2.8,0.6v1.1c-0.9-0.4-1.8-0.6-2.9-0.6c-2.2,0-3.7,1.3-3.7,4.3v0.6
		c0,2.9,1.1,4.6,3.7,4.6c1.4,0,2.3-0.4,3-0.7v1.1c-0.8,0.4-1.8,0.7-3.1,0.7C212.1,263,210.2,261.1,210.2,257.2z"/>
	<path d="M220.3,260.5v-6.1h1.3v5.9c0,1.1,0.4,1.5,1.6,1.5c0.9,0,1.6-0.3,2.3-0.7v-6.8h1.3v8.4h-1.1l-0.1-0.8h-0.1
		c-0.8,0.5-1.7,0.9-2.7,0.9C221.2,263,220.3,262.1,220.3,260.5z"/>
	<path d="M229.4,254.4h1.3v0.7h0.1c0.5-0.5,1.4-0.8,2.5-0.8c1.9,0,3.5,1,3.5,4.1v0.2c0,3.1-1.5,4.4-3.8,4.4c-1,0-1.7-0.3-2.2-0.6
		v2.9h-1.3V254.4z M235.3,258.8v-0.3c0-2.4-0.9-3.1-2.4-3.1c-1,0-1.8,0.3-2.2,0.6v5.4c0.4,0.3,1.2,0.6,2,0.6
		C234.3,261.9,235.3,261,235.3,258.8z"/>
	<path d="M238.1,258.8v-0.3c0-3,1.8-4.3,3.9-4.3c1.1,0,1.8,0.2,2.3,0.6v1.1c-0.7-0.3-1.3-0.5-2.4-0.5c-1.5,0-2.5,1-2.5,3v0.4
		c0,2.2,0.9,3.1,2.7,3.1c1.1,0,1.9-0.4,2.3-0.6v1.1c-0.5,0.3-1.3,0.7-2.5,0.7C239.6,263,238.1,261.5,238.1,258.8z"/>
	<path d="M245.7,260.6c0-1.5,1-2.3,2.6-2.4l2.3-0.3V257c0-1.3-0.6-1.6-2.1-1.6c-0.8,0-1.5,0.1-2,0.3v-0.9c0.7-0.3,1.5-0.5,2.5-0.5
		c1.9,0,2.9,0.8,2.9,2.5v6.1h-1.1l-0.1-0.7h-0.1c-0.4,0.5-1.1,0.9-2.2,0.9C246.8,263,245.7,262.2,245.7,260.6z M250.5,261.3v-2.5
		l-1.9,0.2c-1,0.1-1.5,0.5-1.5,1.5c0,0.9,0.6,1.4,1.6,1.4C249.4,261.9,250.2,261.7,250.5,261.3z"/>
	<path d="M254.3,250.6h1.3v12.2h-1.3V250.6z M255.7,258.5l3.4-4.1h1.4l-3.3,4l3.6,4.5h-1.5L255.7,258.5z"/>
	<path d="M261.9,258.7v-0.2c0-2.9,1.7-4.2,3.7-4.2c2.3,0,3.4,1.3,3.4,4v0.7h-5.7c0.1,2.1,1.1,2.9,2.9,2.9c1.1,0,1.9-0.3,2.6-0.6v1
		c-0.5,0.4-1.5,0.8-2.8,0.8C263.2,263,261.9,261.3,261.9,258.7z M263.2,257.9h4.4c0-1.8-0.7-2.6-2.1-2.6
		C264.5,255.3,263.3,255.9,263.2,257.9z"/>
</g>
<g>
	<path d="M303.7,257.3V257c0-4.3,2.5-5.8,5.4-5.8c1.4,0,2.3,0.3,3,0.7v1.2c-0.7-0.3-1.6-0.7-3.1-0.7c-2.8,0-3.8,2.1-3.8,4.5v0.5
		c0,2.7,0.8,4.6,3.9,4.6c0.8,0,1.6-0.1,2.1-0.3v-3.1h-2.4v-1.1h3.8v5.1c-0.9,0.3-2.1,0.6-3.5,0.6C305.8,263,303.7,261.2,303.7,257.3
		z"/>
	<path d="M314.9,254.4h1.2v1h0.1c0.5-0.5,1.4-1,2.3-1c0.2,0,0.4,0,0.5,0v1.2c-0.2,0-0.5-0.1-0.6-0.1c-0.9,0-1.7,0.3-2.3,0.7v6.6
		h-1.3V254.4z"/>
	<path d="M320.8,251.3h1.3v1.4h-1.3V251.3z M320.8,254.4h1.3v8.4h-1.3V254.4z"/>
	<path d="M324.1,262.3v-1c0.7,0.3,1.3,0.5,2.5,0.5c1.3,0,1.9-0.5,1.9-1.2c0-0.8-0.4-1.1-1.5-1.4l-0.8-0.2c-1.2-0.3-2.1-0.9-2.1-2.3
		s0.9-2.4,2.9-2.4c1.1,0,1.9,0.3,2.3,0.5v1.1c-0.4-0.2-1.3-0.4-2.2-0.4c-1.1,0-1.7,0.4-1.7,1.2c0,0.7,0.4,1,1.3,1.3l0.9,0.2
		c1.6,0.4,2.3,1,2.3,2.4c0,1.6-1.1,2.5-3,2.5C325.7,262.9,324.8,262.7,324.1,262.3z"/>
	<path d="M331.1,262.3v-1c0.7,0.3,1.3,0.5,2.5,0.5c1.3,0,1.9-0.5,1.9-1.2c0-0.8-0.4-1.1-1.5-1.4l-0.8-0.2c-1.2-0.3-2.1-0.9-2.1-2.3
		s0.9-2.4,2.9-2.4c1.1,0,1.9,0.3,2.3,0.5v1.1c-0.4-0.2-1.3-0.4-2.2-0.4c-1.1,0-1.7,0.4-1.7,1.2c0,0.7,0.4,1,1.3,1.3l0.9,0.2
		c1.6,0.4,2.3,1,2.3,2.4c0,1.6-1.1,2.5-3,2.5C332.7,262.9,331.8,262.7,331.1,262.3z"/>
	<path d="M338.7,251.3h1.3v1.4h-1.3V251.3z M338.7,254.4h1.3v8.4h-1.3V254.4z"/>
	<path d="M342.5,254.4h1.2v0.7h0.1c0.8-0.5,1.9-0.9,2.9-0.9c1.6,0,2.4,0.7,2.4,2.3v6.3h-1.3v-6c0-1-0.4-1.4-1.7-1.4
		c-0.8,0-1.7,0.3-2.4,0.6v6.9h-1.3V254.4z"/>
	<path d="M351.7,251.3h1.3v1.4h-1.3V251.3z M351.7,254.4h1.3v8.4h-1.3V254.4z"/>
</g>
<g>
	<path d="M400.7,262.5v-1.1c0.5,0.2,1.2,0.3,2,0.3c1.3,0,1.8-0.7,1.8-1.9v-8.5h1.4v8.5c0,1.7-0.9,3-3.1,3
		C401.9,262.9,401.3,262.8,400.7,262.5z"/>
	<path d="M408,258.7v-0.2c0-2.9,1.7-4.2,3.7-4.2c2.3,0,3.4,1.3,3.4,4v0.7h-5.7c0.1,2.1,1.1,2.9,2.9,2.9c1.1,0,1.9-0.3,2.6-0.6v1
		c-0.5,0.4-1.5,0.8-2.8,0.8C409.3,263,408,261.3,408,258.7z M409.3,257.9h4.4c0-1.8-0.7-2.6-2.1-2.6
		C410.5,255.3,409.4,255.9,409.3,257.9z"/>
	<path d="M417,250.6h1.3v12.2H417V250.6z"/>
	<path d="M420.9,250.6h1.3v12.2h-1.3V250.6z"/>
	<path d="M424.3,265.1v-1c0.2,0,0.5,0.1,0.8,0.1c0.8,0,1.3-0.1,1.7-1.1l0.3-0.7l-3.2-8.1h1.4l2.5,6.4h0l2.3-6.4h1.3l-3.3,9
		c-0.6,1.5-1.3,2-2.7,2C425,265.3,424.5,265.2,424.3,265.1z"/>
</g>
<g>
	<path d="M472.8,257.2v-0.3c0-4.1,2.3-5.7,5.2-5.7c1.2,0,2.1,0.3,2.8,0.6v1.1c-0.9-0.4-1.8-0.6-2.9-0.6c-2.2,0-3.7,1.3-3.7,4.3v0.6
		c0,2.9,1.1,4.6,3.7,4.6c1.4,0,2.3-0.4,3-0.7v1.1c-0.8,0.4-1.8,0.7-3.1,0.7C474.6,263,472.8,261.1,472.8,257.2z"/>
	<path d="M482.9,260.5v-6.1h1.3v5.9c0,1.1,0.4,1.5,1.6,1.5c0.9,0,1.6-0.3,2.3-0.7v-6.8h1.3v8.4h-1.1l-0.1-0.8h-0.1
		c-0.8,0.5-1.7,0.9-2.7,0.9C483.8,263,482.9,262.1,482.9,260.5z"/>
	<path d="M491.9,254.4h1.3v0.7h0.1c0.5-0.5,1.4-0.8,2.5-0.8c1.9,0,3.5,1,3.5,4.1v0.2c0,3.1-1.5,4.4-3.8,4.4c-1,0-1.7-0.3-2.2-0.6
		v2.9h-1.3V254.4z M497.8,258.8v-0.3c0-2.4-0.9-3.1-2.4-3.1c-1,0-1.8,0.3-2.2,0.6v5.4c0.4,0.3,1.2,0.6,2,0.6
		C496.9,261.9,497.8,261,497.8,258.8z"/>
	<path d="M500.7,258.8v-0.3c0-3,1.8-4.3,3.9-4.3c1.1,0,1.8,0.2,2.3,0.6v1.1c-0.7-0.3-1.3-0.5-2.4-0.5c-1.5,0-2.5,1-2.5,3v0.4
		c0,2.2,0.9,3.1,2.7,3.1c1.1,0,1.9-0.4,2.3-0.6v1.1c-0.5,0.3-1.3,0.7-2.5,0.7C502.1,263,500.7,261.5,500.7,258.8z"/>
	<path d="M508.2,260.6c0-1.5,1-2.3,2.6-2.4l2.3-0.3V257c0-1.3-0.6-1.6-2.1-1.6c-0.8,0-1.5,0.1-2,0.3v-0.9c0.7-0.3,1.5-0.5,2.5-0.5
		c1.9,0,2.9,0.8,2.9,2.5v6.1h-1.1l-0.1-0.7h-0.1c-0.4,0.5-1.1,0.9-2.2,0.9C509.3,263,508.2,262.2,508.2,260.6z M513.1,261.3v-2.5
		l-1.9,0.2c-1,0.1-1.5,0.5-1.5,1.5c0,0.9,0.6,1.4,1.6,1.4C512,261.9,512.7,261.7,513.1,261.3z"/>
	<path d="M516.8,250.6h1.3v12.2h-1.3V250.6z M518.3,258.5l3.4-4.1h1.4l-3.3,4l3.6,4.5h-1.5L518.3,258.5z"/>
	<path d="M524.4,258.7v-0.2c0-2.9,1.7-4.2,3.7-4.2c2.3,0,3.4,1.3,3.4,4v0.7h-5.7c0.1,2.1,1.1,2.9,2.9,2.9c1.1,0,1.9-0.3,2.6-0.6v1
		c-0.5,0.4-1.5,0.8-2.8,0.8C525.8,263,524.4,261.3,524.4,258.7z M525.7,257.9h4.4c0-1.8-0.7-2.6-2.1-2.6
		C527,255.3,525.9,255.9,525.7,257.9z"/>
</g>
<g>
	<path d="M565.3,257.3V257c0-4.3,2.5-5.8,5.4-5.8c1.4,0,2.3,0.3,3,0.7v1.2c-0.7-0.3-1.6-0.7-3.1-0.7c-2.8,0-3.8,2.1-3.8,4.5v0.5
		c0,2.7,0.8,4.6,3.9,4.6c0.8,0,1.6-0.1,2.1-0.3v-3.1h-2.4v-1.1h3.8v5.1c-0.9,0.3-2.1,0.6-3.5,0.6C567.3,263,565.3,261.2,565.3,257.3
		z"/>
	<path d="M576.5,254.4h1.2v1h0.1c0.5-0.5,1.4-1,2.3-1c0.2,0,0.4,0,0.5,0v1.2c-0.2,0-0.5-0.1-0.6-0.1c-0.8,0-1.7,0.3-2.3,0.7v6.6
		h-1.3V254.4z"/>
	<path d="M582.4,251.3h1.3v1.4h-1.3V251.3z M582.4,254.4h1.3v8.4h-1.3V254.4z"/>
	<path d="M585.7,262.3v-1c0.7,0.3,1.3,0.5,2.5,0.5c1.3,0,1.9-0.5,1.9-1.2c0-0.8-0.4-1.1-1.5-1.4l-0.8-0.2c-1.2-0.3-2.1-0.9-2.1-2.3
		s0.9-2.4,2.9-2.4c1.1,0,1.9,0.3,2.3,0.5v1.1c-0.4-0.2-1.3-0.4-2.2-0.4c-1.1,0-1.7,0.4-1.7,1.2c0,0.7,0.4,1,1.3,1.3l0.8,0.2
		c1.6,0.4,2.3,1,2.3,2.4c0,1.6-1.1,2.5-3,2.5C587.3,262.9,586.3,262.7,585.7,262.3z"/>
	<path d="M592.7,262.3v-1c0.7,0.3,1.3,0.5,2.5,0.5c1.3,0,1.9-0.5,1.9-1.2c0-0.8-0.4-1.1-1.5-1.4l-0.8-0.2c-1.2-0.3-2.1-0.9-2.1-2.3
		s0.9-2.4,2.9-2.4c1.1,0,1.9,0.3,2.3,0.5v1.1c-0.4-0.2-1.3-0.4-2.2-0.4c-1.1,0-1.7,0.4-1.7,1.2c0,0.7,0.4,1,1.3,1.3l0.8,0.2
		c1.6,0.4,2.3,1,2.3,2.4c0,1.6-1.1,2.5-3,2.5C594.3,262.9,593.4,262.7,592.7,262.3z"/>
	<path d="M600.3,251.3h1.3v1.4h-1.3V251.3z M600.3,254.4h1.3v8.4h-1.3V254.4z"/>
	<path d="M604.1,254.4h1.2v0.7h0.1c0.8-0.5,1.9-0.9,2.9-0.9c1.6,0,2.4,0.7,2.4,2.3v6.3h-1.3v-6c0-1-0.4-1.4-1.7-1.4
		c-0.8,0-1.7,0.3-2.4,0.6v6.9h-1.3V254.4z"/>
	<path d="M613.3,251.3h1.3v1.4h-1.3V251.3z M613.3,254.4h1.3v8.4h-1.3V254.4z"/>
</g>
<g>
	<path d="M662.6,257.9c-1.4-0.7-2.9-2-3.5-3.5c-0.5,1.5-1.9,3.1-3.6,4l-0.8-1c2.1-1,3.7-2.9,3.7-5.3v-1.5h1.3v1.4
		c0,2.4,2,4.2,3.6,4.8L662.6,257.9z M662.2,264.7c-3.2,0-5-1.1-5-2.8s1.8-2.8,5-2.8c3.2,0,5,1.1,5,2.8S665.4,264.7,662.2,264.7z
		 M658.5,261.9c0,1.1,1.4,1.8,3.7,1.8c2.3,0,3.7-0.6,3.7-1.8c0-1.1-1.4-1.8-3.7-1.8C659.9,260.1,658.5,260.8,658.5,261.9z
		 M662.5,254.3v-1.1h3.2v-3.4h1.3v9.2h-1.3v-4.7H662.5z"/>
	<path d="M678,254.5c0,2.2-1.7,3.7-4,3.7s-4-1.5-4-3.7c0-2.2,1.8-3.7,4-3.7C676.2,250.8,678,252.3,678,254.5z M671.2,254.5
		c0,1.5,1.2,2.5,2.8,2.5c1.6,0,2.8-1.1,2.8-2.5c0-1.5-1.1-2.6-2.8-2.6C672.4,252,671.2,253,671.2,254.5z M672.1,264.2v-4.6h1.3v3.5
		h8.8v1.1H672.1z M680.5,260.7v-10.8h1.3v10.8H680.5z"/>
	<path d="M684.8,258.4v-7.5h1.3v2.5h4.4v-2.5h1.3v7.5H684.8z M690.5,254.5h-4.4v2.9h4.4V254.5z M686.3,264.2v-4.6h1.3v3.5h8.7v1.1
		H686.3z M695.8,255.4v5.3h-1.3v-10.8h1.3v4.4h2.3v1.1H695.8z"/>
</g>
<g>
	<path d="M81.6,281.3c0,2-1.7,3.3-3.8,3.3c-2.1,0-3.9-1.3-3.9-3.3c0-2,1.7-3.4,3.9-3.4C79.9,277.9,81.6,279.3,81.6,281.3z
		 M75.2,281.3c0,1.3,1.1,2.2,2.6,2.2c1.5,0,2.6-0.9,2.6-2.2c0-1.3-1-2.2-2.6-2.2C76.3,279,75.2,279.9,75.2,281.3z M76,292.1v-3.8
		h8.3v-1.5H76v-1.1h9.7v3.6h-8.3v1.7h8.9v1.1H76z M84.4,285v-7.5h1.3v7.5H84.4z"/>
</g>
<g>
	<path d="M122.5,284.8v-0.3c0-4.1,2.3-5.7,5.2-5.7c1.2,0,2.1,0.3,2.8,0.6v1.1c-0.9-0.4-1.8-0.6-2.9-0.6c-2.2,0-3.7,1.3-3.7,4.3v0.6
		c0,2.9,1.1,4.6,3.7,4.6c1.4,0,2.3-0.4,3-0.7v1.1c-0.8,0.4-1.8,0.7-3.1,0.7C124.4,290.6,122.5,288.7,122.5,284.8z"/>
	<path d="M132.6,288.1V282h1.3v5.9c0,1.1,0.4,1.5,1.6,1.5c0.9,0,1.6-0.3,2.3-0.7V282h1.3v8.4h-1.1l-0.1-0.8h-0.1
		c-0.8,0.5-1.7,0.9-2.7,0.9C133.6,290.6,132.6,289.7,132.6,288.1z"/>
	<path d="M141.7,282h1.3v0.7h0.1c0.5-0.5,1.4-0.8,2.5-0.8c1.9,0,3.5,1,3.5,4.1v0.2c0,3.1-1.5,4.4-3.8,4.4c-1,0-1.7-0.3-2.2-0.6v2.9
		h-1.3V282z M147.6,286.4V286c0-2.4-0.9-3.1-2.4-3.1c-1,0-1.8,0.3-2.2,0.6v5.4c0.4,0.3,1.2,0.6,2,0.6
		C146.6,289.5,147.6,288.6,147.6,286.4z"/>
	<path d="M150.4,286.4v-0.3c0-3,1.8-4.3,3.9-4.3c1.1,0,1.8,0.2,2.3,0.6v1.1c-0.7-0.3-1.3-0.5-2.4-0.5c-1.5,0-2.5,1-2.5,3v0.4
		c0,2.2,0.9,3.1,2.7,3.1c1.1,0,1.9-0.4,2.3-0.6v1.1c-0.5,0.3-1.3,0.7-2.5,0.7C151.9,290.6,150.4,289.1,150.4,286.4z"/>
	<path d="M158,288.2c0-1.5,1-2.3,2.6-2.4l2.3-0.3v-0.9c0-1.3-0.6-1.6-2.1-1.6c-0.8,0-1.5,0.1-2,0.3v-0.9c0.7-0.3,1.5-0.5,2.5-0.5
		c1.9,0,2.9,0.8,2.9,2.5v6.1h-1.1l-0.1-0.7h-0.1c-0.4,0.5-1.1,0.9-2.2,0.9C159.1,290.6,158,289.8,158,288.2z M162.8,288.9v-2.5
		l-1.9,0.2c-1,0.1-1.5,0.5-1.5,1.5c0,0.9,0.6,1.4,1.6,1.4C161.7,289.5,162.5,289.3,162.8,288.9z"/>
	<path d="M166.6,278.2h1.3v12.2h-1.3V278.2z M168,286.1l3.4-4.1h1.4l-3.3,4l3.6,4.5h-1.5L168,286.1z"/>
	<path d="M174.2,286.3v-0.2c0-2.9,1.7-4.2,3.7-4.2c2.3,0,3.4,1.3,3.4,4v0.7h-5.7c0.1,2.1,1.1,2.9,2.9,2.9c1.1,0,1.9-0.3,2.6-0.6v1
		c-0.5,0.4-1.5,0.8-2.8,0.8C175.5,290.6,174.2,288.9,174.2,286.3z M175.5,285.5h4.4c0-1.8-0.7-2.6-2.1-2.6
		C176.8,282.9,175.6,283.5,175.5,285.5z"/>
</g>
<g>
	<path d="M214.6,284.9v-0.3c0-4.3,2.5-5.8,5.4-5.8c1.4,0,2.3,0.3,3,0.7v1.2c-0.7-0.3-1.6-0.7-3.1-0.7c-2.8,0-3.8,2.1-3.8,4.5v0.5
		c0,2.7,0.8,4.6,3.9,4.6c0.8,0,1.6-0.1,2.1-0.3V286h-2.4v-1.1h3.8v5.1c-0.9,0.3-2.1,0.6-3.5,0.6
		C216.7,290.6,214.6,288.8,214.6,284.9z"/>
	<path d="M225.8,282h1.2v1h0.1c0.5-0.5,1.4-1,2.3-1c0.2,0,0.4,0,0.5,0v1.2c-0.2,0-0.5-0.1-0.6-0.1c-0.9,0-1.7,0.3-2.3,0.7v6.6h-1.3
		V282z"/>
	<path d="M231.7,278.9h1.3v1.4h-1.3V278.9z M231.7,282h1.3v8.4h-1.3V282z"/>
	<path d="M235,289.9v-1c0.7,0.3,1.3,0.5,2.5,0.5c1.3,0,1.9-0.5,1.9-1.2c0-0.8-0.4-1.1-1.5-1.4l-0.8-0.2c-1.2-0.3-2.1-0.9-2.1-2.3
		s0.9-2.4,2.9-2.4c1.1,0,1.9,0.3,2.3,0.5v1.1c-0.4-0.2-1.3-0.4-2.2-0.4c-1.1,0-1.7,0.4-1.7,1.2c0,0.7,0.4,1,1.3,1.3l0.9,0.2
		c1.6,0.4,2.3,1,2.3,2.4c0,1.6-1.1,2.5-3,2.5C236.6,290.5,235.7,290.3,235,289.9z"/>
	<path d="M242,289.9v-1c0.7,0.3,1.3,0.5,2.5,0.5c1.3,0,1.9-0.5,1.9-1.2c0-0.8-0.4-1.1-1.5-1.4l-0.8-0.2c-1.2-0.3-2.1-0.9-2.1-2.3
		s0.9-2.4,2.9-2.4c1.1,0,1.9,0.3,2.3,0.5v1.1c-0.4-0.2-1.3-0.4-2.2-0.4c-1.1,0-1.7,0.4-1.7,1.2c0,0.7,0.4,1,1.3,1.3l0.9,0.2
		c1.6,0.4,2.3,1,2.3,2.4c0,1.6-1.1,2.5-3,2.5C243.6,290.5,242.7,290.3,242,289.9z"/>
	<path d="M249.6,278.9h1.3v1.4h-1.3V278.9z M249.6,282h1.3v8.4h-1.3V282z"/>
	<path d="M253.5,282h1.2v0.7h0.1c0.8-0.5,1.9-0.9,2.9-0.9c1.6,0,2.4,0.7,2.4,2.3v6.3h-1.3v-6c0-1-0.4-1.4-1.7-1.4
		c-0.8,0-1.7,0.3-2.4,0.6v6.9h-1.3V282z"/>
	<path d="M262.6,278.9h1.3v1.4h-1.3V278.9z M262.6,282h1.3v8.4h-1.3V282z"/>
</g>
<g>
	<path d="M313.4,290.1V289c0.5,0.2,1.2,0.3,2,0.3c1.3,0,1.8-0.7,1.8-1.9V279h1.4v8.5c0,1.7-0.9,3-3.1,3
		C314.6,290.5,314,290.4,313.4,290.1z"/>
	<path d="M320.6,286.3v-0.2c0-2.9,1.7-4.2,3.7-4.2c2.3,0,3.4,1.3,3.4,4v0.7H322c0.1,2.1,1.1,2.9,2.9,2.9c1.1,0,1.9-0.3,2.6-0.6v1
		c-0.5,0.4-1.5,0.8-2.8,0.8C322,290.6,320.6,288.9,320.6,286.3z M322,285.5h4.4c0-1.8-0.7-2.6-2.1-2.6
		C323.2,282.9,322.1,283.5,322,285.5z"/>
	<path d="M329.7,278.2h1.3v12.2h-1.3V278.2z"/>
	<path d="M333.6,278.2h1.3v12.2h-1.3V278.2z"/>
	<path d="M337,292.7v-1c0.2,0,0.5,0.1,0.8,0.1c0.8,0,1.3-0.1,1.7-1.1l0.3-0.7l-3.2-8.1h1.4l2.5,6.4h0l2.3-6.4h1.3l-3.3,9
		c-0.6,1.5-1.3,2-2.7,2C337.6,292.9,337.2,292.8,337,292.7z"/>
</g>
<g>
	<path d="M400.7,290.1V289c0.5,0.2,1.2,0.3,2,0.3c1.3,0,1.8-0.7,1.8-1.9V279h1.4v8.5c0,1.7-0.9,3-3.1,3
		C401.9,290.5,401.3,290.4,400.7,290.1z"/>
	<path d="M408,286.3v-0.2c0-2.9,1.7-4.2,3.7-4.2c2.3,0,3.4,1.3,3.4,4v0.7h-5.7c0.1,2.1,1.1,2.9,2.9,2.9c1.1,0,1.9-0.3,2.6-0.6v1
		c-0.5,0.4-1.5,0.8-2.8,0.8C409.3,290.6,408,288.9,408,286.3z M409.3,285.5h4.4c0-1.8-0.7-2.6-2.1-2.6
		C410.5,282.9,409.4,283.5,409.3,285.5z"/>
	<path d="M417,278.2h1.3v12.2H417V278.2z"/>
	<path d="M420.9,278.2h1.3v12.2h-1.3V278.2z"/>
	<path d="M424.3,292.7v-1c0.2,0,0.5,0.1,0.8,0.1c0.8,0,1.3-0.1,1.7-1.1l0.3-0.7l-3.2-8.1h1.4l2.5,6.4h0l2.3-6.4h1.3l-3.3,9
		c-0.6,1.5-1.3,2-2.7,2C425,292.9,424.5,292.8,424.3,292.7z"/>
</g>
<g>
	<path d="M472.8,284.8v-0.3c0-4.1,2.3-5.7,5.2-5.7c1.2,0,2.1,0.3,2.8,0.6v1.1c-0.9-0.4-1.8-0.6-2.9-0.6c-2.2,0-3.7,1.3-3.7,4.3v0.6
		c0,2.9,1.1,4.6,3.7,4.6c1.4,0,2.3-0.4,3-0.7v1.1c-0.8,0.4-1.8,0.7-3.1,0.7C474.6,290.6,472.8,288.7,472.8,284.8z"/>
	<path d="M482.9,288.1V282h1.3v5.9c0,1.1,0.4,1.5,1.6,1.5c0.9,0,1.6-0.3,2.3-0.7V282h1.3v8.4h-1.1l-0.1-0.8h-0.1
		c-0.8,0.5-1.7,0.9-2.7,0.9C483.8,290.6,482.9,289.7,482.9,288.1z"/>
	<path d="M491.9,282h1.3v0.7h0.1c0.5-0.5,1.4-0.8,2.5-0.8c1.9,0,3.5,1,3.5,4.1v0.2c0,3.1-1.5,4.4-3.8,4.4c-1,0-1.7-0.3-2.2-0.6v2.9
		h-1.3V282z M497.8,286.4V286c0-2.4-0.9-3.1-2.4-3.1c-1,0-1.8,0.3-2.2,0.6v5.4c0.4,0.3,1.2,0.6,2,0.6
		C496.9,289.5,497.8,288.6,497.8,286.4z"/>
	<path d="M500.7,286.4v-0.3c0-3,1.8-4.3,3.9-4.3c1.1,0,1.8,0.2,2.3,0.6v1.1c-0.7-0.3-1.3-0.5-2.4-0.5c-1.5,0-2.5,1-2.5,3v0.4
		c0,2.2,0.9,3.1,2.7,3.1c1.1,0,1.9-0.4,2.3-0.6v1.1c-0.5,0.3-1.3,0.7-2.5,0.7C502.1,290.6,500.7,289.1,500.7,286.4z"/>
	<path d="M508.2,288.2c0-1.5,1-2.3,2.6-2.4l2.3-0.3v-0.9c0-1.3-0.6-1.6-2.1-1.6c-0.8,0-1.5,0.1-2,0.3v-0.9c0.7-0.3,1.5-0.5,2.5-0.5
		c1.9,0,2.9,0.8,2.9,2.5v6.1h-1.1l-0.1-0.7h-0.1c-0.4,0.5-1.1,0.9-2.2,0.9C509.3,290.6,508.2,289.8,508.2,288.2z M513.1,288.9v-2.5
		l-1.9,0.2c-1,0.1-1.5,0.5-1.5,1.5c0,0.9,0.6,1.4,1.6,1.4C512,289.5,512.7,289.3,513.1,288.9z"/>
	<path d="M516.8,278.2h1.3v12.2h-1.3V278.2z M518.3,286.1l3.4-4.1h1.4l-3.3,4l3.6,4.5h-1.5L518.3,286.1z"/>
	<path d="M524.4,286.3v-0.2c0-2.9,1.7-4.2,3.7-4.2c2.3,0,3.4,1.3,3.4,4v0.7h-5.7c0.1,2.1,1.1,2.9,2.9,2.9c1.1,0,1.9-0.3,2.6-0.6v1
		c-0.5,0.4-1.5,0.8-2.8,0.8C525.8,290.6,524.4,288.9,524.4,286.3z M525.7,285.5h4.4c0-1.8-0.7-2.6-2.1-2.6
		C527,282.9,525.9,283.5,525.7,285.5z"/>
</g>
<g>
	<path d="M576.4,285.5c-1.4-0.7-2.9-2-3.5-3.5c-0.5,1.5-1.9,3.1-3.6,4l-0.8-1c2.1-1,3.7-2.9,3.7-5.3v-1.5h1.3v1.4
		c0,2.4,2,4.2,3.6,4.8L576.4,285.5z M576,292.3c-3.2,0-5-1.1-5-2.8s1.8-2.8,5-2.8c3.2,0,5,1.1,5,2.8S579.2,292.3,576,292.3z
		 M572.3,289.5c0,1.1,1.4,1.8,3.7,1.8c2.3,0,3.7-0.6,3.7-1.8c0-1.1-1.4-1.8-3.7-1.8C573.7,287.7,572.3,288.4,572.3,289.5z
		 M576.3,281.9v-1.1h3.2v-3.4h1.3v9.2h-1.3v-4.7H576.3z"/>
	<path d="M591.7,282.1c0,2.2-1.7,3.7-4,3.7s-4-1.5-4-3.7s1.8-3.7,4-3.7C590,278.4,591.7,279.9,591.7,282.1z M585,282.1
		c0,1.5,1.2,2.5,2.8,2.5c1.6,0,2.8-1.1,2.8-2.5c0-1.5-1.1-2.6-2.8-2.6C586.2,279.6,585,280.6,585,282.1z M585.9,291.8v-4.6h1.3v3.5
		h8.8v1.1H585.9z M594.3,288.3v-10.8h1.3v10.8H594.3z"/>
	<path d="M598.6,286v-7.5h1.3v2.5h4.4v-2.5h1.3v7.5H598.6z M604.3,282.1h-4.4v2.9h4.4V282.1z M600.1,291.8v-4.6h1.3v3.5h8.7v1.1
		H600.1z M609.6,283v5.3h-1.3v-10.8h1.3v4.4h2.3v1.1H609.6z"/>
</g>
<g>
	<path d="M662.6,285.5c-1.4-0.7-2.9-2-3.5-3.5c-0.5,1.5-1.9,3.1-3.6,4l-0.8-1c2.1-1,3.7-2.9,3.7-5.3v-1.5h1.3v1.4
		c0,2.4,2,4.2,3.6,4.8L662.6,285.5z M662.2,292.3c-3.2,0-5-1.1-5-2.8s1.8-2.8,5-2.8c3.2,0,5,1.1,5,2.8S665.4,292.3,662.2,292.3z
		 M658.5,289.5c0,1.1,1.4,1.8,3.7,1.8c2.3,0,3.7-0.6,3.7-1.8c0-1.1-1.4-1.8-3.7-1.8C659.9,287.7,658.5,288.4,658.5,289.5z
		 M662.5,281.9v-1.1h3.2v-3.4h1.3v9.2h-1.3v-4.7H662.5z"/>
	<path d="M678,282.1c0,2.2-1.7,3.7-4,3.7s-4-1.5-4-3.7s1.8-3.7,4-3.7C676.2,278.4,678,279.9,678,282.1z M671.2,282.1
		c0,1.5,1.2,2.5,2.8,2.5c1.6,0,2.8-1.1,2.8-2.5c0-1.5-1.1-2.6-2.8-2.6C672.4,279.6,671.2,280.6,671.2,282.1z M672.1,291.8v-4.6h1.3
		v3.5h8.8v1.1H672.1z M680.5,288.3v-10.8h1.3v10.8H680.5z"/>
	<path d="M684.8,286v-7.5h1.3v2.5h4.4v-2.5h1.3v7.5H684.8z M690.5,282.1h-4.4v2.9h4.4V282.1z M686.3,291.8v-4.6h1.3v3.5h8.7v1.1
		H686.3z M695.8,283v5.3h-1.3v-10.8h1.3v4.4h2.3v1.1H695.8z"/>
</g>
<g>
	<path d="M63.5,45.5l0.2,1.7c-1.2,0.3-3.6,0.4-5.4,0.4h-1.5V37.3h6.1V39c-1.3,0-2.6,0-4,0v6.9C60.5,45.9,62.5,45.8,63.5,45.5z
		 M68,51.4v-8h-1.4v7.3h-2v-15h2v6H68v-6.3h2v16H68z"/>
	<path d="M84.1,43.1h2.4v1.7h-6.2v6.7h-2.1v-6.7H72v-1.7h10.1c0.3-1.4,0.4-3.2,0.4-5.1h-8.8v-1.7h10.9
		C84.6,38.8,84.4,41.2,84.1,43.1z"/>
	<path d="M88.1,36.4h8.5v1.7h-3.1c0.1,2.3,1.8,3.8,3.6,4.4l-1.2,1.7c-1.2-0.5-2.8-1.7-3.5-3.2c-0.5,1.6-2.2,3.1-3.7,3.6L87.5,43
		c2.2-0.8,3.8-2.5,3.9-4.9h-3.2V36.4z M90.2,51.2v-5.9h10.7v5.9H90.2z M98.7,46.9h-6.5v2.7h6.5V46.9z M98.7,44.5v-3.6h-2.4v-1.7h2.4
		v-3.9h2.1v9.1H98.7z"/>
</g>
<g>
	<path d="M261.4,347.4l-1.1,0.7l-0.3-0.6l1.1-0.6l-1.1-0.6l0.3-0.6l1.1,0.7l0-1.3h0.7l0,1.3l1.1-0.7l0.3,0.6l-1.1,0.6l1.1,0.6
		l-0.3,0.6l-1.1-0.7l0,1.3h-0.7L261.4,347.4z"/>
</g>
<g>
	<path d="M269.9,349.9c-1-0.5-2.1-1.4-2.5-2.4c-0.3,1.1-1.3,2.2-2.5,2.8l-0.6-0.7c1.5-0.7,2.6-2,2.6-3.7v-1h0.9v1
		c0,1.7,1.4,2.9,2.6,3.4L269.9,349.9z M269.6,354.7c-2.2,0-3.5-0.8-3.5-2s1.3-2,3.5-2c2.3,0,3.5,0.8,3.5,2S271.8,354.7,269.6,354.7z
		 M267,352.7c0,0.8,1,1.2,2.6,1.2c1.6,0,2.6-0.4,2.6-1.2c0-0.8-1-1.2-2.6-1.2C268,351.5,267,351.9,267,352.7z M269.8,347.4v-0.8h2.3
		v-2.4h0.9v6.5h-0.9v-3.3H269.8z"/>
	<path d="M280.7,347.5c0,1.6-1.2,2.6-2.8,2.6s-2.8-1-2.8-2.6c0-1.6,1.2-2.6,2.8-2.6C279.5,344.9,280.7,346,280.7,347.5z
		 M275.9,347.5c0,1.1,0.9,1.8,2,1.8c1.2,0,2-0.7,2-1.8c0-1.1-0.8-1.8-2-1.8C276.8,345.7,275.9,346.5,275.9,347.5z M276.5,354.4v-3.2
		h0.9v2.5h6.2v0.8H276.5z M282.5,351.9v-7.7h0.9v7.7H282.5z"/>
	<path d="M285.5,350.3v-5.3h0.9v1.8h3.1v-1.8h0.9v5.3H285.5z M289.6,347.5h-3.1v2h3.1V347.5z M286.6,354.4v-3.2h0.9v2.5h6.2v0.8
		H286.6z M293.3,348.1v3.7h-0.9v-7.6h0.9v3.1h1.6v0.8H293.3z"/>
	<path d="M295.6,350.4v-0.8h9.5v0.8H295.6z M300.3,348.7c-2.3,0-3.6-0.7-3.6-2.1c0-1.3,1.4-2.1,3.6-2.1c2.3,0,3.6,0.7,3.6,2.1
		C304,347.9,302.6,348.7,300.3,348.7z M296.8,354.4v-3.1h0.9v2.3h6.2v0.8H296.8z M297.6,346.6c0,0.9,1.1,1.3,2.7,1.3
		c1.7,0,2.8-0.4,2.8-1.3c0-0.9-1.1-1.3-2.7-1.3C298.7,345.3,297.6,345.7,297.6,346.6z"/>
</g>
<g>
	<path d="M312,351.9V350c-1,0-2,0.1-2.9,0.1l-0.1-0.8c1.1,0,2.4,0,3.5,0c1.2,0,2.3-0.2,3.3-0.3l0.1,0.7c-0.7,0.1-1.8,0.2-2.9,0.2v2
		H312z M312.4,348.6c-1.6,0-2.8-0.7-2.8-1.9c0-1.2,1.2-1.9,2.8-1.9s2.8,0.8,2.8,1.9C315.2,347.9,314,348.6,312.4,348.6z
		 M310.4,354.5v-3h0.9v2.3h6.6v0.8H310.4z M312.4,345.5c-1.1,0-1.9,0.5-1.9,1.2c0,0.7,0.8,1.2,1.9,1.2s1.9-0.5,1.9-1.2
		S313.5,345.5,312.4,345.5z M316.8,352.3v-1.1h-2.2v-0.7h2.2v-6.2h0.9v8.1H316.8z"/>
	<path d="M319.4,347.5v-0.8h6.2v0.8H319.4z M322.5,352.5c-1.5,0-2.4-0.9-2.4-2.2c0-1.2,1-2.2,2.4-2.2c1.5,0,2.4,0.9,2.4,2.2
		C325,351.6,324,352.5,322.5,352.5z M321,345.7V345h3.1v0.8H321z M322.5,349c-0.9,0-1.5,0.6-1.5,1.4c0,0.8,0.7,1.4,1.5,1.4
		c0.9,0,1.5-0.6,1.5-1.4C324,349.5,323.4,349,322.5,349z M327.5,349.4v5.3h-0.9v-10.5h0.9v4.4h1.7v0.8H327.5z"/>
	<path d="M329.8,350.4v-0.8h9.5v0.8H329.8z M331.1,354.5v-3.1h0.9v2.3h6.3v0.8H331.1z M331.1,348.3v-3.7h0.9v2.9h6.2v0.8H331.1z"/>
</g>
<g>
	<path d="M351.2,348.6h1.6v0.7h-9.5v-0.7h6.9c0.1-0.4,0.2-0.9,0.2-1.5l-6.2,0.3l-0.1-0.8l6.4-0.2c0-0.3,0-0.6,0-0.9h-6.1v-0.8h7
		C351.5,346.2,351.4,347.6,351.2,348.6z M344.4,354.5V352h6.3v-1h-6.3v-0.7h7.2v2.4h-6.3v1.1h6.7v0.7H344.4z"/>
	<path d="M358.8,351.8c-1.1,0.2-2.8,0.3-4.1,0.3H354v-3.9h3.1v-2.1H354v-0.8h4.1v3.6h-3.1v2.4c0.9,0,2.7-0.1,3.8-0.3L358.8,351.8z
		 M361.6,354.7v-5.5h-1.4v5h-0.9v-9.7h0.9v3.9h1.4v-4.2h0.9v10.5H361.6z"/>
	<path d="M364.1,353.3v-0.8h9.5v0.8H364.1z M372.7,350.4c-1.8-0.5-3.5-2-3.9-3.1c-0.4,1.1-2,2.6-3.9,3.1l-0.5-0.8
		c1.7-0.3,3.9-2,3.9-3.7v-0.8h0.9v0.8c0,1.7,2.3,3.3,3.9,3.7L372.7,350.4z"/>
	<path d="M374.5,353.4v-0.8h4.3v-1.8h-3.1v-3.3h6.2v-1.7h-6.2v-0.8h7.1v3.2h-6.2v1.8h6.5v0.8h-3.4v1.8h4.3v0.8H374.5z"/>
</g>
<g>
	<path d="M389.6,346.3l-1.5,0.3v-0.6l1.9-0.9h0.5v8.2h-0.9V346.3z"/>
	<path d="M392.9,347.2h1v1.1h-1V347.2z M392.9,351.6h1v1.1h-1V351.6z"/>
	<path d="M397.3,346.3l-1.5,0.3v-0.6l1.9-0.9h0.5v8.2h-0.9V346.3z"/>
</g>
<g>
	<path d="M407.2,354.7v-3.8h-4.3v-0.8h9.5v0.8h-4.3v3.8H407.2z M411.6,349c-1.6-0.3-3.3-1.3-3.9-2.5c-0.5,1.2-2.3,2.2-3.9,2.6
		l-0.4-0.8c2-0.3,3.9-1.6,3.9-3v-0.7h1v0.7c0,1.4,2,2.8,3.9,3L411.6,349z"/>
	<path d="M418.8,347.2c0,1.5-1.2,2.4-2.7,2.4c-1.5,0-2.7-0.9-2.7-2.4c0-1.5,1.2-2.5,2.7-2.5S418.8,345.7,418.8,347.2z M414.3,347.2
		c0,1,0.8,1.7,1.8,1.7c1.1,0,1.8-0.7,1.8-1.7c0-1-0.7-1.7-1.8-1.7C415.1,345.5,414.3,346.2,414.3,347.2z M415.2,354.6v-4.1h0.9v1.3
		h4.9v-1.4h0.9v4.2H415.2z M421,352.5h-4.9v1.3h4.9V352.5z M419.2,347.5v-0.8h1.8v-2.5h0.9v5.6H421v-2.3H419.2z"/>
</g>
<g>
	<path d="M432,349.5v0.8h4.3v0.8h-9.5v-0.8h4.3v-0.8c-1.7-0.1-2.7-0.6-2.7-1.4c0-0.9,1.1-1.4,3.2-1.4c2,0,3.2,0.5,3.2,1.4
		C434.7,348.9,433.7,349.4,432,349.5z M427.4,346.3v-0.7h8.3v0.7H427.4z M435.1,351.8v3h-0.9v-2.2h-6.3v-0.8H435.1z M431.5,347.4
		c-1.3,0-2.2,0.2-2.2,0.7c0,0.5,0.9,0.7,2.2,0.7c1.3,0,2.2-0.2,2.2-0.7C433.8,347.5,432.8,347.4,431.5,347.4z M429.8,345v-0.8h3.6
		v0.8H429.8z"/>
	<path d="M437.2,350.4v-0.8h9.5v0.8H437.2z M441.9,348.7c-2.3,0-3.6-0.7-3.6-2.1c0-1.3,1.4-2.1,3.6-2.1c2.3,0,3.6,0.7,3.6,2.1
		C445.6,347.9,444.2,348.7,441.9,348.7z M438.4,354.4v-3.1h0.9v2.3h6.2v0.8H438.4z M439.2,346.6c0,0.9,1.1,1.3,2.7,1.3
		c1.7,0,2.8-0.4,2.8-1.3c0-0.9-1.1-1.3-2.7-1.3C440.3,345.3,439.2,345.7,439.2,346.6z"/>
</g>
<g>
	<path d="M456.6,352.2c-1-0.6-2.3-2-2.7-3.2c-0.3,1.3-1.5,2.7-2.7,3.4l-0.6-0.7c1.5-0.9,2.8-2.7,2.8-4.7V346H451v-0.8h5.8v0.8h-2.4
		v1.1c0,2,1.3,3.6,2.8,4.4L456.6,352.2z M459.3,344.2v10.5h-0.9v-10.5H459.3z"/>
	<path d="M466.9,347.5c0,1.6-1.2,2.6-2.8,2.6c-1.6,0-2.8-1-2.8-2.6c0-1.6,1.2-2.6,2.8-2.6C465.7,344.9,466.9,346,466.9,347.5z
		 M462.2,347.5c0,1.1,0.9,1.8,2,1.8c1.2,0,2-0.7,2-1.8c0-1.1-0.8-1.8-2-1.8C463,345.7,462.2,346.5,462.2,347.5z M462.8,354.4v-3.2
		h0.9v2.5h6.2v0.8H462.8z M468.7,351.9v-7.7h0.9v7.7H468.7z"/>
	<path d="M471.4,349.5v-0.7h9.5v0.7H471.4z M472.6,354.5v-2.5h6.2v-1h-6.2v-0.7h7.1v2.4h-6.2v1.1h6.5v0.7H472.6z M472.6,347.9v-3.2
		h7.1v0.7h-6.2v1.7h6.3v0.7H472.6z"/>
	<path d="M484.9,352.4c-1.1,0-2.2,0.1-3.1,0.1l-0.1-0.8c0.6,0,1.5,0,2.3,0v-3.3h0.9v3.3c1.3-0.1,2.6-0.2,3.5-0.3l0.1,0.8
		C487.4,352.2,485.9,352.3,484.9,352.4z M487.3,350.2l-0.9-0.1c0.2-1,0.4-2.7,0.3-3.9h-4.6v-0.8h5.5
		C487.7,346.9,487.5,349.1,487.3,350.2z M489.9,349.4v5.3H489v-10.5h0.9v4.4h1.7v0.8H489.9z"/>
</g>
<g>
	<path d="M495.8,345.2h5.7v0.8h-2.4c0,0.4,0,0.6,0,0.8c0.1,1.3,1.4,2.5,2.6,2.9l-0.5,0.7c-1-0.4-2.1-1.4-2.6-2.3
		c-0.3,1-1.5,2.1-2.6,2.6l-0.5-0.7c1.3-0.5,2.6-1.8,2.7-3.2c0-0.1,0-0.3,0-0.8h-2.4V345.2z M497.1,354.4v-3.3h0.9v2.5h6.1v0.8H497.1
		z M503,351.9v-7.6h0.9v7.6H503z"/>
	<path d="M505.6,346.9v-0.7h5.3v0.7H505.6z M508.4,350.7c-1.3,0-2.3-0.6-2.3-1.6c0-1,1-1.6,2.3-1.6s2.3,0.6,2.3,1.6
		C510.7,350.1,509.7,350.7,508.4,350.7z M507,345.5v-0.8h2.7v0.8H507z M508.4,348.1c-0.8,0-1.4,0.4-1.4,0.9c0,0.5,0.6,0.9,1.4,0.9
		c0.8,0,1.4-0.4,1.4-0.9C509.8,348.5,509.1,348.1,508.4,348.1z M511,354.7c-2.2,0-3.5-0.7-3.5-1.8c0-1.1,1.3-1.8,3.5-1.8
		c2.2,0,3.5,0.7,3.5,1.8C514.5,354,513.2,354.7,511,354.7z M508.4,352.9c0,0.6,1,1,2.6,1c1.6,0,2.6-0.4,2.6-1c0-0.6-1-1-2.6-1
		C509.4,351.9,508.4,352.3,508.4,352.9z M513.6,351.1V348h-1.3v2.7h-0.9v-6.3h0.9v2.8h1.3v-3h0.9v6.9H513.6z"/>
</g>
<g>
	<path d="M209.2,361.3l-1.1,0.7l-0.3-0.6l1.1-0.6l-1.1-0.6l0.3-0.6l1.1,0.7l0-1.3h0.7l0,1.3l1.1-0.7l0.3,0.6l-1.1,0.6l1.1,0.6
		l-0.3,0.6l-1.1-0.7l0,1.3h-0.7L209.2,361.3z"/>
</g>
<g>
	<path d="M215.1,368.3v-3.6c-1,0-1.9,0.1-2.8,0.1l-0.1-0.8c1.2,0,2.4,0,3.5,0c1.3,0,2.6-0.1,3.7-0.2l0,0.7c-0.8,0.1-2.1,0.2-3.3,0.3
		v3.6H215.1z M215.6,363.2c-1.6,0-2.8-0.9-2.8-2.2c0-1.3,1.1-2.3,2.8-2.3c1.6,0,2.7,0.9,2.7,2.3
		C218.4,362.2,217.3,363.2,215.6,363.2z M215.6,359.4c-1.1,0-1.9,0.5-1.9,1.5c0,0.9,0.8,1.5,1.9,1.5c1,0,1.9-0.5,1.9-1.5
		C217.5,360,216.7,359.4,215.6,359.4z M220,368.6v-10.5h0.9v10.5H220z"/>
</g>
<g>
	<path d="M231.6,366.1c-0.9-0.6-2.2-1.9-2.6-3.2c-0.4,1.3-1.5,2.6-2.7,3.5l-0.6-0.7c1.5-1,2.8-2.9,2.8-4.7v-1.9h0.9v1.9
		c0,1.9,1.3,3.6,2.7,4.5L231.6,366.1z M233.5,368.6v-10.5h0.9v10.5H233.5z"/>
	<path d="M241.3,359.1c-0.1,2.9-2.1,4.9-4.7,5.7l-0.5-0.8c2.3-0.6,3.9-2.2,4.2-4.2h-3.8v-0.8H241.3z M237.6,368.4v-3.2h0.9v2.5h6
		v0.8H237.6z M244.2,362.2v3.8h-0.9v-7.8h0.9v3.3h1.6v0.8H244.2z"/>
	<path d="M246.5,367.3v-0.8h2.6v-2.2h0.9v2.2h2.5v-2.2h0.9v2.2h2.6v0.8H246.5z M247.4,359.8v-0.8h7.6v0.8H247.4z M247.4,363.8V363
		h1.6l-0.3-2.5l0.9-0.1l0.2,2.6h2.6l0.3-2.6l0.9,0.1l-0.4,2.5h1.6v0.8H247.4z"/>
	<path d="M256.9,364.3v-0.8h9.5v0.8H256.9z M258.1,368.4v-3.1h0.9v2.3h6.3v0.8H258.1z M258.2,362.3v-3.7h0.9v2.9h6.2v0.8H258.2z"/>
</g>
<g>
	<path d="M276.1,360.9c0,1.4-1.2,2.3-2.7,2.3c-1.5,0-2.7-0.9-2.7-2.3c0-1.4,1.2-2.4,2.7-2.4C274.9,358.5,276.1,359.4,276.1,360.9z
		 M271.5,360.8c0,0.9,0.8,1.6,1.8,1.6c1.1,0,1.8-0.6,1.8-1.5c0-0.9-0.7-1.6-1.8-1.6C272.4,359.3,271.5,359.9,271.5,360.8z
		 M272.2,368.5v-2.7h5.9v-1.1h-5.9V364h6.8v2.5h-5.9v1.2h6.3v0.7H272.2z M278,363.5v-5.3h0.9v5.3H278z"/>
	<path d="M285,368.7v-3.5h-4.3v-0.8h9.5v0.8h-4.3v3.5H285z M281.9,363.2v-4.6h0.9v1.5h5.3v-1.5h0.9v4.6H281.9z M288.2,360.9h-5.3
		v1.6h5.3V360.9z"/>
</g>
<g>
	<path d="M294.7,364.2v-5.3h0.9v1.9h2.8v-1.9h0.9v5.3H294.7z M298.4,361.5h-2.8v1.9h2.8V361.5z M296.1,368.3v-3.2h0.9v2.4h6.1v0.8
		H296.1z M302.8,365.9h-0.9V363h-2v-0.8h2v-1.6h-2v-0.8h2v-1.8h0.9V365.9z"/>
	<path d="M305.2,364.6l-0.5-0.8c2.2-0.6,3.9-2.3,4.2-4.1h-3.8V359h4.8C309.9,361.6,308,363.7,305.2,364.6z M309.7,368.6
		c-2.3,0-3.6-0.8-3.6-2c0-1.2,1.3-2,3.6-2c2.3,0,3.6,0.8,3.6,2C313.3,367.8,312,368.6,309.7,368.6z M307.1,366.6
		c0,0.8,1,1.2,2.6,1.2c1.7,0,2.6-0.5,2.6-1.2c0-0.8-1-1.2-2.6-1.2C308.1,365.4,307.1,365.8,307.1,366.6z M310,362.2h2.3v-1.4h-2.1
		v-0.8h2.1v-1.9h0.9v6.6h-0.9V363H310V362.2z"/>
	<path d="M318.1,358.9c1.7,0,2.7,1.5,2.7,3.7s-1,3.7-2.7,3.7c-1.7,0-2.7-1.5-2.7-3.7C315.4,360.4,316.3,358.9,318.1,358.9z
		 M318.1,359.7c-1.1,0-1.8,1.2-1.8,2.9c0,1.7,0.7,2.9,1.8,2.9c1.1,0,1.8-1.2,1.8-2.9C319.9,360.9,319.2,359.7,318.1,359.7z
		 M322.7,368.6v-10.5h0.9v10.5H322.7z"/>
</g>
<g>
	<path d="M332.1,363.5c-1.2,0.1-2.7,0.1-3.4,0.1l-0.1-0.8c0.8,0,1.9,0,3,0v-1h-2.1v-3.1h5.1v0.7h-4.2v1.6h4.3v0.8h-2.2v1
		c1.1,0,2.3-0.1,3-0.2l0.1,0.7C334.6,363.3,333.3,363.4,332.1,363.5z M330.2,368.5V366h6v-1h-6v-0.7h6.9v2.4h-6v1.1h6.4v0.7H330.2z
		 M336.2,363.8v-5.6h0.9v5.6H336.2z"/>
</g>
<g>
	<path d="M346.3,368.7v-3.8H342v-0.8h9.5v0.8h-4.3v3.8H346.3z M350.6,363c-1.6-0.3-3.3-1.3-3.9-2.5c-0.5,1.2-2.3,2.2-3.9,2.6
		l-0.4-0.8c2-0.3,3.9-1.6,3.9-3v-0.7h1v0.7c0,1.4,2,2.8,3.9,3L350.6,363z"/>
</g>
<g>
	<path d="M361.2,361.3c0,1.5-1.2,2.5-2.7,2.5s-2.7-1-2.7-2.5s1.2-2.5,2.7-2.5S361.2,359.8,361.2,361.3z M360,367.8
		c-0.5-0.3-1.1-0.8-1.3-1.4c-0.3,0.8-1.2,1.8-2.1,2.2L356,368c1.1-0.5,2.1-1.6,2.1-2.9v-0.5h0.9v0.4c0,1.1,0.7,1.8,1.5,2.2
		L360,367.8z M356.6,361.3c0,1,0.8,1.8,1.8,1.8c1.1,0,1.8-0.7,1.8-1.7c0-1-0.7-1.8-1.8-1.8C357.4,359.5,356.6,360.2,356.6,361.3z
		 M364.5,368.7c-0.7-0.3-1.7-1.3-1.9-2c-0.3,0.8-1.1,1.7-2,2.2l-0.6-0.6c1.1-0.6,2.1-1.7,2.1-3v-0.6h0.9v0.6c0,1.3,1,2.4,2,2.8
		L364.5,368.7L364.5,368.7z M363.2,364.2v-6.1h0.9v6.1H363.2z"/>
	<path d="M365.9,367.2v-0.8h9.5v0.8H365.9z M370.6,364.4c-2.3,0-3.8-1-3.8-2.7c0-1.6,1.5-2.7,3.8-2.7c2.3,0,3.8,1.1,3.8,2.7
		C374.4,363.3,372.9,364.4,370.6,364.4z M370.6,359.8c-1.7,0-2.9,0.8-2.9,1.9c0,1.1,1.2,1.9,2.9,1.9c1.8,0,2.9-0.7,2.9-1.9
		C373.5,360.6,372.4,359.8,370.6,359.8z"/>
	<path d="M382.9,365.6c-1.2,0.3-3.9,0.5-5.6,0.5h-0.5v-6.8h0.9v6c1.3,0,3.8-0.2,5-0.5L382.9,365.6z M384.8,368.6h-0.9v-10.5h0.9
		V368.6z"/>
</g>
<g>
	<path d="M390,359h5.7v0.8h-2.4c0,0.2,0,0.4,0,0.6c0.1,1.4,1.4,2.6,2.7,3l-0.5,0.7c-1.1-0.4-2.2-1.4-2.7-2.4c-0.3,1-1.5,2.2-2.7,2.7
		l-0.5-0.7c1.3-0.5,2.7-1.8,2.7-3.3c0-0.1,0-0.4,0-0.6H390V359z M394.9,368.6c-2.2,0-3.5-0.8-3.5-2c0-1.2,1.3-2,3.5-2
		c2.3,0,3.5,0.8,3.5,2C398.4,367.9,397.1,368.6,394.9,368.6z M392.3,366.6c0,0.8,1,1.2,2.6,1.2c1.6,0,2.6-0.4,2.6-1.2
		c0-0.8-0.9-1.2-2.6-1.2C393.3,365.4,392.3,365.9,392.3,366.6z M395.3,361.6v-0.8h2.1v-2.7h0.9v6.5h-0.9v-3H395.3z"/>
	<path d="M403.5,364.9c-1.2,0.1-2.6,0.1-3.4,0.1l-0.1-0.8c0.8,0,1.8,0,2.9-0.1v-0.7c-1.1-0.1-1.9-0.5-1.9-1.4c0-1,1.1-1.4,2.4-1.4
		s2.4,0.4,2.4,1.4c0,0.9-0.9,1.3-2,1.4v0.7c1.1,0,2.2-0.1,2.9-0.2l0.1,0.7C405.9,364.7,404.7,364.8,403.5,364.9z M400.3,360.4v-0.7
		h6v0.7H400.3z M408.2,365.7v3h-0.9v-2.3h-5.9v-0.8H408.2z M403.3,361.4c-0.9,0-1.6,0.2-1.6,0.7c0,0.5,0.7,0.7,1.6,0.7
		c0.9,0,1.6-0.2,1.6-0.7C404.9,361.6,404.2,361.4,403.3,361.4z M401.9,359v-0.8h2.9v0.8H401.9z M408.2,362.4v2.7h-0.9v-7h0.9v3.5
		h1.6v0.8H408.2z"/>
	<path d="M410.5,360.9v-0.8h6.1v0.8H410.5z M413.5,365.1c-1.4,0-2.5-0.7-2.5-1.8c0-1.1,1.1-1.8,2.5-1.8c1.4,0,2.5,0.7,2.5,1.8
		C416,364.4,414.9,365.1,413.5,365.1z M413.5,362.2c-0.8,0-1.6,0.4-1.6,1.1c0,0.7,0.8,1.1,1.6,1.1c0.9,0,1.6-0.4,1.6-1.1
		C415.1,362.6,414.4,362.2,413.5,362.2z M412,359.3v-0.8h3v0.8H412z M412,368.3v-2.7h0.9v1.9h6.1v0.8H412z M418.6,362.5v3.4h-0.9
		v-7.7h0.9v3.5h1.6v0.8H418.6z"/>
</g>
<g>
	<path d="M424,367.2v-0.8h9.5v0.8H424z M432.6,364.3c-1.8-0.5-3.5-2-3.9-3.1c-0.4,1.1-2,2.6-3.9,3.1l-0.5-0.8c1.7-0.3,3.9-2,3.9-3.7
		V359h0.9v0.8c0,1.7,2.3,3.3,3.9,3.7L432.6,364.3z"/>
	<path d="M434.9,366.5l-0.6-0.7c1.6-0.9,2.6-2,3.1-3.3l-2.8,0.3l-0.2-0.8l3.3-0.2c0.2-0.6,0.2-1.1,0.3-1.7h-3.1v-0.8h4.1
		C438.9,362.6,437.6,364.8,434.9,366.5z M440.3,368.1V363h-1.6v-0.8h1.6v-3.8h0.9v9.7H440.3z M442.3,368.6v-10.5h0.9v10.5H442.3z"/>
	<path d="M445.9,368.5v-2.4h6.3v-0.9h-6.3v-0.7h3.1v-1h-4.3v-0.7h9.5v0.7h-4.3v1h3.1v2.3h-6.3v0.9h6.6v0.8H445.9z M453.3,362.2
		c-1.7-0.3-3.3-1.1-3.8-2c-0.4,0.9-2.1,1.8-3.8,2l-0.4-0.7c1.6-0.1,3.4-0.8,3.7-2h-3.3v-0.8h7.7v0.8H450c0.3,1.2,2.2,1.9,3.7,2
		L453.3,362.2z"/>
	<path d="M455.1,364.3v-0.8h9.5v0.8H455.1z M459.9,362.6c-2.3,0-3.6-0.7-3.6-2.1c0-1.3,1.4-2.1,3.6-2.1c2.3,0,3.6,0.7,3.6,2.1
		C463.5,361.9,462.2,362.6,459.9,362.6z M456.4,368.3v-3.1h0.9v2.3h6.2v0.8H456.4z M457.1,360.5c0,0.9,1.1,1.3,2.7,1.3
		c1.7,0,2.8-0.4,2.8-1.3c0-0.9-1.1-1.3-2.7-1.3C458.2,359.2,457.1,359.7,457.1,360.5z"/>
</g>
<g>
	<path d="M473,360.7h1.5v-2.3h0.9v9.8h-0.9v-3.4H473c-0.4,1-1,1.6-2,1.6c-1.5,0-2.3-1.5-2.3-3.7c0-2.1,0.8-3.6,2.3-3.6
		C472,359,472.7,359.6,473,360.7z M471,359.8c-0.9,0-1.4,1.1-1.4,2.9c0,1.8,0.5,2.9,1.4,2.9c0.9,0,1.4-1.1,1.4-2.9
		C472.5,360.9,471.9,359.8,471,359.8z M473.2,361.4c0.1,0.4,0.1,0.8,0.1,1.2c0,0.5,0,0.9-0.1,1.3h1.3v-2.5H473.2z M476.6,368.6
		v-10.5h0.9v10.5H476.6z"/>
	<path d="M484.5,361.3c0,1.5-1.2,2.5-2.7,2.5c-1.5,0-2.7-0.9-2.7-2.5c0-1.5,1.2-2.5,2.7-2.5C483.3,358.7,484.5,359.7,484.5,361.3z
		 M480,361.3c0,1,0.8,1.8,1.8,1.8c1.1,0,1.8-0.7,1.8-1.7c0-1-0.7-1.8-1.8-1.8C480.8,359.5,480,360.2,480,361.3z M486.2,368.6v-3
		h-5.8v-0.8h6.8v3.8H486.2z M488.7,362.9h-1.6v1.5h-0.9v-6.2h0.9v1.6h1.6v0.8h-1.6v1.5h1.6V362.9z"/>
	<path d="M495.2,366.1c-0.9-0.6-2.2-1.9-2.6-3.2c-0.4,1.3-1.5,2.6-2.7,3.5l-0.6-0.7c1.5-1,2.8-2.9,2.8-4.7v-1.9h0.9v1.9
		c0,1.9,1.3,3.6,2.7,4.5L495.2,366.1z M497.1,368.6v-10.5h0.9v10.5H497.1z"/>
</g>
<g>
	<path d="M506.2,364.9c-1.2,0.1-2.6,0.1-3.4,0.1l-0.1-0.8c0.8,0,1.8,0,2.9-0.1v-0.7c-1.1-0.1-1.9-0.5-1.9-1.4c0-1,1.1-1.4,2.4-1.4
		c1.3,0,2.4,0.4,2.4,1.4c0,0.9-0.9,1.3-2,1.4v0.7c1.1,0,2.2-0.1,2.9-0.2l0.1,0.7C508.7,364.7,507.4,364.8,506.2,364.9z M503.1,360.4
		v-0.7h6v0.7H503.1z M511,365.7v3H510v-2.3h-5.9v-0.8H511z M506.1,361.4c-0.9,0-1.6,0.2-1.6,0.7c0,0.5,0.7,0.7,1.6,0.7
		c0.9,0,1.6-0.2,1.6-0.7C507.6,361.6,506.9,361.4,506.1,361.4z M504.6,359v-0.8h2.9v0.8H504.6z M511,362.4v2.7H510v-7h0.9v3.5h1.6
		v0.8H511z"/>
	<path d="M519.1,361.5c0,1.6-1.2,2.6-2.8,2.6c-1.6,0-2.8-1-2.8-2.6c0-1.6,1.2-2.6,2.8-2.6C517.9,358.9,519.1,359.9,519.1,361.5z
		 M514.4,361.5c0,1.1,0.9,1.8,2,1.8c1.2,0,2-0.7,2-1.8c0-1.1-0.8-1.8-2-1.8C515.2,359.6,514.4,360.4,514.4,361.5z M515,368.3v-3.2
		h0.9v2.5h6.2v0.8H515z M520.9,365.8v-7.7h0.9v7.7H520.9z"/>
	<path d="M523.6,361.5v-0.8h5.2v0.8H523.6z M526.3,366.3c-1.3,0-2.3-0.9-2.3-2.1c0-1.3,0.9-2.1,2.3-2.1c1.4,0,2.3,0.8,2.3,2.1
		C528.6,365.4,527.7,366.3,526.3,366.3z M524.8,359.8V359h2.9v0.8H524.8z M526.3,362.8c-0.8,0-1.4,0.5-1.4,1.3
		c0,0.8,0.6,1.3,1.4,1.3c0.8,0,1.4-0.5,1.4-1.3C527.8,363.4,527.2,362.8,526.3,362.8z M531.6,368.6v-5.4h-1.3v4.9h-0.9v-9.7h0.9v4
		h1.3v-4.3h0.9v10.5H531.6z"/>
</g>
<g>
	<path d="M541.4,368.6v-3.8h-4.3v-0.8h9.5v0.8h-4.3v3.8H541.4z M545.7,363.1c-1.7-0.3-3.4-1.4-3.9-2.3c-0.4,1-2.1,2.1-3.8,2.4
		l-0.4-0.8c1.7-0.2,3.7-1.3,3.8-2.7H538v-0.8h7.7v0.8h-3.4c0,1.5,2.2,2.5,3.8,2.7L545.7,363.1z"/>
	<path d="M552.2,366c-0.8-0.6-1.9-1.8-2.2-3c-0.2,1.2-1.1,2.6-2.1,3.3l-0.6-0.7c1.2-0.8,2.2-2.5,2.2-4.6v-1.9h0.9v1.9
		c0,2,1.2,3.6,2.4,4.3L552.2,366z M553.4,368.1v-5.4h-1.9v-0.8h1.9v-3.5h0.9v9.7H553.4z M555.5,368.6v-10.5h0.9v10.5H555.5z"/>
	<path d="M557.9,367.3v-0.8h2.3v-2l0.9,0v2h2.9v-2l0.9,0v2h2.4v0.8H557.9z M562.6,364.3c-2.3,0-3.8-1.1-3.8-2.7s1.5-2.7,3.8-2.7
		c2.3,0,3.8,1.1,3.8,2.7S564.9,364.3,562.6,364.3z M562.6,359.6c-1.7,0-2.9,0.8-2.9,2s1.2,2,2.9,2c1.8,0,2.9-0.8,2.9-2
		S564.4,359.6,562.6,359.6z"/>
</g>
</svg>
