<?xml version="1.0" encoding="utf-8"?>
<!-- Generator: Adobe Illustrator 25.0.1, SVG Export Plug-In . SVG Version: 6.00 Build 0)  -->
<svg version="1.1" id="레이어_1" xmlns="http://www.w3.org/2000/svg" xmlns:xlink="http://www.w3.org/1999/xlink" x="0px"
	 y="0px" viewBox="0 0 698 408" style="enable-background:new 0 0 698 408;" xml:space="preserve">
<style type="text/css">
	.st0{fill-rule:evenodd;clip-rule:evenodd;fill:#EC88AA;}
	.st1{fill-rule:evenodd;clip-rule:evenodd;fill:#F7B7B2;}
	.st2{fill-rule:evenodd;clip-rule:evenodd;fill:#FFFFFF;}
	.st3{fill:#ED7D31;}
	.st4{clip-path:url(#SVGID_2_);}
	.st5{fill:#FFFFFF;}
	.st6{font-family:'AppleSDGothicNeo-Regular-KSCpc-EUC-H';}
	.st7{font-size:17px;}
	.st8{clip-path:url(#SVGID_4_);}
	.st9{clip-path:url(#SVGID_6_);}
	.st10{clip-path:url(#SVGID_8_);}
	.st11{clip-path:url(#SVGID_10_);}
</style>
<rect x="52.5" y="78.7" class="st0" width="54.9" height="28.8"/>
<rect x="107.4" y="78.7" class="st0" width="119.5" height="28.8"/>
<rect x="226.9" y="78.7" class="st0" width="84.6" height="28.8"/>
<rect x="311.6" y="78.7" class="st0" width="76.9" height="28.8"/>
<rect x="388.5" y="78.7" class="st0" width="84.8" height="28.8"/>
<rect x="473.3" y="78.7" class="st0" width="80.9" height="28.8"/>
<rect x="554.2" y="78.7" class="st0" width="76.9" height="28.8"/>
<rect x="52.5" y="107.5" class="st1" width="54.9" height="27.6"/>
<rect x="107.4" y="107.5" class="st2" width="119.5" height="27.6"/>
<rect x="226.9" y="107.5" class="st2" width="84.6" height="27.6"/>
<rect x="311.6" y="107.5" class="st2" width="76.9" height="27.6"/>
<rect x="388.5" y="107.5" class="st2" width="84.8" height="27.6"/>
<rect x="473.3" y="107.5" class="st2" width="80.9" height="27.6"/>
<rect x="554.2" y="107.5" class="st2" width="76.9" height="27.6"/>
<rect x="52.5" y="135.1" class="st1" width="54.9" height="27.6"/>
<rect x="107.4" y="135.1" class="st2" width="119.5" height="27.6"/>
<rect x="226.9" y="135.1" class="st2" width="84.6" height="27.6"/>
<rect x="311.6" y="135.1" class="st2" width="76.9" height="27.6"/>
<rect x="388.5" y="135.1" class="st2" width="84.8" height="27.6"/>
<rect x="473.3" y="135.1" class="st2" width="80.9" height="27.6"/>
<rect x="554.2" y="135.1" class="st2" width="76.9" height="27.6"/>
<rect x="52.5" y="162.7" class="st1" width="54.9" height="28.9"/>
<rect x="107.4" y="162.7" class="st2" width="119.5" height="28.9"/>
<rect x="226.9" y="162.7" class="st2" width="84.6" height="28.9"/>
<rect x="311.6" y="162.7" class="st2" width="76.9" height="28.9"/>
<rect x="388.5" y="162.7" class="st2" width="84.8" height="28.9"/>
<rect x="473.3" y="162.7" class="st2" width="80.9" height="28.9"/>
<rect x="554.2" y="162.7" class="st2" width="76.9" height="28.9"/>
<rect x="52.5" y="191.6" class="st1" width="54.9" height="28.9"/>
<rect x="107.4" y="191.6" class="st2" width="119.5" height="28.9"/>
<rect x="226.9" y="191.6" class="st2" width="84.6" height="28.9"/>
<rect x="311.6" y="191.6" class="st2" width="76.9" height="28.9"/>
<rect x="388.5" y="191.6" class="st2" width="84.8" height="28.9"/>
<rect x="473.3" y="191.6" class="st2" width="80.9" height="28.9"/>
<rect x="554.2" y="191.6" class="st2" width="76.9" height="28.9"/>
<rect x="52.5" y="220.5" class="st1" width="54.9" height="28.9"/>
<rect x="107.4" y="220.5" class="st2" width="119.5" height="28.9"/>
<rect x="226.9" y="220.5" class="st2" width="84.6" height="28.9"/>
<rect x="311.6" y="220.5" class="st2" width="76.9" height="28.9"/>
<rect x="388.5" y="220.5" class="st2" width="84.8" height="28.9"/>
<rect x="473.3" y="220.5" class="st2" width="80.9" height="28.9"/>
<rect x="554.2" y="220.5" class="st2" width="76.9" height="28.9"/>
<rect x="52.5" y="249.4" class="st1" width="54.9" height="27.6"/>
<rect x="107.4" y="249.4" class="st2" width="119.5" height="27.6"/>
<rect x="226.9" y="249.4" class="st2" width="84.6" height="27.6"/>
<rect x="311.6" y="249.4" class="st2" width="76.9" height="27.6"/>
<rect x="388.5" y="249.4" class="st2" width="84.8" height="27.6"/>
<rect x="473.3" y="249.4" class="st2" width="80.9" height="27.6"/>
<rect x="554.2" y="249.4" class="st2" width="76.9" height="27.6"/>
<rect x="52.5" y="277" class="st1" width="54.9" height="29"/>
<rect x="107.4" y="277" class="st2" width="119.5" height="29"/>
<rect x="226.9" y="277" class="st2" width="84.6" height="29"/>
<rect x="311.6" y="277" class="st2" width="76.9" height="29"/>
<rect x="388.5" y="277" class="st2" width="84.8" height="29"/>
<rect x="473.3" y="277" class="st2" width="80.9" height="29"/>
<rect x="554.2" y="277" class="st2" width="76.9" height="29"/>
<rect x="106.9" y="78.2" class="st3" width="1" height="228.3"/>
<rect x="226.4" y="78.2" class="st3" width="1" height="228.3"/>
<rect x="311.1" y="78.2" class="st3" width="1" height="228.3"/>
<rect x="388" y="78.2" class="st3" width="1" height="228.3"/>
<rect x="472.8" y="78.2" class="st3" width="1" height="228.3"/>
<rect x="553.7" y="78.2" class="st3" width="1" height="228.3"/>
<rect x="52" y="107" class="st3" width="579.6" height="1"/>
<rect x="52" y="134.6" class="st3" width="579.6" height="1"/>
<rect x="52" y="162.2" class="st3" width="579.6" height="1"/>
<rect x="52" y="191.1" class="st3" width="579.6" height="1"/>
<rect x="52" y="220" class="st3" width="579.6" height="1"/>
<rect x="52" y="248.9" class="st3" width="579.6" height="1"/>
<rect x="52" y="276.5" class="st3" width="579.6" height="1"/>
<rect x="52" y="78.2" class="st3" width="1" height="228.3"/>
<rect x="630.6" y="78.2" class="st3" width="1" height="228.3"/>
<rect x="52" y="78.2" class="st3" width="579.6" height="1"/>
<rect x="52" y="305.5" class="st3" width="579.6" height="1"/>
<g>
	<defs>
		<rect id="SVGID_1_" x="52.5" y="17.3" width="55" height="151.4"/>
	</defs>
	<clipPath id="SVGID_2_">
		<use xlink:href="#SVGID_1_"  style="overflow:visible;"/>
	</clipPath>
	<g class="st4">
		<path class="st5" d="M60.7,85.3h2.5l5.1,8.7h0.1v-8.7h2v12.4h-2.2l-5.4-9.3h-0.1v9.3h-2V85.3z"/>
		<path class="st5" d="M72.6,91.7v-0.4c0-4,2.3-6.2,5.7-6.2c3.3,0,5.5,2.1,5.5,6.2v0.4c0,4-2.3,6.2-5.7,6.2
			C74.8,97.9,72.6,95.8,72.6,91.7z M81.5,91.9v-0.6c0-2.8-0.9-4.4-3.3-4.5C76,86.8,75,88.5,75,91v0.6c0,2.8,0.9,4.5,3.3,4.5
			C80.4,96.1,81.5,94.4,81.5,91.9z"/>
		<path class="st5" d="M85,85.3h2.3l3.2,9.5h0.1l3.2-9.5h2.1l-4.4,12.4h-2.2L85,85.3z"/>
		<path class="st5" d="M97.3,95.8h2.2V98h-2.2V95.8z"/>
	</g>
</g>
<g>
	<path class="st5" d="M156.7,86.6l-1.8,0.4v-1.2l2.8-1.2h1v11.1h-2V86.6z"/>
	<path class="st5" d="M162.7,86.6l-1.8,0.4v-1.2l2.8-1.2h1v11.1h-2V86.6z"/>
</g>
<g>
	<path class="st5" d="M174.5,94.3c-1.2-0.7-2.7-2.4-3.1-3.9c-0.5,1.6-1.9,3.4-3.4,4.2l-1.1-1.4c2.3-1.5,3.5-3.7,3.5-6.6v-2.2h1.9
		v2.1c0,2.8,1.1,4.9,3.3,6.3L174.5,94.3z M176.7,97.5V83.2h1.9v14.3H176.7z"/>
</g>
<g>
	<path class="st5" d="M257.5,86.6l-1.8,0.4v-1.2l2.8-1.2h1v11.1h-2V86.6z"/>
	<path class="st5" d="M261.9,94.4l2.1-2.2c1.5-1.6,2.7-3,2.7-4.3c0-1.3-0.7-1.8-2.1-1.8c-0.8,0-1.7,0.4-2.3,0.7l-0.3-1.5
		c0.7-0.4,1.9-0.8,3.1-0.8c2.4,0,3.6,1.2,3.6,3.1c0,2-1.7,3.7-3,5.1l-1.3,1.3h4.4v1.5h-7V94.4z"/>
</g>
<g>
	<path class="st5" d="M277.8,94.3c-1.2-0.7-2.7-2.4-3.1-3.9c-0.5,1.6-1.9,3.4-3.4,4.2l-1.1-1.4c2.3-1.5,3.5-3.7,3.5-6.6v-2.2h1.9
		v2.1c0,2.8,1.1,4.9,3.3,6.3L277.8,94.3z M280,97.5V83.2h1.9v14.3H280z"/>
</g>
<g>
	<path class="st5" d="M338.2,86.6l-1.8,0.4v-1.2l2.8-1.2h1v11.1h-2V86.6z"/>
	<path class="st5" d="M342.3,95l0.3-1.4c0.6,0.4,1.7,0.6,2.6,0.6c1.5,0,2.3-0.6,2.3-1.8c0-1.2-0.9-1.6-2.3-1.7l-1.1,0v-1.4l1,0
		c1.3,0,2.1-0.6,2.1-1.6c0-1.1-0.8-1.5-2-1.5c-0.8,0-1.7,0.3-2.3,0.6l-0.2-1.5c0.7-0.4,2-0.7,3.1-0.7c2,0,3.4,1,3.4,2.7
		c0,1.3-0.8,2.1-2,2.6c1.4,0.3,2.3,1.1,2.3,2.7c0,2-1.6,3.3-4,3.3C344.2,95.7,343,95.4,342.3,95z"/>
</g>
<g>
	<path class="st5" d="M358.6,94.3c-1.2-0.7-2.7-2.4-3.1-3.9c-0.5,1.6-1.9,3.4-3.4,4.2l-1.1-1.4c2.3-1.5,3.5-3.7,3.5-6.6v-2.2h1.9
		v2.1c0,2.8,1.1,4.9,3.3,6.3L358.6,94.3z M360.8,97.5V83.2h1.9v14.3H360.8z"/>
</g>
<g>
	<path class="st5" d="M418.7,86.6l-1.8,0.4v-1.2l2.8-1.2h1v11.1h-2V86.6z"/>
	<path class="st5" d="M427.7,93.5h-5v-1.2l5.6-7.8h1.3v7.5h1.6v1.5h-1.6v2.2h-1.9V93.5z M427.7,92.1v-4.1l-2.9,4.1H427.7z"/>
</g>
<g>
	<path class="st5" d="M439.9,94.3c-1.2-0.7-2.7-2.4-3.1-3.9c-0.5,1.6-1.9,3.4-3.4,4.2l-1.1-1.4c2.3-1.5,3.5-3.7,3.5-6.6v-2.2h1.9
		v2.1c0,2.8,1.1,4.9,3.3,6.3L439.9,94.3z M442,97.5V83.2h1.9v14.3H442z"/>
</g>
<g>
	<path class="st5" d="M502.1,86.6l-1.8,0.4v-1.2l2.8-1.2h1v11.1h-2V86.6z"/>
	<path class="st5" d="M506.2,95l0.4-1.5c0.6,0.4,1.4,0.7,2.3,0.7c1.5,0,2.4-0.7,2.4-2.1c0-1.4-0.9-2-2.4-2c-0.7,0-1.7,0.3-2.2,0.6
		l0.4-6h5.7v1.5h-4.2l-0.2,2.7c0.4-0.1,1-0.2,1.4-0.2c2.2,0,3.6,1.1,3.6,3.4c0,2-1.5,3.6-4,3.6C508,95.7,506.9,95.4,506.2,95z"/>
</g>
<g>
	<path class="st5" d="M522.2,94.3c-1.2-0.7-2.7-2.4-3.1-3.9c-0.5,1.6-1.9,3.4-3.4,4.2l-1.1-1.4c2.3-1.5,3.5-3.7,3.5-6.6v-2.2h1.9
		v2.1c0,2.8,1.1,4.9,3.3,6.3L522.2,94.3z M524.3,97.5V83.2h1.9v14.3H524.3z"/>
</g>
<g>
	<path class="st5" d="M580.5,86.6l-1.8,0.4v-1.2l2.8-1.2h1v11.1h-2V86.6z"/>
	<path class="st5" d="M584.8,90.9v-0.8c0-4.1,2.1-5.6,4.7-5.6c1.1,0,2.1,0.3,2.6,0.6l-0.4,1.4c-0.4-0.2-1.3-0.5-2.1-0.5
		c-1.6,0-2.7,0.8-2.9,3.6c0.6-0.5,1.4-1,2.6-1c1.9,0,3.3,1.2,3.3,3.3c0,2.1-1.3,3.8-3.7,3.8C586.2,95.8,584.8,93.9,584.8,90.9z
		 M590.7,92.2c0-1.5-0.8-2-1.9-2c-0.8,0-1.6,0.6-2,1.1v0.1c0,1.9,0.6,3,2,3C590,94.3,590.7,93.5,590.7,92.2z"/>
</g>
<g>
	<path class="st5" d="M601.5,94.3c-1.2-0.7-2.7-2.4-3.1-3.9c-0.5,1.6-1.9,3.4-3.4,4.2l-1.1-1.4c2.3-1.5,3.5-3.7,3.5-6.6v-2.2h1.9
		v2.1c0,2.8,1.1,4.9,3.3,6.3L601.5,94.3z M603.7,97.5V83.2h1.9v14.3H603.7z"/>
</g>
<g>
	<path d="M77.1,121.1v-1.8c-1.3,0.1-2.5,0.1-3.8,0.1l-0.2-1.1c1.7,0,3.3-0.1,4.9-0.1c1.8-0.1,3.3-0.2,4.7-0.3l0.1,1
		c-1,0.1-2.8,0.3-4.5,0.4v1.9H77.1z M77.8,117.6c-2.1,0-3.6-1-3.6-2.5c0-1.4,1.5-2.4,3.6-2.4c2.1,0,3.6,0.9,3.6,2.5
		C81.4,116.6,79.9,117.6,77.8,117.6z M75.4,127.2V124h8.7v-1.1h-8.8v-1h10v3h-8.7v1.3H86v1H75.4z M77.8,113.7
		c-1.4,0-2.3,0.5-2.3,1.4c0,0.9,1,1.4,2.3,1.4s2.3-0.5,2.3-1.4C80.2,114.2,79.2,113.7,77.8,113.7z M84.1,121.1v-0.5h-3.3v-1h3.3
		v-7.3h1.3v8.8H84.1z"/>
</g>
<text transform="matrix(1 0 0 1 117.5649 126)" class="st6 st7">(</text>
<g>
	<path d="M131.3,120.4c-1.4-0.7-2.9-2-3.5-3.5c-0.5,1.5-1.9,3.1-3.6,4l-0.8-1c2.1-1,3.7-2.9,3.7-5.3v-1.5h1.3v1.4
		c0,2.4,2,4.2,3.6,4.8L131.3,120.4z M130.9,127.2c-3.2,0-5-1.1-5-2.8s1.8-2.8,5-2.8c3.2,0,5,1.1,5,2.8S134.1,127.2,130.9,127.2z
		 M127.2,124.4c0,1.1,1.4,1.8,3.7,1.8c2.3,0,3.7-0.6,3.7-1.8c0-1.1-1.4-1.8-3.7-1.8C128.6,122.6,127.2,123.3,127.2,124.4z
		 M131.2,116.8v-1.1h3.2v-3.4h1.3v9.2h-1.3v-4.7H131.2z"/>
	<path d="M146.7,117c0,2.2-1.7,3.7-4,3.7s-4-1.5-4-3.7c0-2.2,1.8-3.7,4-3.7C144.9,113.3,146.7,114.8,146.7,117z M139.9,117
		c0,1.5,1.2,2.5,2.8,2.5c1.6,0,2.8-1.1,2.8-2.5c0-1.5-1.1-2.6-2.8-2.6C141.1,114.4,139.9,115.5,139.9,117z M140.8,126.7v-4.6h1.3
		v3.5h8.8v1.1H140.8z M149.2,123.2v-10.8h1.3v10.8H149.2z"/>
</g>
<g>
	<path d="M155.5,120.2v-0.4c0-2.6-1.2-5.2-2.7-6.9h1.2c1.6,1.6,2.9,3.9,2.9,6.9v0.3c0,3-1.3,5.3-2.9,6.9h-1.2
		C154.2,125.3,155.5,122.9,155.5,120.2z"/>
</g>
<g>
	<path d="M159,123.5v-9.9h1.3v3.8h4.4v-3.8h1.3v9.9H159z M164.6,118.4h-4.4v4h4.4V118.4z M169.9,119.3v7.9h-1.3v-14.9h1.3v5.9h2.4
		v1.1H169.9z"/>
	<path d="M182.2,122.8c-1.8,0.4-5.4,0.7-7.6,0.7h-0.9v-9.6h1.3v8.5c2.5,0,5.5-0.2,7.1-0.6L182.2,122.8z M184.6,118.2h2.4v1.1h-2.4
		v7.9h-1.3v-14.9h1.3V118.2z"/>
	<path d="M197,122.8c-1.8,0.4-5.4,0.7-7.6,0.7h-0.9v-9.6h1.3v8.5c2.5,0,5.5-0.2,7.1-0.6L197,122.8z M199.3,118.2h2.4v1.1h-2.4v7.9
		h-1.3v-14.9h1.3V118.2z"/>
	<path d="M203.1,120.1v-6.8h1.2v2.5h1.5v-2.5h1.2v6.8H203.1z M205.7,116.9h-1.5v2.2h1.5V116.9z M209.5,127.1c-3.2,0-4.9-1.1-4.9-2.8
		c0-1.7,1.7-2.8,4.9-2.8c3.2,0,4.9,1.2,4.9,2.8C214.5,126,212.8,127.1,209.5,127.1z M209.5,122.5c-2.2,0-3.6,0.7-3.6,1.8
		c0,1.1,1.3,1.8,3.6,1.8c2.2,0,3.6-0.7,3.6-1.8C213.1,123.2,211.8,122.5,209.5,122.5z M207.9,120.1v-6.8h1.2v2.5h1.5v-2.5h1.2v6.8
		H207.9z M210.6,116.8h-1.5v2.2h1.5V116.8z M214.4,117.3v3.9h-1.3v-8.8h1.3v3.9h2v1.1H214.4z"/>
</g>
<g>
	<path d="M328.9,123.5v-9.4h1.1v3.7h1.1v-3.8h1.1v9.4H328.9z M331.2,118.9H330v3.5h1.1V118.9z M333.2,123.5v-9.4h1.1v3.8h1.2v-3.8
		h1.1v9.4H333.2z M335.5,118.9h-1.2v3.5h1.2V118.9z M340.1,127.2v-7.8h-1.3v7h-1.2v-13.7h1.2v5.6h1.3v-6h1.2v14.9H340.1z"/>
	<path d="M343.7,123.5v-9.4h1.1v3.7h1.1v-3.8h1.1v9.4H343.7z M345.9,118.9h-1.1v3.5h1.1V118.9z M347.9,123.5v-9.4h1.1v3.8h1.2v-3.8
		h1.1v9.4H347.9z M350.2,118.9H349v3.5h1.2V118.9z M354.8,127.2v-7.8h-1.3v7h-1.2v-13.7h1.2v5.6h1.3v-6h1.2v14.9H354.8z"/>
	<path d="M358,125.3v-1.1h6v-2.5h-4.4V117h8.8v-2.4h-8.8v-1.1h10.1v4.5H361v2.5h9.2v1.1h-4.8v2.5h6.1v1.1H358z"/>
</g>
<g>
	<path d="M402.5,123.5v-9.9h1.3v3.8h4.4v-3.8h1.3v9.9H402.5z M408.2,118.4h-4.4v4h4.4V118.4z M413.5,119.3v7.9h-1.3v-14.9h1.3v5.9
		h2.4v1.1H413.5z"/>
	<path d="M425.8,122.8c-1.8,0.4-5.4,0.7-7.6,0.7h-0.9v-9.6h1.3v8.5c2.5,0,5.5-0.2,7.1-0.6L425.8,122.8z M428.2,118.2h2.4v1.1h-2.4
		v7.9h-1.3v-14.9h1.3V118.2z"/>
	<path d="M440.6,122.8c-1.8,0.4-5.4,0.7-7.6,0.7H432v-9.6h1.3v8.5c2.5,0,5.5-0.2,7.1-0.6L440.6,122.8z M442.9,118.2h2.4v1.1h-2.4
		v7.9h-1.3v-14.9h1.3V118.2z"/>
	<path d="M446.6,120.1v-6.8h1.2v2.5h1.5v-2.5h1.2v6.8H446.6z M449.3,116.9h-1.5v2.2h1.5V116.9z M453.1,127.1c-3.2,0-4.9-1.1-4.9-2.8
		c0-1.7,1.7-2.8,4.9-2.8c3.2,0,4.9,1.2,4.9,2.8C458,126,456.3,127.1,453.1,127.1z M453.1,122.5c-2.2,0-3.6,0.7-3.6,1.8
		c0,1.1,1.3,1.8,3.6,1.8c2.2,0,3.6-0.7,3.6-1.8C456.7,123.2,455.3,122.5,453.1,122.5z M451.5,120.1v-6.8h1.2v2.5h1.5v-2.5h1.2v6.8
		H451.5z M454.2,116.8h-1.5v2.2h1.5V116.8z M458,117.3v3.9h-1.3v-8.8h1.3v3.9h2v1.1H458z"/>
</g>
<g>
	<path d="M492.2,120.4v-1.1h5.5v-3.1h1.3v3.1h6.6v1.1H492.2z M504.1,114.5c0,1.2-0.2,3-0.4,3.9l-1.3-0.2c0.2-0.8,0.3-2.1,0.4-2.8
		l0-1.2h-9v-1.1h10.4V114.5z M493.9,127v-5.1h10v5.1H493.9z M502.6,122.9h-7.4v3h7.4V122.9z"/>
	<path d="M507.4,113.2h6.5v1.1h-2.6v0.4c0,2.3,1.7,3.6,3.1,4.1l-0.7,1c-1.1-0.5-2.5-1.7-2.9-2.8c-0.4,1.2-1.7,2.5-3,3.3l-0.8-1
		c1.6-0.8,3.1-2.4,3.1-4.6v-0.4h-2.7V113.2z M509.8,127.1v-3.6h8.4V122h-8.5v-1.1h9.8v3.5h-8.4v1.6h9v1.1H509.8z M515.4,120v-3.5
		h-2.3v-1.1h2.3v-2.8h1.3v7.4H515.4z M518.2,120.1v-7.8h1.3v7.8H518.2z"/>
	<path d="M531.4,123.1c-1.5,0.2-4.1,0.5-7.4,0.5h-1.5v-5.7h5.6v-3.1h-5.7v-1.1h7v5.3h-5.6v3.6h0.4c2.4,0,5.3-0.1,7.1-0.5
		L531.4,123.1z M533.9,112.3v14.9h-1.3v-14.9H533.9z"/>
</g>
<g>
	<path d="M82.6,151.8c-1.2,0.1-3.1,0.3-4.9,0.4c-1.6,0.1-3.2,0.1-4.5,0.1l-0.2-1.1c1.1,0,2.6,0,4,0v-1.5c-1.7-0.2-2.8-1.1-2.8-2.4
		c0-1.5,1.4-2.5,3.5-2.5c2.1,0,3.5,1,3.5,2.5c0,1.4-1.1,2.3-2.9,2.4v1.4c1.6-0.1,3.2-0.2,4.2-0.4L82.6,151.8z M73.3,144V143h8.8v1.1
		H73.3z M77.7,145.9c-1.3,0-2.3,0.6-2.3,1.4c0,0.8,0.9,1.4,2.3,1.4c1.4,0,2.3-0.6,2.3-1.4C79.9,146.4,79,145.9,77.7,145.9z
		 M75.5,141.8v-1.1h4.3v1.1H75.5z M84.7,147.6v7.2h-1.3v-14.9h1.3v6.6h2.4v1.1H84.7z"/>
</g>
<text transform="matrix(1 0 0 1 117.5649 153.6001)" class="st6 st7">(</text>
<g>
	<path d="M131.3,148c-1.4-0.7-2.9-2-3.5-3.5c-0.5,1.5-1.9,3.1-3.6,4l-0.8-1c2.1-1,3.7-2.9,3.7-5.3v-1.5h1.3v1.4c0,2.4,2,4.2,3.6,4.8
		L131.3,148z M130.9,154.8c-3.2,0-5-1.1-5-2.8s1.8-2.8,5-2.8c3.2,0,5,1.1,5,2.8S134.1,154.8,130.9,154.8z M127.2,152
		c0,1.1,1.4,1.8,3.7,1.8c2.3,0,3.7-0.6,3.7-1.8c0-1.1-1.4-1.8-3.7-1.8C128.6,150.2,127.2,150.9,127.2,152z M131.2,144.4v-1.1h3.2
		v-3.4h1.3v9.2h-1.3v-4.7H131.2z"/>
	<path d="M146.7,144.6c0,2.2-1.7,3.7-4,3.7s-4-1.5-4-3.7c0-2.2,1.8-3.7,4-3.7C144.9,140.9,146.7,142.4,146.7,144.6z M139.9,144.6
		c0,1.5,1.2,2.5,2.8,2.5c1.6,0,2.8-1.1,2.8-2.5c0-1.5-1.1-2.6-2.8-2.6C141.1,142,139.9,143.1,139.9,144.6z M140.8,154.3v-4.6h1.3
		v3.5h8.8v1.1H140.8z M149.2,150.8v-10.8h1.3v10.8H149.2z"/>
</g>
<text transform="matrix(1 0 0 1 152.4399 153.6001)" class="st6 st7">)</text>
<g>
	<path d="M159,151.1v-9.9h1.3v3.8h4.4v-3.8h1.3v9.9H159z M164.6,146h-4.4v4h4.4V146z M169.9,146.9v7.9h-1.3v-14.9h1.3v5.9h2.4v1.1
		H169.9z"/>
	<path d="M182.2,150.4c-1.8,0.4-5.4,0.7-7.6,0.7h-0.9v-9.6h1.3v8.5c2.5,0,5.5-0.2,7.1-0.6L182.2,150.4z M184.6,145.8h2.4v1.1h-2.4
		v7.9h-1.3v-14.9h1.3V145.8z"/>
	<path d="M197,150.4c-1.8,0.4-5.4,0.7-7.6,0.7h-0.9v-9.6h1.3v8.5c2.5,0,5.5-0.2,7.1-0.6L197,150.4z M199.3,145.8h2.4v1.1h-2.4v7.9
		h-1.3v-14.9h1.3V145.8z"/>
	<path d="M203.1,147.7v-6.8h1.2v2.5h1.5v-2.5h1.2v6.8H203.1z M205.7,144.5h-1.5v2.2h1.5V144.5z M209.5,154.7c-3.2,0-4.9-1.1-4.9-2.8
		c0-1.7,1.7-2.8,4.9-2.8c3.2,0,4.9,1.2,4.9,2.8C214.5,153.6,212.8,154.7,209.5,154.7z M209.5,150.1c-2.2,0-3.6,0.7-3.6,1.8
		c0,1.1,1.3,1.8,3.6,1.8c2.2,0,3.6-0.7,3.6-1.8C213.1,150.8,211.8,150.1,209.5,150.1z M207.9,147.7v-6.8h1.2v2.5h1.5v-2.5h1.2v6.8
		H207.9z M210.6,144.4h-1.5v2.2h1.5V144.4z M214.4,144.9v3.9h-1.3v-8.8h1.3v3.9h2v1.1H214.4z"/>
</g>
<g>
	<defs>
		<rect id="SVGID_3_" x="311.4" y="77.3" width="77.3" height="143"/>
	</defs>
	<clipPath id="SVGID_4_">
		<use xlink:href="#SVGID_3_"  style="overflow:visible;"/>
	</clipPath>
	<g class="st8">
		<path d="M321.7,151.1v-9.9h1.3v3.8h4.4v-3.8h1.3v9.9H321.7z M327.3,146H323v4h4.4V146z M332.6,146.9v7.9h-1.3v-14.9h1.3v5.9h2.4
			v1.1H332.6z"/>
		<path d="M345,150.4c-1.8,0.4-5.4,0.7-7.6,0.7h-0.9v-9.6h1.3v8.5c2.5,0,5.5-0.2,7.1-0.6L345,150.4z M347.3,145.8h2.4v1.1h-2.4v7.9
			H346v-14.9h1.3V145.8z"/>
		<path d="M359.7,150.4c-1.8,0.4-5.4,0.7-7.6,0.7h-0.9v-9.6h1.3v8.5c2.5,0,5.5-0.2,7.1-0.6L359.7,150.4z M362.1,145.8h2.4v1.1h-2.4
			v7.9h-1.3v-14.9h1.3V145.8z"/>
		<path d="M365.8,147.7v-6.8h1.2v2.5h1.5v-2.5h1.2v6.8H365.8z M368.4,144.5h-1.5v2.2h1.5V144.5z M372.2,154.7
			c-3.2,0-4.9-1.1-4.9-2.8c0-1.7,1.7-2.8,4.9-2.8c3.2,0,4.9,1.2,4.9,2.8C377.2,153.6,375.5,154.7,372.2,154.7z M372.2,150.1
			c-2.2,0-3.6,0.7-3.6,1.8c0,1.1,1.3,1.8,3.6,1.8c2.2,0,3.6-0.7,3.6-1.8C375.9,150.8,374.5,150.1,372.2,150.1z M370.6,147.7v-6.8
			h1.2v2.5h1.5v-2.5h1.2v6.8H370.6z M373.3,144.4h-1.5v2.2h1.5V144.4z M377.1,144.9v3.9h-1.3v-8.8h1.3v3.9h2v1.1H377.1z"/>
	</g>
</g>
<g>
	<path d="M409.4,148v-1.1h5.5v-3.1h1.3v3.1h6.6v1.1H409.4z M421.2,142.1c0,1.2-0.2,3-0.4,3.9l-1.3-0.2c0.2-0.8,0.3-2.1,0.4-2.8
		l0-1.2h-9v-1.1h10.4V142.1z M411.1,154.6v-5.1h10v5.1H411.1z M419.8,150.5h-7.4v3h7.4V150.5z"/>
	<path d="M424.5,140.8h6.5v1.1h-2.6v0.4c0,2.3,1.7,3.6,3.1,4.1l-0.7,1c-1.1-0.5-2.5-1.7-2.9-2.8c-0.4,1.2-1.7,2.5-3,3.3l-0.8-1
		c1.6-0.8,3.1-2.4,3.1-4.6v-0.4h-2.7V140.8z M426.9,154.7v-3.6h8.4v-1.5h-8.5v-1.1h9.8v3.5h-8.4v1.6h9v1.1H426.9z M432.6,147.6v-3.5
		h-2.3v-1.1h2.3v-2.8h1.3v7.4H432.6z M435.4,147.7v-7.8h1.3v7.8H435.4z"/>
	<path d="M448.6,150.7c-1.5,0.2-4.1,0.5-7.4,0.5h-1.5v-5.7h5.6v-3.1h-5.7v-1.1h7v5.3H441v3.6h0.4c2.4,0,5.3-0.1,7.1-0.5L448.6,150.7
		z M451.1,139.9v14.9h-1.3v-14.9H451.1z"/>
</g>
<g>
	<path d="M485.4,151.1v-9.9h1.3v3.8h4.4v-3.8h1.3v9.9H485.4z M491,146h-4.4v4h4.4V146z M496.3,146.9v7.9H495v-14.9h1.3v5.9h2.4v1.1
		H496.3z"/>
	<path d="M508.7,150.4c-1.8,0.4-5.4,0.7-7.6,0.7h-0.9v-9.6h1.3v8.5c2.5,0,5.5-0.2,7.1-0.6L508.7,150.4z M511,145.8h2.4v1.1H511v7.9
		h-1.3v-14.9h1.3V145.8z"/>
	<path d="M523.4,150.4c-1.8,0.4-5.4,0.7-7.6,0.7h-0.9v-9.6h1.3v8.5c2.5,0,5.5-0.2,7.1-0.6L523.4,150.4z M525.8,145.8h2.4v1.1h-2.4
		v7.9h-1.3v-14.9h1.3V145.8z"/>
	<path d="M529.5,147.7v-6.8h1.2v2.5h1.5v-2.5h1.2v6.8H529.5z M532.1,144.5h-1.5v2.2h1.5V144.5z M535.9,154.7c-3.2,0-4.9-1.1-4.9-2.8
		c0-1.7,1.7-2.8,4.9-2.8c3.2,0,4.9,1.2,4.9,2.8C540.9,153.6,539.2,154.7,535.9,154.7z M535.9,150.1c-2.2,0-3.6,0.7-3.6,1.8
		c0,1.1,1.3,1.8,3.6,1.8c2.2,0,3.6-0.7,3.6-1.8C539.6,150.8,538.2,150.1,535.9,150.1z M534.3,147.7v-6.8h1.2v2.5h1.5v-2.5h1.2v6.8
		H534.3z M537,144.4h-1.5v2.2h1.5V144.4z M540.8,144.9v3.9h-1.3v-8.8h1.3v3.9h2v1.1H540.8z"/>
</g>
<g>
	<path d="M571.5,151.1v-9.4h1.1v3.7h1.1v-3.8h1.1v9.4H571.5z M573.8,146.5h-1.1v3.5h1.1V146.5z M575.8,151.1v-9.4h1.1v3.8h1.2v-3.8
		h1.1v9.4H575.8z M578.1,146.5h-1.2v3.5h1.2V146.5z M582.7,154.8V147h-1.3v7h-1.2v-13.7h1.2v5.6h1.3v-6h1.2v14.9H582.7z"/>
	<path d="M586.2,151.1v-9.4h1.1v3.7h1.1v-3.8h1.1v9.4H586.2z M588.5,146.5h-1.1v3.5h1.1V146.5z M590.5,151.1v-9.4h1.1v3.8h1.2v-3.8
		h1.1v9.4H590.5z M592.8,146.5h-1.2v3.5h1.2V146.5z M597.4,154.8V147h-1.3v7H595v-13.7h1.2v5.6h1.3v-6h1.2v14.9H597.4z"/>
	<path d="M600.6,152.9v-1.1h6v-2.5h-4.4v-4.6h8.8v-2.4h-8.8v-1.1h10.1v4.5h-8.8v2.5h9.2v1.1h-4.8v2.5h6.1v1.1H600.6z"/>
</g>
<g>
	<path d="M79.3,182.4V177h-6v-1.1h13.4v1.1h-6.1v5.4H79.3z M85.5,174.4c-2.2-0.5-4.7-1.9-5.6-3.6c-0.7,1.7-3.2,3.2-5.5,3.6l-0.6-1.1
		c2.9-0.4,5.5-2.3,5.5-4.3v-1h1.4v1c0,2,2.9,3.9,5.5,4.2L85.5,174.4z"/>
</g>
<text transform="matrix(1 0 0 1 124.9399 181.2002)" class="st6 st7">(</text>
<g>
	<path d="M138.6,175.6c-1.4-0.7-2.9-2-3.5-3.5c-0.5,1.5-1.9,3.1-3.6,4l-0.8-1c2.1-1,3.7-2.9,3.7-5.3v-1.5h1.3v1.4
		c0,2.4,2,4.2,3.6,4.8L138.6,175.6z M138.3,182.4c-3.2,0-5-1.1-5-2.8s1.8-2.8,5-2.8c3.2,0,5,1.1,5,2.8S141.5,182.4,138.3,182.4z
		 M134.6,179.6c0,1.1,1.4,1.8,3.7,1.8c2.3,0,3.7-0.6,3.7-1.8c0-1.1-1.4-1.8-3.7-1.8C136,177.8,134.6,178.5,134.6,179.6z M138.6,172
		V171h3.2v-3.4h1.3v9.2h-1.3V172H138.6z"/>
	<path d="M154,172.2c0,2.2-1.7,3.7-4,3.7s-4-1.5-4-3.7c0-2.2,1.8-3.7,4-3.7C152.3,168.5,154,170,154,172.2z M147.3,172.2
		c0,1.5,1.2,2.5,2.8,2.5c1.6,0,2.8-1.1,2.8-2.5c0-1.5-1.1-2.6-2.8-2.6C148.5,169.6,147.3,170.7,147.3,172.2z M148.1,181.9v-4.6h1.3
		v3.5h8.8v1.1H148.1z M156.5,178.4v-10.8h1.3v10.8H156.5z"/>
</g>
<text transform="matrix(1 0 0 1 159.8149 181.2002)" class="st6 st7">)</text>
<g>
	<path d="M166.2,178.7v-9.4h1.1v3.7h1.1v-3.8h1.1v9.4H166.2z M168.5,174.1h-1.1v3.5h1.1V174.1z M170.5,178.7v-9.4h1.1v3.8h1.2v-3.8
		h1.1v9.4H170.5z M172.8,174.1h-1.2v3.5h1.2V174.1z M177.4,182.4v-7.8h-1.3v7h-1.2v-13.7h1.2v5.6h1.3v-6h1.2v14.9H177.4z"/>
	<path d="M180.9,178.7v-9.4h1.1v3.7h1.1v-3.8h1.1v9.4H180.9z M183.2,174.1h-1.1v3.5h1.1V174.1z M185.2,178.7v-9.4h1.1v3.8h1.2v-3.8
		h1.1v9.4H185.2z M187.5,174.1h-1.2v3.5h1.2V174.1z M192.1,182.4v-7.8h-1.3v7h-1.2v-13.7h1.2v5.6h1.3v-6h1.2v14.9H192.1z"/>
	<path d="M195.3,180.5v-1.1h6v-2.5H197v-4.6h8.8v-2.4h-8.8v-1.1h10.1v4.5h-8.8v2.5h9.2v1.1h-4.8v2.5h6.1v1.1H195.3z"/>
</g>
<g>
	<path d="M328.5,175.6v-1.1h5.5v-3.1h1.3v3.1h6.6v1.1H328.5z M340.4,169.7c0,1.2-0.2,3-0.4,3.9l-1.3-0.2c0.2-0.8,0.3-2.1,0.4-2.8
		l0-1.2h-9v-1.1h10.4V169.7z M330.2,182.2v-5.1h10v5.1H330.2z M338.9,178.1h-7.4v3h7.4V178.1z"/>
	<path d="M343.7,168.4h6.5v1.1h-2.6v0.4c0,2.3,1.7,3.6,3.1,4.1l-0.7,1c-1.1-0.5-2.5-1.7-2.9-2.8c-0.4,1.2-1.7,2.5-3,3.3l-0.8-1
		c1.6-0.8,3.1-2.4,3.1-4.6v-0.4h-2.7V168.4z M346.1,182.3v-3.6h8.4v-1.5H346v-1.1h9.8v3.5h-8.4v1.6h9v1.1H346.1z M351.7,175.2v-3.5
		h-2.3v-1.1h2.3v-2.8h1.3v7.4H351.7z M354.5,175.3v-7.8h1.3v7.8H354.5z"/>
	<path d="M367.7,178.3c-1.5,0.2-4.1,0.5-7.4,0.5h-1.5v-5.7h5.6V170h-5.7v-1.1h7v5.3h-5.6v3.6h0.4c2.4,0,5.3-0.1,7.1-0.5L367.7,178.3
		z M370.2,167.5v14.9h-1.3v-14.9H370.2z"/>
</g>
<g>
	<path d="M402.5,178.7v-9.9h1.3v3.8h4.4v-3.8h1.3v9.9H402.5z M408.2,173.6h-4.4v4h4.4V173.6z M413.5,174.5v7.9h-1.3v-14.9h1.3v5.9
		h2.4v1.1H413.5z"/>
	<path d="M425.8,178c-1.8,0.4-5.4,0.7-7.6,0.7h-0.9V169h1.3v8.5c2.5,0,5.5-0.2,7.1-0.6L425.8,178z M428.2,173.4h2.4v1.1h-2.4v7.9
		h-1.3v-14.9h1.3V173.4z"/>
	<path d="M440.6,178c-1.8,0.4-5.4,0.7-7.6,0.7H432V169h1.3v8.5c2.5,0,5.5-0.2,7.1-0.6L440.6,178z M442.9,173.4h2.4v1.1h-2.4v7.9
		h-1.3v-14.9h1.3V173.4z"/>
	<path d="M446.6,175.3v-6.8h1.2v2.5h1.5v-2.5h1.2v6.8H446.6z M449.3,172.1h-1.5v2.2h1.5V172.1z M453.1,182.3c-3.2,0-4.9-1.1-4.9-2.8
		c0-1.7,1.7-2.8,4.9-2.8c3.2,0,4.9,1.2,4.9,2.8C458,181.2,456.3,182.3,453.1,182.3z M453.1,177.7c-2.2,0-3.6,0.7-3.6,1.8
		c0,1.1,1.3,1.8,3.6,1.8c2.2,0,3.6-0.7,3.6-1.8C456.7,178.4,455.3,177.7,453.1,177.7z M451.5,175.3v-6.8h1.2v2.5h1.5v-2.5h1.2v6.8
		H451.5z M454.2,172h-1.5v2.2h1.5V172z M458,172.5v3.9h-1.3v-8.8h1.3v3.9h2v1.1H458z"/>
</g>
<g>
	<path d="M492.6,178.7v-9.4h1.1v3.7h1.1v-3.8h1.1v9.4H492.6z M494.9,174.1h-1.1v3.5h1.1V174.1z M496.9,178.7v-9.4h1.1v3.8h1.2v-3.8
		h1.1v9.4H496.9z M499.2,174.1H498v3.5h1.2V174.1z M503.8,182.4v-7.8h-1.3v7h-1.2v-13.7h1.2v5.6h1.3v-6h1.2v14.9H503.8z"/>
	<path d="M507.4,178.7v-9.4h1.1v3.7h1.1v-3.8h1.1v9.4H507.4z M509.6,174.1h-1.1v3.5h1.1V174.1z M511.6,178.7v-9.4h1.1v3.8h1.2v-3.8
		h1.1v9.4H511.6z M513.9,174.1h-1.2v3.5h1.2V174.1z M518.5,182.4v-7.8h-1.3v7h-1.2v-13.7h1.2v5.6h1.3v-6h1.2v14.9H518.5z"/>
	<path d="M521.7,180.5v-1.1h6v-2.5h-4.4v-4.6h8.8v-2.4h-8.8v-1.1h10.1v4.5h-8.8v2.5h9.2v1.1H529v2.5h6.1v1.1H521.7z"/>
</g>
<g>
	<path d="M73.2,205.1v-1.1h6v-1.7H75v-5.1h10v5.1h-4.4v1.7h6.1v1.1H73.2z M85,206.6v4.9h-1.3v-3.8h-9v-1.1H85z M83.6,198.3h-7.4v2.9
		h7.4V198.3z"/>
</g>
<text transform="matrix(1 0 0 1 124.9399 210.2402)" class="st6 st7">(</text>
<g>
	<path d="M138.6,204.6c-1.4-0.7-2.9-2-3.5-3.5c-0.5,1.5-1.9,3.1-3.6,4l-0.8-1c2.1-1,3.7-2.9,3.7-5.3v-1.5h1.3v1.4
		c0,2.4,2,4.2,3.6,4.8L138.6,204.6z M138.3,211.4c-3.2,0-5-1.1-5-2.8s1.8-2.8,5-2.8c3.2,0,5,1.1,5,2.8S141.5,211.4,138.3,211.4z
		 M134.6,208.6c0,1.1,1.4,1.8,3.7,1.8c2.3,0,3.7-0.6,3.7-1.8c0-1.1-1.4-1.8-3.7-1.8C136,206.9,134.6,207.5,134.6,208.6z
		 M138.6,201.1V200h3.2v-3.4h1.3v9.2h-1.3v-4.7H138.6z"/>
	<path d="M154,201.3c0,2.2-1.7,3.7-4,3.7s-4-1.5-4-3.7c0-2.2,1.8-3.7,4-3.7C152.3,197.6,154,199.1,154,201.3z M147.3,201.3
		c0,1.5,1.2,2.5,2.8,2.5c1.6,0,2.8-1.1,2.8-2.5c0-1.5-1.1-2.6-2.8-2.6C148.5,198.7,147.3,199.8,147.3,201.3z M148.1,210.9v-4.6h1.3
		v3.5h8.8v1.1H148.1z M156.5,207.4v-10.8h1.3v10.8H156.5z"/>
</g>
<text transform="matrix(1 0 0 1 159.8149 210.2402)" class="st6 st7">)</text>
<g>
	<path d="M166.2,207.7v-9.4h1.1v3.7h1.1v-3.8h1.1v9.4H166.2z M168.5,203.1h-1.1v3.5h1.1V203.1z M170.5,207.7v-9.4h1.1v3.8h1.2v-3.8
		h1.1v9.4H170.5z M172.8,203.1h-1.2v3.5h1.2V203.1z M177.4,211.4v-7.8h-1.3v7h-1.2v-13.7h1.2v5.6h1.3v-6h1.2v14.9H177.4z"/>
	<path d="M180.9,207.7v-9.4h1.1v3.7h1.1v-3.8h1.1v9.4H180.9z M183.2,203.1h-1.1v3.5h1.1V203.1z M185.2,207.7v-9.4h1.1v3.8h1.2v-3.8
		h1.1v9.4H185.2z M187.5,203.1h-1.2v3.5h1.2V203.1z M192.1,211.4v-7.8h-1.3v7h-1.2v-13.7h1.2v5.6h1.3v-6h1.2v14.9H192.1z"/>
	<path d="M195.3,209.5v-1.1h6v-2.5H197v-4.6h8.8v-2.4h-8.8v-1.1h10.1v4.5h-8.8v2.5h9.2v1.1h-4.8v2.5h6.1v1.1H195.3z"/>
</g>
<g>
	<defs>
		<rect id="SVGID_5_" x="311.4" y="133.9" width="77.3" height="143"/>
	</defs>
	<clipPath id="SVGID_6_">
		<use xlink:href="#SVGID_5_"  style="overflow:visible;"/>
	</clipPath>
	<g class="st9">
		<path d="M321.7,207.7v-9.9h1.3v3.8h4.4v-3.8h1.3v9.9H321.7z M327.3,202.7H323v4h4.4V202.7z M332.6,203.6v7.9h-1.3v-14.9h1.3v5.9
			h2.4v1.1H332.6z"/>
		<path d="M345,207c-1.8,0.4-5.4,0.7-7.6,0.7h-0.9v-9.6h1.3v8.5c2.5,0,5.5-0.2,7.1-0.6L345,207z M347.3,202.5h2.4v1.1h-2.4v7.9H346
			v-14.9h1.3V202.5z"/>
		<path d="M359.7,207c-1.8,0.4-5.4,0.7-7.6,0.7h-0.9v-9.6h1.3v8.5c2.5,0,5.5-0.2,7.1-0.6L359.7,207z M362.1,202.5h2.4v1.1h-2.4v7.9
			h-1.3v-14.9h1.3V202.5z"/>
		<path d="M365.8,204.4v-6.8h1.2v2.5h1.5v-2.5h1.2v6.8H365.8z M368.4,201.1h-1.5v2.2h1.5V201.1z M372.2,211.4
			c-3.2,0-4.9-1.1-4.9-2.8c0-1.7,1.7-2.8,4.9-2.8c3.2,0,4.9,1.2,4.9,2.8C377.2,210.2,375.5,211.4,372.2,211.4z M372.2,206.8
			c-2.2,0-3.6,0.7-3.6,1.8c0,1.1,1.3,1.8,3.6,1.8c2.2,0,3.6-0.7,3.6-1.8C375.9,207.5,374.5,206.8,372.2,206.8z M370.6,204.4v-6.8
			h1.2v2.5h1.5v-2.5h1.2v6.8H370.6z M373.3,201.1h-1.5v2.2h1.5V201.1z M377.1,201.5v3.9h-1.3v-8.8h1.3v3.9h2v1.1H377.1z"/>
	</g>
</g>
<g>
	<path d="M409.8,207.7v-9.4h1.1v3.7h1.1v-3.8h1.1v9.4H409.8z M412,203.1h-1.1v3.5h1.1V203.1z M414,207.7v-9.4h1.1v3.8h1.2v-3.8h1.1
		v9.4H414z M416.3,203.1h-1.2v3.5h1.2V203.1z M421,211.4v-7.8h-1.3v7h-1.2v-13.7h1.2v5.6h1.3v-6h1.2v14.9H421z"/>
	<path d="M424.5,207.7v-9.4h1.1v3.7h1.1v-3.8h1.1v9.4H424.5z M426.8,203.1h-1.1v3.5h1.1V203.1z M428.8,207.7v-9.4h1.1v3.8h1.2v-3.8
		h1.1v9.4H428.8z M431.1,203.1h-1.2v3.5h1.2V203.1z M435.7,211.4v-7.8h-1.3v7h-1.2v-13.7h1.2v5.6h1.3v-6h1.2v14.9H435.7z"/>
	<path d="M438.9,209.5v-1.1h6v-2.5h-4.4v-4.6h8.8v-2.4h-8.8v-1.1h10.1v4.5h-8.8v2.5h9.2v1.1h-4.8v2.5h6.1v1.1H438.9z"/>
</g>
<g>
	<path d="M492.6,207.7v-9.4h1.1v3.7h1.1v-3.8h1.1v9.4H492.6z M494.9,203.1h-1.1v3.5h1.1V203.1z M496.9,207.7v-9.4h1.1v3.8h1.2v-3.8
		h1.1v9.4H496.9z M499.2,203.1H498v3.5h1.2V203.1z M503.8,211.4v-7.8h-1.3v7h-1.2v-13.7h1.2v5.6h1.3v-6h1.2v14.9H503.8z"/>
	<path d="M507.4,207.7v-9.4h1.1v3.7h1.1v-3.8h1.1v9.4H507.4z M509.6,203.1h-1.1v3.5h1.1V203.1z M511.6,207.7v-9.4h1.1v3.8h1.2v-3.8
		h1.1v9.4H511.6z M513.9,203.1h-1.2v3.5h1.2V203.1z M518.5,211.4v-7.8h-1.3v7h-1.2v-13.7h1.2v5.6h1.3v-6h1.2v14.9H518.5z"/>
	<path d="M521.7,209.5v-1.1h6v-2.5h-4.4v-4.6h8.8v-2.4h-8.8v-1.1h10.1v4.5h-8.8v2.5h9.2v1.1H529v2.5h6.1v1.1H521.7z"/>
</g>
<g>
	<defs>
		<rect id="SVGID_7_" x="554.1" y="133.9" width="77" height="143"/>
	</defs>
	<clipPath id="SVGID_8_">
		<use xlink:href="#SVGID_7_"  style="overflow:visible;"/>
	</clipPath>
	<g class="st10">
		<path d="M564.3,207.7v-9.9h1.3v3.8h4.4v-3.8h1.3v9.9H564.3z M569.9,202.7h-4.4v4h4.4V202.7z M575.2,203.6v7.9h-1.3v-14.9h1.3v5.9
			h2.4v1.1H575.2z"/>
		<path d="M587.5,207c-1.8,0.4-5.4,0.7-7.6,0.7H579v-9.6h1.3v8.5c2.5,0,5.5-0.2,7.1-0.6L587.5,207z M589.9,202.5h2.4v1.1h-2.4v7.9
			h-1.3v-14.9h1.3V202.5z"/>
		<path d="M602.3,207c-1.8,0.4-5.4,0.7-7.6,0.7h-0.9v-9.6h1.3v8.5c2.5,0,5.5-0.2,7.1-0.6L602.3,207z M604.6,202.5h2.4v1.1h-2.4v7.9
			h-1.3v-14.9h1.3V202.5z"/>
		<path d="M608.4,204.4v-6.8h1.2v2.5h1.5v-2.5h1.2v6.8H608.4z M611,201.1h-1.5v2.2h1.5V201.1z M614.8,211.4c-3.2,0-4.9-1.1-4.9-2.8
			c0-1.7,1.7-2.8,4.9-2.8c3.2,0,4.9,1.2,4.9,2.8C619.8,210.2,618.1,211.4,614.8,211.4z M614.8,206.8c-2.2,0-3.6,0.7-3.6,1.8
			c0,1.1,1.3,1.8,3.6,1.8c2.2,0,3.6-0.7,3.6-1.8C618.4,207.5,617.1,206.8,614.8,206.8z M613.2,204.4v-6.8h1.2v2.5h1.5v-2.5h1.2v6.8
			H613.2z M615.9,201.1h-1.5v2.2h1.5V201.1z M619.7,201.5v3.9h-1.3v-8.8h1.3v3.9h2v1.1H619.7z"/>
	</g>
</g>
<g>
	<path d="M84.4,231.8h2.3v1.1H73.2v-1.1h9.9c0.3-1.1,0.5-3.3,0.5-4.5H75v-1.1h9.9C84.9,228.2,84.7,230.3,84.4,231.8z M74.9,239.9
		v-5.2H85v5.2H74.9z M83.7,235.8h-7.6v3h7.6V235.8z"/>
</g>
<text transform="matrix(1 0 0 1 124.9399 239.04)" class="st6 st7">(</text>
<g>
	<path d="M138.6,233.4c-1.4-0.7-2.9-2-3.5-3.5c-0.5,1.5-1.9,3.1-3.6,4l-0.8-1c2.1-1,3.7-2.9,3.7-5.3v-1.5h1.3v1.4
		c0,2.4,2,4.2,3.6,4.8L138.6,233.4z M138.3,240.2c-3.2,0-5-1.1-5-2.8s1.8-2.8,5-2.8c3.2,0,5,1.1,5,2.8S141.5,240.2,138.3,240.2z
		 M134.6,237.4c0,1.1,1.4,1.8,3.7,1.8c2.3,0,3.7-0.6,3.7-1.8c0-1.1-1.4-1.8-3.7-1.8C136,235.7,134.6,236.3,134.6,237.4z
		 M138.6,229.9v-1.1h3.2v-3.4h1.3v9.2h-1.3v-4.7H138.6z"/>
	<path d="M154,230.1c0,2.2-1.7,3.7-4,3.7s-4-1.5-4-3.7c0-2.2,1.8-3.7,4-3.7C152.3,226.4,154,227.9,154,230.1z M147.3,230.1
		c0,1.5,1.2,2.5,2.8,2.5c1.6,0,2.8-1.1,2.8-2.5c0-1.5-1.1-2.6-2.8-2.6C148.5,227.5,147.3,228.6,147.3,230.1z M148.1,239.7v-4.6h1.3
		v3.5h8.8v1.1H148.1z M156.5,236.2v-10.8h1.3v10.8H156.5z"/>
</g>
<text transform="matrix(1 0 0 1 159.8149 239.04)" class="st6 st7">)</text>
<g>
	<path d="M166.2,236.5v-9.4h1.1v3.7h1.1v-3.8h1.1v9.4H166.2z M168.5,231.9h-1.1v3.5h1.1V231.9z M170.5,236.5v-9.4h1.1v3.8h1.2v-3.8
		h1.1v9.4H170.5z M172.8,231.9h-1.2v3.5h1.2V231.9z M177.4,240.2v-7.8h-1.3v7h-1.2v-13.7h1.2v5.6h1.3v-6h1.2v14.9H177.4z"/>
	<path d="M180.9,236.5v-9.4h1.1v3.7h1.1v-3.8h1.1v9.4H180.9z M183.2,231.9h-1.1v3.5h1.1V231.9z M185.2,236.5v-9.4h1.1v3.8h1.2v-3.8
		h1.1v9.4H185.2z M187.5,231.9h-1.2v3.5h1.2V231.9z M192.1,240.2v-7.8h-1.3v7h-1.2v-13.7h1.2v5.6h1.3v-6h1.2v14.9H192.1z"/>
	<path d="M195.3,238.3v-1.1h6v-2.5H197v-4.6h8.8v-2.4h-8.8v-1.1h10.1v4.5h-8.8v2.5h9.2v1.1h-4.8v2.5h6.1v1.1H195.3z"/>
</g>
<g>
	<defs>
		<rect id="SVGID_9_" x="311.4" y="162.7" width="77.3" height="143"/>
	</defs>
	<clipPath id="SVGID_10_">
		<use xlink:href="#SVGID_9_"  style="overflow:visible;"/>
	</clipPath>
	<g class="st11">
		<path d="M321.7,236.5v-9.9h1.3v3.8h4.4v-3.8h1.3v9.9H321.7z M327.3,231.5H323v4h4.4V231.5z M332.6,232.4v7.9h-1.3v-14.9h1.3v5.9
			h2.4v1.1H332.6z"/>
		<path d="M345,235.8c-1.8,0.4-5.4,0.7-7.6,0.7h-0.9v-9.6h1.3v8.5c2.5,0,5.5-0.2,7.1-0.6L345,235.8z M347.3,231.3h2.4v1.1h-2.4v7.9
			H346v-14.9h1.3V231.3z"/>
		<path d="M359.7,235.8c-1.8,0.4-5.4,0.7-7.6,0.7h-0.9v-9.6h1.3v8.5c2.5,0,5.5-0.2,7.1-0.6L359.7,235.8z M362.1,231.3h2.4v1.1h-2.4
			v7.9h-1.3v-14.9h1.3V231.3z"/>
		<path d="M365.8,233.2v-6.8h1.2v2.5h1.5v-2.5h1.2v6.8H365.8z M368.4,229.9h-1.5v2.2h1.5V229.9z M372.2,240.2
			c-3.2,0-4.9-1.1-4.9-2.8c0-1.7,1.7-2.8,4.9-2.8c3.2,0,4.9,1.2,4.9,2.8C377.2,239,375.5,240.2,372.2,240.2z M372.2,235.6
			c-2.2,0-3.6,0.7-3.6,1.8c0,1.1,1.3,1.8,3.6,1.8c2.2,0,3.6-0.7,3.6-1.8C375.9,236.3,374.5,235.6,372.2,235.6z M370.6,233.2v-6.8
			h1.2v2.5h1.5v-2.5h1.2v6.8H370.6z M373.3,229.9h-1.5v2.2h1.5V229.9z M377.1,230.3v3.9h-1.3v-8.8h1.3v3.9h2v1.1H377.1z"/>
	</g>
</g>
<g>
	<path d="M409.4,233.4v-1.1h5.5v-3.1h1.3v3.1h6.6v1.1H409.4z M421.2,227.5c0,1.2-0.2,3-0.4,3.9l-1.3-0.2c0.2-0.8,0.3-2.1,0.4-2.8
		l0-1.2h-9v-1.1h10.4V227.5z M411.1,240v-5.1h10v5.1H411.1z M419.8,236h-7.4v3h7.4V236z"/>
	<path d="M424.5,226.3h6.5v1.1h-2.6v0.4c0,2.3,1.7,3.6,3.1,4.1l-0.7,1c-1.1-0.5-2.5-1.7-2.9-2.8c-0.4,1.2-1.7,2.5-3,3.3l-0.8-1
		c1.6-0.8,3.1-2.4,3.1-4.6v-0.4h-2.7V226.3z M426.9,240.1v-3.6h8.4V235h-8.5V234h9.8v3.5h-8.4v1.6h9v1.1H426.9z M432.6,233.1v-3.5
		h-2.3v-1.1h2.3v-2.8h1.3v7.4H432.6z M435.4,233.2v-7.8h1.3v7.8H435.4z"/>
	<path d="M448.6,236.2c-1.5,0.2-4.1,0.5-7.4,0.5h-1.5v-5.7h5.6v-3.1h-5.7v-1.1h7v5.3H441v3.6h0.4c2.4,0,5.3-0.1,7.1-0.5L448.6,236.2
		z M451.1,225.4v14.9h-1.3v-14.9H451.1z"/>
</g>
<g>
	<path d="M492.6,236.5v-9.4h1.1v3.7h1.1v-3.8h1.1v9.4H492.6z M494.9,231.9h-1.1v3.5h1.1V231.9z M496.9,236.5v-9.4h1.1v3.8h1.2v-3.8
		h1.1v9.4H496.9z M499.2,231.9H498v3.5h1.2V231.9z M503.8,240.2v-7.8h-1.3v7h-1.2v-13.7h1.2v5.6h1.3v-6h1.2v14.9H503.8z"/>
	<path d="M507.4,236.5v-9.4h1.1v3.7h1.1v-3.8h1.1v9.4H507.4z M509.6,231.9h-1.1v3.5h1.1V231.9z M511.6,236.5v-9.4h1.1v3.8h1.2v-3.8
		h1.1v9.4H511.6z M513.9,231.9h-1.2v3.5h1.2V231.9z M518.5,240.2v-7.8h-1.3v7h-1.2v-13.7h1.2v5.6h1.3v-6h1.2v14.9H518.5z"/>
	<path d="M521.7,238.3v-1.1h6v-2.5h-4.4v-4.6h8.8v-2.4h-8.8v-1.1h10.1v4.5h-8.8v2.5h9.2v1.1H529v2.5h6.1v1.1H521.7z"/>
</g>
<g>
	<path d="M76.1,260v2.3h9.1v1.1h-4.6v2.9h6.1v1.1H73.2v-1.1h6v-2.9h-4.5v-7.7H85v1.1h-8.9v2.2h8.4v1.1H76.1z"/>
</g>
<g>
	<path d="M142.5,256h3.5c2.6,0,3.7,1.1,3.7,2.9c0,1.2-0.6,2.1-1.9,2.5v0.1c1.4,0.2,2.4,1,2.4,2.8c0,1.9-1.3,3.2-3.9,3.2h-3.8V256z
		 M145.8,260.9c1.4,0,2.5-0.5,2.5-2c0-1.4-0.8-1.9-2.4-1.9h-2v3.8H145.8z M146.3,266.2c1.6,0,2.5-0.7,2.5-2.2c0-1.5-1-2.1-2.7-2.1
		h-2.3v4.2H146.3z"/>
	<path d="M151.7,265.2c0-1.5,1-2.3,2.6-2.4l2.3-0.3v-0.9c0-1.3-0.6-1.6-2.1-1.6c-0.8,0-1.5,0.1-2,0.3v-0.9c0.7-0.3,1.5-0.5,2.5-0.5
		c1.9,0,2.9,0.8,2.9,2.5v6.1h-1.1l-0.1-0.7h-0.1c-0.4,0.5-1.1,0.9-2.2,0.9C152.8,267.5,151.7,266.7,151.7,265.2z M156.6,265.9v-2.5
		l-1.9,0.2c-1,0.1-1.5,0.5-1.5,1.5c0,0.9,0.6,1.4,1.6,1.4C155.5,266.5,156.2,266.2,156.6,265.9z"/>
	<path d="M160.3,258.9h1.2v0.7h0.1c0.8-0.5,1.9-0.9,2.9-0.9c1.6,0,2.4,0.7,2.4,2.3v6.3h-1.3v-6c0-1-0.4-1.4-1.7-1.4
		c-0.8,0-1.7,0.3-2.4,0.6v6.9h-1.3V258.9z"/>
	<path d="M168.9,265.2c0-1.5,1-2.3,2.6-2.4l2.3-0.3v-0.9c0-1.3-0.6-1.6-2.1-1.6c-0.8,0-1.5,0.1-2,0.3v-0.9c0.7-0.3,1.5-0.5,2.5-0.5
		c1.9,0,2.9,0.8,2.9,2.5v6.1H174l-0.1-0.7h-0.1c-0.4,0.5-1.1,0.9-2.2,0.9C170,267.5,168.9,266.7,168.9,265.2z M173.7,265.9v-2.5
		l-1.9,0.2c-1,0.1-1.5,0.5-1.5,1.5c0,0.9,0.6,1.4,1.6,1.4C172.6,266.5,173.3,266.2,173.7,265.9z"/>
	<path d="M177.4,258.9h1.2v0.7h0.1c0.8-0.5,1.9-0.9,2.9-0.9c1.6,0,2.4,0.7,2.4,2.3v6.3h-1.3v-6c0-1-0.4-1.4-1.7-1.4
		c-0.8,0-1.7,0.3-2.4,0.6v6.9h-1.3V258.9z"/>
	<path d="M186,265.2c0-1.5,1-2.3,2.6-2.4l2.3-0.3v-0.9c0-1.3-0.6-1.6-2.1-1.6c-0.8,0-1.5,0.1-2,0.3v-0.9c0.7-0.3,1.5-0.5,2.5-0.5
		c1.9,0,2.9,0.8,2.9,2.5v6.1h-1.1l-0.1-0.7h-0.1c-0.4,0.5-1.1,0.9-2.2,0.9C187.1,267.5,186,266.7,186,265.2z M190.8,265.9v-2.5
		l-1.9,0.2c-1,0.1-1.5,0.5-1.5,1.5c0,0.9,0.6,1.4,1.6,1.4C189.7,266.5,190.5,266.2,190.8,265.9z"/>
</g>
<g>
	<path d="M254,267.1V266c0.5,0.2,1.2,0.3,2,0.3c1.3,0,1.8-0.7,1.8-1.9V256h1.4v8.5c0,1.7-0.9,3-3.1,3
		C255.2,267.5,254.6,267.3,254,267.1z"/>
	<path d="M261.3,263.3V263c0-2.9,1.7-4.2,3.7-4.2c2.3,0,3.4,1.3,3.4,4v0.7h-5.7c0.1,2.1,1.1,2.9,2.9,2.9c1.1,0,1.9-0.3,2.6-0.6v1
		c-0.5,0.4-1.5,0.8-2.8,0.8C262.6,267.5,261.3,265.9,261.3,263.3z M262.6,262.4h4.4c0-1.8-0.7-2.6-2.1-2.6
		C263.9,259.8,262.8,260.4,262.6,262.4z"/>
	<path d="M270.4,255.2h1.3v12.2h-1.3V255.2z"/>
	<path d="M274.2,255.2h1.3v12.2h-1.3V255.2z"/>
	<path d="M277.6,269.7v-1c0.2,0,0.5,0.1,0.8,0.1c0.8,0,1.3-0.1,1.7-1.1l0.3-0.7l-3.2-8.1h1.4l2.5,6.4h0l2.3-6.4h1.3l-3.3,9
		c-0.6,1.5-1.3,2-2.7,2C278.3,269.9,277.9,269.8,277.6,269.7z"/>
</g>
<g>
	<path d="M325.2,261.9v-0.3c0-4.3,2.5-5.8,5.4-5.8c1.4,0,2.3,0.3,3,0.7v1.2c-0.7-0.3-1.6-0.7-3.1-0.7c-2.8,0-3.8,2.1-3.8,4.5v0.5
		c0,2.7,0.8,4.6,3.9,4.6c0.8,0,1.6-0.1,2.1-0.3V263h-2.4v-1.1h3.8v5.1c-0.9,0.3-2.1,0.6-3.5,0.6
		C327.2,267.6,325.2,265.8,325.2,261.9z"/>
	<path d="M336.3,258.9h1.2v1h0.1c0.5-0.5,1.4-1,2.3-1c0.2,0,0.4,0,0.5,0v1.2c-0.2,0-0.5-0.1-0.6-0.1c-0.9,0-1.7,0.3-2.3,0.7v6.6
		h-1.3V258.9z"/>
	<path d="M342.3,255.9h1.3v1.4h-1.3V255.9z M342.3,259h1.3v8.4h-1.3V259z"/>
	<path d="M345.5,266.9v-1c0.7,0.3,1.3,0.5,2.5,0.5c1.3,0,1.9-0.5,1.9-1.2c0-0.8-0.4-1.1-1.5-1.4l-0.8-0.2c-1.2-0.3-2.1-0.9-2.1-2.3
		s0.9-2.4,2.9-2.4c1.1,0,1.9,0.3,2.3,0.5v1.1c-0.4-0.2-1.3-0.4-2.2-0.4c-1.1,0-1.7,0.4-1.7,1.2c0,0.7,0.4,1,1.3,1.3l0.9,0.2
		c1.6,0.4,2.3,1,2.3,2.4c0,1.6-1.1,2.5-3,2.5C347.1,267.5,346.2,267.3,345.5,266.9z"/>
	<path d="M352.5,266.9v-1c0.7,0.3,1.3,0.5,2.5,0.5c1.3,0,1.9-0.5,1.9-1.2c0-0.8-0.4-1.1-1.5-1.4l-0.8-0.2c-1.2-0.3-2.1-0.9-2.1-2.3
		s0.9-2.4,2.9-2.4c1.1,0,1.9,0.3,2.3,0.5v1.1c-0.4-0.2-1.3-0.4-2.2-0.4c-1.1,0-1.7,0.4-1.7,1.2c0,0.7,0.4,1,1.3,1.3l0.9,0.2
		c1.6,0.4,2.3,1,2.3,2.4c0,1.6-1.1,2.5-3,2.5C354.1,267.5,353.2,267.3,352.5,266.9z"/>
	<path d="M360.1,255.9h1.3v1.4h-1.3V255.9z M360.2,259h1.3v8.4h-1.3V259z"/>
	<path d="M364,258.9h1.2v0.7h0.1c0.8-0.5,1.9-0.9,2.9-0.9c1.6,0,2.4,0.7,2.4,2.3v6.3h-1.3v-6c0-1-0.4-1.4-1.7-1.4
		c-0.8,0-1.7,0.3-2.4,0.6v6.9H364V258.9z"/>
	<path d="M373.1,255.9h1.3v1.4h-1.3V255.9z M373.1,259h1.3v8.4h-1.3V259z"/>
</g>
<g>
	<path d="M406,261.9v-0.3c0-4.3,2.5-5.8,5.4-5.8c1.4,0,2.3,0.3,3,0.7v1.2c-0.7-0.3-1.6-0.7-3.1-0.7c-2.8,0-3.8,2.1-3.8,4.5v0.5
		c0,2.7,0.8,4.6,3.9,4.6c0.8,0,1.6-0.1,2.1-0.3V263H411v-1.1h3.8v5.1c-0.9,0.3-2.1,0.6-3.5,0.6C408.1,267.6,406,265.8,406,261.9z"/>
	<path d="M417.2,258.9h1.2v1h0.1c0.5-0.5,1.4-1,2.3-1c0.2,0,0.4,0,0.5,0v1.2c-0.2,0-0.5-0.1-0.6-0.1c-0.8,0-1.7,0.3-2.3,0.7v6.6
		h-1.3V258.9z"/>
	<path d="M423.1,255.9h1.3v1.4h-1.3V255.9z M423.1,259h1.3v8.4h-1.3V259z"/>
	<path d="M426.4,266.9v-1c0.7,0.3,1.3,0.5,2.5,0.5c1.3,0,1.9-0.5,1.9-1.2c0-0.8-0.4-1.1-1.5-1.4l-0.8-0.2c-1.2-0.3-2.1-0.9-2.1-2.3
		s0.9-2.4,2.9-2.4c1.1,0,1.9,0.3,2.3,0.5v1.1c-0.4-0.2-1.3-0.4-2.2-0.4c-1.1,0-1.7,0.4-1.7,1.2c0,0.7,0.4,1,1.3,1.3l0.9,0.2
		c1.6,0.4,2.3,1,2.3,2.4c0,1.6-1.1,2.5-3,2.5C428,267.5,427.1,267.3,426.4,266.9z"/>
	<path d="M433.4,266.9v-1c0.7,0.3,1.3,0.5,2.5,0.5c1.3,0,1.9-0.5,1.9-1.2c0-0.8-0.4-1.1-1.5-1.4l-0.8-0.2c-1.2-0.3-2.1-0.9-2.1-2.3
		s0.9-2.4,2.9-2.4c1.1,0,1.9,0.3,2.3,0.5v1.1c-0.4-0.2-1.3-0.4-2.2-0.4c-1.1,0-1.7,0.4-1.7,1.2c0,0.7,0.4,1,1.3,1.3l0.9,0.2
		c1.6,0.4,2.3,1,2.3,2.4c0,1.6-1.1,2.5-3,2.5C435,267.5,434.1,267.3,433.4,266.9z"/>
	<path d="M441,255.9h1.3v1.4H441V255.9z M441,259h1.3v8.4H441V259z"/>
	<path d="M444.8,258.9h1.2v0.7h0.1c0.8-0.5,1.9-0.9,2.9-0.9c1.6,0,2.4,0.7,2.4,2.3v6.3h-1.3v-6c0-1-0.4-1.4-1.7-1.4
		c-0.8,0-1.7,0.3-2.4,0.6v6.9h-1.3V258.9z"/>
	<path d="M454,255.9h1.3v1.4H454V255.9z M454,259h1.3v8.4H454V259z"/>
</g>
<g>
	<path d="M489.1,256h3.5c2.6,0,3.7,1.1,3.7,2.9c0,1.2-0.6,2.1-1.9,2.5v0.1c1.4,0.2,2.4,1,2.4,2.8c0,1.9-1.3,3.2-3.9,3.2h-3.8V256z
		 M492.4,260.9c1.4,0,2.5-0.5,2.5-2c0-1.4-0.8-1.9-2.4-1.9h-2v3.8H492.4z M492.8,266.2c1.6,0,2.5-0.7,2.5-2.2c0-1.5-1-2.1-2.7-2.1
		h-2.3v4.2H492.8z"/>
	<path d="M498.3,265.2c0-1.5,1-2.3,2.6-2.4l2.3-0.3v-0.9c0-1.3-0.6-1.6-2.1-1.6c-0.8,0-1.5,0.1-2,0.3v-0.9c0.7-0.3,1.5-0.5,2.5-0.5
		c1.9,0,2.9,0.8,2.9,2.5v6.1h-1.1l-0.1-0.7h-0.1c-0.4,0.5-1.1,0.9-2.2,0.9C499.4,267.5,498.3,266.7,498.3,265.2z M503.1,265.9v-2.5
		l-1.9,0.2c-1,0.1-1.5,0.5-1.5,1.5c0,0.9,0.6,1.4,1.6,1.4C502,266.5,502.7,266.2,503.1,265.9z"/>
	<path d="M506.8,258.9h1.2v0.7h0.1c0.8-0.5,1.9-0.9,2.9-0.9c1.6,0,2.4,0.7,2.4,2.3v6.3h-1.3v-6c0-1-0.4-1.4-1.7-1.4
		c-0.8,0-1.7,0.3-2.4,0.6v6.9h-1.3V258.9z"/>
	<path d="M515.4,265.2c0-1.5,1-2.3,2.6-2.4l2.3-0.3v-0.9c0-1.3-0.6-1.6-2.1-1.6c-0.8,0-1.5,0.1-2,0.3v-0.9c0.7-0.3,1.5-0.5,2.5-0.5
		c1.9,0,2.9,0.8,2.9,2.5v6.1h-1.1l-0.1-0.7h-0.1c-0.4,0.5-1.1,0.9-2.2,0.9C516.5,267.5,515.4,266.7,515.4,265.2z M520.2,265.9v-2.5
		l-1.9,0.2c-1,0.1-1.5,0.5-1.5,1.5c0,0.9,0.6,1.4,1.6,1.4C519.1,266.5,519.9,266.2,520.2,265.9z"/>
	<path d="M524,258.9h1.2v0.7h0.1c0.8-0.5,1.9-0.9,2.9-0.9c1.6,0,2.4,0.7,2.4,2.3v6.3h-1.3v-6c0-1-0.4-1.4-1.7-1.4
		c-0.8,0-1.7,0.3-2.4,0.6v6.9H524V258.9z"/>
	<path d="M532.5,265.2c0-1.5,1-2.3,2.6-2.4l2.3-0.3v-0.9c0-1.3-0.6-1.6-2.1-1.6c-0.8,0-1.5,0.1-2,0.3v-0.9c0.7-0.3,1.5-0.5,2.5-0.5
		c1.9,0,2.9,0.8,2.9,2.5v6.1h-1.1l-0.1-0.7h-0.1c-0.4,0.5-1.1,0.9-2.2,0.9C533.6,267.5,532.5,266.7,532.5,265.2z M537.4,265.9v-2.5
		l-1.9,0.2c-1,0.1-1.5,0.5-1.5,1.5c0,0.9,0.6,1.4,1.6,1.4C536.3,266.5,537,266.2,537.4,265.9z"/>
</g>
<g>
	<path d="M577.4,267.1V266c0.5,0.2,1.2,0.3,2,0.3c1.3,0,1.8-0.7,1.8-1.9V256h1.4v8.5c0,1.7-0.9,3-3.1,3
		C578.6,267.5,578,267.3,577.4,267.1z"/>
	<path d="M584.7,263.3V263c0-2.9,1.7-4.2,3.7-4.2c2.3,0,3.4,1.3,3.4,4v0.7H586c0.1,2.1,1.1,2.9,2.9,2.9c1.1,0,1.9-0.3,2.6-0.6v1
		c-0.5,0.4-1.5,0.8-2.8,0.8C586,267.5,584.7,265.9,584.7,263.3z M586,262.4h4.4c0-1.8-0.7-2.6-2.1-2.6
		C587.2,259.8,586.1,260.4,586,262.4z"/>
	<path d="M593.7,255.2h1.3v12.2h-1.3V255.2z"/>
	<path d="M597.6,255.2h1.3v12.2h-1.3V255.2z"/>
	<path d="M601,269.7v-1c0.2,0,0.5,0.1,0.8,0.1c0.8,0,1.3-0.1,1.7-1.1l0.3-0.7l-3.2-8.1h1.4l2.5,6.4h0l2.3-6.4h1.3l-3.3,9
		c-0.6,1.5-1.3,2-2.7,2C601.7,269.9,601.2,269.8,601,269.7z"/>
</g>
<g>
	<path d="M81.3,285.8c0,2-1.7,3.3-3.8,3.3c-2.1,0-3.9-1.3-3.9-3.3c0-2,1.7-3.4,3.9-3.4C79.6,282.5,81.3,283.8,81.3,285.8z
		 M74.9,285.8c0,1.3,1.1,2.2,2.6,2.2c1.5,0,2.6-0.9,2.6-2.2c0-1.3-1-2.2-2.6-2.2C76,283.6,74.9,284.5,74.9,285.8z M75.8,296.7v-3.8
		h8.3v-1.5h-8.4v-1.1h9.7v3.6H77v1.7h8.9v1.1H75.8z M84.1,289.5V282h1.3v7.5H84.1z"/>
</g>
<g>
	<path d="M153.5,282.9h6.5v1.1h-2.6v0.4c0,2.3,1.7,3.6,3.1,4.1l-0.7,1c-1.1-0.5-2.5-1.7-2.9-2.8c-0.4,1.2-1.7,2.5-3,3.3l-0.8-1
		c1.6-0.8,3.1-2.4,3.1-4.6V284h-2.7V282.9z M155.9,296.8v-3.6h8.4v-1.5h-8.5v-1.1h9.8v3.5h-8.4v1.6h9v1.1H155.9z M161.6,289.7v-3.5
		h-2.3v-1.1h2.3v-2.8h1.3v7.4H161.6z M164.3,289.8V282h1.3v7.8H164.3z"/>
	<path d="M177.5,292.8c-1.5,0.2-4.1,0.5-7.4,0.5h-1.5v-5.7h5.6v-3.1h-5.7v-1.1h7v5.3h-5.6v3.6h0.4c2.4,0,5.3-0.1,7.1-0.5
		L177.5,292.8z M180,282v14.9h-1.3V282H180z"/>
</g>
<g>
	<path d="M248.2,293.1v-9.4h1.1v3.7h1.1v-3.8h1.1v9.4H248.2z M250.4,288.6h-1.1v3.5h1.1V288.6z M252.4,293.1v-9.4h1.1v3.8h1.2v-3.8
		h1.1v9.4H252.4z M254.7,288.6h-1.2v3.5h1.2V288.6z M259.3,296.9v-7.8h-1.3v7h-1.2v-13.7h1.2v5.6h1.3v-6h1.2v14.9H259.3z"/>
	<path d="M262.9,293.1v-9.4h1.1v3.7h1.1v-3.8h1.1v9.4H262.9z M265.2,288.6H264v3.5h1.1V288.6z M267.1,293.1v-9.4h1.1v3.8h1.2v-3.8
		h1.1v9.4H267.1z M269.4,288.6h-1.2v3.5h1.2V288.6z M274.1,296.9v-7.8h-1.3v7h-1.2v-13.7h1.2v5.6h1.3v-6h1.2v14.9H274.1z"/>
	<path d="M277.3,295v-1.1h6v-2.5h-4.4v-4.6h8.8v-2.4h-8.8v-1.1H289v4.5h-8.8v2.5h9.2v1.1h-4.8v2.5h6.1v1.1H277.3z"/>
</g>
<g>
	<path d="M328.9,293.1v-9.4h1.1v3.7h1.1v-3.8h1.1v9.4H328.9z M331.2,288.6H330v3.5h1.1V288.6z M333.2,293.1v-9.4h1.1v3.8h1.2v-3.8
		h1.1v9.4H333.2z M335.5,288.6h-1.2v3.5h1.2V288.6z M340.1,296.9v-7.8h-1.3v7h-1.2v-13.7h1.2v5.6h1.3v-6h1.2v14.9H340.1z"/>
	<path d="M343.7,293.1v-9.4h1.1v3.7h1.1v-3.8h1.1v9.4H343.7z M345.9,288.6h-1.1v3.5h1.1V288.6z M347.9,293.1v-9.4h1.1v3.8h1.2v-3.8
		h1.1v9.4H347.9z M350.2,288.6H349v3.5h1.2V288.6z M354.8,296.9v-7.8h-1.3v7h-1.2v-13.7h1.2v5.6h1.3v-6h1.2v14.9H354.8z"/>
	<path d="M358,295v-1.1h6v-2.5h-4.4v-4.6h8.8v-2.4h-8.8v-1.1h10.1v4.5H361v2.5h9.2v1.1h-4.8v2.5h6.1v1.1H358z"/>
</g>
<g>
	<path d="M402.5,293.2v-9.9h1.3v3.8h4.4v-3.8h1.3v9.9H402.5z M408.2,288.1h-4.4v4h4.4V288.1z M413.5,289v7.9h-1.3V282h1.3v5.9h2.4
		v1.1H413.5z"/>
	<path d="M425.8,292.4c-1.8,0.4-5.4,0.7-7.6,0.7h-0.9v-9.6h1.3v8.5c2.5,0,5.5-0.2,7.1-0.6L425.8,292.4z M428.2,287.9h2.4v1.1h-2.4
		v7.9h-1.3V282h1.3V287.9z"/>
	<path d="M440.6,292.4c-1.8,0.4-5.4,0.7-7.6,0.7H432v-9.6h1.3v8.5c2.5,0,5.5-0.2,7.1-0.6L440.6,292.4z M442.9,287.9h2.4v1.1h-2.4
		v7.9h-1.3V282h1.3V287.9z"/>
	<path d="M446.6,289.8V283h1.2v2.5h1.5V283h1.2v6.8H446.6z M449.3,286.6h-1.5v2.2h1.5V286.6z M453.1,296.8c-3.2,0-4.9-1.1-4.9-2.8
		c0-1.7,1.7-2.8,4.9-2.8c3.2,0,4.9,1.2,4.9,2.8C458,295.6,456.3,296.8,453.1,296.8z M453.1,292.2c-2.2,0-3.6,0.7-3.6,1.8
		c0,1.1,1.3,1.8,3.6,1.8c2.2,0,3.6-0.7,3.6-1.8C456.7,292.9,455.3,292.2,453.1,292.2z M451.5,289.8V283h1.2v2.5h1.5V283h1.2v6.8
		H451.5z M454.2,286.5h-1.5v2.2h1.5V286.5z M458,287v3.9h-1.3V282h1.3v3.9h2v1.1H458z"/>
</g>
<g>
	<path d="M60.6,39.9c-0.1-0.6-0.2-1.2-0.3-1.7h2.1L62.1,34l2.1-0.3c0.1,1.5,0.1,2.9,0.2,4.4l1.9-0.1l0.2-4.3l2,0.2
		c-0.1,1.3-0.3,2.6-0.4,4c0.8-0.1,1.6-0.2,2.1-0.3l0.2,1.6C68.3,39.7,64,39.9,60.6,39.9z M60.9,33.1v-1.7h8.9v1.7H60.9z M62.8,45.6
		v-5h2.1v3.3h8.7v1.7H62.8z M73.2,34.5h2.3v1.7h-2.3v5.4h-2.1V30h2.1V34.5z"/>
	<path d="M76.3,43.8v-1.7h3.2v-4.9h2.1v4.9h1.7v-4.9h2.1v4.9h5.3v1.7H76.3z M88.5,40.4l-2-0.3c0.5-1.8,0.6-4.4,0.6-6.7H78v-1.7h11.2
		C89.2,35.7,89,38.2,88.5,40.4z"/>
	<path d="M92.5,31h8.5v1.7h-3.1c0.1,2.3,1.8,3.8,3.6,4.4l-1.2,1.7c-1.2-0.5-2.8-1.7-3.5-3.2c-0.5,1.6-2.2,3.1-3.7,3.6l-1.2-1.7
		c2.2-0.8,3.8-2.5,3.9-4.9h-3.2V31z M94.6,45.9v-5.9h10.7v5.9H94.6z M103.1,41.6h-6.5v2.7h6.5V41.6z M103.1,39.2v-3.6h-2.4v-1.7h2.4
		V30h2.1v9.1H103.1z"/>
</g>
<g>
	<path d="M172.1,353.3L171,354l-0.3-0.6l1.1-0.6l-1.1-0.6l0.3-0.6l1.1,0.7l0-1.3h0.7l0,1.3l1.1-0.7l0.3,0.6l-1.1,0.6l1.1,0.6
		l-0.3,0.6l-1.1-0.7l0,1.3h-0.7L172.1,353.3z"/>
</g>
<g>
	<path d="M178,360.3v-3.6c-1,0-1.9,0.1-2.8,0.1l-0.1-0.8c1.2,0,2.4,0,3.5,0c1.3,0,2.6-0.1,3.7-0.2l0,0.7c-0.8,0.1-2.1,0.2-3.3,0.3
		v3.6H178z M178.5,355.1c-1.6,0-2.8-0.9-2.8-2.2c0-1.3,1.1-2.3,2.8-2.3c1.6,0,2.7,0.9,2.7,2.3C181.3,354.2,180.1,355.1,178.5,355.1z
		 M178.5,351.4c-1.1,0-1.9,0.5-1.9,1.5c0,0.9,0.8,1.5,1.9,1.5c1,0,1.9-0.5,1.9-1.5C180.4,351.9,179.6,351.4,178.5,351.4z
		 M182.9,360.6v-10.5h0.9v10.5H182.9z"/>
</g>
<g>
	<path d="M194.5,358.1c-0.9-0.6-2.2-1.9-2.6-3.2c-0.4,1.3-1.5,2.6-2.7,3.5l-0.6-0.7c1.5-1,2.8-2.9,2.8-4.7V351h0.9v1.9
		c0,1.9,1.3,3.6,2.7,4.5L194.5,358.1z M196.4,360.6v-10.5h0.9v10.5H196.4z"/>
	<path d="M204.2,351c-0.1,2.9-2.1,4.9-4.7,5.7L199,356c2.3-0.6,3.9-2.2,4.2-4.2h-3.8V351H204.2z M200.5,360.3v-3.2h0.9v2.5h6v0.8
		H200.5z M207.1,354.2v3.8h-0.9v-7.8h0.9v3.3h1.6v0.8H207.1z"/>
	<path d="M209.4,359.3v-0.8h2.6v-2.2h0.9v2.2h2.5v-2.2h0.9v2.2h2.6v0.8H209.4z M210.3,351.8V351h7.6v0.8H210.3z M210.3,355.7V355
		h1.6l-0.3-2.5l0.9-0.1l0.2,2.6h2.6l0.3-2.6l0.9,0.1l-0.4,2.5h1.6v0.8H210.3z"/>
	<path d="M219.8,356.3v-0.8h9.5v0.8H219.8z M221,360.4v-3.1h0.9v2.3h6.3v0.8H221z M221.1,354.2v-3.7h0.9v2.9h6.2v0.8H221.1z"/>
</g>
<g>
	<path d="M239,352.8c0,1.4-1.2,2.3-2.7,2.3c-1.5,0-2.7-0.9-2.7-2.3c0-1.4,1.2-2.4,2.7-2.4C237.8,350.4,239,351.4,239,352.8z
		 M234.4,352.8c0,0.9,0.8,1.6,1.8,1.6c1.1,0,1.8-0.6,1.8-1.5c0-0.9-0.7-1.6-1.8-1.6C235.2,351.2,234.4,351.9,234.4,352.8z
		 M235,360.5v-2.7h5.9v-1.1H235V356h6.8v2.5H236v1.2h6.3v0.7H235z M240.9,355.4v-5.3h0.9v5.3H240.9z"/>
	<path d="M247.9,360.6v-3.5h-4.3v-0.8h9.5v0.8h-4.3v3.5H247.9z M244.8,355.1v-4.6h0.9v1.5h5.3v-1.5h0.9v4.6H244.8z M251.1,352.8
		h-5.3v1.6h5.3V352.8z"/>
</g>
<g>
	<path d="M257.6,356.1v-5.3h0.9v1.9h2.8v-1.9h0.9v5.3H257.6z M261.3,353.5h-2.8v1.9h2.8V353.5z M259,360.3v-3.2h0.9v2.4h6.1v0.8H259
		z M265.7,357.9h-0.9V355h-2v-0.8h2v-1.6h-2v-0.8h2v-1.8h0.9V357.9z"/>
	<path d="M268.1,356.6l-0.5-0.8c2.2-0.6,3.9-2.3,4.2-4.1h-3.8v-0.8h4.8C272.8,353.6,270.9,355.6,268.1,356.6z M272.6,360.6
		c-2.3,0-3.6-0.8-3.6-2c0-1.2,1.3-2,3.6-2c2.3,0,3.6,0.8,3.6,2C276.2,359.8,274.9,360.6,272.6,360.6z M270,358.6
		c0,0.8,1,1.2,2.6,1.2s2.6-0.5,2.6-1.2c0-0.8-1-1.2-2.6-1.2S270,357.8,270,358.6z M272.9,354.2h2.3v-1.4H273V352h2.1v-1.9h0.9v6.6
		h-0.9V355h-2.3V354.2z"/>
	<path d="M281,350.9c1.7,0,2.7,1.5,2.7,3.7s-1,3.7-2.7,3.7c-1.7,0-2.7-1.5-2.7-3.7C278.3,352.4,279.2,350.9,281,350.9z M281,351.7
		c-1.1,0-1.8,1.2-1.8,2.9c0,1.7,0.7,2.9,1.8,2.9c1.1,0,1.8-1.2,1.8-2.9C282.8,352.9,282.1,351.7,281,351.7z M285.6,360.6v-10.5h0.9
		v10.5H285.6z"/>
</g>
<g>
	<path d="M295,355.5c-1.2,0.1-2.7,0.1-3.4,0.1l-0.1-0.8c0.8,0,1.9,0,3,0v-1h-2.1v-3.1h5.1v0.7h-4.2v1.6h4.3v0.8h-2.2v1
		c1.1,0,2.3-0.1,3-0.2l0.1,0.7C297.5,355.3,296.2,355.4,295,355.5z M293.1,360.5V358h6v-1h-6v-0.7h6.9v2.4h-6v1.1h6.4v0.7H293.1z
		 M299.1,355.8v-5.6h0.9v5.6H299.1z"/>
</g>
<g>
	<path d="M309.2,360.6v-3.8h-4.3V356h9.5v0.8h-4.3v3.8H309.2z M313.5,354.9c-1.6-0.3-3.3-1.3-3.9-2.5c-0.5,1.2-2.3,2.2-3.9,2.6
		l-0.4-0.8c2-0.3,3.9-1.6,3.9-3v-0.7h1v0.7c0,1.4,2,2.8,3.9,3L313.5,354.9z"/>
</g>
<g>
	<path d="M324.1,353.2c0,1.5-1.2,2.5-2.7,2.5s-2.7-1-2.7-2.5s1.2-2.5,2.7-2.5S324.1,351.7,324.1,353.2z M322.9,359.8
		c-0.5-0.3-1.1-0.8-1.3-1.4c-0.3,0.8-1.2,1.8-2.1,2.2l-0.6-0.6c1.1-0.5,2.1-1.6,2.1-2.9v-0.5h0.9v0.4c0,1.1,0.7,1.8,1.5,2.2
		L322.9,359.8z M319.5,353.2c0,1,0.8,1.8,1.8,1.8c1.1,0,1.8-0.7,1.8-1.7c0-1-0.7-1.8-1.8-1.8C320.3,351.4,319.5,352.2,319.5,353.2z
		 M327.4,360.6c-0.7-0.3-1.7-1.3-1.9-2c-0.3,0.8-1.1,1.7-2,2.2l-0.6-0.6c1.1-0.6,2.1-1.7,2.1-3v-0.6h0.9v0.6c0,1.3,1,2.4,2,2.8
		L327.4,360.6L327.4,360.6z M326,356.2v-6.1h0.9v6.1H326z"/>
	<path d="M328.8,359.2v-0.8h9.5v0.8H328.8z M333.5,356.3c-2.3,0-3.8-1-3.8-2.7c0-1.6,1.5-2.7,3.8-2.7c2.3,0,3.8,1.1,3.8,2.7
		C337.3,355.3,335.8,356.3,333.5,356.3z M333.5,351.8c-1.7,0-2.9,0.8-2.9,1.9c0,1.1,1.2,1.9,2.9,1.9c1.8,0,2.9-0.7,2.9-1.9
		C336.4,352.6,335.3,351.8,333.5,351.8z"/>
	<path d="M345.8,357.5c-1.2,0.3-3.9,0.5-5.6,0.5h-0.5v-6.8h0.9v6c1.3,0,3.8-0.2,5-0.5L345.8,357.5z M347.6,360.6h-0.9v-10.5h0.9
		V360.6z"/>
</g>
<g>
	<path d="M352.9,351h5.7v0.8h-2.4c0,0.2,0,0.4,0,0.6c0.1,1.4,1.4,2.6,2.7,3l-0.5,0.7c-1.1-0.4-2.2-1.4-2.7-2.4
		c-0.3,1-1.5,2.2-2.7,2.7l-0.5-0.7c1.3-0.5,2.7-1.8,2.7-3.3c0-0.1,0-0.4,0-0.6h-2.4V351z M357.8,360.6c-2.2,0-3.5-0.8-3.5-2
		c0-1.2,1.3-2,3.5-2c2.3,0,3.5,0.8,3.5,2C361.3,359.8,360,360.6,357.8,360.6z M355.2,358.6c0,0.8,1,1.2,2.6,1.2
		c1.6,0,2.6-0.4,2.6-1.2c0-0.8-0.9-1.2-2.6-1.2C356.2,357.4,355.2,357.8,355.2,358.6z M358.2,353.6v-0.8h2.1v-2.7h0.9v6.5h-0.9v-3
		H358.2z"/>
	<path d="M366.3,356.9c-1.2,0.1-2.6,0.1-3.4,0.1l-0.1-0.8c0.8,0,1.8,0,2.9-0.1v-0.7c-1.1-0.1-1.9-0.5-1.9-1.4c0-1,1.1-1.4,2.4-1.4
		s2.4,0.4,2.4,1.4c0,0.9-0.9,1.3-2,1.4v0.7c1.1,0,2.2-0.1,2.9-0.2l0.1,0.7C368.8,356.7,367.6,356.8,366.3,356.9z M363.2,352.3v-0.7
		h6v0.7H363.2z M371.1,357.6v3h-0.9v-2.3h-5.9v-0.8H371.1z M366.2,353.4c-0.9,0-1.6,0.2-1.6,0.7c0,0.5,0.7,0.7,1.6,0.7
		c0.9,0,1.6-0.2,1.6-0.7C367.8,353.6,367.1,353.4,366.2,353.4z M364.8,351v-0.8h2.9v0.8H364.8z M371.1,354.4v2.7h-0.9v-7h0.9v3.5
		h1.6v0.8H371.1z"/>
	<path d="M373.4,352.8v-0.8h6.1v0.8H373.4z M376.4,357.1c-1.4,0-2.5-0.7-2.5-1.8c0-1.1,1.1-1.8,2.5-1.8c1.4,0,2.5,0.7,2.5,1.8
		C378.9,356.3,377.8,357.1,376.4,357.1z M376.4,354.1c-0.8,0-1.6,0.4-1.6,1.1c0,0.7,0.8,1.1,1.6,1.1c0.9,0,1.6-0.4,1.6-1.1
		C378,354.5,377.3,354.1,376.4,354.1z M374.9,351.3v-0.8h3v0.8H374.9z M374.9,360.3v-2.7h0.9v1.9h6.1v0.8H374.9z M381.5,354.4v3.4
		h-0.9v-7.7h0.9v3.5h1.6v0.8H381.5z"/>
</g>
<g>
	<path d="M386.9,359.2v-0.8h9.5v0.8H386.9z M395.5,356.3c-1.8-0.5-3.5-2-3.9-3.1c-0.4,1.1-2,2.6-3.9,3.1l-0.5-0.8
		c1.7-0.3,3.9-2,3.9-3.7V351h0.9v0.8c0,1.7,2.3,3.3,3.9,3.7L395.5,356.3z"/>
	<path d="M397.8,358.5l-0.6-0.7c1.6-0.9,2.6-2,3.1-3.3l-2.8,0.3l-0.2-0.8l3.3-0.2c0.2-0.6,0.2-1.1,0.3-1.7h-3.1v-0.8h4.1
		C401.8,354.5,400.5,356.8,397.8,358.5z M403.2,360.1V355h-1.6v-0.8h1.6v-3.8h0.9v9.7H403.2z M405.2,360.6v-10.5h0.9v10.5H405.2z"/>
	<path d="M408.8,360.5v-2.4h6.3v-0.9h-6.3v-0.7h3.1v-1h-4.3v-0.7h9.5v0.7h-4.3v1h3.1v2.3h-6.3v0.9h6.6v0.8H408.8z M416.2,354.1
		c-1.7-0.3-3.3-1.1-3.8-2c-0.4,0.9-2.1,1.8-3.8,2l-0.4-0.7c1.6-0.1,3.4-0.8,3.7-2h-3.3v-0.8h7.7v0.8h-3.3c0.3,1.2,2.2,1.9,3.7,2
		L416.2,354.1z"/>
	<path d="M418,356.3v-0.8h9.5v0.8H418z M422.8,354.6c-2.3,0-3.6-0.7-3.6-2.1c0-1.3,1.4-2.1,3.6-2.1c2.3,0,3.6,0.7,3.6,2.1
		C426.4,353.8,425.1,354.6,422.8,354.6z M419.3,360.3v-3.1h0.9v2.3h6.2v0.8H419.3z M420,352.5c0,0.9,1.1,1.3,2.7,1.3
		c1.7,0,2.8-0.4,2.8-1.3c0-0.9-1.1-1.3-2.7-1.3C421.1,351.2,420,351.6,420,352.5z"/>
</g>
<g>
	<path d="M435.9,352.6h1.5v-2.3h0.9v9.8h-0.9v-3.4h-1.5c-0.4,1-1,1.6-2,1.6c-1.5,0-2.3-1.5-2.3-3.7c0-2.1,0.8-3.6,2.3-3.6
		C434.9,351,435.6,351.6,435.9,352.6z M433.9,351.8c-0.9,0-1.4,1.1-1.4,2.9c0,1.8,0.5,2.9,1.4,2.9c0.9,0,1.4-1.1,1.4-2.9
		C435.3,352.9,434.8,351.8,433.9,351.8z M436.1,353.4c0.1,0.4,0.1,0.8,0.1,1.2c0,0.5,0,0.9-0.1,1.3h1.3v-2.5H436.1z M439.5,360.6
		v-10.5h0.9v10.5H439.5z"/>
	<path d="M447.4,353.2c0,1.5-1.2,2.5-2.7,2.5c-1.5,0-2.7-0.9-2.7-2.5c0-1.5,1.2-2.5,2.7-2.5C446.2,350.7,447.4,351.7,447.4,353.2z
		 M442.9,353.2c0,1,0.8,1.8,1.8,1.8c1.1,0,1.8-0.7,1.8-1.7c0-1-0.7-1.8-1.8-1.8C443.7,351.4,442.9,352.2,442.9,353.2z M449,360.6v-3
		h-5.8v-0.8h6.8v3.8H449z M451.6,354.8H450v1.5H449v-6.2h0.9v1.6h1.6v0.8H450v1.5h1.6V354.8z"/>
	<path d="M458.1,358.1c-0.9-0.6-2.2-1.9-2.6-3.2c-0.4,1.3-1.5,2.6-2.7,3.5l-0.6-0.7c1.5-1,2.8-2.9,2.8-4.7V351h0.9v1.9
		c0,1.9,1.3,3.6,2.7,4.5L458.1,358.1z M460,360.6v-10.5h0.9v10.5H460z"/>
</g>
<g>
	<path d="M469.1,356.9c-1.2,0.1-2.6,0.1-3.4,0.1l-0.1-0.8c0.8,0,1.8,0,2.9-0.1v-0.7c-1.1-0.1-1.9-0.5-1.9-1.4c0-1,1.1-1.4,2.4-1.4
		c1.3,0,2.4,0.4,2.4,1.4c0,0.9-0.9,1.3-2,1.4v0.7c1.1,0,2.2-0.1,2.9-0.2l0.1,0.7C471.6,356.7,470.3,356.8,469.1,356.9z M466,352.3
		v-0.7h6v0.7H466z M473.9,357.6v3h-0.9v-2.3H467v-0.8H473.9z M469,353.4c-0.9,0-1.6,0.2-1.6,0.7c0,0.5,0.7,0.7,1.6,0.7
		c0.9,0,1.6-0.2,1.6-0.7C470.5,353.6,469.8,353.4,469,353.4z M467.5,351v-0.8h2.9v0.8H467.5z M473.9,354.4v2.7h-0.9v-7h0.9v3.5h1.6
		v0.8H473.9z"/>
	<path d="M482,353.4c0,1.6-1.2,2.6-2.8,2.6c-1.6,0-2.8-1-2.8-2.6c0-1.6,1.2-2.6,2.8-2.6C480.8,350.8,482,351.9,482,353.4z
		 M477.3,353.4c0,1.1,0.9,1.8,2,1.8c1.2,0,2-0.7,2-1.8c0-1.1-0.8-1.8-2-1.8C478.1,351.6,477.3,352.4,477.3,353.4z M477.9,360.3V357
		h0.9v2.5h6.2v0.8H477.9z M483.8,357.8v-7.7h0.9v7.7H483.8z"/>
	<path d="M486.5,353.4v-0.8h5.2v0.8H486.5z M489.2,358.2c-1.3,0-2.3-0.9-2.3-2.1c0-1.3,0.9-2.1,2.3-2.1c1.4,0,2.3,0.8,2.3,2.1
		C491.5,357.4,490.6,358.2,489.2,358.2z M487.7,351.7v-0.8h2.9v0.8H487.7z M489.2,354.8c-0.8,0-1.4,0.5-1.4,1.3
		c0,0.8,0.6,1.3,1.4,1.3c0.8,0,1.4-0.5,1.4-1.3C490.7,355.3,490.1,354.8,489.2,354.8z M494.5,360.6v-5.4h-1.3v4.9h-0.9v-9.7h0.9v4
		h1.3v-4.3h0.9v10.5H494.5z"/>
</g>
<g>
	<path d="M504.3,360.6v-3.8H500v-0.8h9.5v0.8h-4.3v3.8H504.3z M508.6,355.1c-1.7-0.3-3.4-1.4-3.9-2.3c-0.4,1-2.1,2.1-3.8,2.4
		l-0.4-0.8c1.7-0.2,3.7-1.3,3.8-2.7h-3.4v-0.8h7.7v0.8h-3.4c0,1.5,2.2,2.5,3.8,2.7L508.6,355.1z"/>
	<path d="M515.1,358c-0.8-0.6-1.9-1.8-2.2-3c-0.2,1.2-1.1,2.6-2.1,3.3l-0.6-0.7c1.2-0.8,2.2-2.5,2.2-4.6v-1.9h0.9v1.9
		c0,2,1.2,3.6,2.4,4.3L515.1,358z M516.3,360.1v-5.4h-1.9v-0.8h1.9v-3.5h0.9v9.7H516.3z M518.4,360.6v-10.5h0.9v10.5H518.4z"/>
	<path d="M520.8,359.3v-0.8h2.3v-2l0.9,0v2h2.9v-2l0.9,0v2h2.4v0.8H520.8z M525.5,356.2c-2.3,0-3.8-1.1-3.8-2.7s1.5-2.7,3.8-2.7
		c2.3,0,3.8,1.1,3.8,2.7S527.8,356.2,525.5,356.2z M525.5,351.6c-1.7,0-2.9,0.8-2.9,2s1.2,2,2.9,2c1.8,0,2.9-0.8,2.9-2
		S527.3,351.6,525.5,351.6z"/>
</g>
</svg>
